G04 EAGLE Gerber RS-274X export*
G75*
%MOMM*%
%FSLAX34Y34*%
%LPD*%
%INBoard Outline*%
%IPPOS*%
%AMOC8*
5,1,8,0,0,1.08239X$1,22.5*%
G01*
%ADD10C,0.000000*%


D10*
X0Y0D02*
X549910Y0D01*
X673354Y0D02*
X1223010Y0D01*
X1223010Y1220470D01*
X673354Y1220470D01*
X272542Y228092D02*
X272547Y228522D01*
X272563Y228952D01*
X272589Y229381D01*
X272626Y229810D01*
X272674Y230237D01*
X272732Y230664D01*
X272800Y231088D01*
X272879Y231511D01*
X272968Y231932D01*
X273067Y232350D01*
X273177Y232766D01*
X273297Y233180D01*
X273427Y233590D01*
X273566Y233996D01*
X273716Y234400D01*
X273876Y234799D01*
X274046Y235194D01*
X274225Y235585D01*
X274413Y235972D01*
X274611Y236354D01*
X274819Y236731D01*
X275035Y237102D01*
X275261Y237468D01*
X275496Y237829D01*
X275739Y238184D01*
X275991Y238532D01*
X276251Y238875D01*
X276520Y239210D01*
X276797Y239540D01*
X277082Y239862D01*
X277375Y240177D01*
X277675Y240485D01*
X277983Y240785D01*
X278298Y241078D01*
X278620Y241363D01*
X278950Y241640D01*
X279285Y241909D01*
X279628Y242169D01*
X279976Y242421D01*
X280331Y242664D01*
X280692Y242899D01*
X281058Y243125D01*
X281429Y243341D01*
X281806Y243549D01*
X282188Y243747D01*
X282575Y243935D01*
X282966Y244114D01*
X283361Y244284D01*
X283760Y244444D01*
X284164Y244594D01*
X284570Y244733D01*
X284980Y244863D01*
X285394Y244983D01*
X285810Y245093D01*
X286228Y245192D01*
X286649Y245281D01*
X287072Y245360D01*
X287496Y245428D01*
X287923Y245486D01*
X288350Y245534D01*
X288779Y245571D01*
X289208Y245597D01*
X289638Y245613D01*
X290068Y245618D01*
X290498Y245613D01*
X290928Y245597D01*
X291357Y245571D01*
X291786Y245534D01*
X292213Y245486D01*
X292640Y245428D01*
X293064Y245360D01*
X293487Y245281D01*
X293908Y245192D01*
X294326Y245093D01*
X294742Y244983D01*
X295156Y244863D01*
X295566Y244733D01*
X295972Y244594D01*
X296376Y244444D01*
X296775Y244284D01*
X297170Y244114D01*
X297561Y243935D01*
X297948Y243747D01*
X298330Y243549D01*
X298707Y243341D01*
X299078Y243125D01*
X299444Y242899D01*
X299805Y242664D01*
X300160Y242421D01*
X300508Y242169D01*
X300851Y241909D01*
X301186Y241640D01*
X301516Y241363D01*
X301838Y241078D01*
X302153Y240785D01*
X302461Y240485D01*
X302761Y240177D01*
X303054Y239862D01*
X303339Y239540D01*
X303616Y239210D01*
X303885Y238875D01*
X304145Y238532D01*
X304397Y238184D01*
X304640Y237829D01*
X304875Y237468D01*
X305101Y237102D01*
X305317Y236731D01*
X305525Y236354D01*
X305723Y235972D01*
X305911Y235585D01*
X306090Y235194D01*
X306260Y234799D01*
X306420Y234400D01*
X306570Y233996D01*
X306709Y233590D01*
X306839Y233180D01*
X306959Y232766D01*
X307069Y232350D01*
X307168Y231932D01*
X307257Y231511D01*
X307336Y231088D01*
X307404Y230664D01*
X307462Y230237D01*
X307510Y229810D01*
X307547Y229381D01*
X307573Y228952D01*
X307589Y228522D01*
X307594Y228092D01*
X307589Y227662D01*
X307573Y227232D01*
X307547Y226803D01*
X307510Y226374D01*
X307462Y225947D01*
X307404Y225520D01*
X307336Y225096D01*
X307257Y224673D01*
X307168Y224252D01*
X307069Y223834D01*
X306959Y223418D01*
X306839Y223004D01*
X306709Y222594D01*
X306570Y222188D01*
X306420Y221784D01*
X306260Y221385D01*
X306090Y220990D01*
X305911Y220599D01*
X305723Y220212D01*
X305525Y219830D01*
X305317Y219453D01*
X305101Y219082D01*
X304875Y218716D01*
X304640Y218355D01*
X304397Y218000D01*
X304145Y217652D01*
X303885Y217309D01*
X303616Y216974D01*
X303339Y216644D01*
X303054Y216322D01*
X302761Y216007D01*
X302461Y215699D01*
X302153Y215399D01*
X301838Y215106D01*
X301516Y214821D01*
X301186Y214544D01*
X300851Y214275D01*
X300508Y214015D01*
X300160Y213763D01*
X299805Y213520D01*
X299444Y213285D01*
X299078Y213059D01*
X298707Y212843D01*
X298330Y212635D01*
X297948Y212437D01*
X297561Y212249D01*
X297170Y212070D01*
X296775Y211900D01*
X296376Y211740D01*
X295972Y211590D01*
X295566Y211451D01*
X295156Y211321D01*
X294742Y211201D01*
X294326Y211091D01*
X293908Y210992D01*
X293487Y210903D01*
X293064Y210824D01*
X292640Y210756D01*
X292213Y210698D01*
X291786Y210650D01*
X291357Y210613D01*
X290928Y210587D01*
X290498Y210571D01*
X290068Y210566D01*
X289638Y210571D01*
X289208Y210587D01*
X288779Y210613D01*
X288350Y210650D01*
X287923Y210698D01*
X287496Y210756D01*
X287072Y210824D01*
X286649Y210903D01*
X286228Y210992D01*
X285810Y211091D01*
X285394Y211201D01*
X284980Y211321D01*
X284570Y211451D01*
X284164Y211590D01*
X283760Y211740D01*
X283361Y211900D01*
X282966Y212070D01*
X282575Y212249D01*
X282188Y212437D01*
X281806Y212635D01*
X281429Y212843D01*
X281058Y213059D01*
X280692Y213285D01*
X280331Y213520D01*
X279976Y213763D01*
X279628Y214015D01*
X279285Y214275D01*
X278950Y214544D01*
X278620Y214821D01*
X278298Y215106D01*
X277983Y215399D01*
X277675Y215699D01*
X277375Y216007D01*
X277082Y216322D01*
X276797Y216644D01*
X276520Y216974D01*
X276251Y217309D01*
X275991Y217652D01*
X275739Y218000D01*
X275496Y218355D01*
X275261Y218716D01*
X275035Y219082D01*
X274819Y219453D01*
X274611Y219830D01*
X274413Y220212D01*
X274225Y220599D01*
X274046Y220990D01*
X273876Y221385D01*
X273716Y221784D01*
X273566Y222188D01*
X273427Y222594D01*
X273297Y223004D01*
X273177Y223418D01*
X273067Y223834D01*
X272968Y224252D01*
X272879Y224673D01*
X272800Y225096D01*
X272732Y225520D01*
X272674Y225947D01*
X272626Y226374D01*
X272589Y226803D01*
X272563Y227232D01*
X272547Y227662D01*
X272542Y228092D01*
X593852Y228092D02*
X593857Y228522D01*
X593873Y228952D01*
X593899Y229381D01*
X593936Y229810D01*
X593984Y230237D01*
X594042Y230664D01*
X594110Y231088D01*
X594189Y231511D01*
X594278Y231932D01*
X594377Y232350D01*
X594487Y232766D01*
X594607Y233180D01*
X594737Y233590D01*
X594876Y233996D01*
X595026Y234400D01*
X595186Y234799D01*
X595356Y235194D01*
X595535Y235585D01*
X595723Y235972D01*
X595921Y236354D01*
X596129Y236731D01*
X596345Y237102D01*
X596571Y237468D01*
X596806Y237829D01*
X597049Y238184D01*
X597301Y238532D01*
X597561Y238875D01*
X597830Y239210D01*
X598107Y239540D01*
X598392Y239862D01*
X598685Y240177D01*
X598985Y240485D01*
X599293Y240785D01*
X599608Y241078D01*
X599930Y241363D01*
X600260Y241640D01*
X600595Y241909D01*
X600938Y242169D01*
X601286Y242421D01*
X601641Y242664D01*
X602002Y242899D01*
X602368Y243125D01*
X602739Y243341D01*
X603116Y243549D01*
X603498Y243747D01*
X603885Y243935D01*
X604276Y244114D01*
X604671Y244284D01*
X605070Y244444D01*
X605474Y244594D01*
X605880Y244733D01*
X606290Y244863D01*
X606704Y244983D01*
X607120Y245093D01*
X607538Y245192D01*
X607959Y245281D01*
X608382Y245360D01*
X608806Y245428D01*
X609233Y245486D01*
X609660Y245534D01*
X610089Y245571D01*
X610518Y245597D01*
X610948Y245613D01*
X611378Y245618D01*
X611808Y245613D01*
X612238Y245597D01*
X612667Y245571D01*
X613096Y245534D01*
X613523Y245486D01*
X613950Y245428D01*
X614374Y245360D01*
X614797Y245281D01*
X615218Y245192D01*
X615636Y245093D01*
X616052Y244983D01*
X616466Y244863D01*
X616876Y244733D01*
X617282Y244594D01*
X617686Y244444D01*
X618085Y244284D01*
X618480Y244114D01*
X618871Y243935D01*
X619258Y243747D01*
X619640Y243549D01*
X620017Y243341D01*
X620388Y243125D01*
X620754Y242899D01*
X621115Y242664D01*
X621470Y242421D01*
X621818Y242169D01*
X622161Y241909D01*
X622496Y241640D01*
X622826Y241363D01*
X623148Y241078D01*
X623463Y240785D01*
X623771Y240485D01*
X624071Y240177D01*
X624364Y239862D01*
X624649Y239540D01*
X624926Y239210D01*
X625195Y238875D01*
X625455Y238532D01*
X625707Y238184D01*
X625950Y237829D01*
X626185Y237468D01*
X626411Y237102D01*
X626627Y236731D01*
X626835Y236354D01*
X627033Y235972D01*
X627221Y235585D01*
X627400Y235194D01*
X627570Y234799D01*
X627730Y234400D01*
X627880Y233996D01*
X628019Y233590D01*
X628149Y233180D01*
X628269Y232766D01*
X628379Y232350D01*
X628478Y231932D01*
X628567Y231511D01*
X628646Y231088D01*
X628714Y230664D01*
X628772Y230237D01*
X628820Y229810D01*
X628857Y229381D01*
X628883Y228952D01*
X628899Y228522D01*
X628904Y228092D01*
X628899Y227662D01*
X628883Y227232D01*
X628857Y226803D01*
X628820Y226374D01*
X628772Y225947D01*
X628714Y225520D01*
X628646Y225096D01*
X628567Y224673D01*
X628478Y224252D01*
X628379Y223834D01*
X628269Y223418D01*
X628149Y223004D01*
X628019Y222594D01*
X627880Y222188D01*
X627730Y221784D01*
X627570Y221385D01*
X627400Y220990D01*
X627221Y220599D01*
X627033Y220212D01*
X626835Y219830D01*
X626627Y219453D01*
X626411Y219082D01*
X626185Y218716D01*
X625950Y218355D01*
X625707Y218000D01*
X625455Y217652D01*
X625195Y217309D01*
X624926Y216974D01*
X624649Y216644D01*
X624364Y216322D01*
X624071Y216007D01*
X623771Y215699D01*
X623463Y215399D01*
X623148Y215106D01*
X622826Y214821D01*
X622496Y214544D01*
X622161Y214275D01*
X621818Y214015D01*
X621470Y213763D01*
X621115Y213520D01*
X620754Y213285D01*
X620388Y213059D01*
X620017Y212843D01*
X619640Y212635D01*
X619258Y212437D01*
X618871Y212249D01*
X618480Y212070D01*
X618085Y211900D01*
X617686Y211740D01*
X617282Y211590D01*
X616876Y211451D01*
X616466Y211321D01*
X616052Y211201D01*
X615636Y211091D01*
X615218Y210992D01*
X614797Y210903D01*
X614374Y210824D01*
X613950Y210756D01*
X613523Y210698D01*
X613096Y210650D01*
X612667Y210613D01*
X612238Y210587D01*
X611808Y210571D01*
X611378Y210566D01*
X610948Y210571D01*
X610518Y210587D01*
X610089Y210613D01*
X609660Y210650D01*
X609233Y210698D01*
X608806Y210756D01*
X608382Y210824D01*
X607959Y210903D01*
X607538Y210992D01*
X607120Y211091D01*
X606704Y211201D01*
X606290Y211321D01*
X605880Y211451D01*
X605474Y211590D01*
X605070Y211740D01*
X604671Y211900D01*
X604276Y212070D01*
X603885Y212249D01*
X603498Y212437D01*
X603116Y212635D01*
X602739Y212843D01*
X602368Y213059D01*
X602002Y213285D01*
X601641Y213520D01*
X601286Y213763D01*
X600938Y214015D01*
X600595Y214275D01*
X600260Y214544D01*
X599930Y214821D01*
X599608Y215106D01*
X599293Y215399D01*
X598985Y215699D01*
X598685Y216007D01*
X598392Y216322D01*
X598107Y216644D01*
X597830Y216974D01*
X597561Y217309D01*
X597301Y217652D01*
X597049Y218000D01*
X596806Y218355D01*
X596571Y218716D01*
X596345Y219082D01*
X596129Y219453D01*
X595921Y219830D01*
X595723Y220212D01*
X595535Y220599D01*
X595356Y220990D01*
X595186Y221385D01*
X595026Y221784D01*
X594876Y222188D01*
X594737Y222594D01*
X594607Y223004D01*
X594487Y223418D01*
X594377Y223834D01*
X594278Y224252D01*
X594189Y224673D01*
X594110Y225096D01*
X594042Y225520D01*
X593984Y225947D01*
X593936Y226374D01*
X593899Y226803D01*
X593873Y227232D01*
X593857Y227662D01*
X593852Y228092D01*
X915416Y228092D02*
X915421Y228522D01*
X915437Y228952D01*
X915463Y229381D01*
X915500Y229810D01*
X915548Y230237D01*
X915606Y230664D01*
X915674Y231088D01*
X915753Y231511D01*
X915842Y231932D01*
X915941Y232350D01*
X916051Y232766D01*
X916171Y233180D01*
X916301Y233590D01*
X916440Y233996D01*
X916590Y234400D01*
X916750Y234799D01*
X916920Y235194D01*
X917099Y235585D01*
X917287Y235972D01*
X917485Y236354D01*
X917693Y236731D01*
X917909Y237102D01*
X918135Y237468D01*
X918370Y237829D01*
X918613Y238184D01*
X918865Y238532D01*
X919125Y238875D01*
X919394Y239210D01*
X919671Y239540D01*
X919956Y239862D01*
X920249Y240177D01*
X920549Y240485D01*
X920857Y240785D01*
X921172Y241078D01*
X921494Y241363D01*
X921824Y241640D01*
X922159Y241909D01*
X922502Y242169D01*
X922850Y242421D01*
X923205Y242664D01*
X923566Y242899D01*
X923932Y243125D01*
X924303Y243341D01*
X924680Y243549D01*
X925062Y243747D01*
X925449Y243935D01*
X925840Y244114D01*
X926235Y244284D01*
X926634Y244444D01*
X927038Y244594D01*
X927444Y244733D01*
X927854Y244863D01*
X928268Y244983D01*
X928684Y245093D01*
X929102Y245192D01*
X929523Y245281D01*
X929946Y245360D01*
X930370Y245428D01*
X930797Y245486D01*
X931224Y245534D01*
X931653Y245571D01*
X932082Y245597D01*
X932512Y245613D01*
X932942Y245618D01*
X933372Y245613D01*
X933802Y245597D01*
X934231Y245571D01*
X934660Y245534D01*
X935087Y245486D01*
X935514Y245428D01*
X935938Y245360D01*
X936361Y245281D01*
X936782Y245192D01*
X937200Y245093D01*
X937616Y244983D01*
X938030Y244863D01*
X938440Y244733D01*
X938846Y244594D01*
X939250Y244444D01*
X939649Y244284D01*
X940044Y244114D01*
X940435Y243935D01*
X940822Y243747D01*
X941204Y243549D01*
X941581Y243341D01*
X941952Y243125D01*
X942318Y242899D01*
X942679Y242664D01*
X943034Y242421D01*
X943382Y242169D01*
X943725Y241909D01*
X944060Y241640D01*
X944390Y241363D01*
X944712Y241078D01*
X945027Y240785D01*
X945335Y240485D01*
X945635Y240177D01*
X945928Y239862D01*
X946213Y239540D01*
X946490Y239210D01*
X946759Y238875D01*
X947019Y238532D01*
X947271Y238184D01*
X947514Y237829D01*
X947749Y237468D01*
X947975Y237102D01*
X948191Y236731D01*
X948399Y236354D01*
X948597Y235972D01*
X948785Y235585D01*
X948964Y235194D01*
X949134Y234799D01*
X949294Y234400D01*
X949444Y233996D01*
X949583Y233590D01*
X949713Y233180D01*
X949833Y232766D01*
X949943Y232350D01*
X950042Y231932D01*
X950131Y231511D01*
X950210Y231088D01*
X950278Y230664D01*
X950336Y230237D01*
X950384Y229810D01*
X950421Y229381D01*
X950447Y228952D01*
X950463Y228522D01*
X950468Y228092D01*
X950463Y227662D01*
X950447Y227232D01*
X950421Y226803D01*
X950384Y226374D01*
X950336Y225947D01*
X950278Y225520D01*
X950210Y225096D01*
X950131Y224673D01*
X950042Y224252D01*
X949943Y223834D01*
X949833Y223418D01*
X949713Y223004D01*
X949583Y222594D01*
X949444Y222188D01*
X949294Y221784D01*
X949134Y221385D01*
X948964Y220990D01*
X948785Y220599D01*
X948597Y220212D01*
X948399Y219830D01*
X948191Y219453D01*
X947975Y219082D01*
X947749Y218716D01*
X947514Y218355D01*
X947271Y218000D01*
X947019Y217652D01*
X946759Y217309D01*
X946490Y216974D01*
X946213Y216644D01*
X945928Y216322D01*
X945635Y216007D01*
X945335Y215699D01*
X945027Y215399D01*
X944712Y215106D01*
X944390Y214821D01*
X944060Y214544D01*
X943725Y214275D01*
X943382Y214015D01*
X943034Y213763D01*
X942679Y213520D01*
X942318Y213285D01*
X941952Y213059D01*
X941581Y212843D01*
X941204Y212635D01*
X940822Y212437D01*
X940435Y212249D01*
X940044Y212070D01*
X939649Y211900D01*
X939250Y211740D01*
X938846Y211590D01*
X938440Y211451D01*
X938030Y211321D01*
X937616Y211201D01*
X937200Y211091D01*
X936782Y210992D01*
X936361Y210903D01*
X935938Y210824D01*
X935514Y210756D01*
X935087Y210698D01*
X934660Y210650D01*
X934231Y210613D01*
X933802Y210587D01*
X933372Y210571D01*
X932942Y210566D01*
X932512Y210571D01*
X932082Y210587D01*
X931653Y210613D01*
X931224Y210650D01*
X930797Y210698D01*
X930370Y210756D01*
X929946Y210824D01*
X929523Y210903D01*
X929102Y210992D01*
X928684Y211091D01*
X928268Y211201D01*
X927854Y211321D01*
X927444Y211451D01*
X927038Y211590D01*
X926634Y211740D01*
X926235Y211900D01*
X925840Y212070D01*
X925449Y212249D01*
X925062Y212437D01*
X924680Y212635D01*
X924303Y212843D01*
X923932Y213059D01*
X923566Y213285D01*
X923205Y213520D01*
X922850Y213763D01*
X922502Y214015D01*
X922159Y214275D01*
X921824Y214544D01*
X921494Y214821D01*
X921172Y215106D01*
X920857Y215399D01*
X920549Y215699D01*
X920249Y216007D01*
X919956Y216322D01*
X919671Y216644D01*
X919394Y216974D01*
X919125Y217309D01*
X918865Y217652D01*
X918613Y218000D01*
X918370Y218355D01*
X918135Y218716D01*
X917909Y219082D01*
X917693Y219453D01*
X917485Y219830D01*
X917287Y220212D01*
X917099Y220599D01*
X916920Y220990D01*
X916750Y221385D01*
X916590Y221784D01*
X916440Y222188D01*
X916301Y222594D01*
X916171Y223004D01*
X916051Y223418D01*
X915941Y223834D01*
X915842Y224252D01*
X915753Y224673D01*
X915674Y225096D01*
X915606Y225520D01*
X915548Y225947D01*
X915500Y226374D01*
X915463Y226803D01*
X915437Y227232D01*
X915421Y227662D01*
X915416Y228092D01*
X272542Y992124D02*
X272547Y992554D01*
X272563Y992984D01*
X272589Y993413D01*
X272626Y993842D01*
X272674Y994269D01*
X272732Y994696D01*
X272800Y995120D01*
X272879Y995543D01*
X272968Y995964D01*
X273067Y996382D01*
X273177Y996798D01*
X273297Y997212D01*
X273427Y997622D01*
X273566Y998028D01*
X273716Y998432D01*
X273876Y998831D01*
X274046Y999226D01*
X274225Y999617D01*
X274413Y1000004D01*
X274611Y1000386D01*
X274819Y1000763D01*
X275035Y1001134D01*
X275261Y1001500D01*
X275496Y1001861D01*
X275739Y1002216D01*
X275991Y1002564D01*
X276251Y1002907D01*
X276520Y1003242D01*
X276797Y1003572D01*
X277082Y1003894D01*
X277375Y1004209D01*
X277675Y1004517D01*
X277983Y1004817D01*
X278298Y1005110D01*
X278620Y1005395D01*
X278950Y1005672D01*
X279285Y1005941D01*
X279628Y1006201D01*
X279976Y1006453D01*
X280331Y1006696D01*
X280692Y1006931D01*
X281058Y1007157D01*
X281429Y1007373D01*
X281806Y1007581D01*
X282188Y1007779D01*
X282575Y1007967D01*
X282966Y1008146D01*
X283361Y1008316D01*
X283760Y1008476D01*
X284164Y1008626D01*
X284570Y1008765D01*
X284980Y1008895D01*
X285394Y1009015D01*
X285810Y1009125D01*
X286228Y1009224D01*
X286649Y1009313D01*
X287072Y1009392D01*
X287496Y1009460D01*
X287923Y1009518D01*
X288350Y1009566D01*
X288779Y1009603D01*
X289208Y1009629D01*
X289638Y1009645D01*
X290068Y1009650D01*
X290498Y1009645D01*
X290928Y1009629D01*
X291357Y1009603D01*
X291786Y1009566D01*
X292213Y1009518D01*
X292640Y1009460D01*
X293064Y1009392D01*
X293487Y1009313D01*
X293908Y1009224D01*
X294326Y1009125D01*
X294742Y1009015D01*
X295156Y1008895D01*
X295566Y1008765D01*
X295972Y1008626D01*
X296376Y1008476D01*
X296775Y1008316D01*
X297170Y1008146D01*
X297561Y1007967D01*
X297948Y1007779D01*
X298330Y1007581D01*
X298707Y1007373D01*
X299078Y1007157D01*
X299444Y1006931D01*
X299805Y1006696D01*
X300160Y1006453D01*
X300508Y1006201D01*
X300851Y1005941D01*
X301186Y1005672D01*
X301516Y1005395D01*
X301838Y1005110D01*
X302153Y1004817D01*
X302461Y1004517D01*
X302761Y1004209D01*
X303054Y1003894D01*
X303339Y1003572D01*
X303616Y1003242D01*
X303885Y1002907D01*
X304145Y1002564D01*
X304397Y1002216D01*
X304640Y1001861D01*
X304875Y1001500D01*
X305101Y1001134D01*
X305317Y1000763D01*
X305525Y1000386D01*
X305723Y1000004D01*
X305911Y999617D01*
X306090Y999226D01*
X306260Y998831D01*
X306420Y998432D01*
X306570Y998028D01*
X306709Y997622D01*
X306839Y997212D01*
X306959Y996798D01*
X307069Y996382D01*
X307168Y995964D01*
X307257Y995543D01*
X307336Y995120D01*
X307404Y994696D01*
X307462Y994269D01*
X307510Y993842D01*
X307547Y993413D01*
X307573Y992984D01*
X307589Y992554D01*
X307594Y992124D01*
X307589Y991694D01*
X307573Y991264D01*
X307547Y990835D01*
X307510Y990406D01*
X307462Y989979D01*
X307404Y989552D01*
X307336Y989128D01*
X307257Y988705D01*
X307168Y988284D01*
X307069Y987866D01*
X306959Y987450D01*
X306839Y987036D01*
X306709Y986626D01*
X306570Y986220D01*
X306420Y985816D01*
X306260Y985417D01*
X306090Y985022D01*
X305911Y984631D01*
X305723Y984244D01*
X305525Y983862D01*
X305317Y983485D01*
X305101Y983114D01*
X304875Y982748D01*
X304640Y982387D01*
X304397Y982032D01*
X304145Y981684D01*
X303885Y981341D01*
X303616Y981006D01*
X303339Y980676D01*
X303054Y980354D01*
X302761Y980039D01*
X302461Y979731D01*
X302153Y979431D01*
X301838Y979138D01*
X301516Y978853D01*
X301186Y978576D01*
X300851Y978307D01*
X300508Y978047D01*
X300160Y977795D01*
X299805Y977552D01*
X299444Y977317D01*
X299078Y977091D01*
X298707Y976875D01*
X298330Y976667D01*
X297948Y976469D01*
X297561Y976281D01*
X297170Y976102D01*
X296775Y975932D01*
X296376Y975772D01*
X295972Y975622D01*
X295566Y975483D01*
X295156Y975353D01*
X294742Y975233D01*
X294326Y975123D01*
X293908Y975024D01*
X293487Y974935D01*
X293064Y974856D01*
X292640Y974788D01*
X292213Y974730D01*
X291786Y974682D01*
X291357Y974645D01*
X290928Y974619D01*
X290498Y974603D01*
X290068Y974598D01*
X289638Y974603D01*
X289208Y974619D01*
X288779Y974645D01*
X288350Y974682D01*
X287923Y974730D01*
X287496Y974788D01*
X287072Y974856D01*
X286649Y974935D01*
X286228Y975024D01*
X285810Y975123D01*
X285394Y975233D01*
X284980Y975353D01*
X284570Y975483D01*
X284164Y975622D01*
X283760Y975772D01*
X283361Y975932D01*
X282966Y976102D01*
X282575Y976281D01*
X282188Y976469D01*
X281806Y976667D01*
X281429Y976875D01*
X281058Y977091D01*
X280692Y977317D01*
X280331Y977552D01*
X279976Y977795D01*
X279628Y978047D01*
X279285Y978307D01*
X278950Y978576D01*
X278620Y978853D01*
X278298Y979138D01*
X277983Y979431D01*
X277675Y979731D01*
X277375Y980039D01*
X277082Y980354D01*
X276797Y980676D01*
X276520Y981006D01*
X276251Y981341D01*
X275991Y981684D01*
X275739Y982032D01*
X275496Y982387D01*
X275261Y982748D01*
X275035Y983114D01*
X274819Y983485D01*
X274611Y983862D01*
X274413Y984244D01*
X274225Y984631D01*
X274046Y985022D01*
X273876Y985417D01*
X273716Y985816D01*
X273566Y986220D01*
X273427Y986626D01*
X273297Y987036D01*
X273177Y987450D01*
X273067Y987866D01*
X272968Y988284D01*
X272879Y988705D01*
X272800Y989128D01*
X272732Y989552D01*
X272674Y989979D01*
X272626Y990406D01*
X272589Y990835D01*
X272563Y991264D01*
X272547Y991694D01*
X272542Y992124D01*
X593852Y992124D02*
X593857Y992554D01*
X593873Y992984D01*
X593899Y993413D01*
X593936Y993842D01*
X593984Y994269D01*
X594042Y994696D01*
X594110Y995120D01*
X594189Y995543D01*
X594278Y995964D01*
X594377Y996382D01*
X594487Y996798D01*
X594607Y997212D01*
X594737Y997622D01*
X594876Y998028D01*
X595026Y998432D01*
X595186Y998831D01*
X595356Y999226D01*
X595535Y999617D01*
X595723Y1000004D01*
X595921Y1000386D01*
X596129Y1000763D01*
X596345Y1001134D01*
X596571Y1001500D01*
X596806Y1001861D01*
X597049Y1002216D01*
X597301Y1002564D01*
X597561Y1002907D01*
X597830Y1003242D01*
X598107Y1003572D01*
X598392Y1003894D01*
X598685Y1004209D01*
X598985Y1004517D01*
X599293Y1004817D01*
X599608Y1005110D01*
X599930Y1005395D01*
X600260Y1005672D01*
X600595Y1005941D01*
X600938Y1006201D01*
X601286Y1006453D01*
X601641Y1006696D01*
X602002Y1006931D01*
X602368Y1007157D01*
X602739Y1007373D01*
X603116Y1007581D01*
X603498Y1007779D01*
X603885Y1007967D01*
X604276Y1008146D01*
X604671Y1008316D01*
X605070Y1008476D01*
X605474Y1008626D01*
X605880Y1008765D01*
X606290Y1008895D01*
X606704Y1009015D01*
X607120Y1009125D01*
X607538Y1009224D01*
X607959Y1009313D01*
X608382Y1009392D01*
X608806Y1009460D01*
X609233Y1009518D01*
X609660Y1009566D01*
X610089Y1009603D01*
X610518Y1009629D01*
X610948Y1009645D01*
X611378Y1009650D01*
X611808Y1009645D01*
X612238Y1009629D01*
X612667Y1009603D01*
X613096Y1009566D01*
X613523Y1009518D01*
X613950Y1009460D01*
X614374Y1009392D01*
X614797Y1009313D01*
X615218Y1009224D01*
X615636Y1009125D01*
X616052Y1009015D01*
X616466Y1008895D01*
X616876Y1008765D01*
X617282Y1008626D01*
X617686Y1008476D01*
X618085Y1008316D01*
X618480Y1008146D01*
X618871Y1007967D01*
X619258Y1007779D01*
X619640Y1007581D01*
X620017Y1007373D01*
X620388Y1007157D01*
X620754Y1006931D01*
X621115Y1006696D01*
X621470Y1006453D01*
X621818Y1006201D01*
X622161Y1005941D01*
X622496Y1005672D01*
X622826Y1005395D01*
X623148Y1005110D01*
X623463Y1004817D01*
X623771Y1004517D01*
X624071Y1004209D01*
X624364Y1003894D01*
X624649Y1003572D01*
X624926Y1003242D01*
X625195Y1002907D01*
X625455Y1002564D01*
X625707Y1002216D01*
X625950Y1001861D01*
X626185Y1001500D01*
X626411Y1001134D01*
X626627Y1000763D01*
X626835Y1000386D01*
X627033Y1000004D01*
X627221Y999617D01*
X627400Y999226D01*
X627570Y998831D01*
X627730Y998432D01*
X627880Y998028D01*
X628019Y997622D01*
X628149Y997212D01*
X628269Y996798D01*
X628379Y996382D01*
X628478Y995964D01*
X628567Y995543D01*
X628646Y995120D01*
X628714Y994696D01*
X628772Y994269D01*
X628820Y993842D01*
X628857Y993413D01*
X628883Y992984D01*
X628899Y992554D01*
X628904Y992124D01*
X628899Y991694D01*
X628883Y991264D01*
X628857Y990835D01*
X628820Y990406D01*
X628772Y989979D01*
X628714Y989552D01*
X628646Y989128D01*
X628567Y988705D01*
X628478Y988284D01*
X628379Y987866D01*
X628269Y987450D01*
X628149Y987036D01*
X628019Y986626D01*
X627880Y986220D01*
X627730Y985816D01*
X627570Y985417D01*
X627400Y985022D01*
X627221Y984631D01*
X627033Y984244D01*
X626835Y983862D01*
X626627Y983485D01*
X626411Y983114D01*
X626185Y982748D01*
X625950Y982387D01*
X625707Y982032D01*
X625455Y981684D01*
X625195Y981341D01*
X624926Y981006D01*
X624649Y980676D01*
X624364Y980354D01*
X624071Y980039D01*
X623771Y979731D01*
X623463Y979431D01*
X623148Y979138D01*
X622826Y978853D01*
X622496Y978576D01*
X622161Y978307D01*
X621818Y978047D01*
X621470Y977795D01*
X621115Y977552D01*
X620754Y977317D01*
X620388Y977091D01*
X620017Y976875D01*
X619640Y976667D01*
X619258Y976469D01*
X618871Y976281D01*
X618480Y976102D01*
X618085Y975932D01*
X617686Y975772D01*
X617282Y975622D01*
X616876Y975483D01*
X616466Y975353D01*
X616052Y975233D01*
X615636Y975123D01*
X615218Y975024D01*
X614797Y974935D01*
X614374Y974856D01*
X613950Y974788D01*
X613523Y974730D01*
X613096Y974682D01*
X612667Y974645D01*
X612238Y974619D01*
X611808Y974603D01*
X611378Y974598D01*
X610948Y974603D01*
X610518Y974619D01*
X610089Y974645D01*
X609660Y974682D01*
X609233Y974730D01*
X608806Y974788D01*
X608382Y974856D01*
X607959Y974935D01*
X607538Y975024D01*
X607120Y975123D01*
X606704Y975233D01*
X606290Y975353D01*
X605880Y975483D01*
X605474Y975622D01*
X605070Y975772D01*
X604671Y975932D01*
X604276Y976102D01*
X603885Y976281D01*
X603498Y976469D01*
X603116Y976667D01*
X602739Y976875D01*
X602368Y977091D01*
X602002Y977317D01*
X601641Y977552D01*
X601286Y977795D01*
X600938Y978047D01*
X600595Y978307D01*
X600260Y978576D01*
X599930Y978853D01*
X599608Y979138D01*
X599293Y979431D01*
X598985Y979731D01*
X598685Y980039D01*
X598392Y980354D01*
X598107Y980676D01*
X597830Y981006D01*
X597561Y981341D01*
X597301Y981684D01*
X597049Y982032D01*
X596806Y982387D01*
X596571Y982748D01*
X596345Y983114D01*
X596129Y983485D01*
X595921Y983862D01*
X595723Y984244D01*
X595535Y984631D01*
X595356Y985022D01*
X595186Y985417D01*
X595026Y985816D01*
X594876Y986220D01*
X594737Y986626D01*
X594607Y987036D01*
X594487Y987450D01*
X594377Y987866D01*
X594278Y988284D01*
X594189Y988705D01*
X594110Y989128D01*
X594042Y989552D01*
X593984Y989979D01*
X593936Y990406D01*
X593899Y990835D01*
X593873Y991264D01*
X593857Y991694D01*
X593852Y992124D01*
X915416Y992124D02*
X915421Y992554D01*
X915437Y992984D01*
X915463Y993413D01*
X915500Y993842D01*
X915548Y994269D01*
X915606Y994696D01*
X915674Y995120D01*
X915753Y995543D01*
X915842Y995964D01*
X915941Y996382D01*
X916051Y996798D01*
X916171Y997212D01*
X916301Y997622D01*
X916440Y998028D01*
X916590Y998432D01*
X916750Y998831D01*
X916920Y999226D01*
X917099Y999617D01*
X917287Y1000004D01*
X917485Y1000386D01*
X917693Y1000763D01*
X917909Y1001134D01*
X918135Y1001500D01*
X918370Y1001861D01*
X918613Y1002216D01*
X918865Y1002564D01*
X919125Y1002907D01*
X919394Y1003242D01*
X919671Y1003572D01*
X919956Y1003894D01*
X920249Y1004209D01*
X920549Y1004517D01*
X920857Y1004817D01*
X921172Y1005110D01*
X921494Y1005395D01*
X921824Y1005672D01*
X922159Y1005941D01*
X922502Y1006201D01*
X922850Y1006453D01*
X923205Y1006696D01*
X923566Y1006931D01*
X923932Y1007157D01*
X924303Y1007373D01*
X924680Y1007581D01*
X925062Y1007779D01*
X925449Y1007967D01*
X925840Y1008146D01*
X926235Y1008316D01*
X926634Y1008476D01*
X927038Y1008626D01*
X927444Y1008765D01*
X927854Y1008895D01*
X928268Y1009015D01*
X928684Y1009125D01*
X929102Y1009224D01*
X929523Y1009313D01*
X929946Y1009392D01*
X930370Y1009460D01*
X930797Y1009518D01*
X931224Y1009566D01*
X931653Y1009603D01*
X932082Y1009629D01*
X932512Y1009645D01*
X932942Y1009650D01*
X933372Y1009645D01*
X933802Y1009629D01*
X934231Y1009603D01*
X934660Y1009566D01*
X935087Y1009518D01*
X935514Y1009460D01*
X935938Y1009392D01*
X936361Y1009313D01*
X936782Y1009224D01*
X937200Y1009125D01*
X937616Y1009015D01*
X938030Y1008895D01*
X938440Y1008765D01*
X938846Y1008626D01*
X939250Y1008476D01*
X939649Y1008316D01*
X940044Y1008146D01*
X940435Y1007967D01*
X940822Y1007779D01*
X941204Y1007581D01*
X941581Y1007373D01*
X941952Y1007157D01*
X942318Y1006931D01*
X942679Y1006696D01*
X943034Y1006453D01*
X943382Y1006201D01*
X943725Y1005941D01*
X944060Y1005672D01*
X944390Y1005395D01*
X944712Y1005110D01*
X945027Y1004817D01*
X945335Y1004517D01*
X945635Y1004209D01*
X945928Y1003894D01*
X946213Y1003572D01*
X946490Y1003242D01*
X946759Y1002907D01*
X947019Y1002564D01*
X947271Y1002216D01*
X947514Y1001861D01*
X947749Y1001500D01*
X947975Y1001134D01*
X948191Y1000763D01*
X948399Y1000386D01*
X948597Y1000004D01*
X948785Y999617D01*
X948964Y999226D01*
X949134Y998831D01*
X949294Y998432D01*
X949444Y998028D01*
X949583Y997622D01*
X949713Y997212D01*
X949833Y996798D01*
X949943Y996382D01*
X950042Y995964D01*
X950131Y995543D01*
X950210Y995120D01*
X950278Y994696D01*
X950336Y994269D01*
X950384Y993842D01*
X950421Y993413D01*
X950447Y992984D01*
X950463Y992554D01*
X950468Y992124D01*
X950463Y991694D01*
X950447Y991264D01*
X950421Y990835D01*
X950384Y990406D01*
X950336Y989979D01*
X950278Y989552D01*
X950210Y989128D01*
X950131Y988705D01*
X950042Y988284D01*
X949943Y987866D01*
X949833Y987450D01*
X949713Y987036D01*
X949583Y986626D01*
X949444Y986220D01*
X949294Y985816D01*
X949134Y985417D01*
X948964Y985022D01*
X948785Y984631D01*
X948597Y984244D01*
X948399Y983862D01*
X948191Y983485D01*
X947975Y983114D01*
X947749Y982748D01*
X947514Y982387D01*
X947271Y982032D01*
X947019Y981684D01*
X946759Y981341D01*
X946490Y981006D01*
X946213Y980676D01*
X945928Y980354D01*
X945635Y980039D01*
X945335Y979731D01*
X945027Y979431D01*
X944712Y979138D01*
X944390Y978853D01*
X944060Y978576D01*
X943725Y978307D01*
X943382Y978047D01*
X943034Y977795D01*
X942679Y977552D01*
X942318Y977317D01*
X941952Y977091D01*
X941581Y976875D01*
X941204Y976667D01*
X940822Y976469D01*
X940435Y976281D01*
X940044Y976102D01*
X939649Y975932D01*
X939250Y975772D01*
X938846Y975622D01*
X938440Y975483D01*
X938030Y975353D01*
X937616Y975233D01*
X937200Y975123D01*
X936782Y975024D01*
X936361Y974935D01*
X935938Y974856D01*
X935514Y974788D01*
X935087Y974730D01*
X934660Y974682D01*
X934231Y974645D01*
X933802Y974619D01*
X933372Y974603D01*
X932942Y974598D01*
X932512Y974603D01*
X932082Y974619D01*
X931653Y974645D01*
X931224Y974682D01*
X930797Y974730D01*
X930370Y974788D01*
X929946Y974856D01*
X929523Y974935D01*
X929102Y975024D01*
X928684Y975123D01*
X928268Y975233D01*
X927854Y975353D01*
X927444Y975483D01*
X927038Y975622D01*
X926634Y975772D01*
X926235Y975932D01*
X925840Y976102D01*
X925449Y976281D01*
X925062Y976469D01*
X924680Y976667D01*
X924303Y976875D01*
X923932Y977091D01*
X923566Y977317D01*
X923205Y977552D01*
X922850Y977795D01*
X922502Y978047D01*
X922159Y978307D01*
X921824Y978576D01*
X921494Y978853D01*
X921172Y979138D01*
X920857Y979431D01*
X920549Y979731D01*
X920249Y980039D01*
X919956Y980354D01*
X919671Y980676D01*
X919394Y981006D01*
X919125Y981341D01*
X918865Y981684D01*
X918613Y982032D01*
X918370Y982387D01*
X918135Y982748D01*
X917909Y983114D01*
X917693Y983485D01*
X917485Y983862D01*
X917287Y984244D01*
X917099Y984631D01*
X916920Y985022D01*
X916750Y985417D01*
X916590Y985816D01*
X916440Y986220D01*
X916301Y986626D01*
X916171Y987036D01*
X916051Y987450D01*
X915941Y987866D01*
X915842Y988284D01*
X915753Y988705D01*
X915674Y989128D01*
X915606Y989552D01*
X915548Y989979D01*
X915500Y990406D01*
X915463Y990835D01*
X915437Y991264D01*
X915421Y991694D01*
X915416Y992124D01*
X549910Y1220470D02*
X0Y1220470D01*
X0Y0D01*
X549910Y50800D02*
X549928Y52303D01*
X549983Y53805D01*
X550075Y55305D01*
X550203Y56803D01*
X550367Y58297D01*
X550568Y59787D01*
X550805Y61271D01*
X551078Y62749D01*
X551387Y64220D01*
X551731Y65683D01*
X552111Y67138D01*
X552527Y68582D01*
X552978Y70016D01*
X553463Y71439D01*
X553983Y72849D01*
X554537Y74246D01*
X555125Y75630D01*
X555746Y76998D01*
X556400Y78351D01*
X557088Y79688D01*
X557807Y81008D01*
X558559Y82310D01*
X559342Y83593D01*
X560156Y84856D01*
X561001Y86100D01*
X561875Y87322D01*
X562779Y88523D01*
X563712Y89701D01*
X564674Y90857D01*
X565663Y91988D01*
X566680Y93095D01*
X567723Y94178D01*
X568792Y95234D01*
X569887Y96264D01*
X571007Y97267D01*
X572150Y98242D01*
X573317Y99190D01*
X574507Y100108D01*
X575719Y100998D01*
X576952Y101858D01*
X578205Y102687D01*
X579479Y103485D01*
X580771Y104253D01*
X582082Y104988D01*
X583410Y105692D01*
X584755Y106363D01*
X586116Y107001D01*
X587492Y107606D01*
X588883Y108177D01*
X590287Y108714D01*
X591703Y109216D01*
X593132Y109684D01*
X594571Y110117D01*
X596020Y110515D01*
X597479Y110877D01*
X598946Y111204D01*
X600421Y111495D01*
X601902Y111750D01*
X603389Y111969D01*
X604881Y112152D01*
X606377Y112298D01*
X607876Y112408D01*
X609378Y112481D01*
X610880Y112517D01*
X612384Y112517D01*
X613886Y112481D01*
X615388Y112408D01*
X616887Y112298D01*
X618383Y112152D01*
X619875Y111969D01*
X621362Y111750D01*
X622843Y111495D01*
X624318Y111204D01*
X625785Y110877D01*
X627244Y110515D01*
X628693Y110117D01*
X630132Y109684D01*
X631561Y109216D01*
X632977Y108714D01*
X634381Y108177D01*
X635772Y107606D01*
X637148Y107001D01*
X638509Y106363D01*
X639854Y105692D01*
X641182Y104988D01*
X642493Y104253D01*
X643785Y103485D01*
X645059Y102687D01*
X646312Y101858D01*
X647545Y100998D01*
X648757Y100108D01*
X649947Y99190D01*
X651114Y98242D01*
X652257Y97267D01*
X653377Y96264D01*
X654472Y95234D01*
X655541Y94178D01*
X656584Y93095D01*
X657601Y91988D01*
X658590Y90857D01*
X659552Y89701D01*
X660485Y88523D01*
X661389Y87322D01*
X662263Y86100D01*
X663108Y84856D01*
X663922Y83593D01*
X664705Y82310D01*
X665457Y81008D01*
X666176Y79688D01*
X666864Y78351D01*
X667518Y76998D01*
X668139Y75630D01*
X668727Y74246D01*
X669281Y72849D01*
X669801Y71439D01*
X670286Y70016D01*
X670737Y68582D01*
X671153Y67138D01*
X671533Y65683D01*
X671877Y64220D01*
X672186Y62749D01*
X672459Y61271D01*
X672696Y59787D01*
X672897Y58297D01*
X673061Y56803D01*
X673189Y55305D01*
X673281Y53805D01*
X673336Y52303D01*
X673354Y50800D01*
X673354Y1168400D02*
X673336Y1166897D01*
X673281Y1165395D01*
X673189Y1163895D01*
X673061Y1162397D01*
X672897Y1160903D01*
X672696Y1159413D01*
X672459Y1157929D01*
X672186Y1156451D01*
X671877Y1154980D01*
X671533Y1153517D01*
X671153Y1152062D01*
X670737Y1150618D01*
X670286Y1149184D01*
X669801Y1147761D01*
X669281Y1146351D01*
X668727Y1144954D01*
X668139Y1143570D01*
X667518Y1142202D01*
X666864Y1140849D01*
X666176Y1139512D01*
X665457Y1138192D01*
X664705Y1136890D01*
X663922Y1135607D01*
X663108Y1134344D01*
X662263Y1133100D01*
X661389Y1131878D01*
X660485Y1130677D01*
X659552Y1129499D01*
X658590Y1128343D01*
X657601Y1127212D01*
X656584Y1126105D01*
X655541Y1125022D01*
X654472Y1123966D01*
X653377Y1122936D01*
X652257Y1121933D01*
X651114Y1120958D01*
X649947Y1120010D01*
X648757Y1119092D01*
X647545Y1118202D01*
X646312Y1117342D01*
X645059Y1116513D01*
X643785Y1115715D01*
X642493Y1114947D01*
X641182Y1114212D01*
X639854Y1113508D01*
X638509Y1112837D01*
X637148Y1112199D01*
X635772Y1111594D01*
X634381Y1111023D01*
X632977Y1110486D01*
X631561Y1109984D01*
X630132Y1109516D01*
X628693Y1109083D01*
X627244Y1108685D01*
X625785Y1108323D01*
X624318Y1107996D01*
X622843Y1107705D01*
X621362Y1107450D01*
X619875Y1107231D01*
X618383Y1107048D01*
X616887Y1106902D01*
X615388Y1106792D01*
X613886Y1106719D01*
X612384Y1106683D01*
X610880Y1106683D01*
X609378Y1106719D01*
X607876Y1106792D01*
X606377Y1106902D01*
X604881Y1107048D01*
X603389Y1107231D01*
X601902Y1107450D01*
X600421Y1107705D01*
X598946Y1107996D01*
X597479Y1108323D01*
X596020Y1108685D01*
X594571Y1109083D01*
X593132Y1109516D01*
X591703Y1109984D01*
X590287Y1110486D01*
X588883Y1111023D01*
X587492Y1111594D01*
X586116Y1112199D01*
X584755Y1112837D01*
X583410Y1113508D01*
X582082Y1114212D01*
X580771Y1114947D01*
X579479Y1115715D01*
X578205Y1116513D01*
X576952Y1117342D01*
X575719Y1118202D01*
X574507Y1119092D01*
X573317Y1120010D01*
X572150Y1120958D01*
X571007Y1121933D01*
X569887Y1122936D01*
X568792Y1123966D01*
X567723Y1125022D01*
X566680Y1126105D01*
X565663Y1127212D01*
X564674Y1128343D01*
X563712Y1129499D01*
X562779Y1130677D01*
X561875Y1131878D01*
X561001Y1133100D01*
X560156Y1134344D01*
X559342Y1135607D01*
X558559Y1136890D01*
X557807Y1138192D01*
X557088Y1139512D01*
X556400Y1140849D01*
X555746Y1142202D01*
X555125Y1143570D01*
X554537Y1144954D01*
X553983Y1146351D01*
X553463Y1147761D01*
X552978Y1149184D01*
X552527Y1150618D01*
X552111Y1152062D01*
X551731Y1153517D01*
X551387Y1154980D01*
X551078Y1156451D01*
X550805Y1157929D01*
X550568Y1159413D01*
X550367Y1160903D01*
X550203Y1162397D01*
X550075Y1163895D01*
X549983Y1165395D01*
X549928Y1166897D01*
X549910Y1168400D01*
X549910Y50800D02*
X549910Y0D01*
X673354Y0D02*
X673354Y50800D01*
X549910Y1168400D02*
X549910Y1220470D01*
X673354Y1220470D02*
X673354Y1168400D01*
X1161920Y863600D02*
X1161923Y863809D01*
X1161930Y864017D01*
X1161943Y864225D01*
X1161961Y864433D01*
X1161984Y864640D01*
X1162012Y864847D01*
X1162045Y865053D01*
X1162083Y865258D01*
X1162127Y865462D01*
X1162175Y865665D01*
X1162228Y865867D01*
X1162286Y866067D01*
X1162349Y866266D01*
X1162417Y866464D01*
X1162490Y866659D01*
X1162567Y866853D01*
X1162649Y867045D01*
X1162736Y867234D01*
X1162828Y867422D01*
X1162924Y867607D01*
X1163024Y867790D01*
X1163129Y867970D01*
X1163239Y868147D01*
X1163353Y868322D01*
X1163471Y868494D01*
X1163593Y868663D01*
X1163719Y868829D01*
X1163849Y868992D01*
X1163984Y869152D01*
X1164122Y869308D01*
X1164264Y869461D01*
X1164410Y869610D01*
X1164559Y869756D01*
X1164712Y869898D01*
X1164868Y870036D01*
X1165028Y870171D01*
X1165191Y870301D01*
X1165357Y870427D01*
X1165526Y870549D01*
X1165698Y870667D01*
X1165873Y870781D01*
X1166050Y870891D01*
X1166230Y870996D01*
X1166413Y871096D01*
X1166598Y871192D01*
X1166786Y871284D01*
X1166975Y871371D01*
X1167167Y871453D01*
X1167361Y871530D01*
X1167556Y871603D01*
X1167754Y871671D01*
X1167953Y871734D01*
X1168153Y871792D01*
X1168355Y871845D01*
X1168558Y871893D01*
X1168762Y871937D01*
X1168967Y871975D01*
X1169173Y872008D01*
X1169380Y872036D01*
X1169587Y872059D01*
X1169795Y872077D01*
X1170003Y872090D01*
X1170211Y872097D01*
X1170420Y872100D01*
X1170629Y872097D01*
X1170837Y872090D01*
X1171045Y872077D01*
X1171253Y872059D01*
X1171460Y872036D01*
X1171667Y872008D01*
X1171873Y871975D01*
X1172078Y871937D01*
X1172282Y871893D01*
X1172485Y871845D01*
X1172687Y871792D01*
X1172887Y871734D01*
X1173086Y871671D01*
X1173284Y871603D01*
X1173479Y871530D01*
X1173673Y871453D01*
X1173865Y871371D01*
X1174054Y871284D01*
X1174242Y871192D01*
X1174427Y871096D01*
X1174610Y870996D01*
X1174790Y870891D01*
X1174967Y870781D01*
X1175142Y870667D01*
X1175314Y870549D01*
X1175483Y870427D01*
X1175649Y870301D01*
X1175812Y870171D01*
X1175972Y870036D01*
X1176128Y869898D01*
X1176281Y869756D01*
X1176430Y869610D01*
X1176576Y869461D01*
X1176718Y869308D01*
X1176856Y869152D01*
X1176991Y868992D01*
X1177121Y868829D01*
X1177247Y868663D01*
X1177369Y868494D01*
X1177487Y868322D01*
X1177601Y868147D01*
X1177711Y867970D01*
X1177816Y867790D01*
X1177916Y867607D01*
X1178012Y867422D01*
X1178104Y867234D01*
X1178191Y867045D01*
X1178273Y866853D01*
X1178350Y866659D01*
X1178423Y866464D01*
X1178491Y866266D01*
X1178554Y866067D01*
X1178612Y865867D01*
X1178665Y865665D01*
X1178713Y865462D01*
X1178757Y865258D01*
X1178795Y865053D01*
X1178828Y864847D01*
X1178856Y864640D01*
X1178879Y864433D01*
X1178897Y864225D01*
X1178910Y864017D01*
X1178917Y863809D01*
X1178920Y863600D01*
X1178917Y863391D01*
X1178910Y863183D01*
X1178897Y862975D01*
X1178879Y862767D01*
X1178856Y862560D01*
X1178828Y862353D01*
X1178795Y862147D01*
X1178757Y861942D01*
X1178713Y861738D01*
X1178665Y861535D01*
X1178612Y861333D01*
X1178554Y861133D01*
X1178491Y860934D01*
X1178423Y860736D01*
X1178350Y860541D01*
X1178273Y860347D01*
X1178191Y860155D01*
X1178104Y859966D01*
X1178012Y859778D01*
X1177916Y859593D01*
X1177816Y859410D01*
X1177711Y859230D01*
X1177601Y859053D01*
X1177487Y858878D01*
X1177369Y858706D01*
X1177247Y858537D01*
X1177121Y858371D01*
X1176991Y858208D01*
X1176856Y858048D01*
X1176718Y857892D01*
X1176576Y857739D01*
X1176430Y857590D01*
X1176281Y857444D01*
X1176128Y857302D01*
X1175972Y857164D01*
X1175812Y857029D01*
X1175649Y856899D01*
X1175483Y856773D01*
X1175314Y856651D01*
X1175142Y856533D01*
X1174967Y856419D01*
X1174790Y856309D01*
X1174610Y856204D01*
X1174427Y856104D01*
X1174242Y856008D01*
X1174054Y855916D01*
X1173865Y855829D01*
X1173673Y855747D01*
X1173479Y855670D01*
X1173284Y855597D01*
X1173086Y855529D01*
X1172887Y855466D01*
X1172687Y855408D01*
X1172485Y855355D01*
X1172282Y855307D01*
X1172078Y855263D01*
X1171873Y855225D01*
X1171667Y855192D01*
X1171460Y855164D01*
X1171253Y855141D01*
X1171045Y855123D01*
X1170837Y855110D01*
X1170629Y855103D01*
X1170420Y855100D01*
X1170211Y855103D01*
X1170003Y855110D01*
X1169795Y855123D01*
X1169587Y855141D01*
X1169380Y855164D01*
X1169173Y855192D01*
X1168967Y855225D01*
X1168762Y855263D01*
X1168558Y855307D01*
X1168355Y855355D01*
X1168153Y855408D01*
X1167953Y855466D01*
X1167754Y855529D01*
X1167556Y855597D01*
X1167361Y855670D01*
X1167167Y855747D01*
X1166975Y855829D01*
X1166786Y855916D01*
X1166598Y856008D01*
X1166413Y856104D01*
X1166230Y856204D01*
X1166050Y856309D01*
X1165873Y856419D01*
X1165698Y856533D01*
X1165526Y856651D01*
X1165357Y856773D01*
X1165191Y856899D01*
X1165028Y857029D01*
X1164868Y857164D01*
X1164712Y857302D01*
X1164559Y857444D01*
X1164410Y857590D01*
X1164264Y857739D01*
X1164122Y857892D01*
X1163984Y858048D01*
X1163849Y858208D01*
X1163719Y858371D01*
X1163593Y858537D01*
X1163471Y858706D01*
X1163353Y858878D01*
X1163239Y859053D01*
X1163129Y859230D01*
X1163024Y859410D01*
X1162924Y859593D01*
X1162828Y859778D01*
X1162736Y859966D01*
X1162649Y860155D01*
X1162567Y860347D01*
X1162490Y860541D01*
X1162417Y860736D01*
X1162349Y860934D01*
X1162286Y861133D01*
X1162228Y861333D01*
X1162175Y861535D01*
X1162127Y861738D01*
X1162083Y861942D01*
X1162045Y862147D01*
X1162012Y862353D01*
X1161984Y862560D01*
X1161961Y862767D01*
X1161943Y862975D01*
X1161930Y863183D01*
X1161923Y863391D01*
X1161920Y863600D01*
X1091920Y863600D02*
X1091923Y863809D01*
X1091930Y864017D01*
X1091943Y864225D01*
X1091961Y864433D01*
X1091984Y864640D01*
X1092012Y864847D01*
X1092045Y865053D01*
X1092083Y865258D01*
X1092127Y865462D01*
X1092175Y865665D01*
X1092228Y865867D01*
X1092286Y866067D01*
X1092349Y866266D01*
X1092417Y866464D01*
X1092490Y866659D01*
X1092567Y866853D01*
X1092649Y867045D01*
X1092736Y867234D01*
X1092828Y867422D01*
X1092924Y867607D01*
X1093024Y867790D01*
X1093129Y867970D01*
X1093239Y868147D01*
X1093353Y868322D01*
X1093471Y868494D01*
X1093593Y868663D01*
X1093719Y868829D01*
X1093849Y868992D01*
X1093984Y869152D01*
X1094122Y869308D01*
X1094264Y869461D01*
X1094410Y869610D01*
X1094559Y869756D01*
X1094712Y869898D01*
X1094868Y870036D01*
X1095028Y870171D01*
X1095191Y870301D01*
X1095357Y870427D01*
X1095526Y870549D01*
X1095698Y870667D01*
X1095873Y870781D01*
X1096050Y870891D01*
X1096230Y870996D01*
X1096413Y871096D01*
X1096598Y871192D01*
X1096786Y871284D01*
X1096975Y871371D01*
X1097167Y871453D01*
X1097361Y871530D01*
X1097556Y871603D01*
X1097754Y871671D01*
X1097953Y871734D01*
X1098153Y871792D01*
X1098355Y871845D01*
X1098558Y871893D01*
X1098762Y871937D01*
X1098967Y871975D01*
X1099173Y872008D01*
X1099380Y872036D01*
X1099587Y872059D01*
X1099795Y872077D01*
X1100003Y872090D01*
X1100211Y872097D01*
X1100420Y872100D01*
X1100629Y872097D01*
X1100837Y872090D01*
X1101045Y872077D01*
X1101253Y872059D01*
X1101460Y872036D01*
X1101667Y872008D01*
X1101873Y871975D01*
X1102078Y871937D01*
X1102282Y871893D01*
X1102485Y871845D01*
X1102687Y871792D01*
X1102887Y871734D01*
X1103086Y871671D01*
X1103284Y871603D01*
X1103479Y871530D01*
X1103673Y871453D01*
X1103865Y871371D01*
X1104054Y871284D01*
X1104242Y871192D01*
X1104427Y871096D01*
X1104610Y870996D01*
X1104790Y870891D01*
X1104967Y870781D01*
X1105142Y870667D01*
X1105314Y870549D01*
X1105483Y870427D01*
X1105649Y870301D01*
X1105812Y870171D01*
X1105972Y870036D01*
X1106128Y869898D01*
X1106281Y869756D01*
X1106430Y869610D01*
X1106576Y869461D01*
X1106718Y869308D01*
X1106856Y869152D01*
X1106991Y868992D01*
X1107121Y868829D01*
X1107247Y868663D01*
X1107369Y868494D01*
X1107487Y868322D01*
X1107601Y868147D01*
X1107711Y867970D01*
X1107816Y867790D01*
X1107916Y867607D01*
X1108012Y867422D01*
X1108104Y867234D01*
X1108191Y867045D01*
X1108273Y866853D01*
X1108350Y866659D01*
X1108423Y866464D01*
X1108491Y866266D01*
X1108554Y866067D01*
X1108612Y865867D01*
X1108665Y865665D01*
X1108713Y865462D01*
X1108757Y865258D01*
X1108795Y865053D01*
X1108828Y864847D01*
X1108856Y864640D01*
X1108879Y864433D01*
X1108897Y864225D01*
X1108910Y864017D01*
X1108917Y863809D01*
X1108920Y863600D01*
X1108917Y863391D01*
X1108910Y863183D01*
X1108897Y862975D01*
X1108879Y862767D01*
X1108856Y862560D01*
X1108828Y862353D01*
X1108795Y862147D01*
X1108757Y861942D01*
X1108713Y861738D01*
X1108665Y861535D01*
X1108612Y861333D01*
X1108554Y861133D01*
X1108491Y860934D01*
X1108423Y860736D01*
X1108350Y860541D01*
X1108273Y860347D01*
X1108191Y860155D01*
X1108104Y859966D01*
X1108012Y859778D01*
X1107916Y859593D01*
X1107816Y859410D01*
X1107711Y859230D01*
X1107601Y859053D01*
X1107487Y858878D01*
X1107369Y858706D01*
X1107247Y858537D01*
X1107121Y858371D01*
X1106991Y858208D01*
X1106856Y858048D01*
X1106718Y857892D01*
X1106576Y857739D01*
X1106430Y857590D01*
X1106281Y857444D01*
X1106128Y857302D01*
X1105972Y857164D01*
X1105812Y857029D01*
X1105649Y856899D01*
X1105483Y856773D01*
X1105314Y856651D01*
X1105142Y856533D01*
X1104967Y856419D01*
X1104790Y856309D01*
X1104610Y856204D01*
X1104427Y856104D01*
X1104242Y856008D01*
X1104054Y855916D01*
X1103865Y855829D01*
X1103673Y855747D01*
X1103479Y855670D01*
X1103284Y855597D01*
X1103086Y855529D01*
X1102887Y855466D01*
X1102687Y855408D01*
X1102485Y855355D01*
X1102282Y855307D01*
X1102078Y855263D01*
X1101873Y855225D01*
X1101667Y855192D01*
X1101460Y855164D01*
X1101253Y855141D01*
X1101045Y855123D01*
X1100837Y855110D01*
X1100629Y855103D01*
X1100420Y855100D01*
X1100211Y855103D01*
X1100003Y855110D01*
X1099795Y855123D01*
X1099587Y855141D01*
X1099380Y855164D01*
X1099173Y855192D01*
X1098967Y855225D01*
X1098762Y855263D01*
X1098558Y855307D01*
X1098355Y855355D01*
X1098153Y855408D01*
X1097953Y855466D01*
X1097754Y855529D01*
X1097556Y855597D01*
X1097361Y855670D01*
X1097167Y855747D01*
X1096975Y855829D01*
X1096786Y855916D01*
X1096598Y856008D01*
X1096413Y856104D01*
X1096230Y856204D01*
X1096050Y856309D01*
X1095873Y856419D01*
X1095698Y856533D01*
X1095526Y856651D01*
X1095357Y856773D01*
X1095191Y856899D01*
X1095028Y857029D01*
X1094868Y857164D01*
X1094712Y857302D01*
X1094559Y857444D01*
X1094410Y857590D01*
X1094264Y857739D01*
X1094122Y857892D01*
X1093984Y858048D01*
X1093849Y858208D01*
X1093719Y858371D01*
X1093593Y858537D01*
X1093471Y858706D01*
X1093353Y858878D01*
X1093239Y859053D01*
X1093129Y859230D01*
X1093024Y859410D01*
X1092924Y859593D01*
X1092828Y859778D01*
X1092736Y859966D01*
X1092649Y860155D01*
X1092567Y860347D01*
X1092490Y860541D01*
X1092417Y860736D01*
X1092349Y860934D01*
X1092286Y861133D01*
X1092228Y861333D01*
X1092175Y861535D01*
X1092127Y861738D01*
X1092083Y861942D01*
X1092045Y862147D01*
X1092012Y862353D01*
X1091984Y862560D01*
X1091961Y862767D01*
X1091943Y862975D01*
X1091930Y863183D01*
X1091923Y863391D01*
X1091920Y863600D01*
X45360Y825500D02*
X45363Y825709D01*
X45370Y825917D01*
X45383Y826125D01*
X45401Y826333D01*
X45424Y826540D01*
X45452Y826747D01*
X45485Y826953D01*
X45523Y827158D01*
X45567Y827362D01*
X45615Y827565D01*
X45668Y827767D01*
X45726Y827967D01*
X45789Y828166D01*
X45857Y828364D01*
X45930Y828559D01*
X46007Y828753D01*
X46089Y828945D01*
X46176Y829134D01*
X46268Y829322D01*
X46364Y829507D01*
X46464Y829690D01*
X46569Y829870D01*
X46679Y830047D01*
X46793Y830222D01*
X46911Y830394D01*
X47033Y830563D01*
X47159Y830729D01*
X47289Y830892D01*
X47424Y831052D01*
X47562Y831208D01*
X47704Y831361D01*
X47850Y831510D01*
X47999Y831656D01*
X48152Y831798D01*
X48308Y831936D01*
X48468Y832071D01*
X48631Y832201D01*
X48797Y832327D01*
X48966Y832449D01*
X49138Y832567D01*
X49313Y832681D01*
X49490Y832791D01*
X49670Y832896D01*
X49853Y832996D01*
X50038Y833092D01*
X50226Y833184D01*
X50415Y833271D01*
X50607Y833353D01*
X50801Y833430D01*
X50996Y833503D01*
X51194Y833571D01*
X51393Y833634D01*
X51593Y833692D01*
X51795Y833745D01*
X51998Y833793D01*
X52202Y833837D01*
X52407Y833875D01*
X52613Y833908D01*
X52820Y833936D01*
X53027Y833959D01*
X53235Y833977D01*
X53443Y833990D01*
X53651Y833997D01*
X53860Y834000D01*
X54069Y833997D01*
X54277Y833990D01*
X54485Y833977D01*
X54693Y833959D01*
X54900Y833936D01*
X55107Y833908D01*
X55313Y833875D01*
X55518Y833837D01*
X55722Y833793D01*
X55925Y833745D01*
X56127Y833692D01*
X56327Y833634D01*
X56526Y833571D01*
X56724Y833503D01*
X56919Y833430D01*
X57113Y833353D01*
X57305Y833271D01*
X57494Y833184D01*
X57682Y833092D01*
X57867Y832996D01*
X58050Y832896D01*
X58230Y832791D01*
X58407Y832681D01*
X58582Y832567D01*
X58754Y832449D01*
X58923Y832327D01*
X59089Y832201D01*
X59252Y832071D01*
X59412Y831936D01*
X59568Y831798D01*
X59721Y831656D01*
X59870Y831510D01*
X60016Y831361D01*
X60158Y831208D01*
X60296Y831052D01*
X60431Y830892D01*
X60561Y830729D01*
X60687Y830563D01*
X60809Y830394D01*
X60927Y830222D01*
X61041Y830047D01*
X61151Y829870D01*
X61256Y829690D01*
X61356Y829507D01*
X61452Y829322D01*
X61544Y829134D01*
X61631Y828945D01*
X61713Y828753D01*
X61790Y828559D01*
X61863Y828364D01*
X61931Y828166D01*
X61994Y827967D01*
X62052Y827767D01*
X62105Y827565D01*
X62153Y827362D01*
X62197Y827158D01*
X62235Y826953D01*
X62268Y826747D01*
X62296Y826540D01*
X62319Y826333D01*
X62337Y826125D01*
X62350Y825917D01*
X62357Y825709D01*
X62360Y825500D01*
X62357Y825291D01*
X62350Y825083D01*
X62337Y824875D01*
X62319Y824667D01*
X62296Y824460D01*
X62268Y824253D01*
X62235Y824047D01*
X62197Y823842D01*
X62153Y823638D01*
X62105Y823435D01*
X62052Y823233D01*
X61994Y823033D01*
X61931Y822834D01*
X61863Y822636D01*
X61790Y822441D01*
X61713Y822247D01*
X61631Y822055D01*
X61544Y821866D01*
X61452Y821678D01*
X61356Y821493D01*
X61256Y821310D01*
X61151Y821130D01*
X61041Y820953D01*
X60927Y820778D01*
X60809Y820606D01*
X60687Y820437D01*
X60561Y820271D01*
X60431Y820108D01*
X60296Y819948D01*
X60158Y819792D01*
X60016Y819639D01*
X59870Y819490D01*
X59721Y819344D01*
X59568Y819202D01*
X59412Y819064D01*
X59252Y818929D01*
X59089Y818799D01*
X58923Y818673D01*
X58754Y818551D01*
X58582Y818433D01*
X58407Y818319D01*
X58230Y818209D01*
X58050Y818104D01*
X57867Y818004D01*
X57682Y817908D01*
X57494Y817816D01*
X57305Y817729D01*
X57113Y817647D01*
X56919Y817570D01*
X56724Y817497D01*
X56526Y817429D01*
X56327Y817366D01*
X56127Y817308D01*
X55925Y817255D01*
X55722Y817207D01*
X55518Y817163D01*
X55313Y817125D01*
X55107Y817092D01*
X54900Y817064D01*
X54693Y817041D01*
X54485Y817023D01*
X54277Y817010D01*
X54069Y817003D01*
X53860Y817000D01*
X53651Y817003D01*
X53443Y817010D01*
X53235Y817023D01*
X53027Y817041D01*
X52820Y817064D01*
X52613Y817092D01*
X52407Y817125D01*
X52202Y817163D01*
X51998Y817207D01*
X51795Y817255D01*
X51593Y817308D01*
X51393Y817366D01*
X51194Y817429D01*
X50996Y817497D01*
X50801Y817570D01*
X50607Y817647D01*
X50415Y817729D01*
X50226Y817816D01*
X50038Y817908D01*
X49853Y818004D01*
X49670Y818104D01*
X49490Y818209D01*
X49313Y818319D01*
X49138Y818433D01*
X48966Y818551D01*
X48797Y818673D01*
X48631Y818799D01*
X48468Y818929D01*
X48308Y819064D01*
X48152Y819202D01*
X47999Y819344D01*
X47850Y819490D01*
X47704Y819639D01*
X47562Y819792D01*
X47424Y819948D01*
X47289Y820108D01*
X47159Y820271D01*
X47033Y820437D01*
X46911Y820606D01*
X46793Y820778D01*
X46679Y820953D01*
X46569Y821130D01*
X46464Y821310D01*
X46364Y821493D01*
X46268Y821678D01*
X46176Y821866D01*
X46089Y822055D01*
X46007Y822247D01*
X45930Y822441D01*
X45857Y822636D01*
X45789Y822834D01*
X45726Y823033D01*
X45668Y823233D01*
X45615Y823435D01*
X45567Y823638D01*
X45523Y823842D01*
X45485Y824047D01*
X45452Y824253D01*
X45424Y824460D01*
X45401Y824667D01*
X45383Y824875D01*
X45370Y825083D01*
X45363Y825291D01*
X45360Y825500D01*
X115360Y825500D02*
X115363Y825709D01*
X115370Y825917D01*
X115383Y826125D01*
X115401Y826333D01*
X115424Y826540D01*
X115452Y826747D01*
X115485Y826953D01*
X115523Y827158D01*
X115567Y827362D01*
X115615Y827565D01*
X115668Y827767D01*
X115726Y827967D01*
X115789Y828166D01*
X115857Y828364D01*
X115930Y828559D01*
X116007Y828753D01*
X116089Y828945D01*
X116176Y829134D01*
X116268Y829322D01*
X116364Y829507D01*
X116464Y829690D01*
X116569Y829870D01*
X116679Y830047D01*
X116793Y830222D01*
X116911Y830394D01*
X117033Y830563D01*
X117159Y830729D01*
X117289Y830892D01*
X117424Y831052D01*
X117562Y831208D01*
X117704Y831361D01*
X117850Y831510D01*
X117999Y831656D01*
X118152Y831798D01*
X118308Y831936D01*
X118468Y832071D01*
X118631Y832201D01*
X118797Y832327D01*
X118966Y832449D01*
X119138Y832567D01*
X119313Y832681D01*
X119490Y832791D01*
X119670Y832896D01*
X119853Y832996D01*
X120038Y833092D01*
X120226Y833184D01*
X120415Y833271D01*
X120607Y833353D01*
X120801Y833430D01*
X120996Y833503D01*
X121194Y833571D01*
X121393Y833634D01*
X121593Y833692D01*
X121795Y833745D01*
X121998Y833793D01*
X122202Y833837D01*
X122407Y833875D01*
X122613Y833908D01*
X122820Y833936D01*
X123027Y833959D01*
X123235Y833977D01*
X123443Y833990D01*
X123651Y833997D01*
X123860Y834000D01*
X124069Y833997D01*
X124277Y833990D01*
X124485Y833977D01*
X124693Y833959D01*
X124900Y833936D01*
X125107Y833908D01*
X125313Y833875D01*
X125518Y833837D01*
X125722Y833793D01*
X125925Y833745D01*
X126127Y833692D01*
X126327Y833634D01*
X126526Y833571D01*
X126724Y833503D01*
X126919Y833430D01*
X127113Y833353D01*
X127305Y833271D01*
X127494Y833184D01*
X127682Y833092D01*
X127867Y832996D01*
X128050Y832896D01*
X128230Y832791D01*
X128407Y832681D01*
X128582Y832567D01*
X128754Y832449D01*
X128923Y832327D01*
X129089Y832201D01*
X129252Y832071D01*
X129412Y831936D01*
X129568Y831798D01*
X129721Y831656D01*
X129870Y831510D01*
X130016Y831361D01*
X130158Y831208D01*
X130296Y831052D01*
X130431Y830892D01*
X130561Y830729D01*
X130687Y830563D01*
X130809Y830394D01*
X130927Y830222D01*
X131041Y830047D01*
X131151Y829870D01*
X131256Y829690D01*
X131356Y829507D01*
X131452Y829322D01*
X131544Y829134D01*
X131631Y828945D01*
X131713Y828753D01*
X131790Y828559D01*
X131863Y828364D01*
X131931Y828166D01*
X131994Y827967D01*
X132052Y827767D01*
X132105Y827565D01*
X132153Y827362D01*
X132197Y827158D01*
X132235Y826953D01*
X132268Y826747D01*
X132296Y826540D01*
X132319Y826333D01*
X132337Y826125D01*
X132350Y825917D01*
X132357Y825709D01*
X132360Y825500D01*
X132357Y825291D01*
X132350Y825083D01*
X132337Y824875D01*
X132319Y824667D01*
X132296Y824460D01*
X132268Y824253D01*
X132235Y824047D01*
X132197Y823842D01*
X132153Y823638D01*
X132105Y823435D01*
X132052Y823233D01*
X131994Y823033D01*
X131931Y822834D01*
X131863Y822636D01*
X131790Y822441D01*
X131713Y822247D01*
X131631Y822055D01*
X131544Y821866D01*
X131452Y821678D01*
X131356Y821493D01*
X131256Y821310D01*
X131151Y821130D01*
X131041Y820953D01*
X130927Y820778D01*
X130809Y820606D01*
X130687Y820437D01*
X130561Y820271D01*
X130431Y820108D01*
X130296Y819948D01*
X130158Y819792D01*
X130016Y819639D01*
X129870Y819490D01*
X129721Y819344D01*
X129568Y819202D01*
X129412Y819064D01*
X129252Y818929D01*
X129089Y818799D01*
X128923Y818673D01*
X128754Y818551D01*
X128582Y818433D01*
X128407Y818319D01*
X128230Y818209D01*
X128050Y818104D01*
X127867Y818004D01*
X127682Y817908D01*
X127494Y817816D01*
X127305Y817729D01*
X127113Y817647D01*
X126919Y817570D01*
X126724Y817497D01*
X126526Y817429D01*
X126327Y817366D01*
X126127Y817308D01*
X125925Y817255D01*
X125722Y817207D01*
X125518Y817163D01*
X125313Y817125D01*
X125107Y817092D01*
X124900Y817064D01*
X124693Y817041D01*
X124485Y817023D01*
X124277Y817010D01*
X124069Y817003D01*
X123860Y817000D01*
X123651Y817003D01*
X123443Y817010D01*
X123235Y817023D01*
X123027Y817041D01*
X122820Y817064D01*
X122613Y817092D01*
X122407Y817125D01*
X122202Y817163D01*
X121998Y817207D01*
X121795Y817255D01*
X121593Y817308D01*
X121393Y817366D01*
X121194Y817429D01*
X120996Y817497D01*
X120801Y817570D01*
X120607Y817647D01*
X120415Y817729D01*
X120226Y817816D01*
X120038Y817908D01*
X119853Y818004D01*
X119670Y818104D01*
X119490Y818209D01*
X119313Y818319D01*
X119138Y818433D01*
X118966Y818551D01*
X118797Y818673D01*
X118631Y818799D01*
X118468Y818929D01*
X118308Y819064D01*
X118152Y819202D01*
X117999Y819344D01*
X117850Y819490D01*
X117704Y819639D01*
X117562Y819792D01*
X117424Y819948D01*
X117289Y820108D01*
X117159Y820271D01*
X117033Y820437D01*
X116911Y820606D01*
X116793Y820778D01*
X116679Y820953D01*
X116569Y821130D01*
X116464Y821310D01*
X116364Y821493D01*
X116268Y821678D01*
X116176Y821866D01*
X116089Y822055D01*
X116007Y822247D01*
X115930Y822441D01*
X115857Y822636D01*
X115789Y822834D01*
X115726Y823033D01*
X115668Y823233D01*
X115615Y823435D01*
X115567Y823638D01*
X115523Y823842D01*
X115485Y824047D01*
X115452Y824253D01*
X115424Y824460D01*
X115401Y824667D01*
X115383Y824875D01*
X115370Y825083D01*
X115363Y825291D01*
X115360Y825500D01*
X45360Y685800D02*
X45363Y686009D01*
X45370Y686217D01*
X45383Y686425D01*
X45401Y686633D01*
X45424Y686840D01*
X45452Y687047D01*
X45485Y687253D01*
X45523Y687458D01*
X45567Y687662D01*
X45615Y687865D01*
X45668Y688067D01*
X45726Y688267D01*
X45789Y688466D01*
X45857Y688664D01*
X45930Y688859D01*
X46007Y689053D01*
X46089Y689245D01*
X46176Y689434D01*
X46268Y689622D01*
X46364Y689807D01*
X46464Y689990D01*
X46569Y690170D01*
X46679Y690347D01*
X46793Y690522D01*
X46911Y690694D01*
X47033Y690863D01*
X47159Y691029D01*
X47289Y691192D01*
X47424Y691352D01*
X47562Y691508D01*
X47704Y691661D01*
X47850Y691810D01*
X47999Y691956D01*
X48152Y692098D01*
X48308Y692236D01*
X48468Y692371D01*
X48631Y692501D01*
X48797Y692627D01*
X48966Y692749D01*
X49138Y692867D01*
X49313Y692981D01*
X49490Y693091D01*
X49670Y693196D01*
X49853Y693296D01*
X50038Y693392D01*
X50226Y693484D01*
X50415Y693571D01*
X50607Y693653D01*
X50801Y693730D01*
X50996Y693803D01*
X51194Y693871D01*
X51393Y693934D01*
X51593Y693992D01*
X51795Y694045D01*
X51998Y694093D01*
X52202Y694137D01*
X52407Y694175D01*
X52613Y694208D01*
X52820Y694236D01*
X53027Y694259D01*
X53235Y694277D01*
X53443Y694290D01*
X53651Y694297D01*
X53860Y694300D01*
X54069Y694297D01*
X54277Y694290D01*
X54485Y694277D01*
X54693Y694259D01*
X54900Y694236D01*
X55107Y694208D01*
X55313Y694175D01*
X55518Y694137D01*
X55722Y694093D01*
X55925Y694045D01*
X56127Y693992D01*
X56327Y693934D01*
X56526Y693871D01*
X56724Y693803D01*
X56919Y693730D01*
X57113Y693653D01*
X57305Y693571D01*
X57494Y693484D01*
X57682Y693392D01*
X57867Y693296D01*
X58050Y693196D01*
X58230Y693091D01*
X58407Y692981D01*
X58582Y692867D01*
X58754Y692749D01*
X58923Y692627D01*
X59089Y692501D01*
X59252Y692371D01*
X59412Y692236D01*
X59568Y692098D01*
X59721Y691956D01*
X59870Y691810D01*
X60016Y691661D01*
X60158Y691508D01*
X60296Y691352D01*
X60431Y691192D01*
X60561Y691029D01*
X60687Y690863D01*
X60809Y690694D01*
X60927Y690522D01*
X61041Y690347D01*
X61151Y690170D01*
X61256Y689990D01*
X61356Y689807D01*
X61452Y689622D01*
X61544Y689434D01*
X61631Y689245D01*
X61713Y689053D01*
X61790Y688859D01*
X61863Y688664D01*
X61931Y688466D01*
X61994Y688267D01*
X62052Y688067D01*
X62105Y687865D01*
X62153Y687662D01*
X62197Y687458D01*
X62235Y687253D01*
X62268Y687047D01*
X62296Y686840D01*
X62319Y686633D01*
X62337Y686425D01*
X62350Y686217D01*
X62357Y686009D01*
X62360Y685800D01*
X62357Y685591D01*
X62350Y685383D01*
X62337Y685175D01*
X62319Y684967D01*
X62296Y684760D01*
X62268Y684553D01*
X62235Y684347D01*
X62197Y684142D01*
X62153Y683938D01*
X62105Y683735D01*
X62052Y683533D01*
X61994Y683333D01*
X61931Y683134D01*
X61863Y682936D01*
X61790Y682741D01*
X61713Y682547D01*
X61631Y682355D01*
X61544Y682166D01*
X61452Y681978D01*
X61356Y681793D01*
X61256Y681610D01*
X61151Y681430D01*
X61041Y681253D01*
X60927Y681078D01*
X60809Y680906D01*
X60687Y680737D01*
X60561Y680571D01*
X60431Y680408D01*
X60296Y680248D01*
X60158Y680092D01*
X60016Y679939D01*
X59870Y679790D01*
X59721Y679644D01*
X59568Y679502D01*
X59412Y679364D01*
X59252Y679229D01*
X59089Y679099D01*
X58923Y678973D01*
X58754Y678851D01*
X58582Y678733D01*
X58407Y678619D01*
X58230Y678509D01*
X58050Y678404D01*
X57867Y678304D01*
X57682Y678208D01*
X57494Y678116D01*
X57305Y678029D01*
X57113Y677947D01*
X56919Y677870D01*
X56724Y677797D01*
X56526Y677729D01*
X56327Y677666D01*
X56127Y677608D01*
X55925Y677555D01*
X55722Y677507D01*
X55518Y677463D01*
X55313Y677425D01*
X55107Y677392D01*
X54900Y677364D01*
X54693Y677341D01*
X54485Y677323D01*
X54277Y677310D01*
X54069Y677303D01*
X53860Y677300D01*
X53651Y677303D01*
X53443Y677310D01*
X53235Y677323D01*
X53027Y677341D01*
X52820Y677364D01*
X52613Y677392D01*
X52407Y677425D01*
X52202Y677463D01*
X51998Y677507D01*
X51795Y677555D01*
X51593Y677608D01*
X51393Y677666D01*
X51194Y677729D01*
X50996Y677797D01*
X50801Y677870D01*
X50607Y677947D01*
X50415Y678029D01*
X50226Y678116D01*
X50038Y678208D01*
X49853Y678304D01*
X49670Y678404D01*
X49490Y678509D01*
X49313Y678619D01*
X49138Y678733D01*
X48966Y678851D01*
X48797Y678973D01*
X48631Y679099D01*
X48468Y679229D01*
X48308Y679364D01*
X48152Y679502D01*
X47999Y679644D01*
X47850Y679790D01*
X47704Y679939D01*
X47562Y680092D01*
X47424Y680248D01*
X47289Y680408D01*
X47159Y680571D01*
X47033Y680737D01*
X46911Y680906D01*
X46793Y681078D01*
X46679Y681253D01*
X46569Y681430D01*
X46464Y681610D01*
X46364Y681793D01*
X46268Y681978D01*
X46176Y682166D01*
X46089Y682355D01*
X46007Y682547D01*
X45930Y682741D01*
X45857Y682936D01*
X45789Y683134D01*
X45726Y683333D01*
X45668Y683533D01*
X45615Y683735D01*
X45567Y683938D01*
X45523Y684142D01*
X45485Y684347D01*
X45452Y684553D01*
X45424Y684760D01*
X45401Y684967D01*
X45383Y685175D01*
X45370Y685383D01*
X45363Y685591D01*
X45360Y685800D01*
X115360Y685800D02*
X115363Y686009D01*
X115370Y686217D01*
X115383Y686425D01*
X115401Y686633D01*
X115424Y686840D01*
X115452Y687047D01*
X115485Y687253D01*
X115523Y687458D01*
X115567Y687662D01*
X115615Y687865D01*
X115668Y688067D01*
X115726Y688267D01*
X115789Y688466D01*
X115857Y688664D01*
X115930Y688859D01*
X116007Y689053D01*
X116089Y689245D01*
X116176Y689434D01*
X116268Y689622D01*
X116364Y689807D01*
X116464Y689990D01*
X116569Y690170D01*
X116679Y690347D01*
X116793Y690522D01*
X116911Y690694D01*
X117033Y690863D01*
X117159Y691029D01*
X117289Y691192D01*
X117424Y691352D01*
X117562Y691508D01*
X117704Y691661D01*
X117850Y691810D01*
X117999Y691956D01*
X118152Y692098D01*
X118308Y692236D01*
X118468Y692371D01*
X118631Y692501D01*
X118797Y692627D01*
X118966Y692749D01*
X119138Y692867D01*
X119313Y692981D01*
X119490Y693091D01*
X119670Y693196D01*
X119853Y693296D01*
X120038Y693392D01*
X120226Y693484D01*
X120415Y693571D01*
X120607Y693653D01*
X120801Y693730D01*
X120996Y693803D01*
X121194Y693871D01*
X121393Y693934D01*
X121593Y693992D01*
X121795Y694045D01*
X121998Y694093D01*
X122202Y694137D01*
X122407Y694175D01*
X122613Y694208D01*
X122820Y694236D01*
X123027Y694259D01*
X123235Y694277D01*
X123443Y694290D01*
X123651Y694297D01*
X123860Y694300D01*
X124069Y694297D01*
X124277Y694290D01*
X124485Y694277D01*
X124693Y694259D01*
X124900Y694236D01*
X125107Y694208D01*
X125313Y694175D01*
X125518Y694137D01*
X125722Y694093D01*
X125925Y694045D01*
X126127Y693992D01*
X126327Y693934D01*
X126526Y693871D01*
X126724Y693803D01*
X126919Y693730D01*
X127113Y693653D01*
X127305Y693571D01*
X127494Y693484D01*
X127682Y693392D01*
X127867Y693296D01*
X128050Y693196D01*
X128230Y693091D01*
X128407Y692981D01*
X128582Y692867D01*
X128754Y692749D01*
X128923Y692627D01*
X129089Y692501D01*
X129252Y692371D01*
X129412Y692236D01*
X129568Y692098D01*
X129721Y691956D01*
X129870Y691810D01*
X130016Y691661D01*
X130158Y691508D01*
X130296Y691352D01*
X130431Y691192D01*
X130561Y691029D01*
X130687Y690863D01*
X130809Y690694D01*
X130927Y690522D01*
X131041Y690347D01*
X131151Y690170D01*
X131256Y689990D01*
X131356Y689807D01*
X131452Y689622D01*
X131544Y689434D01*
X131631Y689245D01*
X131713Y689053D01*
X131790Y688859D01*
X131863Y688664D01*
X131931Y688466D01*
X131994Y688267D01*
X132052Y688067D01*
X132105Y687865D01*
X132153Y687662D01*
X132197Y687458D01*
X132235Y687253D01*
X132268Y687047D01*
X132296Y686840D01*
X132319Y686633D01*
X132337Y686425D01*
X132350Y686217D01*
X132357Y686009D01*
X132360Y685800D01*
X132357Y685591D01*
X132350Y685383D01*
X132337Y685175D01*
X132319Y684967D01*
X132296Y684760D01*
X132268Y684553D01*
X132235Y684347D01*
X132197Y684142D01*
X132153Y683938D01*
X132105Y683735D01*
X132052Y683533D01*
X131994Y683333D01*
X131931Y683134D01*
X131863Y682936D01*
X131790Y682741D01*
X131713Y682547D01*
X131631Y682355D01*
X131544Y682166D01*
X131452Y681978D01*
X131356Y681793D01*
X131256Y681610D01*
X131151Y681430D01*
X131041Y681253D01*
X130927Y681078D01*
X130809Y680906D01*
X130687Y680737D01*
X130561Y680571D01*
X130431Y680408D01*
X130296Y680248D01*
X130158Y680092D01*
X130016Y679939D01*
X129870Y679790D01*
X129721Y679644D01*
X129568Y679502D01*
X129412Y679364D01*
X129252Y679229D01*
X129089Y679099D01*
X128923Y678973D01*
X128754Y678851D01*
X128582Y678733D01*
X128407Y678619D01*
X128230Y678509D01*
X128050Y678404D01*
X127867Y678304D01*
X127682Y678208D01*
X127494Y678116D01*
X127305Y678029D01*
X127113Y677947D01*
X126919Y677870D01*
X126724Y677797D01*
X126526Y677729D01*
X126327Y677666D01*
X126127Y677608D01*
X125925Y677555D01*
X125722Y677507D01*
X125518Y677463D01*
X125313Y677425D01*
X125107Y677392D01*
X124900Y677364D01*
X124693Y677341D01*
X124485Y677323D01*
X124277Y677310D01*
X124069Y677303D01*
X123860Y677300D01*
X123651Y677303D01*
X123443Y677310D01*
X123235Y677323D01*
X123027Y677341D01*
X122820Y677364D01*
X122613Y677392D01*
X122407Y677425D01*
X122202Y677463D01*
X121998Y677507D01*
X121795Y677555D01*
X121593Y677608D01*
X121393Y677666D01*
X121194Y677729D01*
X120996Y677797D01*
X120801Y677870D01*
X120607Y677947D01*
X120415Y678029D01*
X120226Y678116D01*
X120038Y678208D01*
X119853Y678304D01*
X119670Y678404D01*
X119490Y678509D01*
X119313Y678619D01*
X119138Y678733D01*
X118966Y678851D01*
X118797Y678973D01*
X118631Y679099D01*
X118468Y679229D01*
X118308Y679364D01*
X118152Y679502D01*
X117999Y679644D01*
X117850Y679790D01*
X117704Y679939D01*
X117562Y680092D01*
X117424Y680248D01*
X117289Y680408D01*
X117159Y680571D01*
X117033Y680737D01*
X116911Y680906D01*
X116793Y681078D01*
X116679Y681253D01*
X116569Y681430D01*
X116464Y681610D01*
X116364Y681793D01*
X116268Y681978D01*
X116176Y682166D01*
X116089Y682355D01*
X116007Y682547D01*
X115930Y682741D01*
X115857Y682936D01*
X115789Y683134D01*
X115726Y683333D01*
X115668Y683533D01*
X115615Y683735D01*
X115567Y683938D01*
X115523Y684142D01*
X115485Y684347D01*
X115452Y684553D01*
X115424Y684760D01*
X115401Y684967D01*
X115383Y685175D01*
X115370Y685383D01*
X115363Y685591D01*
X115360Y685800D01*
X45360Y965200D02*
X45363Y965409D01*
X45370Y965617D01*
X45383Y965825D01*
X45401Y966033D01*
X45424Y966240D01*
X45452Y966447D01*
X45485Y966653D01*
X45523Y966858D01*
X45567Y967062D01*
X45615Y967265D01*
X45668Y967467D01*
X45726Y967667D01*
X45789Y967866D01*
X45857Y968064D01*
X45930Y968259D01*
X46007Y968453D01*
X46089Y968645D01*
X46176Y968834D01*
X46268Y969022D01*
X46364Y969207D01*
X46464Y969390D01*
X46569Y969570D01*
X46679Y969747D01*
X46793Y969922D01*
X46911Y970094D01*
X47033Y970263D01*
X47159Y970429D01*
X47289Y970592D01*
X47424Y970752D01*
X47562Y970908D01*
X47704Y971061D01*
X47850Y971210D01*
X47999Y971356D01*
X48152Y971498D01*
X48308Y971636D01*
X48468Y971771D01*
X48631Y971901D01*
X48797Y972027D01*
X48966Y972149D01*
X49138Y972267D01*
X49313Y972381D01*
X49490Y972491D01*
X49670Y972596D01*
X49853Y972696D01*
X50038Y972792D01*
X50226Y972884D01*
X50415Y972971D01*
X50607Y973053D01*
X50801Y973130D01*
X50996Y973203D01*
X51194Y973271D01*
X51393Y973334D01*
X51593Y973392D01*
X51795Y973445D01*
X51998Y973493D01*
X52202Y973537D01*
X52407Y973575D01*
X52613Y973608D01*
X52820Y973636D01*
X53027Y973659D01*
X53235Y973677D01*
X53443Y973690D01*
X53651Y973697D01*
X53860Y973700D01*
X54069Y973697D01*
X54277Y973690D01*
X54485Y973677D01*
X54693Y973659D01*
X54900Y973636D01*
X55107Y973608D01*
X55313Y973575D01*
X55518Y973537D01*
X55722Y973493D01*
X55925Y973445D01*
X56127Y973392D01*
X56327Y973334D01*
X56526Y973271D01*
X56724Y973203D01*
X56919Y973130D01*
X57113Y973053D01*
X57305Y972971D01*
X57494Y972884D01*
X57682Y972792D01*
X57867Y972696D01*
X58050Y972596D01*
X58230Y972491D01*
X58407Y972381D01*
X58582Y972267D01*
X58754Y972149D01*
X58923Y972027D01*
X59089Y971901D01*
X59252Y971771D01*
X59412Y971636D01*
X59568Y971498D01*
X59721Y971356D01*
X59870Y971210D01*
X60016Y971061D01*
X60158Y970908D01*
X60296Y970752D01*
X60431Y970592D01*
X60561Y970429D01*
X60687Y970263D01*
X60809Y970094D01*
X60927Y969922D01*
X61041Y969747D01*
X61151Y969570D01*
X61256Y969390D01*
X61356Y969207D01*
X61452Y969022D01*
X61544Y968834D01*
X61631Y968645D01*
X61713Y968453D01*
X61790Y968259D01*
X61863Y968064D01*
X61931Y967866D01*
X61994Y967667D01*
X62052Y967467D01*
X62105Y967265D01*
X62153Y967062D01*
X62197Y966858D01*
X62235Y966653D01*
X62268Y966447D01*
X62296Y966240D01*
X62319Y966033D01*
X62337Y965825D01*
X62350Y965617D01*
X62357Y965409D01*
X62360Y965200D01*
X62357Y964991D01*
X62350Y964783D01*
X62337Y964575D01*
X62319Y964367D01*
X62296Y964160D01*
X62268Y963953D01*
X62235Y963747D01*
X62197Y963542D01*
X62153Y963338D01*
X62105Y963135D01*
X62052Y962933D01*
X61994Y962733D01*
X61931Y962534D01*
X61863Y962336D01*
X61790Y962141D01*
X61713Y961947D01*
X61631Y961755D01*
X61544Y961566D01*
X61452Y961378D01*
X61356Y961193D01*
X61256Y961010D01*
X61151Y960830D01*
X61041Y960653D01*
X60927Y960478D01*
X60809Y960306D01*
X60687Y960137D01*
X60561Y959971D01*
X60431Y959808D01*
X60296Y959648D01*
X60158Y959492D01*
X60016Y959339D01*
X59870Y959190D01*
X59721Y959044D01*
X59568Y958902D01*
X59412Y958764D01*
X59252Y958629D01*
X59089Y958499D01*
X58923Y958373D01*
X58754Y958251D01*
X58582Y958133D01*
X58407Y958019D01*
X58230Y957909D01*
X58050Y957804D01*
X57867Y957704D01*
X57682Y957608D01*
X57494Y957516D01*
X57305Y957429D01*
X57113Y957347D01*
X56919Y957270D01*
X56724Y957197D01*
X56526Y957129D01*
X56327Y957066D01*
X56127Y957008D01*
X55925Y956955D01*
X55722Y956907D01*
X55518Y956863D01*
X55313Y956825D01*
X55107Y956792D01*
X54900Y956764D01*
X54693Y956741D01*
X54485Y956723D01*
X54277Y956710D01*
X54069Y956703D01*
X53860Y956700D01*
X53651Y956703D01*
X53443Y956710D01*
X53235Y956723D01*
X53027Y956741D01*
X52820Y956764D01*
X52613Y956792D01*
X52407Y956825D01*
X52202Y956863D01*
X51998Y956907D01*
X51795Y956955D01*
X51593Y957008D01*
X51393Y957066D01*
X51194Y957129D01*
X50996Y957197D01*
X50801Y957270D01*
X50607Y957347D01*
X50415Y957429D01*
X50226Y957516D01*
X50038Y957608D01*
X49853Y957704D01*
X49670Y957804D01*
X49490Y957909D01*
X49313Y958019D01*
X49138Y958133D01*
X48966Y958251D01*
X48797Y958373D01*
X48631Y958499D01*
X48468Y958629D01*
X48308Y958764D01*
X48152Y958902D01*
X47999Y959044D01*
X47850Y959190D01*
X47704Y959339D01*
X47562Y959492D01*
X47424Y959648D01*
X47289Y959808D01*
X47159Y959971D01*
X47033Y960137D01*
X46911Y960306D01*
X46793Y960478D01*
X46679Y960653D01*
X46569Y960830D01*
X46464Y961010D01*
X46364Y961193D01*
X46268Y961378D01*
X46176Y961566D01*
X46089Y961755D01*
X46007Y961947D01*
X45930Y962141D01*
X45857Y962336D01*
X45789Y962534D01*
X45726Y962733D01*
X45668Y962933D01*
X45615Y963135D01*
X45567Y963338D01*
X45523Y963542D01*
X45485Y963747D01*
X45452Y963953D01*
X45424Y964160D01*
X45401Y964367D01*
X45383Y964575D01*
X45370Y964783D01*
X45363Y964991D01*
X45360Y965200D01*
X115360Y965200D02*
X115363Y965409D01*
X115370Y965617D01*
X115383Y965825D01*
X115401Y966033D01*
X115424Y966240D01*
X115452Y966447D01*
X115485Y966653D01*
X115523Y966858D01*
X115567Y967062D01*
X115615Y967265D01*
X115668Y967467D01*
X115726Y967667D01*
X115789Y967866D01*
X115857Y968064D01*
X115930Y968259D01*
X116007Y968453D01*
X116089Y968645D01*
X116176Y968834D01*
X116268Y969022D01*
X116364Y969207D01*
X116464Y969390D01*
X116569Y969570D01*
X116679Y969747D01*
X116793Y969922D01*
X116911Y970094D01*
X117033Y970263D01*
X117159Y970429D01*
X117289Y970592D01*
X117424Y970752D01*
X117562Y970908D01*
X117704Y971061D01*
X117850Y971210D01*
X117999Y971356D01*
X118152Y971498D01*
X118308Y971636D01*
X118468Y971771D01*
X118631Y971901D01*
X118797Y972027D01*
X118966Y972149D01*
X119138Y972267D01*
X119313Y972381D01*
X119490Y972491D01*
X119670Y972596D01*
X119853Y972696D01*
X120038Y972792D01*
X120226Y972884D01*
X120415Y972971D01*
X120607Y973053D01*
X120801Y973130D01*
X120996Y973203D01*
X121194Y973271D01*
X121393Y973334D01*
X121593Y973392D01*
X121795Y973445D01*
X121998Y973493D01*
X122202Y973537D01*
X122407Y973575D01*
X122613Y973608D01*
X122820Y973636D01*
X123027Y973659D01*
X123235Y973677D01*
X123443Y973690D01*
X123651Y973697D01*
X123860Y973700D01*
X124069Y973697D01*
X124277Y973690D01*
X124485Y973677D01*
X124693Y973659D01*
X124900Y973636D01*
X125107Y973608D01*
X125313Y973575D01*
X125518Y973537D01*
X125722Y973493D01*
X125925Y973445D01*
X126127Y973392D01*
X126327Y973334D01*
X126526Y973271D01*
X126724Y973203D01*
X126919Y973130D01*
X127113Y973053D01*
X127305Y972971D01*
X127494Y972884D01*
X127682Y972792D01*
X127867Y972696D01*
X128050Y972596D01*
X128230Y972491D01*
X128407Y972381D01*
X128582Y972267D01*
X128754Y972149D01*
X128923Y972027D01*
X129089Y971901D01*
X129252Y971771D01*
X129412Y971636D01*
X129568Y971498D01*
X129721Y971356D01*
X129870Y971210D01*
X130016Y971061D01*
X130158Y970908D01*
X130296Y970752D01*
X130431Y970592D01*
X130561Y970429D01*
X130687Y970263D01*
X130809Y970094D01*
X130927Y969922D01*
X131041Y969747D01*
X131151Y969570D01*
X131256Y969390D01*
X131356Y969207D01*
X131452Y969022D01*
X131544Y968834D01*
X131631Y968645D01*
X131713Y968453D01*
X131790Y968259D01*
X131863Y968064D01*
X131931Y967866D01*
X131994Y967667D01*
X132052Y967467D01*
X132105Y967265D01*
X132153Y967062D01*
X132197Y966858D01*
X132235Y966653D01*
X132268Y966447D01*
X132296Y966240D01*
X132319Y966033D01*
X132337Y965825D01*
X132350Y965617D01*
X132357Y965409D01*
X132360Y965200D01*
X132357Y964991D01*
X132350Y964783D01*
X132337Y964575D01*
X132319Y964367D01*
X132296Y964160D01*
X132268Y963953D01*
X132235Y963747D01*
X132197Y963542D01*
X132153Y963338D01*
X132105Y963135D01*
X132052Y962933D01*
X131994Y962733D01*
X131931Y962534D01*
X131863Y962336D01*
X131790Y962141D01*
X131713Y961947D01*
X131631Y961755D01*
X131544Y961566D01*
X131452Y961378D01*
X131356Y961193D01*
X131256Y961010D01*
X131151Y960830D01*
X131041Y960653D01*
X130927Y960478D01*
X130809Y960306D01*
X130687Y960137D01*
X130561Y959971D01*
X130431Y959808D01*
X130296Y959648D01*
X130158Y959492D01*
X130016Y959339D01*
X129870Y959190D01*
X129721Y959044D01*
X129568Y958902D01*
X129412Y958764D01*
X129252Y958629D01*
X129089Y958499D01*
X128923Y958373D01*
X128754Y958251D01*
X128582Y958133D01*
X128407Y958019D01*
X128230Y957909D01*
X128050Y957804D01*
X127867Y957704D01*
X127682Y957608D01*
X127494Y957516D01*
X127305Y957429D01*
X127113Y957347D01*
X126919Y957270D01*
X126724Y957197D01*
X126526Y957129D01*
X126327Y957066D01*
X126127Y957008D01*
X125925Y956955D01*
X125722Y956907D01*
X125518Y956863D01*
X125313Y956825D01*
X125107Y956792D01*
X124900Y956764D01*
X124693Y956741D01*
X124485Y956723D01*
X124277Y956710D01*
X124069Y956703D01*
X123860Y956700D01*
X123651Y956703D01*
X123443Y956710D01*
X123235Y956723D01*
X123027Y956741D01*
X122820Y956764D01*
X122613Y956792D01*
X122407Y956825D01*
X122202Y956863D01*
X121998Y956907D01*
X121795Y956955D01*
X121593Y957008D01*
X121393Y957066D01*
X121194Y957129D01*
X120996Y957197D01*
X120801Y957270D01*
X120607Y957347D01*
X120415Y957429D01*
X120226Y957516D01*
X120038Y957608D01*
X119853Y957704D01*
X119670Y957804D01*
X119490Y957909D01*
X119313Y958019D01*
X119138Y958133D01*
X118966Y958251D01*
X118797Y958373D01*
X118631Y958499D01*
X118468Y958629D01*
X118308Y958764D01*
X118152Y958902D01*
X117999Y959044D01*
X117850Y959190D01*
X117704Y959339D01*
X117562Y959492D01*
X117424Y959648D01*
X117289Y959808D01*
X117159Y959971D01*
X117033Y960137D01*
X116911Y960306D01*
X116793Y960478D01*
X116679Y960653D01*
X116569Y960830D01*
X116464Y961010D01*
X116364Y961193D01*
X116268Y961378D01*
X116176Y961566D01*
X116089Y961755D01*
X116007Y961947D01*
X115930Y962141D01*
X115857Y962336D01*
X115789Y962534D01*
X115726Y962733D01*
X115668Y962933D01*
X115615Y963135D01*
X115567Y963338D01*
X115523Y963542D01*
X115485Y963747D01*
X115452Y963953D01*
X115424Y964160D01*
X115401Y964367D01*
X115383Y964575D01*
X115370Y964783D01*
X115363Y964991D01*
X115360Y965200D01*
M02*
