G04 EAGLE Gerber RS-274X export*
G75*
%MOMM*%
%FSLAX34Y34*%
%LPD*%
%INTop Solder Paste*%
%IPPOS*%
%AMOC8*
5,1,8,0,0,1.08239X$1,22.5*%
G01*
%ADD10R,1.500000X1.300000*%
%ADD11R,1.300000X1.500000*%
%ADD12R,1.600000X1.800000*%
%ADD13R,0.600000X0.600000*%
%ADD14R,1.663700X0.558800*%
%ADD15R,2.000000X2.800000*%
%ADD16R,2.800000X2.600000*%
%ADD17R,2.200000X2.800000*%
%ADD18C,1.701800*%
%ADD19C,1.498600*%
%ADD20R,1.000000X1.400000*%
%ADD21R,1.803000X1.600000*%


D10*
X254000Y790600D03*
X254000Y809600D03*
D11*
X949300Y762000D03*
X930300Y762000D03*
X216560Y728980D03*
X235560Y728980D03*
X441300Y876300D03*
X422300Y876300D03*
X1119480Y203200D03*
X1100480Y203200D03*
X828700Y876300D03*
X847700Y876300D03*
X828700Y927100D03*
X847700Y927100D03*
X212700Y152400D03*
X193700Y152400D03*
X219100Y482600D03*
X238100Y482600D03*
D10*
X254000Y873100D03*
X254000Y854100D03*
X254000Y650900D03*
X254000Y669900D03*
D12*
X1030000Y889000D03*
X1002000Y889000D03*
X1030000Y812800D03*
X1002000Y812800D03*
D11*
X720700Y711200D03*
X701700Y711200D03*
X650900Y762000D03*
X669900Y762000D03*
D10*
X800100Y758800D03*
X800100Y739800D03*
D11*
X879500Y711200D03*
X898500Y711200D03*
D13*
X482600Y976200D03*
X482600Y954200D03*
X139700Y255700D03*
X139700Y277700D03*
D14*
X771843Y831850D03*
X771843Y819150D03*
X771843Y806450D03*
X771843Y793750D03*
X828358Y793750D03*
X828358Y806450D03*
X828358Y819150D03*
X828358Y831850D03*
D15*
X1209420Y900600D03*
D16*
X1087420Y899600D03*
D17*
X1162420Y826600D03*
X1181420Y900600D03*
D18*
X38100Y259080D02*
X38100Y248920D01*
D19*
X78020Y254000D02*
X88180Y254000D01*
D15*
X14860Y788500D03*
D16*
X136860Y789500D03*
D17*
X61860Y862500D03*
X42860Y788500D03*
D15*
X14860Y648800D03*
D16*
X136860Y649800D03*
D17*
X61860Y722800D03*
X42860Y648800D03*
D15*
X14860Y928200D03*
D16*
X136860Y929200D03*
D17*
X61860Y1002200D03*
X42860Y928200D03*
D20*
X444500Y976200D03*
X454000Y954200D03*
X435000Y954200D03*
X177800Y255700D03*
X168300Y277700D03*
X187300Y277700D03*
D10*
X215900Y790600D03*
X215900Y809600D03*
D11*
X403200Y952500D03*
X384200Y952500D03*
X1120800Y241300D03*
X1139800Y241300D03*
X238100Y279400D03*
X219100Y279400D03*
X1139800Y342900D03*
X1120800Y342900D03*
X193700Y190500D03*
X212700Y190500D03*
D21*
X533400Y747780D03*
X533400Y776220D03*
X482600Y747780D03*
X482600Y776220D03*
D10*
X1117600Y460400D03*
X1117600Y479400D03*
X215900Y873100D03*
X215900Y854100D03*
X215900Y650900D03*
X215900Y669900D03*
X723900Y816000D03*
X723900Y835000D03*
D11*
X720700Y762000D03*
X701700Y762000D03*
D10*
X876300Y803300D03*
X876300Y822300D03*
D11*
X879500Y762000D03*
X898500Y762000D03*
X720700Y736600D03*
X701700Y736600D03*
X879500Y736600D03*
X898500Y736600D03*
M02*
