G04 EAGLE Gerber RS-274X export*
G75*
%MOMM*%
%FSLAX34Y34*%
%LPD*%
%INTop Solder Paste*%
%IPPOS*%
%AMOC8*
5,1,8,0,0,1.08239X$1,22.5*%
G01*
%ADD10R,1.300000X1.500000*%
%ADD11R,0.600000X0.600000*%
%ADD12C,1.701800*%
%ADD13C,1.498600*%
%ADD14R,1.400000X1.000000*%
%ADD15R,1.000000X1.400000*%
%ADD16R,1.500000X1.300000*%


D10*
X89560Y373380D03*
X108560Y373380D03*
X282600Y1168400D03*
X301600Y1168400D03*
X1119480Y203200D03*
X1100480Y203200D03*
X936600Y914400D03*
X917600Y914400D03*
X936600Y723900D03*
X917600Y723900D03*
X238100Y76200D03*
X219100Y76200D03*
X219100Y419100D03*
X238100Y419100D03*
D11*
X330200Y1052400D03*
X330200Y1030400D03*
X139700Y141400D03*
X139700Y163400D03*
D12*
X38100Y132080D02*
X38100Y121920D01*
D13*
X78020Y127000D02*
X88180Y127000D01*
D14*
X370000Y1066800D03*
X392000Y1076300D03*
X392000Y1057300D03*
D15*
X177800Y141400D03*
X168300Y163400D03*
X187300Y163400D03*
D16*
X393700Y1025500D03*
X393700Y1006500D03*
D10*
X1120800Y241300D03*
X1139800Y241300D03*
X238100Y165100D03*
X219100Y165100D03*
X1139800Y342900D03*
X1120800Y342900D03*
X219100Y101600D03*
X238100Y101600D03*
D16*
X1120140Y443840D03*
X1120140Y424840D03*
D12*
X38100Y1099820D02*
X38100Y1109980D01*
D13*
X78020Y1104900D02*
X88180Y1104900D01*
D12*
X38100Y894080D02*
X38100Y883920D01*
D13*
X78020Y889000D02*
X88180Y889000D01*
D12*
X1181100Y690880D02*
X1181100Y680720D01*
D13*
X1141180Y685800D02*
X1131020Y685800D01*
D15*
X1041400Y671400D03*
X1050900Y649400D03*
X1031900Y649400D03*
D11*
X1079500Y671400D03*
X1079500Y649400D03*
D10*
X981100Y647700D03*
X1000100Y647700D03*
X1000100Y723900D03*
X981100Y723900D03*
D12*
X1181100Y883920D02*
X1181100Y894080D01*
D13*
X1141180Y889000D02*
X1131020Y889000D01*
D15*
X1041400Y861900D03*
X1050900Y839900D03*
X1031900Y839900D03*
D11*
X1079500Y861900D03*
X1079500Y839900D03*
D10*
X981100Y838200D03*
X1000100Y838200D03*
X1000100Y914400D03*
X981100Y914400D03*
M02*
