G04 EAGLE Gerber RS-274X export*
G75*
%MOMM*%
%FSLAX34Y34*%
%LPD*%
%INBottom Copper Layer*%
%IPPOS*%
%AMOC8*
5,1,8,0,0,1.08239X$1,22.5*%
G01*
%ADD10C,1.790700*%
%ADD11C,1.498600*%
%ADD12C,1.422400*%
%ADD13R,1.258000X1.258000*%
%ADD14C,1.258000*%
%ADD15P,1.429621X8X22.500000*%
%ADD16P,1.649562X8X112.500000*%
%ADD17C,2.247900*%
%ADD18C,1.408000*%
%ADD19C,0.609600*%
%ADD20C,0.787400*%

G36*
X546218Y2556D02*
X546218Y2556D01*
X546337Y2563D01*
X546375Y2576D01*
X546416Y2581D01*
X546526Y2624D01*
X546639Y2661D01*
X546674Y2683D01*
X546711Y2698D01*
X546807Y2767D01*
X546908Y2831D01*
X546936Y2861D01*
X546969Y2884D01*
X547045Y2976D01*
X547126Y3063D01*
X547146Y3098D01*
X547171Y3129D01*
X547222Y3237D01*
X547280Y3341D01*
X547290Y3381D01*
X547307Y3417D01*
X547329Y3534D01*
X547359Y3649D01*
X547363Y3709D01*
X547367Y3729D01*
X547365Y3750D01*
X547369Y3810D01*
X547369Y58041D01*
X550592Y72159D01*
X556875Y85206D01*
X565904Y96528D01*
X577226Y105557D01*
X590273Y111840D01*
X604391Y115063D01*
X618873Y115063D01*
X632991Y111840D01*
X646038Y105557D01*
X657360Y96528D01*
X666389Y85206D01*
X672672Y72159D01*
X675895Y58041D01*
X675895Y3810D01*
X675910Y3692D01*
X675917Y3573D01*
X675930Y3535D01*
X675935Y3494D01*
X675978Y3384D01*
X676015Y3271D01*
X676037Y3236D01*
X676052Y3199D01*
X676121Y3103D01*
X676185Y3002D01*
X676215Y2974D01*
X676238Y2941D01*
X676330Y2865D01*
X676417Y2784D01*
X676452Y2764D01*
X676483Y2739D01*
X676591Y2688D01*
X676695Y2630D01*
X676735Y2620D01*
X676771Y2603D01*
X676888Y2581D01*
X677003Y2551D01*
X677063Y2547D01*
X677083Y2543D01*
X677104Y2545D01*
X677164Y2541D01*
X1219200Y2541D01*
X1219318Y2556D01*
X1219437Y2563D01*
X1219475Y2576D01*
X1219516Y2581D01*
X1219626Y2624D01*
X1219739Y2661D01*
X1219774Y2683D01*
X1219811Y2698D01*
X1219907Y2767D01*
X1220008Y2831D01*
X1220036Y2861D01*
X1220069Y2884D01*
X1220145Y2976D01*
X1220226Y3063D01*
X1220246Y3098D01*
X1220271Y3129D01*
X1220322Y3237D01*
X1220380Y3341D01*
X1220390Y3381D01*
X1220407Y3417D01*
X1220429Y3534D01*
X1220459Y3649D01*
X1220463Y3709D01*
X1220467Y3729D01*
X1220465Y3750D01*
X1220469Y3810D01*
X1220469Y1216660D01*
X1220454Y1216778D01*
X1220447Y1216897D01*
X1220434Y1216935D01*
X1220429Y1216976D01*
X1220386Y1217086D01*
X1220349Y1217199D01*
X1220327Y1217234D01*
X1220312Y1217271D01*
X1220243Y1217367D01*
X1220179Y1217468D01*
X1220149Y1217496D01*
X1220126Y1217529D01*
X1220034Y1217605D01*
X1219947Y1217686D01*
X1219912Y1217706D01*
X1219881Y1217731D01*
X1219773Y1217782D01*
X1219669Y1217840D01*
X1219629Y1217850D01*
X1219593Y1217867D01*
X1219476Y1217889D01*
X1219361Y1217919D01*
X1219301Y1217923D01*
X1219281Y1217927D01*
X1219260Y1217925D01*
X1219200Y1217929D01*
X677164Y1217929D01*
X677046Y1217914D01*
X676927Y1217907D01*
X676889Y1217894D01*
X676848Y1217889D01*
X676738Y1217846D01*
X676625Y1217809D01*
X676590Y1217787D01*
X676553Y1217772D01*
X676457Y1217703D01*
X676356Y1217639D01*
X676328Y1217609D01*
X676295Y1217586D01*
X676219Y1217494D01*
X676138Y1217407D01*
X676118Y1217372D01*
X676093Y1217341D01*
X676042Y1217233D01*
X675984Y1217129D01*
X675974Y1217089D01*
X675957Y1217053D01*
X675935Y1216936D01*
X675905Y1216821D01*
X675901Y1216761D01*
X675897Y1216741D01*
X675899Y1216720D01*
X675895Y1216660D01*
X675895Y1161159D01*
X672672Y1147041D01*
X666389Y1133994D01*
X657360Y1122672D01*
X646038Y1113643D01*
X632991Y1107360D01*
X618873Y1104137D01*
X604391Y1104137D01*
X590273Y1107360D01*
X577226Y1113643D01*
X565904Y1122672D01*
X556875Y1133994D01*
X550592Y1147041D01*
X547369Y1161159D01*
X547369Y1216660D01*
X547354Y1216778D01*
X547347Y1216897D01*
X547334Y1216935D01*
X547329Y1216976D01*
X547286Y1217086D01*
X547249Y1217199D01*
X547227Y1217234D01*
X547212Y1217271D01*
X547143Y1217367D01*
X547079Y1217468D01*
X547049Y1217496D01*
X547026Y1217529D01*
X546934Y1217605D01*
X546847Y1217686D01*
X546812Y1217706D01*
X546781Y1217731D01*
X546673Y1217782D01*
X546569Y1217840D01*
X546529Y1217850D01*
X546493Y1217867D01*
X546376Y1217889D01*
X546261Y1217919D01*
X546201Y1217923D01*
X546181Y1217927D01*
X546160Y1217925D01*
X546100Y1217929D01*
X3810Y1217929D01*
X3692Y1217914D01*
X3573Y1217907D01*
X3535Y1217894D01*
X3494Y1217889D01*
X3384Y1217846D01*
X3271Y1217809D01*
X3236Y1217787D01*
X3199Y1217772D01*
X3103Y1217703D01*
X3002Y1217639D01*
X2974Y1217609D01*
X2941Y1217586D01*
X2865Y1217494D01*
X2784Y1217407D01*
X2764Y1217372D01*
X2739Y1217341D01*
X2688Y1217233D01*
X2630Y1217129D01*
X2620Y1217089D01*
X2603Y1217053D01*
X2581Y1216936D01*
X2551Y1216821D01*
X2547Y1216761D01*
X2543Y1216741D01*
X2545Y1216720D01*
X2541Y1216660D01*
X2541Y3810D01*
X2556Y3692D01*
X2563Y3573D01*
X2576Y3535D01*
X2581Y3494D01*
X2624Y3384D01*
X2661Y3271D01*
X2683Y3236D01*
X2698Y3199D01*
X2767Y3103D01*
X2831Y3002D01*
X2861Y2974D01*
X2884Y2941D01*
X2976Y2865D01*
X3063Y2784D01*
X3098Y2764D01*
X3129Y2739D01*
X3237Y2688D01*
X3341Y2630D01*
X3381Y2620D01*
X3417Y2603D01*
X3534Y2581D01*
X3649Y2551D01*
X3709Y2547D01*
X3729Y2543D01*
X3750Y2545D01*
X3810Y2541D01*
X546100Y2541D01*
X546218Y2556D01*
G37*
%LPC*%
G36*
X237573Y131190D02*
X237573Y131190D01*
X235378Y132099D01*
X233699Y133778D01*
X232907Y135691D01*
X232902Y135699D01*
X232900Y135708D01*
X232823Y135837D01*
X232749Y135968D01*
X232743Y135974D01*
X232738Y135982D01*
X232632Y136103D01*
X225321Y143414D01*
X225320Y143414D01*
X223713Y145022D01*
X222939Y146889D01*
X222939Y295996D01*
X222933Y296045D01*
X222935Y296095D01*
X222913Y296202D01*
X222899Y296311D01*
X222881Y296358D01*
X222871Y296406D01*
X222823Y296505D01*
X222782Y296607D01*
X222753Y296647D01*
X222731Y296692D01*
X222660Y296776D01*
X222596Y296865D01*
X222557Y296896D01*
X222525Y296934D01*
X222435Y296997D01*
X222351Y297067D01*
X222306Y297089D01*
X222265Y297117D01*
X222162Y297156D01*
X222063Y297203D01*
X222014Y297212D01*
X221968Y297230D01*
X221858Y297242D01*
X221751Y297263D01*
X221701Y297260D01*
X221652Y297265D01*
X221543Y297250D01*
X221433Y297243D01*
X221386Y297228D01*
X221337Y297221D01*
X221184Y297169D01*
X217705Y295727D01*
X214095Y295727D01*
X210761Y297108D01*
X208208Y299661D01*
X206827Y302995D01*
X206827Y306605D01*
X208208Y309939D01*
X210761Y312492D01*
X214095Y313873D01*
X215540Y313873D01*
X215677Y313890D01*
X215816Y313903D01*
X215835Y313910D01*
X215855Y313913D01*
X215984Y313964D01*
X216115Y314011D01*
X216132Y314022D01*
X216151Y314030D01*
X216263Y314111D01*
X216378Y314189D01*
X216392Y314205D01*
X216408Y314216D01*
X216497Y314324D01*
X216589Y314428D01*
X216598Y314446D01*
X216611Y314461D01*
X216670Y314587D01*
X216734Y314711D01*
X216738Y314731D01*
X216747Y314749D01*
X216773Y314885D01*
X216803Y315021D01*
X216803Y315042D01*
X216806Y315061D01*
X216798Y315200D01*
X216794Y315339D01*
X216788Y315359D01*
X216787Y315379D01*
X216744Y315511D01*
X216705Y315645D01*
X216695Y315662D01*
X216689Y315681D01*
X216614Y315799D01*
X216544Y315919D01*
X216525Y315940D01*
X216518Y315950D01*
X216503Y315964D01*
X216437Y316039D01*
X211593Y320884D01*
X210819Y322751D01*
X210819Y499724D01*
X210807Y499822D01*
X210804Y499921D01*
X210787Y499980D01*
X210779Y500040D01*
X210743Y500132D01*
X210715Y500227D01*
X210685Y500279D01*
X210662Y500335D01*
X210604Y500415D01*
X210554Y500501D01*
X210488Y500576D01*
X210476Y500593D01*
X210466Y500601D01*
X210448Y500622D01*
X208208Y502861D01*
X206827Y506195D01*
X206827Y509805D01*
X208208Y513139D01*
X210761Y515692D01*
X214095Y517073D01*
X217262Y517073D01*
X217360Y517085D01*
X217459Y517088D01*
X217517Y517105D01*
X217577Y517113D01*
X217669Y517149D01*
X217764Y517177D01*
X217817Y517207D01*
X217873Y517230D01*
X217953Y517288D01*
X218038Y517338D01*
X218114Y517404D01*
X218130Y517416D01*
X218138Y517426D01*
X218159Y517444D01*
X223148Y522433D01*
X223208Y522511D01*
X223276Y522583D01*
X223305Y522636D01*
X223342Y522684D01*
X223382Y522775D01*
X223430Y522862D01*
X223445Y522920D01*
X223469Y522976D01*
X223484Y523074D01*
X223509Y523170D01*
X223515Y523270D01*
X223519Y523290D01*
X223517Y523302D01*
X223519Y523330D01*
X223519Y537824D01*
X223502Y537962D01*
X223489Y538101D01*
X223482Y538120D01*
X223479Y538140D01*
X223428Y538269D01*
X223381Y538400D01*
X223370Y538417D01*
X223362Y538435D01*
X223281Y538548D01*
X223203Y538663D01*
X223187Y538676D01*
X223176Y538693D01*
X223068Y538782D01*
X222964Y538874D01*
X222946Y538883D01*
X222931Y538896D01*
X222805Y538955D01*
X222681Y539018D01*
X222661Y539023D01*
X222643Y539031D01*
X222507Y539057D01*
X222371Y539088D01*
X222350Y539087D01*
X222331Y539091D01*
X222192Y539082D01*
X222053Y539078D01*
X222033Y539072D01*
X222013Y539071D01*
X221881Y539028D01*
X221747Y538990D01*
X221730Y538979D01*
X221711Y538973D01*
X221593Y538899D01*
X221473Y538828D01*
X221452Y538810D01*
X221442Y538803D01*
X221428Y538788D01*
X221352Y538722D01*
X221039Y538408D01*
X217705Y537027D01*
X214095Y537027D01*
X210761Y538408D01*
X210448Y538722D01*
X210338Y538807D01*
X210231Y538896D01*
X210212Y538904D01*
X210196Y538917D01*
X210068Y538972D01*
X209943Y539031D01*
X209923Y539035D01*
X209904Y539043D01*
X209766Y539065D01*
X209630Y539091D01*
X209610Y539090D01*
X209590Y539093D01*
X209451Y539080D01*
X209313Y539071D01*
X209294Y539065D01*
X209274Y539063D01*
X209143Y539016D01*
X209011Y538973D01*
X208993Y538962D01*
X208974Y538955D01*
X208860Y538878D01*
X208742Y538803D01*
X208728Y538788D01*
X208711Y538777D01*
X208619Y538673D01*
X208524Y538571D01*
X208514Y538554D01*
X208501Y538539D01*
X208437Y538414D01*
X208370Y538293D01*
X208365Y538273D01*
X208356Y538255D01*
X208326Y538119D01*
X208291Y537985D01*
X208289Y537957D01*
X208286Y537945D01*
X208287Y537924D01*
X208281Y537824D01*
X208281Y519689D01*
X207507Y517822D01*
X199944Y510259D01*
X199884Y510181D01*
X199816Y510109D01*
X199787Y510056D01*
X199750Y510008D01*
X199710Y509917D01*
X199662Y509830D01*
X199647Y509772D01*
X199623Y509716D01*
X199608Y509618D01*
X199583Y509522D01*
X199577Y509422D01*
X199573Y509402D01*
X199575Y509390D01*
X199573Y509362D01*
X199573Y506195D01*
X198192Y502861D01*
X195639Y500308D01*
X192305Y498927D01*
X188695Y498927D01*
X185361Y500308D01*
X182808Y502861D01*
X181427Y506195D01*
X181427Y509805D01*
X182808Y513139D01*
X185361Y515692D01*
X188695Y517073D01*
X191862Y517073D01*
X191960Y517085D01*
X192059Y517088D01*
X192117Y517105D01*
X192177Y517113D01*
X192269Y517149D01*
X192364Y517177D01*
X192417Y517207D01*
X192473Y517230D01*
X192553Y517288D01*
X192638Y517338D01*
X192714Y517404D01*
X192730Y517416D01*
X192738Y517426D01*
X192759Y517444D01*
X197748Y522433D01*
X197808Y522511D01*
X197876Y522583D01*
X197905Y522636D01*
X197942Y522684D01*
X197982Y522775D01*
X198030Y522862D01*
X198045Y522920D01*
X198069Y522976D01*
X198084Y523074D01*
X198109Y523170D01*
X198115Y523270D01*
X198119Y523290D01*
X198117Y523302D01*
X198119Y523330D01*
X198119Y537824D01*
X198102Y537962D01*
X198089Y538101D01*
X198082Y538120D01*
X198079Y538140D01*
X198028Y538269D01*
X197981Y538400D01*
X197970Y538417D01*
X197962Y538435D01*
X197881Y538548D01*
X197803Y538663D01*
X197787Y538676D01*
X197776Y538693D01*
X197668Y538782D01*
X197564Y538874D01*
X197546Y538883D01*
X197531Y538896D01*
X197405Y538955D01*
X197281Y539018D01*
X197261Y539023D01*
X197243Y539031D01*
X197107Y539057D01*
X196971Y539088D01*
X196950Y539087D01*
X196931Y539091D01*
X196792Y539082D01*
X196653Y539078D01*
X196633Y539072D01*
X196613Y539071D01*
X196481Y539028D01*
X196347Y538990D01*
X196330Y538979D01*
X196311Y538973D01*
X196193Y538899D01*
X196073Y538828D01*
X196052Y538810D01*
X196042Y538803D01*
X196028Y538788D01*
X195952Y538722D01*
X195639Y538408D01*
X192305Y537027D01*
X188695Y537027D01*
X185361Y538408D01*
X185048Y538722D01*
X184938Y538807D01*
X184831Y538896D01*
X184812Y538904D01*
X184796Y538917D01*
X184668Y538972D01*
X184543Y539031D01*
X184523Y539035D01*
X184504Y539043D01*
X184366Y539065D01*
X184230Y539091D01*
X184210Y539090D01*
X184190Y539093D01*
X184051Y539080D01*
X183913Y539071D01*
X183894Y539065D01*
X183874Y539063D01*
X183743Y539016D01*
X183611Y538973D01*
X183593Y538962D01*
X183574Y538955D01*
X183460Y538878D01*
X183342Y538803D01*
X183328Y538788D01*
X183311Y538777D01*
X183219Y538673D01*
X183124Y538571D01*
X183114Y538554D01*
X183101Y538539D01*
X183037Y538414D01*
X182970Y538293D01*
X182965Y538273D01*
X182956Y538255D01*
X182926Y538119D01*
X182891Y537985D01*
X182889Y537957D01*
X182886Y537945D01*
X182887Y537924D01*
X182881Y537824D01*
X182881Y519689D01*
X182107Y517822D01*
X174544Y510259D01*
X174484Y510181D01*
X174416Y510109D01*
X174387Y510056D01*
X174350Y510008D01*
X174310Y509917D01*
X174262Y509830D01*
X174247Y509772D01*
X174223Y509716D01*
X174208Y509618D01*
X174183Y509522D01*
X174177Y509422D01*
X174173Y509402D01*
X174175Y509390D01*
X174173Y509362D01*
X174173Y506195D01*
X172792Y502861D01*
X170239Y500308D01*
X166905Y498927D01*
X165460Y498927D01*
X165323Y498910D01*
X165184Y498897D01*
X165165Y498890D01*
X165145Y498887D01*
X165016Y498836D01*
X164885Y498789D01*
X164868Y498778D01*
X164849Y498770D01*
X164737Y498689D01*
X164622Y498611D01*
X164608Y498595D01*
X164592Y498584D01*
X164503Y498476D01*
X164411Y498372D01*
X164402Y498354D01*
X164389Y498339D01*
X164330Y498213D01*
X164266Y498089D01*
X164262Y498069D01*
X164253Y498051D01*
X164227Y497915D01*
X164197Y497779D01*
X164197Y497758D01*
X164194Y497739D01*
X164202Y497600D01*
X164206Y497461D01*
X164212Y497441D01*
X164213Y497421D01*
X164256Y497289D01*
X164295Y497155D01*
X164305Y497138D01*
X164311Y497119D01*
X164386Y497001D01*
X164456Y496881D01*
X164475Y496860D01*
X164482Y496850D01*
X164497Y496836D01*
X164563Y496761D01*
X169407Y491916D01*
X170181Y490049D01*
X170181Y313076D01*
X170193Y312978D01*
X170196Y312879D01*
X170213Y312820D01*
X170221Y312760D01*
X170257Y312668D01*
X170285Y312573D01*
X170315Y312521D01*
X170338Y312465D01*
X170396Y312385D01*
X170446Y312299D01*
X170512Y312224D01*
X170524Y312207D01*
X170534Y312199D01*
X170552Y312178D01*
X172792Y309939D01*
X174173Y306605D01*
X174173Y302995D01*
X172792Y299661D01*
X170239Y297108D01*
X166905Y295727D01*
X163295Y295727D01*
X159961Y297108D01*
X157408Y299661D01*
X156027Y302995D01*
X156027Y306605D01*
X157408Y309939D01*
X159648Y312178D01*
X159708Y312257D01*
X159776Y312329D01*
X159805Y312382D01*
X159842Y312430D01*
X159882Y312521D01*
X159930Y312607D01*
X159945Y312666D01*
X159969Y312721D01*
X159984Y312819D01*
X160009Y312915D01*
X160015Y313015D01*
X160019Y313036D01*
X160017Y313048D01*
X160019Y313076D01*
X160019Y486408D01*
X160007Y486506D01*
X160004Y486605D01*
X159987Y486663D01*
X159979Y486723D01*
X159943Y486815D01*
X159915Y486911D01*
X159885Y486963D01*
X159862Y487019D01*
X159804Y487099D01*
X159754Y487185D01*
X159688Y487260D01*
X159676Y487276D01*
X159666Y487284D01*
X159648Y487305D01*
X148673Y498280D01*
X147899Y500147D01*
X147899Y538404D01*
X147882Y538542D01*
X147869Y538681D01*
X147862Y538700D01*
X147859Y538720D01*
X147808Y538849D01*
X147761Y538980D01*
X147750Y538997D01*
X147742Y539015D01*
X147661Y539128D01*
X147583Y539243D01*
X147567Y539256D01*
X147556Y539273D01*
X147448Y539362D01*
X147344Y539454D01*
X147326Y539463D01*
X147311Y539476D01*
X147185Y539535D01*
X147061Y539598D01*
X147041Y539603D01*
X147023Y539611D01*
X146886Y539637D01*
X146751Y539668D01*
X146730Y539667D01*
X146711Y539671D01*
X146572Y539662D01*
X146433Y539658D01*
X146413Y539652D01*
X146393Y539651D01*
X146261Y539608D01*
X146127Y539570D01*
X146110Y539559D01*
X146091Y539553D01*
X145973Y539479D01*
X145853Y539408D01*
X145832Y539390D01*
X145822Y539383D01*
X145808Y539368D01*
X145733Y539302D01*
X144839Y538408D01*
X141505Y537027D01*
X137895Y537027D01*
X134561Y538408D01*
X132008Y540961D01*
X130627Y544295D01*
X130627Y547905D01*
X132008Y551239D01*
X134561Y553792D01*
X137895Y555173D01*
X141505Y555173D01*
X144839Y553792D01*
X145733Y552898D01*
X145842Y552813D01*
X145949Y552724D01*
X145968Y552716D01*
X145984Y552703D01*
X146111Y552648D01*
X146237Y552589D01*
X146257Y552585D01*
X146276Y552577D01*
X146414Y552555D01*
X146550Y552529D01*
X146570Y552530D01*
X146590Y552527D01*
X146729Y552540D01*
X146867Y552549D01*
X146886Y552555D01*
X146906Y552557D01*
X147038Y552604D01*
X147169Y552647D01*
X147187Y552658D01*
X147206Y552665D01*
X147321Y552743D01*
X147438Y552817D01*
X147452Y552832D01*
X147469Y552843D01*
X147561Y552947D01*
X147656Y553049D01*
X147666Y553066D01*
X147679Y553082D01*
X147742Y553205D01*
X147810Y553327D01*
X147815Y553347D01*
X147824Y553365D01*
X147854Y553501D01*
X147889Y553635D01*
X147891Y553663D01*
X147894Y553675D01*
X147893Y553696D01*
X147899Y553796D01*
X147899Y670914D01*
X147891Y670983D01*
X147892Y671053D01*
X147871Y671141D01*
X147859Y671230D01*
X147834Y671295D01*
X147817Y671363D01*
X147775Y671442D01*
X147742Y671525D01*
X147701Y671582D01*
X147669Y671644D01*
X147608Y671710D01*
X147556Y671783D01*
X147502Y671827D01*
X147455Y671879D01*
X147380Y671928D01*
X147311Y671986D01*
X147247Y672015D01*
X147189Y672054D01*
X147104Y672083D01*
X147023Y672121D01*
X146954Y672134D01*
X146888Y672157D01*
X146799Y672164D01*
X146711Y672181D01*
X146641Y672177D01*
X146571Y672182D01*
X146483Y672167D01*
X146393Y672161D01*
X146327Y672140D01*
X146258Y672128D01*
X146176Y672091D01*
X146091Y672063D01*
X146032Y672026D01*
X145968Y671997D01*
X145898Y671941D01*
X145822Y671893D01*
X145774Y671842D01*
X145720Y671799D01*
X145665Y671727D01*
X145604Y671661D01*
X145570Y671600D01*
X145528Y671544D01*
X145457Y671400D01*
X144761Y669718D01*
X143082Y668039D01*
X140887Y667130D01*
X138513Y667130D01*
X136318Y668039D01*
X134639Y669718D01*
X133730Y671913D01*
X133730Y674287D01*
X134523Y676200D01*
X134525Y676209D01*
X134530Y676218D01*
X134567Y676362D01*
X134607Y676507D01*
X134607Y676516D01*
X134609Y676525D01*
X134619Y676686D01*
X134619Y741024D01*
X134607Y741122D01*
X134604Y741221D01*
X134587Y741280D01*
X134579Y741340D01*
X134543Y741432D01*
X134515Y741527D01*
X134485Y741579D01*
X134462Y741635D01*
X134404Y741715D01*
X134354Y741801D01*
X134288Y741876D01*
X134276Y741893D01*
X134266Y741901D01*
X134248Y741922D01*
X132008Y744161D01*
X130627Y747495D01*
X130627Y751105D01*
X132008Y754439D01*
X134561Y756992D01*
X137895Y758373D01*
X141505Y758373D01*
X144839Y756992D01*
X145733Y756098D01*
X145842Y756013D01*
X145949Y755924D01*
X145968Y755916D01*
X145984Y755903D01*
X146111Y755848D01*
X146237Y755789D01*
X146257Y755785D01*
X146276Y755777D01*
X146414Y755755D01*
X146550Y755729D01*
X146570Y755730D01*
X146590Y755727D01*
X146729Y755740D01*
X146867Y755749D01*
X146886Y755755D01*
X146906Y755757D01*
X147038Y755804D01*
X147169Y755847D01*
X147187Y755858D01*
X147206Y755865D01*
X147321Y755943D01*
X147438Y756017D01*
X147452Y756032D01*
X147469Y756043D01*
X147561Y756147D01*
X147656Y756249D01*
X147666Y756266D01*
X147679Y756282D01*
X147742Y756405D01*
X147810Y756527D01*
X147815Y756547D01*
X147824Y756565D01*
X147854Y756701D01*
X147889Y756835D01*
X147891Y756863D01*
X147894Y756875D01*
X147893Y756896D01*
X147899Y756996D01*
X147899Y847452D01*
X147898Y847461D01*
X147899Y847471D01*
X147878Y847619D01*
X147859Y847768D01*
X147856Y847776D01*
X147855Y847786D01*
X147803Y847938D01*
X147518Y848625D01*
X147518Y850999D01*
X148427Y853194D01*
X150106Y854873D01*
X152301Y855782D01*
X154675Y855782D01*
X156870Y854873D01*
X158549Y853194D01*
X159458Y850999D01*
X159458Y848625D01*
X158549Y846430D01*
X158432Y846314D01*
X158372Y846236D01*
X158304Y846164D01*
X158275Y846111D01*
X158238Y846063D01*
X158198Y845972D01*
X158150Y845885D01*
X158135Y845827D01*
X158111Y845771D01*
X158096Y845673D01*
X158071Y845577D01*
X158065Y845477D01*
X158061Y845457D01*
X158063Y845445D01*
X158061Y845417D01*
X158061Y758104D01*
X158067Y758055D01*
X158065Y758005D01*
X158087Y757898D01*
X158101Y757789D01*
X158119Y757742D01*
X158129Y757694D01*
X158177Y757595D01*
X158218Y757493D01*
X158247Y757453D01*
X158269Y757408D01*
X158340Y757324D01*
X158404Y757235D01*
X158443Y757204D01*
X158475Y757166D01*
X158565Y757103D01*
X158649Y757033D01*
X158694Y757011D01*
X158735Y756983D01*
X158838Y756944D01*
X158937Y756897D01*
X158986Y756888D01*
X159032Y756870D01*
X159142Y756858D01*
X159249Y756837D01*
X159299Y756840D01*
X159348Y756835D01*
X159457Y756850D01*
X159567Y756857D01*
X159614Y756872D01*
X159663Y756879D01*
X159816Y756931D01*
X163295Y758373D01*
X166905Y758373D01*
X170239Y756992D01*
X172792Y754439D01*
X174173Y751105D01*
X174173Y747495D01*
X172792Y744161D01*
X170552Y741922D01*
X170492Y741843D01*
X170424Y741771D01*
X170395Y741718D01*
X170358Y741670D01*
X170318Y741579D01*
X170270Y741493D01*
X170255Y741434D01*
X170231Y741379D01*
X170216Y741281D01*
X170191Y741185D01*
X170185Y741085D01*
X170181Y741064D01*
X170183Y741052D01*
X170181Y741024D01*
X170181Y663986D01*
X170182Y663977D01*
X170181Y663968D01*
X170202Y663819D01*
X170221Y663671D01*
X170224Y663662D01*
X170225Y663653D01*
X170277Y663500D01*
X171070Y661587D01*
X171070Y659213D01*
X170161Y657018D01*
X168482Y655339D01*
X166287Y654430D01*
X163913Y654430D01*
X161718Y655339D01*
X160227Y656830D01*
X160118Y656915D01*
X160011Y657004D01*
X159992Y657013D01*
X159976Y657025D01*
X159848Y657080D01*
X159723Y657139D01*
X159703Y657143D01*
X159684Y657151D01*
X159546Y657173D01*
X159410Y657199D01*
X159390Y657198D01*
X159370Y657201D01*
X159231Y657188D01*
X159093Y657180D01*
X159074Y657173D01*
X159054Y657171D01*
X158922Y657124D01*
X158791Y657081D01*
X158773Y657071D01*
X158754Y657064D01*
X158639Y656986D01*
X158522Y656911D01*
X158508Y656897D01*
X158491Y656885D01*
X158399Y656781D01*
X158304Y656680D01*
X158294Y656662D01*
X158281Y656647D01*
X158217Y656523D01*
X158150Y656401D01*
X158145Y656382D01*
X158136Y656364D01*
X158106Y656228D01*
X158071Y656093D01*
X158069Y656065D01*
X158066Y656053D01*
X158067Y656033D01*
X158061Y655933D01*
X158061Y554904D01*
X158067Y554855D01*
X158065Y554805D01*
X158087Y554698D01*
X158101Y554589D01*
X158119Y554542D01*
X158129Y554494D01*
X158177Y554395D01*
X158218Y554293D01*
X158247Y554253D01*
X158269Y554208D01*
X158340Y554124D01*
X158404Y554035D01*
X158443Y554004D01*
X158475Y553966D01*
X158565Y553903D01*
X158649Y553833D01*
X158694Y553811D01*
X158735Y553783D01*
X158838Y553744D01*
X158937Y553697D01*
X158986Y553688D01*
X159032Y553670D01*
X159142Y553658D01*
X159249Y553637D01*
X159299Y553640D01*
X159348Y553635D01*
X159457Y553650D01*
X159567Y553657D01*
X159614Y553672D01*
X159663Y553679D01*
X159816Y553731D01*
X163295Y555173D01*
X166905Y555173D01*
X170239Y553792D01*
X170552Y553478D01*
X170662Y553393D01*
X170769Y553304D01*
X170788Y553296D01*
X170804Y553283D01*
X170932Y553228D01*
X171057Y553169D01*
X171077Y553165D01*
X171096Y553157D01*
X171234Y553135D01*
X171370Y553109D01*
X171390Y553110D01*
X171410Y553107D01*
X171549Y553120D01*
X171687Y553129D01*
X171706Y553135D01*
X171726Y553137D01*
X171857Y553184D01*
X171989Y553227D01*
X172007Y553238D01*
X172026Y553245D01*
X172140Y553322D01*
X172258Y553397D01*
X172272Y553412D01*
X172289Y553423D01*
X172381Y553527D01*
X172476Y553629D01*
X172486Y553646D01*
X172499Y553661D01*
X172563Y553786D01*
X172630Y553907D01*
X172635Y553927D01*
X172644Y553945D01*
X172674Y554081D01*
X172709Y554215D01*
X172711Y554243D01*
X172714Y554255D01*
X172713Y554276D01*
X172719Y554376D01*
X172719Y631414D01*
X172718Y631423D01*
X172719Y631432D01*
X172698Y631581D01*
X172679Y631729D01*
X172676Y631738D01*
X172675Y631747D01*
X172623Y631900D01*
X171830Y633813D01*
X171830Y636187D01*
X172739Y638382D01*
X174418Y640061D01*
X176613Y640970D01*
X178987Y640970D01*
X181182Y640061D01*
X182861Y638382D01*
X183770Y636187D01*
X183770Y633813D01*
X182977Y631900D01*
X182975Y631891D01*
X182970Y631882D01*
X182933Y631737D01*
X182893Y631593D01*
X182893Y631584D01*
X182891Y631575D01*
X182881Y631414D01*
X182881Y613186D01*
X182889Y613117D01*
X182888Y613047D01*
X182909Y612960D01*
X182921Y612870D01*
X182946Y612806D01*
X182963Y612738D01*
X183005Y612658D01*
X183038Y612575D01*
X183079Y612518D01*
X183111Y612457D01*
X183172Y612390D01*
X183224Y612317D01*
X183278Y612273D01*
X183325Y612221D01*
X183400Y612172D01*
X183469Y612115D01*
X183533Y612085D01*
X183591Y612047D01*
X183676Y612017D01*
X183757Y611979D01*
X183826Y611966D01*
X183892Y611943D01*
X183981Y611936D01*
X184069Y611919D01*
X184139Y611924D01*
X184209Y611918D01*
X184297Y611933D01*
X184387Y611939D01*
X184453Y611961D01*
X184522Y611973D01*
X184604Y612009D01*
X184689Y612037D01*
X184748Y612074D01*
X184812Y612103D01*
X184882Y612159D01*
X184958Y612207D01*
X185006Y612258D01*
X185060Y612302D01*
X185115Y612373D01*
X185176Y612439D01*
X185210Y612500D01*
X185252Y612556D01*
X185323Y612700D01*
X185439Y612982D01*
X187118Y614661D01*
X189313Y615570D01*
X191687Y615570D01*
X193882Y614661D01*
X195561Y612982D01*
X195677Y612700D01*
X195712Y612640D01*
X195738Y612575D01*
X195790Y612502D01*
X195835Y612424D01*
X195883Y612374D01*
X195924Y612317D01*
X195994Y612260D01*
X196056Y612196D01*
X196116Y612159D01*
X196169Y612115D01*
X196251Y612076D01*
X196327Y612029D01*
X196394Y612009D01*
X196457Y611979D01*
X196545Y611962D01*
X196631Y611936D01*
X196701Y611932D01*
X196770Y611919D01*
X196859Y611925D01*
X196949Y611921D01*
X197017Y611935D01*
X197087Y611939D01*
X197172Y611967D01*
X197260Y611985D01*
X197323Y612016D01*
X197389Y612037D01*
X197465Y612085D01*
X197546Y612125D01*
X197599Y612170D01*
X197658Y612207D01*
X197720Y612273D01*
X197788Y612331D01*
X197828Y612388D01*
X197876Y612439D01*
X197919Y612517D01*
X197971Y612591D01*
X197996Y612656D01*
X198030Y612717D01*
X198052Y612804D01*
X198084Y612888D01*
X198092Y612958D01*
X198109Y613025D01*
X198119Y613186D01*
X198119Y618714D01*
X198118Y618723D01*
X198119Y618732D01*
X198098Y618881D01*
X198079Y619029D01*
X198076Y619038D01*
X198075Y619047D01*
X198023Y619200D01*
X197230Y621113D01*
X197230Y623487D01*
X198139Y625682D01*
X199818Y627361D01*
X202013Y628270D01*
X204387Y628270D01*
X206582Y627361D01*
X208261Y625682D01*
X209170Y623487D01*
X209170Y621113D01*
X208377Y619200D01*
X208375Y619191D01*
X208370Y619182D01*
X208333Y619037D01*
X208293Y618893D01*
X208293Y618884D01*
X208291Y618875D01*
X208281Y618714D01*
X208281Y554376D01*
X208298Y554238D01*
X208311Y554099D01*
X208318Y554080D01*
X208321Y554060D01*
X208372Y553931D01*
X208419Y553800D01*
X208430Y553783D01*
X208438Y553765D01*
X208519Y553652D01*
X208597Y553537D01*
X208613Y553524D01*
X208624Y553507D01*
X208732Y553418D01*
X208836Y553326D01*
X208854Y553317D01*
X208869Y553304D01*
X208995Y553245D01*
X209119Y553182D01*
X209139Y553177D01*
X209157Y553169D01*
X209293Y553143D01*
X209429Y553112D01*
X209450Y553113D01*
X209469Y553109D01*
X209608Y553118D01*
X209747Y553122D01*
X209767Y553128D01*
X209787Y553129D01*
X209919Y553172D01*
X210053Y553210D01*
X210070Y553221D01*
X210089Y553227D01*
X210207Y553301D01*
X210327Y553372D01*
X210348Y553390D01*
X210358Y553397D01*
X210372Y553412D01*
X210448Y553478D01*
X210761Y553792D01*
X214095Y555173D01*
X217705Y555173D01*
X221039Y553792D01*
X221352Y553478D01*
X221462Y553393D01*
X221569Y553304D01*
X221588Y553296D01*
X221604Y553283D01*
X221732Y553228D01*
X221857Y553169D01*
X221877Y553165D01*
X221896Y553157D01*
X222034Y553135D01*
X222170Y553109D01*
X222190Y553110D01*
X222210Y553107D01*
X222349Y553120D01*
X222487Y553129D01*
X222506Y553135D01*
X222526Y553137D01*
X222657Y553184D01*
X222789Y553227D01*
X222807Y553238D01*
X222826Y553245D01*
X222940Y553322D01*
X223058Y553397D01*
X223072Y553412D01*
X223089Y553423D01*
X223181Y553527D01*
X223276Y553629D01*
X223286Y553646D01*
X223299Y553661D01*
X223363Y553786D01*
X223430Y553907D01*
X223435Y553927D01*
X223444Y553945D01*
X223474Y554081D01*
X223509Y554215D01*
X223511Y554243D01*
X223514Y554255D01*
X223513Y554276D01*
X223519Y554376D01*
X223519Y593314D01*
X223518Y593323D01*
X223519Y593332D01*
X223498Y593481D01*
X223479Y593629D01*
X223476Y593638D01*
X223475Y593647D01*
X223423Y593800D01*
X222630Y595713D01*
X222630Y598087D01*
X223539Y600282D01*
X225218Y601961D01*
X227413Y602870D01*
X229787Y602870D01*
X231982Y601961D01*
X233661Y600282D01*
X234570Y598087D01*
X234570Y595713D01*
X233777Y593800D01*
X233775Y593791D01*
X233770Y593782D01*
X233733Y593637D01*
X233693Y593493D01*
X233693Y593484D01*
X233691Y593475D01*
X233681Y593314D01*
X233681Y554376D01*
X233698Y554238D01*
X233711Y554099D01*
X233718Y554080D01*
X233721Y554060D01*
X233772Y553931D01*
X233819Y553800D01*
X233830Y553783D01*
X233838Y553765D01*
X233919Y553652D01*
X233997Y553537D01*
X234013Y553524D01*
X234024Y553507D01*
X234132Y553418D01*
X234236Y553326D01*
X234254Y553317D01*
X234269Y553304D01*
X234395Y553245D01*
X234519Y553182D01*
X234539Y553177D01*
X234557Y553169D01*
X234693Y553143D01*
X234829Y553112D01*
X234850Y553113D01*
X234869Y553109D01*
X235008Y553118D01*
X235147Y553122D01*
X235167Y553128D01*
X235187Y553129D01*
X235319Y553172D01*
X235453Y553210D01*
X235470Y553221D01*
X235489Y553227D01*
X235607Y553301D01*
X235727Y553372D01*
X235748Y553390D01*
X235758Y553397D01*
X235772Y553412D01*
X235848Y553478D01*
X236161Y553792D01*
X239495Y555173D01*
X243105Y555173D01*
X246439Y553792D01*
X248992Y551239D01*
X250373Y547905D01*
X250373Y544295D01*
X248992Y540961D01*
X246439Y538408D01*
X243105Y537027D01*
X239495Y537027D01*
X236161Y538408D01*
X235848Y538722D01*
X235738Y538807D01*
X235631Y538896D01*
X235612Y538904D01*
X235596Y538917D01*
X235468Y538972D01*
X235343Y539031D01*
X235323Y539035D01*
X235304Y539043D01*
X235166Y539065D01*
X235030Y539091D01*
X235010Y539090D01*
X234990Y539093D01*
X234851Y539080D01*
X234713Y539071D01*
X234694Y539065D01*
X234674Y539063D01*
X234543Y539016D01*
X234411Y538973D01*
X234393Y538962D01*
X234374Y538955D01*
X234260Y538878D01*
X234142Y538803D01*
X234128Y538788D01*
X234111Y538777D01*
X234019Y538673D01*
X233924Y538571D01*
X233914Y538554D01*
X233901Y538539D01*
X233837Y538414D01*
X233770Y538293D01*
X233765Y538273D01*
X233756Y538255D01*
X233726Y538119D01*
X233691Y537985D01*
X233689Y537957D01*
X233686Y537945D01*
X233687Y537924D01*
X233681Y537824D01*
X233681Y519689D01*
X232907Y517822D01*
X225344Y510259D01*
X225284Y510181D01*
X225216Y510109D01*
X225187Y510056D01*
X225150Y510008D01*
X225110Y509917D01*
X225062Y509830D01*
X225047Y509772D01*
X225023Y509716D01*
X225008Y509618D01*
X224983Y509522D01*
X224977Y509422D01*
X224973Y509402D01*
X224975Y509390D01*
X224973Y509362D01*
X224973Y506195D01*
X223592Y502861D01*
X221352Y500622D01*
X221292Y500543D01*
X221224Y500471D01*
X221195Y500418D01*
X221158Y500370D01*
X221118Y500279D01*
X221070Y500193D01*
X221055Y500134D01*
X221031Y500079D01*
X221016Y499981D01*
X220991Y499885D01*
X220985Y499785D01*
X220981Y499764D01*
X220983Y499752D01*
X220981Y499724D01*
X220981Y326392D01*
X220993Y326294D01*
X220996Y326195D01*
X221013Y326137D01*
X221021Y326077D01*
X221057Y325985D01*
X221085Y325889D01*
X221115Y325837D01*
X221138Y325781D01*
X221196Y325701D01*
X221246Y325615D01*
X221312Y325540D01*
X221324Y325524D01*
X221334Y325516D01*
X221352Y325495D01*
X230719Y316128D01*
X230720Y316128D01*
X232327Y314520D01*
X233101Y312653D01*
X233101Y312496D01*
X233118Y312358D01*
X233131Y312219D01*
X233138Y312200D01*
X233141Y312180D01*
X233192Y312051D01*
X233239Y311920D01*
X233250Y311903D01*
X233258Y311885D01*
X233339Y311772D01*
X233417Y311657D01*
X233433Y311644D01*
X233444Y311627D01*
X233552Y311538D01*
X233656Y311446D01*
X233674Y311437D01*
X233689Y311424D01*
X233815Y311365D01*
X233939Y311302D01*
X233959Y311297D01*
X233977Y311289D01*
X234114Y311263D01*
X234249Y311232D01*
X234270Y311233D01*
X234289Y311229D01*
X234428Y311238D01*
X234567Y311242D01*
X234587Y311248D01*
X234607Y311249D01*
X234739Y311292D01*
X234873Y311330D01*
X234890Y311341D01*
X234909Y311347D01*
X235027Y311421D01*
X235147Y311492D01*
X235168Y311510D01*
X235178Y311517D01*
X235192Y311532D01*
X235267Y311598D01*
X236161Y312492D01*
X239495Y313873D01*
X243105Y313873D01*
X246439Y312492D01*
X248992Y309939D01*
X250373Y306605D01*
X250373Y302995D01*
X248992Y299661D01*
X246439Y297108D01*
X243105Y295727D01*
X239495Y295727D01*
X236161Y297108D01*
X235267Y298002D01*
X235158Y298087D01*
X235051Y298176D01*
X235032Y298184D01*
X235016Y298197D01*
X234889Y298252D01*
X234763Y298311D01*
X234743Y298315D01*
X234724Y298323D01*
X234586Y298345D01*
X234450Y298371D01*
X234430Y298370D01*
X234410Y298373D01*
X234271Y298360D01*
X234133Y298351D01*
X234114Y298345D01*
X234094Y298343D01*
X233962Y298296D01*
X233831Y298253D01*
X233813Y298242D01*
X233794Y298235D01*
X233679Y298157D01*
X233562Y298083D01*
X233548Y298068D01*
X233531Y298057D01*
X233439Y297953D01*
X233344Y297851D01*
X233334Y297834D01*
X233321Y297818D01*
X233258Y297695D01*
X233190Y297573D01*
X233185Y297553D01*
X233176Y297535D01*
X233146Y297399D01*
X233111Y297265D01*
X233109Y297237D01*
X233106Y297225D01*
X233107Y297204D01*
X233101Y297104D01*
X233101Y150530D01*
X233113Y150432D01*
X233116Y150333D01*
X233133Y150275D01*
X233141Y150215D01*
X233177Y150123D01*
X233205Y150028D01*
X233235Y149975D01*
X233258Y149919D01*
X233316Y149839D01*
X233366Y149754D01*
X233432Y149678D01*
X233444Y149662D01*
X233454Y149654D01*
X233472Y149633D01*
X239817Y143288D01*
X239824Y143283D01*
X239830Y143275D01*
X239950Y143185D01*
X240068Y143093D01*
X240077Y143090D01*
X240084Y143084D01*
X240229Y143013D01*
X242142Y142221D01*
X243821Y140542D01*
X244730Y138347D01*
X244730Y135973D01*
X243821Y133778D01*
X242142Y132099D01*
X239947Y131190D01*
X237573Y131190D01*
G37*
%LPD*%
%LPC*%
G36*
X315695Y295727D02*
X315695Y295727D01*
X312361Y297108D01*
X309808Y299661D01*
X308427Y302995D01*
X308427Y306605D01*
X309808Y309939D01*
X312048Y312178D01*
X312108Y312257D01*
X312176Y312329D01*
X312205Y312382D01*
X312242Y312430D01*
X312282Y312521D01*
X312330Y312607D01*
X312345Y312666D01*
X312369Y312721D01*
X312384Y312819D01*
X312409Y312915D01*
X312415Y313015D01*
X312419Y313036D01*
X312417Y313048D01*
X312419Y313076D01*
X312419Y490049D01*
X313193Y491916D01*
X318037Y496761D01*
X318122Y496870D01*
X318211Y496977D01*
X318220Y496996D01*
X318232Y497012D01*
X318288Y497140D01*
X318347Y497265D01*
X318350Y497285D01*
X318358Y497304D01*
X318380Y497442D01*
X318406Y497578D01*
X318405Y497598D01*
X318408Y497618D01*
X318395Y497757D01*
X318387Y497895D01*
X318380Y497914D01*
X318378Y497934D01*
X318331Y498066D01*
X318289Y498197D01*
X318278Y498215D01*
X318271Y498234D01*
X318193Y498349D01*
X318118Y498466D01*
X318104Y498480D01*
X318092Y498497D01*
X317988Y498589D01*
X317887Y498684D01*
X317869Y498694D01*
X317854Y498707D01*
X317730Y498771D01*
X317608Y498838D01*
X317589Y498843D01*
X317571Y498852D01*
X317435Y498882D01*
X317300Y498917D01*
X317272Y498919D01*
X317260Y498922D01*
X317240Y498921D01*
X317140Y498927D01*
X315695Y498927D01*
X312361Y500308D01*
X309808Y502861D01*
X308427Y506195D01*
X308427Y509362D01*
X308415Y509460D01*
X308412Y509559D01*
X308395Y509617D01*
X308387Y509677D01*
X308351Y509769D01*
X308323Y509864D01*
X308293Y509917D01*
X308270Y509973D01*
X308212Y510053D01*
X308162Y510138D01*
X308096Y510214D01*
X308084Y510230D01*
X308074Y510238D01*
X308056Y510259D01*
X300493Y517822D01*
X299719Y519689D01*
X299719Y537824D01*
X299702Y537962D01*
X299689Y538101D01*
X299682Y538120D01*
X299679Y538140D01*
X299628Y538269D01*
X299581Y538400D01*
X299570Y538417D01*
X299562Y538435D01*
X299481Y538548D01*
X299403Y538663D01*
X299387Y538676D01*
X299376Y538693D01*
X299268Y538782D01*
X299164Y538874D01*
X299146Y538883D01*
X299131Y538896D01*
X299005Y538955D01*
X298881Y539018D01*
X298861Y539023D01*
X298843Y539031D01*
X298707Y539057D01*
X298571Y539088D01*
X298550Y539087D01*
X298531Y539091D01*
X298392Y539082D01*
X298253Y539078D01*
X298233Y539072D01*
X298213Y539071D01*
X298081Y539028D01*
X297947Y538990D01*
X297930Y538979D01*
X297911Y538973D01*
X297793Y538899D01*
X297673Y538828D01*
X297652Y538810D01*
X297642Y538803D01*
X297628Y538788D01*
X297552Y538722D01*
X297239Y538408D01*
X293905Y537027D01*
X290295Y537027D01*
X286961Y538408D01*
X284408Y540961D01*
X283027Y544295D01*
X283027Y547905D01*
X284408Y551239D01*
X286648Y553478D01*
X286708Y553557D01*
X286776Y553629D01*
X286805Y553682D01*
X286842Y553730D01*
X286882Y553821D01*
X286930Y553907D01*
X286945Y553966D01*
X286969Y554021D01*
X286984Y554119D01*
X287009Y554215D01*
X287015Y554315D01*
X287019Y554335D01*
X287017Y554348D01*
X287019Y554376D01*
X287019Y593314D01*
X287018Y593323D01*
X287019Y593332D01*
X286998Y593481D01*
X286979Y593629D01*
X286976Y593638D01*
X286975Y593647D01*
X286923Y593800D01*
X286130Y595713D01*
X286130Y598087D01*
X287039Y600282D01*
X288718Y601961D01*
X290913Y602870D01*
X293287Y602870D01*
X295482Y601961D01*
X297161Y600282D01*
X297277Y600000D01*
X297312Y599940D01*
X297338Y599875D01*
X297390Y599802D01*
X297435Y599724D01*
X297483Y599674D01*
X297524Y599617D01*
X297594Y599560D01*
X297656Y599496D01*
X297716Y599459D01*
X297769Y599415D01*
X297851Y599376D01*
X297927Y599329D01*
X297994Y599309D01*
X298057Y599279D01*
X298145Y599262D01*
X298231Y599236D01*
X298301Y599232D01*
X298370Y599219D01*
X298459Y599225D01*
X298549Y599221D01*
X298617Y599235D01*
X298687Y599239D01*
X298772Y599267D01*
X298860Y599285D01*
X298923Y599316D01*
X298989Y599337D01*
X299065Y599385D01*
X299146Y599425D01*
X299199Y599470D01*
X299258Y599507D01*
X299320Y599573D01*
X299388Y599631D01*
X299428Y599688D01*
X299476Y599739D01*
X299519Y599818D01*
X299571Y599891D01*
X299596Y599956D01*
X299630Y600017D01*
X299652Y600104D01*
X299684Y600188D01*
X299692Y600258D01*
X299709Y600325D01*
X299719Y600486D01*
X299719Y606014D01*
X299718Y606023D01*
X299719Y606032D01*
X299698Y606181D01*
X299679Y606329D01*
X299676Y606338D01*
X299675Y606347D01*
X299623Y606500D01*
X298830Y608413D01*
X298830Y610787D01*
X299739Y612982D01*
X301418Y614661D01*
X303613Y615570D01*
X305987Y615570D01*
X308182Y614661D01*
X309861Y612982D01*
X309977Y612700D01*
X310012Y612640D01*
X310038Y612575D01*
X310090Y612502D01*
X310135Y612424D01*
X310183Y612374D01*
X310224Y612317D01*
X310294Y612260D01*
X310356Y612196D01*
X310416Y612159D01*
X310469Y612115D01*
X310551Y612076D01*
X310627Y612029D01*
X310694Y612009D01*
X310757Y611979D01*
X310845Y611962D01*
X310931Y611936D01*
X311001Y611932D01*
X311070Y611919D01*
X311159Y611925D01*
X311249Y611921D01*
X311317Y611935D01*
X311387Y611939D01*
X311472Y611967D01*
X311560Y611985D01*
X311623Y612016D01*
X311689Y612037D01*
X311765Y612085D01*
X311846Y612125D01*
X311899Y612170D01*
X311958Y612207D01*
X312020Y612273D01*
X312088Y612331D01*
X312128Y612388D01*
X312176Y612439D01*
X312219Y612517D01*
X312271Y612591D01*
X312296Y612656D01*
X312330Y612717D01*
X312352Y612804D01*
X312384Y612888D01*
X312392Y612958D01*
X312409Y613025D01*
X312419Y613186D01*
X312419Y618714D01*
X312418Y618723D01*
X312419Y618732D01*
X312398Y618881D01*
X312379Y619029D01*
X312376Y619038D01*
X312375Y619047D01*
X312323Y619200D01*
X311530Y621113D01*
X311530Y623487D01*
X312439Y625682D01*
X314118Y627361D01*
X316313Y628270D01*
X318687Y628270D01*
X320882Y627361D01*
X322561Y625682D01*
X322677Y625400D01*
X322712Y625340D01*
X322738Y625275D01*
X322790Y625202D01*
X322835Y625124D01*
X322883Y625074D01*
X322924Y625017D01*
X322994Y624960D01*
X323056Y624896D01*
X323116Y624859D01*
X323169Y624815D01*
X323251Y624776D01*
X323327Y624729D01*
X323394Y624709D01*
X323457Y624679D01*
X323545Y624662D01*
X323631Y624636D01*
X323701Y624632D01*
X323770Y624619D01*
X323859Y624625D01*
X323949Y624621D01*
X324017Y624635D01*
X324087Y624639D01*
X324172Y624667D01*
X324260Y624685D01*
X324323Y624716D01*
X324389Y624737D01*
X324465Y624785D01*
X324546Y624825D01*
X324599Y624870D01*
X324658Y624907D01*
X324720Y624973D01*
X324788Y625031D01*
X324828Y625088D01*
X324876Y625139D01*
X324919Y625218D01*
X324971Y625291D01*
X324996Y625356D01*
X325030Y625417D01*
X325052Y625504D01*
X325084Y625588D01*
X325092Y625658D01*
X325109Y625725D01*
X325119Y625886D01*
X325119Y644114D01*
X325118Y644123D01*
X325119Y644132D01*
X325098Y644281D01*
X325079Y644429D01*
X325076Y644438D01*
X325075Y644447D01*
X325023Y644600D01*
X324230Y646513D01*
X324230Y648887D01*
X325139Y651082D01*
X326818Y652761D01*
X329013Y653670D01*
X331387Y653670D01*
X333582Y652761D01*
X335261Y651082D01*
X336170Y648887D01*
X336170Y646513D01*
X335377Y644600D01*
X335375Y644591D01*
X335370Y644582D01*
X335333Y644437D01*
X335293Y644293D01*
X335293Y644284D01*
X335291Y644275D01*
X335281Y644114D01*
X335281Y638586D01*
X335289Y638517D01*
X335288Y638447D01*
X335309Y638360D01*
X335321Y638271D01*
X335346Y638206D01*
X335363Y638138D01*
X335405Y638058D01*
X335438Y637975D01*
X335479Y637918D01*
X335511Y637857D01*
X335572Y637790D01*
X335624Y637717D01*
X335678Y637673D01*
X335725Y637621D01*
X335800Y637572D01*
X335869Y637515D01*
X335932Y637485D01*
X335991Y637447D01*
X336076Y637417D01*
X336157Y637379D01*
X336226Y637366D01*
X336292Y637343D01*
X336381Y637336D01*
X336469Y637319D01*
X336539Y637324D01*
X336609Y637318D01*
X336697Y637334D01*
X336787Y637339D01*
X336853Y637361D01*
X336922Y637373D01*
X337004Y637409D01*
X337089Y637437D01*
X337148Y637474D01*
X337212Y637503D01*
X337282Y637559D01*
X337358Y637607D01*
X337406Y637658D01*
X337460Y637702D01*
X337514Y637773D01*
X337576Y637839D01*
X337610Y637900D01*
X337652Y637956D01*
X337723Y638100D01*
X337839Y638382D01*
X339518Y640061D01*
X341713Y640970D01*
X344087Y640970D01*
X346282Y640061D01*
X347961Y638382D01*
X348077Y638100D01*
X348112Y638040D01*
X348138Y637975D01*
X348190Y637902D01*
X348235Y637824D01*
X348283Y637774D01*
X348324Y637717D01*
X348394Y637660D01*
X348456Y637596D01*
X348516Y637559D01*
X348569Y637515D01*
X348651Y637476D01*
X348727Y637429D01*
X348794Y637409D01*
X348857Y637379D01*
X348945Y637362D01*
X349031Y637336D01*
X349101Y637332D01*
X349170Y637319D01*
X349259Y637325D01*
X349349Y637321D01*
X349417Y637335D01*
X349487Y637339D01*
X349572Y637367D01*
X349660Y637385D01*
X349723Y637416D01*
X349789Y637437D01*
X349865Y637485D01*
X349946Y637525D01*
X349999Y637570D01*
X350058Y637607D01*
X350120Y637673D01*
X350188Y637731D01*
X350228Y637788D01*
X350276Y637839D01*
X350319Y637918D01*
X350371Y637991D01*
X350396Y638056D01*
X350430Y638117D01*
X350452Y638204D01*
X350484Y638288D01*
X350492Y638358D01*
X350509Y638425D01*
X350519Y638586D01*
X350519Y656814D01*
X350518Y656823D01*
X350519Y656832D01*
X350498Y656981D01*
X350479Y657129D01*
X350476Y657138D01*
X350475Y657147D01*
X350423Y657300D01*
X349630Y659213D01*
X349630Y661587D01*
X350539Y663782D01*
X352218Y665461D01*
X354413Y666370D01*
X356787Y666370D01*
X358982Y665461D01*
X360661Y663782D01*
X361570Y661587D01*
X361570Y659213D01*
X360777Y657300D01*
X360775Y657291D01*
X360770Y657282D01*
X360733Y657137D01*
X360693Y656993D01*
X360693Y656984D01*
X360691Y656975D01*
X360681Y656814D01*
X360681Y516276D01*
X360698Y516138D01*
X360711Y515999D01*
X360718Y515980D01*
X360721Y515960D01*
X360772Y515831D01*
X360819Y515700D01*
X360830Y515683D01*
X360838Y515665D01*
X360919Y515552D01*
X360997Y515437D01*
X361013Y515424D01*
X361024Y515407D01*
X361132Y515318D01*
X361236Y515226D01*
X361254Y515217D01*
X361269Y515204D01*
X361395Y515145D01*
X361519Y515082D01*
X361539Y515077D01*
X361557Y515069D01*
X361693Y515043D01*
X361829Y515012D01*
X361850Y515013D01*
X361869Y515009D01*
X362008Y515018D01*
X362147Y515022D01*
X362167Y515028D01*
X362187Y515029D01*
X362319Y515072D01*
X362453Y515110D01*
X362470Y515121D01*
X362489Y515127D01*
X362607Y515201D01*
X362727Y515272D01*
X362748Y515290D01*
X362758Y515297D01*
X362772Y515312D01*
X362848Y515378D01*
X363161Y515692D01*
X366495Y517073D01*
X370105Y517073D01*
X373439Y515692D01*
X373752Y515378D01*
X373862Y515293D01*
X373969Y515204D01*
X373988Y515196D01*
X374004Y515183D01*
X374132Y515128D01*
X374257Y515069D01*
X374277Y515065D01*
X374296Y515057D01*
X374434Y515035D01*
X374570Y515009D01*
X374590Y515010D01*
X374610Y515007D01*
X374749Y515020D01*
X374887Y515029D01*
X374906Y515035D01*
X374926Y515037D01*
X375057Y515084D01*
X375189Y515127D01*
X375207Y515138D01*
X375226Y515145D01*
X375340Y515222D01*
X375458Y515297D01*
X375472Y515312D01*
X375489Y515323D01*
X375581Y515427D01*
X375676Y515529D01*
X375686Y515546D01*
X375699Y515561D01*
X375763Y515686D01*
X375830Y515807D01*
X375835Y515827D01*
X375844Y515845D01*
X375874Y515981D01*
X375909Y516115D01*
X375911Y516143D01*
X375914Y516155D01*
X375913Y516176D01*
X375919Y516276D01*
X375919Y669514D01*
X375918Y669523D01*
X375919Y669532D01*
X375898Y669681D01*
X375879Y669829D01*
X375876Y669838D01*
X375875Y669847D01*
X375823Y670000D01*
X375030Y671913D01*
X375030Y674287D01*
X375939Y676482D01*
X377618Y678161D01*
X379813Y679070D01*
X382187Y679070D01*
X384382Y678161D01*
X386061Y676482D01*
X386970Y674287D01*
X386970Y671913D01*
X386177Y670000D01*
X386175Y669991D01*
X386170Y669982D01*
X386133Y669837D01*
X386093Y669693D01*
X386093Y669684D01*
X386091Y669675D01*
X386081Y669514D01*
X386081Y516276D01*
X386098Y516138D01*
X386111Y515999D01*
X386118Y515980D01*
X386121Y515960D01*
X386172Y515831D01*
X386219Y515700D01*
X386230Y515683D01*
X386238Y515665D01*
X386319Y515552D01*
X386397Y515437D01*
X386413Y515424D01*
X386424Y515407D01*
X386532Y515318D01*
X386636Y515226D01*
X386654Y515217D01*
X386669Y515204D01*
X386795Y515145D01*
X386919Y515082D01*
X386939Y515077D01*
X386957Y515069D01*
X387093Y515043D01*
X387229Y515012D01*
X387250Y515013D01*
X387269Y515009D01*
X387408Y515018D01*
X387547Y515022D01*
X387567Y515028D01*
X387587Y515029D01*
X387719Y515072D01*
X387853Y515110D01*
X387870Y515121D01*
X387889Y515127D01*
X388007Y515201D01*
X388127Y515272D01*
X388148Y515290D01*
X388158Y515297D01*
X388172Y515312D01*
X388248Y515378D01*
X388561Y515692D01*
X391895Y517073D01*
X395505Y517073D01*
X398839Y515692D01*
X401392Y513139D01*
X402773Y509805D01*
X402773Y506195D01*
X401392Y502861D01*
X398839Y500308D01*
X395505Y498927D01*
X391895Y498927D01*
X388561Y500308D01*
X388028Y500842D01*
X387988Y500872D01*
X387955Y500909D01*
X387863Y500969D01*
X387776Y501037D01*
X387731Y501056D01*
X387689Y501084D01*
X387585Y501119D01*
X387484Y501163D01*
X387435Y501171D01*
X387388Y501187D01*
X387279Y501196D01*
X387170Y501213D01*
X387121Y501208D01*
X387071Y501212D01*
X386963Y501193D01*
X386854Y501183D01*
X386807Y501166D01*
X386758Y501158D01*
X386658Y501113D01*
X386554Y501075D01*
X386513Y501047D01*
X386468Y501027D01*
X386382Y500959D01*
X386291Y500897D01*
X386258Y500860D01*
X386220Y500828D01*
X386153Y500741D01*
X386081Y500658D01*
X386058Y500614D01*
X386028Y500574D01*
X385957Y500430D01*
X385307Y498860D01*
X373752Y487305D01*
X373692Y487227D01*
X373624Y487155D01*
X373595Y487102D01*
X373558Y487054D01*
X373518Y486963D01*
X373470Y486876D01*
X373455Y486818D01*
X373431Y486762D01*
X373416Y486664D01*
X373391Y486569D01*
X373385Y486469D01*
X373381Y486448D01*
X373383Y486436D01*
X373381Y486408D01*
X373381Y313076D01*
X373393Y312978D01*
X373396Y312879D01*
X373413Y312820D01*
X373421Y312760D01*
X373457Y312668D01*
X373485Y312573D01*
X373515Y312521D01*
X373538Y312465D01*
X373596Y312385D01*
X373646Y312299D01*
X373712Y312224D01*
X373724Y312207D01*
X373734Y312199D01*
X373752Y312178D01*
X375992Y309939D01*
X377373Y306605D01*
X377373Y302995D01*
X375992Y299661D01*
X373439Y297108D01*
X370105Y295727D01*
X366495Y295727D01*
X363161Y297108D01*
X360608Y299661D01*
X359227Y302995D01*
X359227Y306605D01*
X360608Y309939D01*
X362848Y312178D01*
X362908Y312257D01*
X362976Y312329D01*
X363005Y312382D01*
X363042Y312430D01*
X363082Y312521D01*
X363130Y312607D01*
X363145Y312666D01*
X363169Y312721D01*
X363184Y312819D01*
X363209Y312915D01*
X363215Y313015D01*
X363219Y313036D01*
X363217Y313048D01*
X363219Y313076D01*
X363219Y490049D01*
X363993Y491916D01*
X368837Y496761D01*
X368922Y496870D01*
X369011Y496977D01*
X369020Y496996D01*
X369032Y497012D01*
X369088Y497140D01*
X369147Y497265D01*
X369150Y497285D01*
X369158Y497304D01*
X369180Y497442D01*
X369206Y497578D01*
X369205Y497598D01*
X369208Y497618D01*
X369195Y497757D01*
X369187Y497895D01*
X369180Y497914D01*
X369178Y497934D01*
X369131Y498066D01*
X369089Y498197D01*
X369078Y498215D01*
X369071Y498234D01*
X368993Y498349D01*
X368918Y498466D01*
X368904Y498480D01*
X368892Y498497D01*
X368788Y498589D01*
X368687Y498684D01*
X368669Y498694D01*
X368654Y498707D01*
X368530Y498771D01*
X368408Y498838D01*
X368389Y498843D01*
X368371Y498852D01*
X368235Y498882D01*
X368100Y498917D01*
X368072Y498919D01*
X368060Y498922D01*
X368040Y498921D01*
X367940Y498927D01*
X366495Y498927D01*
X363161Y500308D01*
X362628Y500842D01*
X362588Y500872D01*
X362555Y500909D01*
X362463Y500969D01*
X362376Y501037D01*
X362331Y501056D01*
X362289Y501084D01*
X362185Y501119D01*
X362084Y501163D01*
X362035Y501171D01*
X361988Y501187D01*
X361879Y501196D01*
X361770Y501213D01*
X361721Y501208D01*
X361671Y501212D01*
X361563Y501193D01*
X361454Y501183D01*
X361407Y501166D01*
X361358Y501158D01*
X361258Y501113D01*
X361154Y501075D01*
X361113Y501047D01*
X361068Y501027D01*
X360982Y500959D01*
X360891Y500897D01*
X360858Y500860D01*
X360820Y500828D01*
X360753Y500741D01*
X360681Y500658D01*
X360658Y500614D01*
X360628Y500574D01*
X360557Y500430D01*
X359907Y498860D01*
X348352Y487305D01*
X348292Y487227D01*
X348224Y487155D01*
X348195Y487102D01*
X348158Y487054D01*
X348118Y486963D01*
X348070Y486876D01*
X348055Y486818D01*
X348031Y486762D01*
X348016Y486664D01*
X347991Y486569D01*
X347985Y486469D01*
X347981Y486448D01*
X347983Y486436D01*
X347981Y486408D01*
X347981Y313076D01*
X347993Y312978D01*
X347996Y312879D01*
X348013Y312820D01*
X348021Y312760D01*
X348057Y312668D01*
X348085Y312573D01*
X348115Y312521D01*
X348138Y312465D01*
X348196Y312385D01*
X348246Y312299D01*
X348312Y312224D01*
X348324Y312207D01*
X348334Y312199D01*
X348352Y312178D01*
X350592Y309939D01*
X351973Y306605D01*
X351973Y302995D01*
X350592Y299661D01*
X348039Y297108D01*
X344705Y295727D01*
X341095Y295727D01*
X337761Y297108D01*
X335208Y299661D01*
X333827Y302995D01*
X333827Y306605D01*
X335208Y309939D01*
X337448Y312178D01*
X337508Y312257D01*
X337576Y312329D01*
X337605Y312382D01*
X337642Y312430D01*
X337682Y312521D01*
X337730Y312607D01*
X337745Y312666D01*
X337769Y312721D01*
X337784Y312819D01*
X337809Y312915D01*
X337815Y313015D01*
X337819Y313036D01*
X337817Y313048D01*
X337819Y313076D01*
X337819Y490049D01*
X338593Y491916D01*
X343437Y496761D01*
X343522Y496870D01*
X343611Y496977D01*
X343620Y496996D01*
X343632Y497012D01*
X343688Y497140D01*
X343747Y497265D01*
X343750Y497285D01*
X343758Y497304D01*
X343780Y497442D01*
X343806Y497578D01*
X343805Y497598D01*
X343808Y497618D01*
X343795Y497757D01*
X343787Y497895D01*
X343780Y497914D01*
X343778Y497934D01*
X343731Y498066D01*
X343689Y498197D01*
X343678Y498215D01*
X343671Y498234D01*
X343593Y498349D01*
X343518Y498466D01*
X343504Y498480D01*
X343492Y498497D01*
X343388Y498589D01*
X343287Y498684D01*
X343269Y498694D01*
X343254Y498707D01*
X343130Y498771D01*
X343008Y498838D01*
X342989Y498843D01*
X342971Y498852D01*
X342835Y498882D01*
X342700Y498917D01*
X342672Y498919D01*
X342660Y498922D01*
X342640Y498921D01*
X342540Y498927D01*
X341095Y498927D01*
X337761Y500308D01*
X337228Y500842D01*
X337188Y500872D01*
X337155Y500909D01*
X337063Y500969D01*
X336976Y501037D01*
X336931Y501056D01*
X336889Y501084D01*
X336785Y501119D01*
X336684Y501163D01*
X336635Y501171D01*
X336588Y501187D01*
X336479Y501196D01*
X336370Y501213D01*
X336321Y501208D01*
X336271Y501212D01*
X336163Y501193D01*
X336054Y501183D01*
X336007Y501166D01*
X335958Y501158D01*
X335858Y501113D01*
X335754Y501075D01*
X335713Y501047D01*
X335668Y501027D01*
X335582Y500959D01*
X335491Y500897D01*
X335458Y500860D01*
X335420Y500828D01*
X335353Y500741D01*
X335281Y500658D01*
X335258Y500614D01*
X335228Y500574D01*
X335157Y500430D01*
X334507Y498860D01*
X322952Y487305D01*
X322892Y487227D01*
X322824Y487155D01*
X322795Y487102D01*
X322758Y487054D01*
X322718Y486963D01*
X322670Y486876D01*
X322655Y486818D01*
X322631Y486762D01*
X322616Y486664D01*
X322591Y486569D01*
X322585Y486469D01*
X322581Y486448D01*
X322583Y486436D01*
X322581Y486408D01*
X322581Y313076D01*
X322593Y312978D01*
X322596Y312879D01*
X322613Y312820D01*
X322621Y312760D01*
X322657Y312668D01*
X322685Y312573D01*
X322715Y312521D01*
X322738Y312465D01*
X322796Y312385D01*
X322846Y312299D01*
X322912Y312224D01*
X322924Y312207D01*
X322934Y312199D01*
X322952Y312178D01*
X325192Y309939D01*
X326573Y306605D01*
X326573Y302995D01*
X325192Y299661D01*
X322639Y297108D01*
X319305Y295727D01*
X315695Y295727D01*
G37*
%LPD*%
%LPC*%
G36*
X61695Y295727D02*
X61695Y295727D01*
X58361Y297108D01*
X55808Y299661D01*
X54427Y302995D01*
X54427Y306605D01*
X55808Y309939D01*
X58048Y312178D01*
X58108Y312257D01*
X58176Y312329D01*
X58205Y312382D01*
X58242Y312430D01*
X58282Y312521D01*
X58330Y312607D01*
X58345Y312666D01*
X58369Y312721D01*
X58384Y312819D01*
X58409Y312915D01*
X58415Y313015D01*
X58419Y313035D01*
X58417Y313048D01*
X58419Y313076D01*
X58419Y524508D01*
X58407Y524606D01*
X58404Y524705D01*
X58387Y524763D01*
X58379Y524823D01*
X58343Y524916D01*
X58315Y525011D01*
X58285Y525063D01*
X58262Y525119D01*
X58204Y525199D01*
X58154Y525285D01*
X58088Y525360D01*
X58076Y525376D01*
X58066Y525384D01*
X58048Y525405D01*
X46649Y536804D01*
X46648Y536804D01*
X45041Y538412D01*
X44267Y540279D01*
X44267Y685359D01*
X45041Y687226D01*
X45760Y687945D01*
X45765Y687952D01*
X45773Y687958D01*
X45863Y688078D01*
X45955Y688196D01*
X45958Y688205D01*
X45964Y688212D01*
X46035Y688357D01*
X46827Y690270D01*
X48506Y691949D01*
X50701Y692858D01*
X53075Y692858D01*
X55270Y691949D01*
X56949Y690270D01*
X57858Y688075D01*
X57858Y685701D01*
X56949Y683506D01*
X55270Y681827D01*
X55212Y681803D01*
X55187Y681789D01*
X55159Y681780D01*
X55049Y681710D01*
X54936Y681646D01*
X54915Y681625D01*
X54890Y681609D01*
X54801Y681515D01*
X54708Y681425D01*
X54692Y681399D01*
X54672Y681378D01*
X54609Y681264D01*
X54541Y681153D01*
X54533Y681125D01*
X54518Y681099D01*
X54486Y680974D01*
X54448Y680850D01*
X54446Y680820D01*
X54439Y680791D01*
X54429Y680631D01*
X54429Y552924D01*
X54446Y552786D01*
X54459Y552647D01*
X54466Y552628D01*
X54469Y552608D01*
X54520Y552479D01*
X54567Y552348D01*
X54578Y552331D01*
X54586Y552313D01*
X54667Y552200D01*
X54745Y552085D01*
X54761Y552072D01*
X54772Y552055D01*
X54880Y551966D01*
X54984Y551874D01*
X55002Y551865D01*
X55017Y551852D01*
X55143Y551793D01*
X55267Y551730D01*
X55287Y551725D01*
X55305Y551717D01*
X55442Y551691D01*
X55577Y551660D01*
X55598Y551661D01*
X55617Y551657D01*
X55756Y551666D01*
X55895Y551670D01*
X55915Y551676D01*
X55935Y551677D01*
X56067Y551720D01*
X56201Y551758D01*
X56218Y551769D01*
X56237Y551775D01*
X56355Y551849D01*
X56475Y551920D01*
X56496Y551938D01*
X56506Y551945D01*
X56520Y551960D01*
X56595Y552026D01*
X58361Y553792D01*
X61695Y555173D01*
X65305Y555173D01*
X68639Y553792D01*
X69533Y552898D01*
X69642Y552813D01*
X69749Y552724D01*
X69768Y552716D01*
X69784Y552703D01*
X69911Y552648D01*
X70037Y552589D01*
X70057Y552585D01*
X70076Y552577D01*
X70214Y552555D01*
X70350Y552529D01*
X70370Y552530D01*
X70390Y552527D01*
X70529Y552540D01*
X70667Y552549D01*
X70686Y552555D01*
X70706Y552557D01*
X70838Y552604D01*
X70969Y552647D01*
X70987Y552658D01*
X71006Y552665D01*
X71121Y552743D01*
X71238Y552817D01*
X71252Y552832D01*
X71269Y552843D01*
X71361Y552947D01*
X71456Y553049D01*
X71466Y553066D01*
X71479Y553082D01*
X71542Y553205D01*
X71610Y553327D01*
X71615Y553347D01*
X71624Y553365D01*
X71654Y553501D01*
X71689Y553635D01*
X71691Y553663D01*
X71694Y553675D01*
X71693Y553696D01*
X71699Y553796D01*
X71699Y700091D01*
X72473Y701958D01*
X72612Y702097D01*
X72617Y702104D01*
X72625Y702110D01*
X72715Y702230D01*
X72807Y702348D01*
X72810Y702357D01*
X72816Y702364D01*
X72887Y702509D01*
X73679Y704422D01*
X75358Y706101D01*
X77553Y707010D01*
X79927Y707010D01*
X82122Y706101D01*
X83801Y704422D01*
X84710Y702227D01*
X84710Y699853D01*
X83801Y697658D01*
X82232Y696090D01*
X82172Y696012D01*
X82104Y695940D01*
X82075Y695887D01*
X82038Y695839D01*
X81998Y695748D01*
X81950Y695661D01*
X81935Y695603D01*
X81911Y695547D01*
X81896Y695449D01*
X81871Y695353D01*
X81865Y695253D01*
X81861Y695233D01*
X81863Y695221D01*
X81861Y695193D01*
X81861Y554904D01*
X81867Y554855D01*
X81865Y554805D01*
X81887Y554698D01*
X81901Y554589D01*
X81919Y554542D01*
X81929Y554494D01*
X81977Y554395D01*
X82018Y554293D01*
X82047Y554253D01*
X82069Y554208D01*
X82140Y554124D01*
X82204Y554035D01*
X82243Y554004D01*
X82275Y553966D01*
X82365Y553903D01*
X82449Y553833D01*
X82494Y553811D01*
X82535Y553783D01*
X82638Y553744D01*
X82737Y553697D01*
X82786Y553688D01*
X82832Y553670D01*
X82942Y553658D01*
X83049Y553637D01*
X83099Y553640D01*
X83148Y553635D01*
X83257Y553650D01*
X83367Y553657D01*
X83414Y553672D01*
X83463Y553679D01*
X83616Y553731D01*
X87095Y555173D01*
X90705Y555173D01*
X94039Y553792D01*
X96592Y551239D01*
X97973Y547905D01*
X97973Y544295D01*
X96592Y540961D01*
X94039Y538408D01*
X90705Y537027D01*
X89260Y537027D01*
X89123Y537010D01*
X88984Y536997D01*
X88965Y536990D01*
X88945Y536987D01*
X88816Y536936D01*
X88685Y536889D01*
X88668Y536878D01*
X88649Y536870D01*
X88537Y536789D01*
X88422Y536711D01*
X88408Y536695D01*
X88392Y536684D01*
X88303Y536576D01*
X88211Y536472D01*
X88202Y536454D01*
X88189Y536439D01*
X88130Y536313D01*
X88066Y536189D01*
X88062Y536169D01*
X88053Y536151D01*
X88027Y536015D01*
X87997Y535879D01*
X87997Y535858D01*
X87994Y535839D01*
X88002Y535700D01*
X88006Y535561D01*
X88012Y535541D01*
X88013Y535521D01*
X88056Y535389D01*
X88095Y535255D01*
X88105Y535238D01*
X88111Y535219D01*
X88186Y535101D01*
X88256Y534981D01*
X88275Y534960D01*
X88282Y534950D01*
X88297Y534936D01*
X88363Y534861D01*
X93207Y530016D01*
X93981Y528149D01*
X93981Y313076D01*
X93993Y312978D01*
X93996Y312879D01*
X94013Y312820D01*
X94021Y312760D01*
X94057Y312668D01*
X94085Y312573D01*
X94115Y312521D01*
X94138Y312465D01*
X94196Y312384D01*
X94246Y312299D01*
X94312Y312224D01*
X94324Y312207D01*
X94334Y312199D01*
X94352Y312178D01*
X96592Y309939D01*
X97973Y306605D01*
X97973Y302995D01*
X96592Y299661D01*
X94039Y297108D01*
X90705Y295727D01*
X87095Y295727D01*
X83761Y297108D01*
X81208Y299661D01*
X79827Y302995D01*
X79827Y306605D01*
X81208Y309939D01*
X83448Y312178D01*
X83508Y312257D01*
X83576Y312329D01*
X83605Y312382D01*
X83642Y312430D01*
X83682Y312521D01*
X83730Y312607D01*
X83745Y312666D01*
X83769Y312721D01*
X83784Y312819D01*
X83809Y312915D01*
X83815Y313015D01*
X83819Y313035D01*
X83817Y313048D01*
X83819Y313076D01*
X83819Y524508D01*
X83807Y524606D01*
X83804Y524705D01*
X83787Y524763D01*
X83779Y524823D01*
X83743Y524915D01*
X83715Y525011D01*
X83685Y525063D01*
X83662Y525119D01*
X83604Y525199D01*
X83554Y525285D01*
X83488Y525360D01*
X83476Y525376D01*
X83466Y525384D01*
X83448Y525405D01*
X72473Y536380D01*
X71699Y538247D01*
X71699Y538404D01*
X71682Y538542D01*
X71669Y538681D01*
X71662Y538700D01*
X71659Y538720D01*
X71608Y538849D01*
X71561Y538980D01*
X71550Y538997D01*
X71542Y539015D01*
X71461Y539128D01*
X71383Y539243D01*
X71367Y539256D01*
X71356Y539273D01*
X71248Y539362D01*
X71144Y539454D01*
X71126Y539463D01*
X71111Y539476D01*
X70985Y539535D01*
X70861Y539598D01*
X70841Y539603D01*
X70823Y539611D01*
X70686Y539637D01*
X70551Y539668D01*
X70530Y539667D01*
X70511Y539671D01*
X70372Y539662D01*
X70233Y539658D01*
X70213Y539652D01*
X70193Y539651D01*
X70061Y539608D01*
X69927Y539570D01*
X69910Y539559D01*
X69891Y539553D01*
X69773Y539479D01*
X69653Y539408D01*
X69632Y539390D01*
X69622Y539383D01*
X69608Y539368D01*
X69533Y539302D01*
X68639Y538408D01*
X65305Y537027D01*
X63860Y537027D01*
X63723Y537010D01*
X63584Y536997D01*
X63565Y536990D01*
X63545Y536987D01*
X63416Y536936D01*
X63285Y536889D01*
X63268Y536878D01*
X63249Y536870D01*
X63137Y536789D01*
X63022Y536711D01*
X63008Y536695D01*
X62992Y536684D01*
X62903Y536576D01*
X62811Y536472D01*
X62802Y536454D01*
X62789Y536439D01*
X62730Y536313D01*
X62666Y536189D01*
X62662Y536169D01*
X62653Y536151D01*
X62627Y536015D01*
X62597Y535879D01*
X62597Y535858D01*
X62594Y535839D01*
X62602Y535700D01*
X62606Y535561D01*
X62612Y535541D01*
X62613Y535521D01*
X62656Y535389D01*
X62695Y535255D01*
X62705Y535238D01*
X62711Y535219D01*
X62786Y535101D01*
X62856Y534981D01*
X62875Y534960D01*
X62882Y534950D01*
X62896Y534936D01*
X62963Y534861D01*
X66199Y531624D01*
X66200Y531624D01*
X67807Y530016D01*
X68581Y528149D01*
X68581Y313076D01*
X68593Y312978D01*
X68596Y312879D01*
X68613Y312820D01*
X68621Y312760D01*
X68657Y312668D01*
X68685Y312573D01*
X68715Y312521D01*
X68738Y312465D01*
X68796Y312384D01*
X68846Y312299D01*
X68912Y312224D01*
X68924Y312207D01*
X68934Y312199D01*
X68952Y312178D01*
X71192Y309939D01*
X72573Y306605D01*
X72573Y302995D01*
X71192Y299661D01*
X68639Y297108D01*
X65305Y295727D01*
X61695Y295727D01*
G37*
%LPD*%
%LPC*%
G36*
X748113Y273430D02*
X748113Y273430D01*
X745918Y274339D01*
X744239Y276018D01*
X743330Y278213D01*
X743330Y280587D01*
X744123Y282500D01*
X744125Y282509D01*
X744130Y282518D01*
X744167Y282663D01*
X744207Y282807D01*
X744207Y282816D01*
X744209Y282825D01*
X744219Y282986D01*
X744219Y771114D01*
X744218Y771123D01*
X744219Y771132D01*
X744198Y771281D01*
X744179Y771429D01*
X744176Y771438D01*
X744175Y771447D01*
X744123Y771600D01*
X743330Y773513D01*
X743330Y775887D01*
X744239Y778082D01*
X745918Y779761D01*
X748113Y780670D01*
X750487Y780670D01*
X752682Y779761D01*
X754361Y778082D01*
X755270Y775887D01*
X755270Y773513D01*
X754477Y771600D01*
X754475Y771591D01*
X754470Y771582D01*
X754433Y771437D01*
X754393Y771293D01*
X754393Y771284D01*
X754391Y771275D01*
X754381Y771114D01*
X754381Y282986D01*
X754382Y282977D01*
X754381Y282968D01*
X754402Y282819D01*
X754403Y282811D01*
X754403Y282808D01*
X754403Y282807D01*
X754421Y282671D01*
X754424Y282662D01*
X754425Y282653D01*
X754477Y282500D01*
X755270Y280587D01*
X755270Y278213D01*
X754361Y276018D01*
X752682Y274339D01*
X750487Y273430D01*
X748113Y273430D01*
G37*
%LPD*%
%LPC*%
G36*
X926089Y299719D02*
X926089Y299719D01*
X924222Y300493D01*
X910093Y314622D01*
X909319Y316489D01*
X909319Y466314D01*
X909318Y466323D01*
X909319Y466332D01*
X909298Y466481D01*
X909279Y466629D01*
X909276Y466638D01*
X909275Y466647D01*
X909223Y466800D01*
X908430Y468713D01*
X908430Y471087D01*
X909339Y473282D01*
X911018Y474961D01*
X913213Y475870D01*
X915587Y475870D01*
X917782Y474961D01*
X919461Y473282D01*
X920370Y471087D01*
X920370Y468713D01*
X919577Y466800D01*
X919575Y466791D01*
X919570Y466782D01*
X919533Y466637D01*
X919493Y466493D01*
X919493Y466484D01*
X919491Y466475D01*
X919481Y466314D01*
X919481Y320130D01*
X919493Y320032D01*
X919496Y319933D01*
X919513Y319875D01*
X919521Y319815D01*
X919557Y319723D01*
X919585Y319628D01*
X919615Y319575D01*
X919638Y319519D01*
X919696Y319439D01*
X919746Y319354D01*
X919812Y319278D01*
X919824Y319262D01*
X919834Y319254D01*
X919852Y319233D01*
X928833Y310252D01*
X928911Y310192D01*
X928983Y310124D01*
X929036Y310095D01*
X929084Y310058D01*
X929175Y310018D01*
X929262Y309970D01*
X929320Y309955D01*
X929376Y309931D01*
X929474Y309916D01*
X929570Y309891D01*
X929670Y309885D01*
X929690Y309881D01*
X929702Y309883D01*
X929730Y309881D01*
X1188630Y309881D01*
X1188728Y309893D01*
X1188827Y309896D01*
X1188885Y309913D01*
X1188945Y309921D01*
X1189037Y309957D01*
X1189132Y309985D01*
X1189185Y310015D01*
X1189241Y310038D01*
X1189321Y310096D01*
X1189406Y310146D01*
X1189482Y310212D01*
X1189498Y310224D01*
X1189506Y310234D01*
X1189527Y310252D01*
X1198508Y319233D01*
X1198568Y319311D01*
X1198636Y319383D01*
X1198665Y319436D01*
X1198702Y319484D01*
X1198742Y319575D01*
X1198790Y319662D01*
X1198805Y319720D01*
X1198829Y319776D01*
X1198844Y319874D01*
X1198869Y319970D01*
X1198875Y320070D01*
X1198879Y320090D01*
X1198877Y320102D01*
X1198879Y320130D01*
X1198879Y335241D01*
X1198867Y335339D01*
X1198864Y335438D01*
X1198847Y335496D01*
X1198839Y335556D01*
X1198803Y335648D01*
X1198775Y335744D01*
X1198745Y335796D01*
X1198722Y335852D01*
X1198664Y335932D01*
X1198614Y336017D01*
X1198548Y336093D01*
X1198536Y336109D01*
X1198526Y336117D01*
X1198508Y336138D01*
X1195323Y339323D01*
X1195323Y346477D01*
X1200383Y351537D01*
X1207537Y351537D01*
X1212597Y346477D01*
X1212597Y339323D01*
X1209412Y336138D01*
X1209352Y336060D01*
X1209284Y335988D01*
X1209255Y335935D01*
X1209218Y335887D01*
X1209178Y335796D01*
X1209130Y335709D01*
X1209115Y335651D01*
X1209091Y335595D01*
X1209076Y335497D01*
X1209051Y335402D01*
X1209045Y335301D01*
X1209041Y335281D01*
X1209043Y335269D01*
X1209041Y335241D01*
X1209041Y316489D01*
X1208267Y314622D01*
X1194138Y300493D01*
X1192271Y299719D01*
X926089Y299719D01*
G37*
%LPD*%
%LPC*%
G36*
X1002113Y362330D02*
X1002113Y362330D01*
X999918Y363239D01*
X998239Y364918D01*
X997330Y367113D01*
X997330Y369487D01*
X998123Y371400D01*
X998125Y371409D01*
X998130Y371418D01*
X998143Y371471D01*
X998157Y371500D01*
X998174Y371586D01*
X998207Y371707D01*
X998207Y371716D01*
X998209Y371725D01*
X998213Y371795D01*
X998217Y371812D01*
X998216Y371829D01*
X998219Y371886D01*
X998219Y784770D01*
X998207Y784868D01*
X998204Y784967D01*
X998187Y785025D01*
X998179Y785085D01*
X998143Y785177D01*
X998115Y785272D01*
X998085Y785325D01*
X998062Y785381D01*
X998004Y785461D01*
X997954Y785546D01*
X997888Y785622D01*
X997876Y785638D01*
X997866Y785646D01*
X997848Y785667D01*
X979383Y804132D01*
X979376Y804137D01*
X979370Y804145D01*
X979250Y804235D01*
X979132Y804327D01*
X979123Y804330D01*
X979116Y804336D01*
X978971Y804407D01*
X977058Y805199D01*
X975379Y806878D01*
X974470Y809073D01*
X974470Y811447D01*
X975379Y813642D01*
X977058Y815321D01*
X979253Y816230D01*
X981627Y816230D01*
X983822Y815321D01*
X985501Y813642D01*
X986293Y811729D01*
X986298Y811721D01*
X986300Y811712D01*
X986377Y811583D01*
X986451Y811452D01*
X986457Y811446D01*
X986462Y811438D01*
X986568Y811317D01*
X1007607Y790278D01*
X1008381Y788411D01*
X1008381Y371886D01*
X1008382Y371877D01*
X1008381Y371868D01*
X1008397Y371754D01*
X1008403Y371656D01*
X1008414Y371621D01*
X1008421Y371571D01*
X1008424Y371562D01*
X1008425Y371553D01*
X1008477Y371400D01*
X1009270Y369487D01*
X1009270Y367113D01*
X1008361Y364918D01*
X1006682Y363239D01*
X1004487Y362330D01*
X1002113Y362330D01*
G37*
%LPD*%
%LPC*%
G36*
X976713Y375030D02*
X976713Y375030D01*
X974518Y375939D01*
X972839Y377618D01*
X971930Y379813D01*
X971930Y382187D01*
X972723Y384100D01*
X972725Y384109D01*
X972730Y384118D01*
X972740Y384156D01*
X972756Y384192D01*
X972777Y384298D01*
X972807Y384407D01*
X972807Y384416D01*
X972809Y384425D01*
X972813Y384488D01*
X972816Y384504D01*
X972815Y384522D01*
X972819Y384586D01*
X972819Y618231D01*
X973593Y620098D01*
X974312Y620817D01*
X974317Y620824D01*
X974325Y620830D01*
X974415Y620950D01*
X974507Y621068D01*
X974510Y621077D01*
X974516Y621084D01*
X974587Y621229D01*
X975379Y623142D01*
X977058Y624821D01*
X979253Y625730D01*
X981627Y625730D01*
X983822Y624821D01*
X985501Y623142D01*
X986410Y620947D01*
X986410Y618573D01*
X985501Y616378D01*
X983822Y614699D01*
X983764Y614675D01*
X983739Y614661D01*
X983711Y614652D01*
X983601Y614582D01*
X983488Y614518D01*
X983467Y614497D01*
X983442Y614481D01*
X983353Y614387D01*
X983260Y614297D01*
X983244Y614271D01*
X983224Y614250D01*
X983161Y614136D01*
X983093Y614025D01*
X983085Y613997D01*
X983070Y613971D01*
X983038Y613846D01*
X983000Y613722D01*
X982998Y613692D01*
X982991Y613663D01*
X982981Y613503D01*
X982981Y384586D01*
X982982Y384577D01*
X982981Y384568D01*
X982997Y384453D01*
X983004Y384348D01*
X983015Y384311D01*
X983021Y384271D01*
X983024Y384262D01*
X983025Y384253D01*
X983077Y384100D01*
X983870Y382187D01*
X983870Y379813D01*
X982961Y377618D01*
X981282Y375939D01*
X979087Y375030D01*
X976713Y375030D01*
G37*
%LPD*%
%LPC*%
G36*
X928950Y208025D02*
X928950Y208025D01*
X921575Y211080D01*
X915930Y216725D01*
X912875Y224100D01*
X912875Y232084D01*
X915930Y239459D01*
X921575Y245104D01*
X928950Y248159D01*
X936934Y248159D01*
X944309Y245104D01*
X949954Y239459D01*
X953009Y232084D01*
X953009Y224100D01*
X949954Y216725D01*
X944309Y211080D01*
X936934Y208025D01*
X928950Y208025D01*
G37*
%LPD*%
%LPC*%
G36*
X607386Y972057D02*
X607386Y972057D01*
X600011Y975112D01*
X594366Y980757D01*
X591311Y988132D01*
X591311Y996116D01*
X594366Y1003491D01*
X600011Y1009136D01*
X607386Y1012191D01*
X615370Y1012191D01*
X622745Y1009136D01*
X628390Y1003491D01*
X631445Y996116D01*
X631445Y988132D01*
X628390Y980757D01*
X622745Y975112D01*
X615370Y972057D01*
X607386Y972057D01*
G37*
%LPD*%
%LPC*%
G36*
X286076Y208025D02*
X286076Y208025D01*
X278701Y211080D01*
X273056Y216725D01*
X270001Y224100D01*
X270001Y232084D01*
X273056Y239459D01*
X278701Y245104D01*
X286076Y248159D01*
X294060Y248159D01*
X301435Y245104D01*
X307080Y239459D01*
X310135Y232084D01*
X310135Y224100D01*
X307080Y216725D01*
X301435Y211080D01*
X294060Y208025D01*
X286076Y208025D01*
G37*
%LPD*%
%LPC*%
G36*
X928950Y972057D02*
X928950Y972057D01*
X921575Y975112D01*
X915930Y980757D01*
X912875Y988132D01*
X912875Y996116D01*
X915930Y1003491D01*
X921575Y1009136D01*
X928950Y1012191D01*
X936934Y1012191D01*
X944309Y1009136D01*
X949954Y1003491D01*
X953009Y996116D01*
X953009Y988132D01*
X949954Y980757D01*
X944309Y975112D01*
X936934Y972057D01*
X928950Y972057D01*
G37*
%LPD*%
%LPC*%
G36*
X607386Y208025D02*
X607386Y208025D01*
X600011Y211080D01*
X594366Y216725D01*
X591311Y224100D01*
X591311Y232084D01*
X594366Y239459D01*
X600011Y245104D01*
X607386Y248159D01*
X615370Y248159D01*
X622745Y245104D01*
X628390Y239459D01*
X631445Y232084D01*
X631445Y224100D01*
X628390Y216725D01*
X622745Y211080D01*
X615370Y208025D01*
X607386Y208025D01*
G37*
%LPD*%
%LPC*%
G36*
X286076Y972057D02*
X286076Y972057D01*
X278701Y975112D01*
X273056Y980757D01*
X270001Y988132D01*
X270001Y996116D01*
X273056Y1003491D01*
X278701Y1009136D01*
X286076Y1012191D01*
X294060Y1012191D01*
X301435Y1009136D01*
X307080Y1003491D01*
X310135Y996116D01*
X310135Y988132D01*
X307080Y980757D01*
X301435Y975112D01*
X294060Y972057D01*
X286076Y972057D01*
G37*
%LPD*%
%LPC*%
G36*
X189313Y641730D02*
X189313Y641730D01*
X187118Y642639D01*
X185439Y644318D01*
X184530Y646513D01*
X184530Y648887D01*
X185323Y650800D01*
X185325Y650809D01*
X185330Y650818D01*
X185367Y650962D01*
X185407Y651107D01*
X185407Y651116D01*
X185409Y651125D01*
X185419Y651286D01*
X185419Y741024D01*
X185407Y741122D01*
X185404Y741221D01*
X185387Y741280D01*
X185379Y741340D01*
X185343Y741432D01*
X185315Y741527D01*
X185285Y741579D01*
X185262Y741635D01*
X185204Y741716D01*
X185154Y741801D01*
X185088Y741876D01*
X185076Y741893D01*
X185066Y741901D01*
X185048Y741922D01*
X182808Y744161D01*
X181427Y747495D01*
X181427Y751105D01*
X182808Y754439D01*
X185361Y756992D01*
X188695Y758373D01*
X192305Y758373D01*
X195639Y756992D01*
X198192Y754439D01*
X199573Y751105D01*
X199573Y747495D01*
X198192Y744161D01*
X195952Y741922D01*
X195892Y741843D01*
X195824Y741771D01*
X195795Y741718D01*
X195758Y741670D01*
X195718Y741579D01*
X195670Y741493D01*
X195655Y741434D01*
X195631Y741379D01*
X195616Y741281D01*
X195591Y741185D01*
X195585Y741085D01*
X195581Y741065D01*
X195583Y741052D01*
X195581Y741024D01*
X195581Y651286D01*
X195582Y651277D01*
X195581Y651268D01*
X195602Y651119D01*
X195621Y650971D01*
X195624Y650962D01*
X195625Y650953D01*
X195677Y650800D01*
X196470Y648887D01*
X196470Y646513D01*
X195561Y644318D01*
X193882Y642639D01*
X191687Y641730D01*
X189313Y641730D01*
G37*
%LPD*%
%LPC*%
G36*
X1178915Y669734D02*
X1178915Y669734D01*
X1174877Y671406D01*
X1171786Y674497D01*
X1170114Y678535D01*
X1170114Y682905D01*
X1171112Y685314D01*
X1171138Y685410D01*
X1171173Y685502D01*
X1171180Y685563D01*
X1171196Y685621D01*
X1171197Y685720D01*
X1171208Y685818D01*
X1171200Y685878D01*
X1171201Y685939D01*
X1171178Y686035D01*
X1171164Y686133D01*
X1171131Y686228D01*
X1171126Y686248D01*
X1171121Y686259D01*
X1171112Y686286D01*
X1170114Y688695D01*
X1170114Y693065D01*
X1171786Y697103D01*
X1174877Y700194D01*
X1178915Y701866D01*
X1183285Y701866D01*
X1187323Y700194D01*
X1190414Y697103D01*
X1192086Y693065D01*
X1192086Y688695D01*
X1191088Y686286D01*
X1191062Y686190D01*
X1191027Y686098D01*
X1191020Y686037D01*
X1191004Y685979D01*
X1191003Y685880D01*
X1190992Y685782D01*
X1191000Y685722D01*
X1190999Y685661D01*
X1191022Y685565D01*
X1191036Y685467D01*
X1191069Y685372D01*
X1191074Y685352D01*
X1191079Y685341D01*
X1191088Y685314D01*
X1192086Y682905D01*
X1192086Y678535D01*
X1190414Y674497D01*
X1187323Y671406D01*
X1183285Y669734D01*
X1178915Y669734D01*
G37*
%LPD*%
%LPC*%
G36*
X1178915Y872934D02*
X1178915Y872934D01*
X1174877Y874606D01*
X1171786Y877697D01*
X1170114Y881735D01*
X1170114Y886105D01*
X1171112Y888514D01*
X1171138Y888610D01*
X1171173Y888702D01*
X1171180Y888763D01*
X1171196Y888821D01*
X1171197Y888920D01*
X1171208Y889018D01*
X1171200Y889078D01*
X1171201Y889139D01*
X1171178Y889235D01*
X1171164Y889333D01*
X1171131Y889428D01*
X1171126Y889448D01*
X1171121Y889459D01*
X1171112Y889486D01*
X1170114Y891895D01*
X1170114Y896265D01*
X1171786Y900303D01*
X1174877Y903394D01*
X1178915Y905066D01*
X1183285Y905066D01*
X1187323Y903394D01*
X1190414Y900303D01*
X1192086Y896265D01*
X1192086Y891895D01*
X1191088Y889486D01*
X1191062Y889390D01*
X1191027Y889298D01*
X1191020Y889237D01*
X1191004Y889179D01*
X1191003Y889080D01*
X1190992Y888982D01*
X1191000Y888922D01*
X1190999Y888861D01*
X1191022Y888765D01*
X1191036Y888667D01*
X1191069Y888572D01*
X1191074Y888552D01*
X1191079Y888541D01*
X1191088Y888514D01*
X1192086Y886105D01*
X1192086Y881735D01*
X1190414Y877697D01*
X1187323Y874606D01*
X1183285Y872934D01*
X1178915Y872934D01*
G37*
%LPD*%
%LPC*%
G36*
X35915Y872934D02*
X35915Y872934D01*
X31877Y874606D01*
X28786Y877697D01*
X27114Y881735D01*
X27114Y886105D01*
X28112Y888514D01*
X28138Y888610D01*
X28173Y888702D01*
X28180Y888763D01*
X28196Y888821D01*
X28197Y888920D01*
X28208Y889018D01*
X28200Y889078D01*
X28201Y889139D01*
X28178Y889235D01*
X28164Y889333D01*
X28131Y889428D01*
X28126Y889448D01*
X28121Y889459D01*
X28112Y889486D01*
X27114Y891895D01*
X27114Y896265D01*
X28786Y900303D01*
X31877Y903394D01*
X35915Y905066D01*
X40285Y905066D01*
X44323Y903394D01*
X47414Y900303D01*
X49086Y896265D01*
X49086Y891895D01*
X48088Y889486D01*
X48062Y889390D01*
X48027Y889298D01*
X48020Y889237D01*
X48004Y889179D01*
X48003Y889080D01*
X47992Y888982D01*
X48000Y888922D01*
X47999Y888861D01*
X48022Y888765D01*
X48036Y888667D01*
X48069Y888572D01*
X48074Y888552D01*
X48079Y888541D01*
X48088Y888514D01*
X49086Y886105D01*
X49086Y881735D01*
X47414Y877697D01*
X44323Y874606D01*
X40285Y872934D01*
X35915Y872934D01*
G37*
%LPD*%
%LPC*%
G36*
X35915Y1088834D02*
X35915Y1088834D01*
X31877Y1090506D01*
X28786Y1093597D01*
X27114Y1097635D01*
X27114Y1102005D01*
X28112Y1104414D01*
X28138Y1104510D01*
X28173Y1104602D01*
X28180Y1104663D01*
X28196Y1104721D01*
X28197Y1104820D01*
X28208Y1104918D01*
X28200Y1104978D01*
X28201Y1105039D01*
X28178Y1105135D01*
X28164Y1105233D01*
X28131Y1105328D01*
X28126Y1105348D01*
X28121Y1105359D01*
X28112Y1105386D01*
X27114Y1107795D01*
X27114Y1112165D01*
X28786Y1116203D01*
X31877Y1119294D01*
X35915Y1120966D01*
X40285Y1120966D01*
X44323Y1119294D01*
X47414Y1116203D01*
X49086Y1112165D01*
X49086Y1107795D01*
X48088Y1105386D01*
X48062Y1105290D01*
X48027Y1105198D01*
X48020Y1105137D01*
X48004Y1105079D01*
X48003Y1104980D01*
X47992Y1104882D01*
X48000Y1104822D01*
X47999Y1104761D01*
X48022Y1104665D01*
X48036Y1104567D01*
X48069Y1104472D01*
X48074Y1104452D01*
X48079Y1104441D01*
X48088Y1104414D01*
X49086Y1102005D01*
X49086Y1097635D01*
X47414Y1093597D01*
X44323Y1090506D01*
X40285Y1088834D01*
X35915Y1088834D01*
G37*
%LPD*%
%LPC*%
G36*
X35915Y110934D02*
X35915Y110934D01*
X31877Y112606D01*
X28786Y115697D01*
X27114Y119735D01*
X27114Y124105D01*
X28112Y126514D01*
X28138Y126610D01*
X28173Y126702D01*
X28180Y126763D01*
X28196Y126821D01*
X28197Y126920D01*
X28208Y127018D01*
X28200Y127078D01*
X28201Y127139D01*
X28178Y127235D01*
X28164Y127333D01*
X28131Y127428D01*
X28126Y127448D01*
X28121Y127459D01*
X28112Y127486D01*
X27114Y129895D01*
X27114Y134265D01*
X28786Y138303D01*
X31877Y141394D01*
X35915Y143066D01*
X40285Y143066D01*
X44323Y141394D01*
X47414Y138303D01*
X49086Y134265D01*
X49086Y129895D01*
X48088Y127486D01*
X48062Y127390D01*
X48027Y127298D01*
X48020Y127237D01*
X48004Y127179D01*
X48003Y127080D01*
X47992Y126982D01*
X48000Y126922D01*
X47999Y126861D01*
X48022Y126765D01*
X48036Y126667D01*
X48069Y126572D01*
X48074Y126552D01*
X48079Y126541D01*
X48088Y126514D01*
X49086Y124105D01*
X49086Y119735D01*
X47414Y115697D01*
X44323Y112606D01*
X40285Y110934D01*
X35915Y110934D01*
G37*
%LPD*%
%LPC*%
G36*
X1166014Y421576D02*
X1166014Y421576D01*
X1161136Y423596D01*
X1157402Y427330D01*
X1155382Y432208D01*
X1155382Y437488D01*
X1157402Y442366D01*
X1161136Y446100D01*
X1166014Y448120D01*
X1171294Y448120D01*
X1176172Y446100D01*
X1179906Y442366D01*
X1181926Y437488D01*
X1181926Y432208D01*
X1179906Y427330D01*
X1176172Y423596D01*
X1171294Y421576D01*
X1166014Y421576D01*
G37*
%LPD*%
%LPC*%
G36*
X1166014Y491680D02*
X1166014Y491680D01*
X1161136Y493700D01*
X1157402Y497434D01*
X1155382Y502312D01*
X1155382Y507592D01*
X1157402Y512470D01*
X1161136Y516204D01*
X1166014Y518224D01*
X1171294Y518224D01*
X1176172Y516204D01*
X1179906Y512470D01*
X1181926Y507592D01*
X1181926Y502312D01*
X1179906Y497434D01*
X1176172Y493700D01*
X1171294Y491680D01*
X1166014Y491680D01*
G37*
%LPD*%
%LPC*%
G36*
X137881Y72643D02*
X137881Y72643D01*
X134520Y74035D01*
X131947Y76608D01*
X130555Y79969D01*
X130555Y97831D01*
X131947Y101192D01*
X134520Y103765D01*
X137881Y105157D01*
X141519Y105157D01*
X144880Y103765D01*
X147453Y101192D01*
X148845Y97831D01*
X148845Y79969D01*
X147453Y76608D01*
X144880Y74035D01*
X141519Y72643D01*
X137881Y72643D01*
G37*
%LPD*%
%LPC*%
G36*
X1052281Y898143D02*
X1052281Y898143D01*
X1048920Y899535D01*
X1046347Y902108D01*
X1044955Y905469D01*
X1044955Y923331D01*
X1046347Y926692D01*
X1048920Y929265D01*
X1052281Y930657D01*
X1055919Y930657D01*
X1059280Y929265D01*
X1061853Y926692D01*
X1063245Y923331D01*
X1063245Y905469D01*
X1061853Y902108D01*
X1059280Y899535D01*
X1055919Y898143D01*
X1052281Y898143D01*
G37*
%LPD*%
%LPC*%
G36*
X163281Y72643D02*
X163281Y72643D01*
X159920Y74035D01*
X157347Y76608D01*
X155955Y79969D01*
X155955Y97831D01*
X157347Y101192D01*
X159920Y103765D01*
X163281Y105157D01*
X166919Y105157D01*
X170280Y103765D01*
X172853Y101192D01*
X174245Y97831D01*
X174245Y79969D01*
X172853Y76608D01*
X170280Y74035D01*
X166919Y72643D01*
X163281Y72643D01*
G37*
%LPD*%
%LPC*%
G36*
X1077681Y707643D02*
X1077681Y707643D01*
X1074320Y709035D01*
X1071747Y711608D01*
X1070355Y714969D01*
X1070355Y732831D01*
X1071747Y736192D01*
X1074320Y738765D01*
X1077681Y740157D01*
X1081319Y740157D01*
X1084680Y738765D01*
X1087253Y736192D01*
X1088645Y732831D01*
X1088645Y714969D01*
X1087253Y711608D01*
X1084680Y709035D01*
X1081319Y707643D01*
X1077681Y707643D01*
G37*
%LPD*%
%LPC*%
G36*
X1052281Y707643D02*
X1052281Y707643D01*
X1048920Y709035D01*
X1046347Y711608D01*
X1044955Y714969D01*
X1044955Y732831D01*
X1046347Y736192D01*
X1048920Y738765D01*
X1052281Y740157D01*
X1055919Y740157D01*
X1059280Y738765D01*
X1061853Y736192D01*
X1063245Y732831D01*
X1063245Y714969D01*
X1061853Y711608D01*
X1059280Y709035D01*
X1055919Y707643D01*
X1052281Y707643D01*
G37*
%LPD*%
%LPC*%
G36*
X1077681Y898143D02*
X1077681Y898143D01*
X1074320Y899535D01*
X1071747Y902108D01*
X1070355Y905469D01*
X1070355Y923331D01*
X1071747Y926692D01*
X1074320Y929265D01*
X1077681Y930657D01*
X1081319Y930657D01*
X1084680Y929265D01*
X1087253Y926692D01*
X1088645Y923331D01*
X1088645Y905469D01*
X1087253Y902108D01*
X1084680Y899535D01*
X1081319Y898143D01*
X1077681Y898143D01*
G37*
%LPD*%
%LPC*%
G36*
X76083Y879474D02*
X76083Y879474D01*
X72582Y880924D01*
X69902Y883604D01*
X68452Y887105D01*
X68452Y890895D01*
X69902Y894396D01*
X72582Y897076D01*
X76083Y898526D01*
X79873Y898526D01*
X82572Y897408D01*
X82668Y897381D01*
X82760Y897346D01*
X82821Y897340D01*
X82879Y897324D01*
X82978Y897322D01*
X83076Y897311D01*
X83136Y897320D01*
X83197Y897319D01*
X83293Y897342D01*
X83391Y897355D01*
X83486Y897388D01*
X83506Y897393D01*
X83517Y897398D01*
X83544Y897408D01*
X86243Y898526D01*
X90033Y898526D01*
X93534Y897076D01*
X96214Y894396D01*
X97664Y890895D01*
X97664Y887105D01*
X96214Y883604D01*
X93534Y880924D01*
X90033Y879474D01*
X86243Y879474D01*
X83544Y880592D01*
X83448Y880619D01*
X83356Y880654D01*
X83295Y880660D01*
X83237Y880676D01*
X83138Y880678D01*
X83040Y880689D01*
X82980Y880680D01*
X82919Y880681D01*
X82823Y880658D01*
X82725Y880645D01*
X82630Y880612D01*
X82610Y880607D01*
X82599Y880602D01*
X82572Y880592D01*
X79873Y879474D01*
X76083Y879474D01*
G37*
%LPD*%
%LPC*%
G36*
X76083Y117474D02*
X76083Y117474D01*
X72582Y118924D01*
X69902Y121604D01*
X68452Y125105D01*
X68452Y128895D01*
X69902Y132396D01*
X72582Y135076D01*
X76083Y136526D01*
X79873Y136526D01*
X82572Y135408D01*
X82668Y135381D01*
X82760Y135346D01*
X82821Y135340D01*
X82879Y135324D01*
X82978Y135322D01*
X83076Y135311D01*
X83136Y135320D01*
X83197Y135319D01*
X83293Y135342D01*
X83391Y135355D01*
X83486Y135388D01*
X83506Y135393D01*
X83517Y135398D01*
X83544Y135408D01*
X86243Y136526D01*
X90033Y136526D01*
X93534Y135076D01*
X96214Y132396D01*
X97664Y128895D01*
X97664Y125105D01*
X96214Y121604D01*
X93534Y118924D01*
X90033Y117474D01*
X86243Y117474D01*
X83544Y118592D01*
X83448Y118619D01*
X83356Y118654D01*
X83295Y118660D01*
X83237Y118676D01*
X83138Y118678D01*
X83040Y118689D01*
X82980Y118680D01*
X82919Y118681D01*
X82823Y118658D01*
X82725Y118645D01*
X82630Y118612D01*
X82610Y118607D01*
X82599Y118602D01*
X82572Y118592D01*
X79873Y117474D01*
X76083Y117474D01*
G37*
%LPD*%
%LPC*%
G36*
X1129167Y676274D02*
X1129167Y676274D01*
X1125666Y677724D01*
X1122986Y680404D01*
X1121536Y683905D01*
X1121536Y687695D01*
X1122986Y691196D01*
X1125666Y693876D01*
X1129167Y695326D01*
X1132957Y695326D01*
X1135656Y694208D01*
X1135752Y694181D01*
X1135844Y694146D01*
X1135905Y694140D01*
X1135963Y694124D01*
X1136062Y694122D01*
X1136160Y694111D01*
X1136220Y694120D01*
X1136281Y694119D01*
X1136377Y694142D01*
X1136475Y694155D01*
X1136570Y694188D01*
X1136590Y694193D01*
X1136601Y694198D01*
X1136628Y694208D01*
X1139327Y695326D01*
X1143117Y695326D01*
X1146618Y693876D01*
X1149298Y691196D01*
X1150748Y687695D01*
X1150748Y683905D01*
X1149298Y680404D01*
X1146618Y677724D01*
X1143117Y676274D01*
X1139327Y676274D01*
X1136628Y677392D01*
X1136532Y677419D01*
X1136440Y677454D01*
X1136379Y677460D01*
X1136321Y677476D01*
X1136222Y677478D01*
X1136124Y677489D01*
X1136064Y677480D01*
X1136003Y677481D01*
X1135907Y677458D01*
X1135809Y677445D01*
X1135714Y677412D01*
X1135694Y677407D01*
X1135683Y677402D01*
X1135656Y677392D01*
X1132957Y676274D01*
X1129167Y676274D01*
G37*
%LPD*%
%LPC*%
G36*
X76083Y1095374D02*
X76083Y1095374D01*
X72582Y1096824D01*
X69902Y1099504D01*
X68452Y1103005D01*
X68452Y1106795D01*
X69902Y1110296D01*
X72582Y1112976D01*
X76083Y1114426D01*
X79873Y1114426D01*
X82572Y1113308D01*
X82668Y1113281D01*
X82760Y1113246D01*
X82821Y1113240D01*
X82879Y1113224D01*
X82978Y1113222D01*
X83076Y1113211D01*
X83136Y1113220D01*
X83197Y1113219D01*
X83293Y1113242D01*
X83391Y1113255D01*
X83486Y1113288D01*
X83506Y1113293D01*
X83517Y1113298D01*
X83544Y1113308D01*
X86243Y1114426D01*
X90033Y1114426D01*
X93534Y1112976D01*
X96214Y1110296D01*
X97664Y1106795D01*
X97664Y1103005D01*
X96214Y1099504D01*
X93534Y1096824D01*
X90033Y1095374D01*
X86243Y1095374D01*
X83544Y1096492D01*
X83448Y1096519D01*
X83356Y1096554D01*
X83295Y1096560D01*
X83237Y1096576D01*
X83138Y1096578D01*
X83040Y1096589D01*
X82980Y1096580D01*
X82919Y1096581D01*
X82823Y1096558D01*
X82725Y1096545D01*
X82630Y1096512D01*
X82610Y1096507D01*
X82599Y1096502D01*
X82572Y1096492D01*
X79873Y1095374D01*
X76083Y1095374D01*
G37*
%LPD*%
%LPC*%
G36*
X1129167Y879474D02*
X1129167Y879474D01*
X1125666Y880924D01*
X1122986Y883604D01*
X1121536Y887105D01*
X1121536Y890895D01*
X1122986Y894396D01*
X1125666Y897076D01*
X1129167Y898526D01*
X1132957Y898526D01*
X1135656Y897408D01*
X1135752Y897381D01*
X1135844Y897346D01*
X1135905Y897340D01*
X1135963Y897324D01*
X1136062Y897322D01*
X1136160Y897311D01*
X1136220Y897320D01*
X1136281Y897319D01*
X1136377Y897342D01*
X1136475Y897355D01*
X1136570Y897388D01*
X1136590Y897393D01*
X1136601Y897398D01*
X1136628Y897408D01*
X1139327Y898526D01*
X1143117Y898526D01*
X1146618Y897076D01*
X1149298Y894396D01*
X1150748Y890895D01*
X1150748Y887105D01*
X1149298Y883604D01*
X1146618Y880924D01*
X1143117Y879474D01*
X1139327Y879474D01*
X1136628Y880592D01*
X1136532Y880619D01*
X1136440Y880654D01*
X1136379Y880660D01*
X1136321Y880676D01*
X1136222Y880678D01*
X1136124Y880689D01*
X1136064Y880680D01*
X1136003Y880681D01*
X1135907Y880658D01*
X1135809Y880645D01*
X1135714Y880612D01*
X1135694Y880607D01*
X1135683Y880602D01*
X1135656Y880592D01*
X1132957Y879474D01*
X1129167Y879474D01*
G37*
%LPD*%
%LPC*%
G36*
X1189548Y437641D02*
X1189548Y437641D01*
X1183893Y443296D01*
X1183893Y451292D01*
X1189548Y456947D01*
X1197544Y456947D01*
X1203199Y451292D01*
X1203199Y443296D01*
X1197544Y437641D01*
X1189548Y437641D01*
G37*
%LPD*%
%LPC*%
G36*
X272168Y1109277D02*
X272168Y1109277D01*
X270977Y1110468D01*
X270977Y1124732D01*
X272168Y1125923D01*
X286432Y1125923D01*
X287623Y1124732D01*
X287623Y1110468D01*
X286432Y1109277D01*
X272168Y1109277D01*
G37*
%LPD*%
%LPC*%
G36*
X315695Y740227D02*
X315695Y740227D01*
X312361Y741608D01*
X309808Y744161D01*
X308427Y747495D01*
X308427Y751105D01*
X309808Y754439D01*
X312361Y756992D01*
X315695Y758373D01*
X319305Y758373D01*
X322639Y756992D01*
X325192Y754439D01*
X326573Y751105D01*
X326573Y747495D01*
X325192Y744161D01*
X322639Y741608D01*
X319305Y740227D01*
X315695Y740227D01*
G37*
%LPD*%
%LPC*%
G36*
X61695Y740227D02*
X61695Y740227D01*
X58361Y741608D01*
X55808Y744161D01*
X54427Y747495D01*
X54427Y751105D01*
X55808Y754439D01*
X58361Y756992D01*
X61695Y758373D01*
X65305Y758373D01*
X68639Y756992D01*
X71192Y754439D01*
X72573Y751105D01*
X72573Y747495D01*
X71192Y744161D01*
X68639Y741608D01*
X65305Y740227D01*
X61695Y740227D01*
G37*
%LPD*%
%LPC*%
G36*
X442695Y740227D02*
X442695Y740227D01*
X439361Y741608D01*
X436808Y744161D01*
X435427Y747495D01*
X435427Y751105D01*
X436808Y754439D01*
X439361Y756992D01*
X442695Y758373D01*
X446305Y758373D01*
X449639Y756992D01*
X452192Y754439D01*
X453573Y751105D01*
X453573Y747495D01*
X452192Y744161D01*
X449639Y741608D01*
X446305Y740227D01*
X442695Y740227D01*
G37*
%LPD*%
%LPC*%
G36*
X87095Y740227D02*
X87095Y740227D01*
X83761Y741608D01*
X81208Y744161D01*
X79827Y747495D01*
X79827Y751105D01*
X81208Y754439D01*
X83761Y756992D01*
X87095Y758373D01*
X90705Y758373D01*
X94039Y756992D01*
X96592Y754439D01*
X97973Y751105D01*
X97973Y747495D01*
X96592Y744161D01*
X94039Y741608D01*
X90705Y740227D01*
X87095Y740227D01*
G37*
%LPD*%
%LPC*%
G36*
X391895Y295727D02*
X391895Y295727D01*
X388561Y297108D01*
X386008Y299661D01*
X384627Y302995D01*
X384627Y306605D01*
X386008Y309939D01*
X388561Y312492D01*
X391895Y313873D01*
X395505Y313873D01*
X398839Y312492D01*
X401392Y309939D01*
X402773Y306605D01*
X402773Y302995D01*
X401392Y299661D01*
X398839Y297108D01*
X395505Y295727D01*
X391895Y295727D01*
G37*
%LPD*%
%LPC*%
G36*
X112495Y740227D02*
X112495Y740227D01*
X109161Y741608D01*
X106608Y744161D01*
X105227Y747495D01*
X105227Y751105D01*
X106608Y754439D01*
X109161Y756992D01*
X112495Y758373D01*
X116105Y758373D01*
X119439Y756992D01*
X121992Y754439D01*
X123373Y751105D01*
X123373Y747495D01*
X121992Y744161D01*
X119439Y741608D01*
X116105Y740227D01*
X112495Y740227D01*
G37*
%LPD*%
%LPC*%
G36*
X214095Y740227D02*
X214095Y740227D01*
X210761Y741608D01*
X208208Y744161D01*
X206827Y747495D01*
X206827Y751105D01*
X208208Y754439D01*
X210761Y756992D01*
X214095Y758373D01*
X217705Y758373D01*
X221039Y756992D01*
X223592Y754439D01*
X224973Y751105D01*
X224973Y747495D01*
X223592Y744161D01*
X221039Y741608D01*
X217705Y740227D01*
X214095Y740227D01*
G37*
%LPD*%
%LPC*%
G36*
X239495Y740227D02*
X239495Y740227D01*
X236161Y741608D01*
X233608Y744161D01*
X232227Y747495D01*
X232227Y751105D01*
X233608Y754439D01*
X236161Y756992D01*
X239495Y758373D01*
X243105Y758373D01*
X246439Y756992D01*
X248992Y754439D01*
X250373Y751105D01*
X250373Y747495D01*
X248992Y744161D01*
X246439Y741608D01*
X243105Y740227D01*
X239495Y740227D01*
G37*
%LPD*%
%LPC*%
G36*
X264895Y740227D02*
X264895Y740227D01*
X261561Y741608D01*
X259008Y744161D01*
X257627Y747495D01*
X257627Y751105D01*
X259008Y754439D01*
X261561Y756992D01*
X264895Y758373D01*
X268505Y758373D01*
X271839Y756992D01*
X274392Y754439D01*
X275773Y751105D01*
X275773Y747495D01*
X274392Y744161D01*
X271839Y741608D01*
X268505Y740227D01*
X264895Y740227D01*
G37*
%LPD*%
%LPC*%
G36*
X290295Y740227D02*
X290295Y740227D01*
X286961Y741608D01*
X284408Y744161D01*
X283027Y747495D01*
X283027Y751105D01*
X284408Y754439D01*
X286961Y756992D01*
X290295Y758373D01*
X293905Y758373D01*
X297239Y756992D01*
X299792Y754439D01*
X301173Y751105D01*
X301173Y747495D01*
X299792Y744161D01*
X297239Y741608D01*
X293905Y740227D01*
X290295Y740227D01*
G37*
%LPD*%
%LPC*%
G36*
X112495Y295727D02*
X112495Y295727D01*
X109161Y297108D01*
X106608Y299661D01*
X105227Y302995D01*
X105227Y306605D01*
X106608Y309939D01*
X109161Y312492D01*
X112495Y313873D01*
X116105Y313873D01*
X119439Y312492D01*
X121992Y309939D01*
X123373Y306605D01*
X123373Y302995D01*
X121992Y299661D01*
X119439Y297108D01*
X116105Y295727D01*
X112495Y295727D01*
G37*
%LPD*%
%LPC*%
G36*
X264895Y295727D02*
X264895Y295727D01*
X261561Y297108D01*
X259008Y299661D01*
X257627Y302995D01*
X257627Y306605D01*
X259008Y309939D01*
X261561Y312492D01*
X264895Y313873D01*
X268505Y313873D01*
X271839Y312492D01*
X274392Y309939D01*
X275773Y306605D01*
X275773Y302995D01*
X274392Y299661D01*
X271839Y297108D01*
X268505Y295727D01*
X264895Y295727D01*
G37*
%LPD*%
%LPC*%
G36*
X112495Y537027D02*
X112495Y537027D01*
X109161Y538408D01*
X106608Y540961D01*
X105227Y544295D01*
X105227Y547905D01*
X106608Y551239D01*
X109161Y553792D01*
X112495Y555173D01*
X116105Y555173D01*
X119439Y553792D01*
X121992Y551239D01*
X123373Y547905D01*
X123373Y544295D01*
X121992Y540961D01*
X119439Y538408D01*
X116105Y537027D01*
X112495Y537027D01*
G37*
%LPD*%
%LPC*%
G36*
X264895Y537027D02*
X264895Y537027D01*
X261561Y538408D01*
X259008Y540961D01*
X257627Y544295D01*
X257627Y547905D01*
X259008Y551239D01*
X261561Y553792D01*
X264895Y555173D01*
X268505Y555173D01*
X271839Y553792D01*
X274392Y551239D01*
X275773Y547905D01*
X275773Y544295D01*
X274392Y540961D01*
X271839Y538408D01*
X268505Y537027D01*
X264895Y537027D01*
G37*
%LPD*%
%LPC*%
G36*
X341095Y740227D02*
X341095Y740227D01*
X337761Y741608D01*
X335208Y744161D01*
X333827Y747495D01*
X333827Y751105D01*
X335208Y754439D01*
X337761Y756992D01*
X341095Y758373D01*
X344705Y758373D01*
X348039Y756992D01*
X350592Y754439D01*
X351973Y751105D01*
X351973Y747495D01*
X350592Y744161D01*
X348039Y741608D01*
X344705Y740227D01*
X341095Y740227D01*
G37*
%LPD*%
%LPC*%
G36*
X239495Y498927D02*
X239495Y498927D01*
X236161Y500308D01*
X233608Y502861D01*
X232227Y506195D01*
X232227Y509805D01*
X233608Y513139D01*
X236161Y515692D01*
X239495Y517073D01*
X243105Y517073D01*
X246439Y515692D01*
X248992Y513139D01*
X250373Y509805D01*
X250373Y506195D01*
X248992Y502861D01*
X246439Y500308D01*
X243105Y498927D01*
X239495Y498927D01*
G37*
%LPD*%
%LPC*%
G36*
X264895Y498927D02*
X264895Y498927D01*
X261561Y500308D01*
X259008Y502861D01*
X257627Y506195D01*
X257627Y509805D01*
X259008Y513139D01*
X261561Y515692D01*
X264895Y517073D01*
X268505Y517073D01*
X271839Y515692D01*
X274392Y513139D01*
X275773Y509805D01*
X275773Y506195D01*
X274392Y502861D01*
X271839Y500308D01*
X268505Y498927D01*
X264895Y498927D01*
G37*
%LPD*%
%LPC*%
G36*
X290295Y498927D02*
X290295Y498927D01*
X286961Y500308D01*
X284408Y502861D01*
X283027Y506195D01*
X283027Y509805D01*
X284408Y513139D01*
X286961Y515692D01*
X290295Y517073D01*
X293905Y517073D01*
X297239Y515692D01*
X299792Y513139D01*
X301173Y509805D01*
X301173Y506195D01*
X299792Y502861D01*
X297239Y500308D01*
X293905Y498927D01*
X290295Y498927D01*
G37*
%LPD*%
%LPC*%
G36*
X417295Y498927D02*
X417295Y498927D01*
X413961Y500308D01*
X411408Y502861D01*
X410027Y506195D01*
X410027Y509805D01*
X411408Y513139D01*
X413961Y515692D01*
X417295Y517073D01*
X420905Y517073D01*
X424239Y515692D01*
X426792Y513139D01*
X428173Y509805D01*
X428173Y506195D01*
X426792Y502861D01*
X424239Y500308D01*
X420905Y498927D01*
X417295Y498927D01*
G37*
%LPD*%
%LPC*%
G36*
X442695Y498927D02*
X442695Y498927D01*
X439361Y500308D01*
X436808Y502861D01*
X435427Y506195D01*
X435427Y509805D01*
X436808Y513139D01*
X439361Y515692D01*
X442695Y517073D01*
X446305Y517073D01*
X449639Y515692D01*
X452192Y513139D01*
X453573Y509805D01*
X453573Y506195D01*
X452192Y502861D01*
X449639Y500308D01*
X446305Y498927D01*
X442695Y498927D01*
G37*
%LPD*%
%LPC*%
G36*
X417295Y740227D02*
X417295Y740227D01*
X413961Y741608D01*
X411408Y744161D01*
X410027Y747495D01*
X410027Y751105D01*
X411408Y754439D01*
X413961Y756992D01*
X417295Y758373D01*
X420905Y758373D01*
X424239Y756992D01*
X426792Y754439D01*
X428173Y751105D01*
X428173Y747495D01*
X426792Y744161D01*
X424239Y741608D01*
X420905Y740227D01*
X417295Y740227D01*
G37*
%LPD*%
%LPC*%
G36*
X188695Y295727D02*
X188695Y295727D01*
X185361Y297108D01*
X182808Y299661D01*
X181427Y302995D01*
X181427Y306605D01*
X182808Y309939D01*
X185361Y312492D01*
X188695Y313873D01*
X192305Y313873D01*
X195639Y312492D01*
X198192Y309939D01*
X199573Y306605D01*
X199573Y302995D01*
X198192Y299661D01*
X195639Y297108D01*
X192305Y295727D01*
X188695Y295727D01*
G37*
%LPD*%
%LPC*%
G36*
X290295Y295727D02*
X290295Y295727D01*
X286961Y297108D01*
X284408Y299661D01*
X283027Y302995D01*
X283027Y306605D01*
X284408Y309939D01*
X286961Y312492D01*
X290295Y313873D01*
X293905Y313873D01*
X297239Y312492D01*
X299792Y309939D01*
X301173Y306605D01*
X301173Y302995D01*
X299792Y299661D01*
X297239Y297108D01*
X293905Y295727D01*
X290295Y295727D01*
G37*
%LPD*%
%LPC*%
G36*
X391895Y740227D02*
X391895Y740227D01*
X388561Y741608D01*
X386008Y744161D01*
X384627Y747495D01*
X384627Y751105D01*
X386008Y754439D01*
X388561Y756992D01*
X391895Y758373D01*
X395505Y758373D01*
X398839Y756992D01*
X401392Y754439D01*
X402773Y751105D01*
X402773Y747495D01*
X401392Y744161D01*
X398839Y741608D01*
X395505Y740227D01*
X391895Y740227D01*
G37*
%LPD*%
%LPC*%
G36*
X417295Y295727D02*
X417295Y295727D01*
X413961Y297108D01*
X411408Y299661D01*
X410027Y302995D01*
X410027Y306605D01*
X411408Y309939D01*
X413961Y312492D01*
X417295Y313873D01*
X420905Y313873D01*
X424239Y312492D01*
X426792Y309939D01*
X428173Y306605D01*
X428173Y302995D01*
X426792Y299661D01*
X424239Y297108D01*
X420905Y295727D01*
X417295Y295727D01*
G37*
%LPD*%
%LPC*%
G36*
X1174983Y334263D02*
X1174983Y334263D01*
X1169923Y339323D01*
X1169923Y346477D01*
X1174983Y351537D01*
X1182137Y351537D01*
X1187197Y346477D01*
X1187197Y339323D01*
X1182137Y334263D01*
X1174983Y334263D01*
G37*
%LPD*%
%LPC*%
G36*
X1174983Y232663D02*
X1174983Y232663D01*
X1169923Y237723D01*
X1169923Y244877D01*
X1174983Y249937D01*
X1182137Y249937D01*
X1187197Y244877D01*
X1187197Y237723D01*
X1182137Y232663D01*
X1174983Y232663D01*
G37*
%LPD*%
%LPC*%
G36*
X277644Y1058477D02*
X277644Y1058477D01*
X274586Y1059744D01*
X272244Y1062086D01*
X270977Y1065144D01*
X270977Y1068456D01*
X272244Y1071514D01*
X274586Y1073856D01*
X277644Y1075123D01*
X280956Y1075123D01*
X284014Y1073856D01*
X286356Y1071514D01*
X287623Y1068456D01*
X287623Y1065144D01*
X286356Y1062086D01*
X284014Y1059744D01*
X280956Y1058477D01*
X277644Y1058477D01*
G37*
%LPD*%
%LPC*%
G36*
X245644Y1058477D02*
X245644Y1058477D01*
X242586Y1059744D01*
X240244Y1062086D01*
X238977Y1065144D01*
X238977Y1068456D01*
X240244Y1071514D01*
X242586Y1073856D01*
X245644Y1075123D01*
X248956Y1075123D01*
X252014Y1073856D01*
X254356Y1071514D01*
X255623Y1068456D01*
X255623Y1065144D01*
X254356Y1062086D01*
X252014Y1059744D01*
X248956Y1058477D01*
X245644Y1058477D01*
G37*
%LPD*%
%LPC*%
G36*
X223644Y1058477D02*
X223644Y1058477D01*
X220586Y1059744D01*
X218244Y1062086D01*
X216977Y1065144D01*
X216977Y1068456D01*
X218244Y1071514D01*
X220586Y1073856D01*
X223644Y1075123D01*
X226956Y1075123D01*
X230014Y1073856D01*
X232356Y1071514D01*
X233623Y1068456D01*
X233623Y1065144D01*
X232356Y1062086D01*
X230014Y1059744D01*
X226956Y1058477D01*
X223644Y1058477D01*
G37*
%LPD*%
%LPC*%
G36*
X201644Y1058477D02*
X201644Y1058477D01*
X198586Y1059744D01*
X196244Y1062086D01*
X194977Y1065144D01*
X194977Y1068456D01*
X196244Y1071514D01*
X198586Y1073856D01*
X201644Y1075123D01*
X204956Y1075123D01*
X208014Y1073856D01*
X210356Y1071514D01*
X211623Y1068456D01*
X211623Y1065144D01*
X210356Y1062086D01*
X208014Y1059744D01*
X204956Y1058477D01*
X201644Y1058477D01*
G37*
%LPD*%
%LPC*%
G36*
X245644Y1109277D02*
X245644Y1109277D01*
X242586Y1110544D01*
X240244Y1112886D01*
X238977Y1115944D01*
X238977Y1119256D01*
X240244Y1122314D01*
X242586Y1124656D01*
X245644Y1125923D01*
X248956Y1125923D01*
X252014Y1124656D01*
X254356Y1122314D01*
X255623Y1119256D01*
X255623Y1115944D01*
X254356Y1112886D01*
X252014Y1110544D01*
X248956Y1109277D01*
X245644Y1109277D01*
G37*
%LPD*%
%LPC*%
G36*
X201644Y1109277D02*
X201644Y1109277D01*
X198586Y1110544D01*
X196244Y1112886D01*
X194977Y1115944D01*
X194977Y1119256D01*
X196244Y1122314D01*
X198586Y1124656D01*
X201644Y1125923D01*
X204956Y1125923D01*
X208014Y1124656D01*
X210356Y1122314D01*
X211623Y1119256D01*
X211623Y1115944D01*
X210356Y1112886D01*
X208014Y1110544D01*
X204956Y1109277D01*
X201644Y1109277D01*
G37*
%LPD*%
%LPC*%
G36*
X223644Y1109277D02*
X223644Y1109277D01*
X220586Y1110544D01*
X218244Y1112886D01*
X216977Y1115944D01*
X216977Y1119256D01*
X218244Y1122314D01*
X220586Y1124656D01*
X223644Y1125923D01*
X226956Y1125923D01*
X230014Y1124656D01*
X232356Y1122314D01*
X233623Y1119256D01*
X233623Y1115944D01*
X232356Y1112886D01*
X230014Y1110544D01*
X226956Y1109277D01*
X223644Y1109277D01*
G37*
%LPD*%
%LPC*%
G36*
X1196085Y495045D02*
X1196085Y495045D01*
X1196085Y502667D01*
X1197755Y502667D01*
X1203707Y496715D01*
X1203707Y495045D01*
X1196085Y495045D01*
G37*
%LPD*%
%LPC*%
G36*
X1196085Y482345D02*
X1196085Y482345D01*
X1196085Y489967D01*
X1203707Y489967D01*
X1203707Y488297D01*
X1197755Y482345D01*
X1196085Y482345D01*
G37*
%LPD*%
%LPC*%
G36*
X1183385Y495045D02*
X1183385Y495045D01*
X1183385Y496715D01*
X1189337Y502667D01*
X1191007Y502667D01*
X1191007Y495045D01*
X1183385Y495045D01*
G37*
%LPD*%
%LPC*%
G36*
X1189337Y482345D02*
X1189337Y482345D01*
X1183385Y488297D01*
X1183385Y489967D01*
X1191007Y489967D01*
X1191007Y482345D01*
X1189337Y482345D01*
G37*
%LPD*%
%LPC*%
G36*
X1205991Y243331D02*
X1205991Y243331D01*
X1205991Y250445D01*
X1207748Y250445D01*
X1213105Y245088D01*
X1213105Y243331D01*
X1205991Y243331D01*
G37*
%LPD*%
%LPC*%
G36*
X1205991Y232155D02*
X1205991Y232155D01*
X1205991Y239269D01*
X1213105Y239269D01*
X1213105Y237512D01*
X1207748Y232155D01*
X1205991Y232155D01*
G37*
%LPD*%
%LPC*%
G36*
X1194815Y243331D02*
X1194815Y243331D01*
X1194815Y245088D01*
X1200172Y250445D01*
X1201929Y250445D01*
X1201929Y243331D01*
X1194815Y243331D01*
G37*
%LPD*%
%LPC*%
G36*
X1200172Y232155D02*
X1200172Y232155D01*
X1194815Y237512D01*
X1194815Y239269D01*
X1201929Y239269D01*
X1201929Y232155D01*
X1200172Y232155D01*
G37*
%LPD*%
%LPC*%
G36*
X446749Y307049D02*
X446749Y307049D01*
X446749Y314143D01*
X448178Y313679D01*
X449521Y312994D01*
X450741Y312108D01*
X451808Y311041D01*
X452694Y309821D01*
X453379Y308478D01*
X453843Y307049D01*
X446749Y307049D01*
G37*
%LPD*%
%LPC*%
G36*
X370549Y751549D02*
X370549Y751549D01*
X370549Y758643D01*
X371978Y758179D01*
X373321Y757494D01*
X374541Y756608D01*
X375608Y755541D01*
X376494Y754321D01*
X377179Y752978D01*
X377643Y751549D01*
X370549Y751549D01*
G37*
%LPD*%
%LPC*%
G36*
X141949Y307049D02*
X141949Y307049D01*
X141949Y314143D01*
X143378Y313679D01*
X144721Y312994D01*
X145941Y312108D01*
X147008Y311041D01*
X147894Y309821D01*
X148579Y308478D01*
X149043Y307049D01*
X141949Y307049D01*
G37*
%LPD*%
%LPC*%
G36*
X130357Y307049D02*
X130357Y307049D01*
X130821Y308478D01*
X131506Y309821D01*
X132392Y311041D01*
X133459Y312108D01*
X134679Y312994D01*
X136022Y313679D01*
X137451Y314143D01*
X137451Y307049D01*
X130357Y307049D01*
G37*
%LPD*%
%LPC*%
G36*
X358957Y751549D02*
X358957Y751549D01*
X359421Y752978D01*
X360106Y754321D01*
X360992Y755541D01*
X362059Y756608D01*
X363279Y757494D01*
X364622Y758179D01*
X366051Y758643D01*
X366051Y751549D01*
X358957Y751549D01*
G37*
%LPD*%
%LPC*%
G36*
X435157Y307049D02*
X435157Y307049D01*
X435621Y308478D01*
X436306Y309821D01*
X437192Y311041D01*
X438259Y312108D01*
X439479Y312994D01*
X440822Y313679D01*
X442251Y314143D01*
X442251Y307049D01*
X435157Y307049D01*
G37*
%LPD*%
%LPC*%
G36*
X446749Y302551D02*
X446749Y302551D01*
X453843Y302551D01*
X453379Y301122D01*
X452694Y299779D01*
X451808Y298559D01*
X450741Y297492D01*
X449521Y296606D01*
X448178Y295921D01*
X446749Y295457D01*
X446749Y302551D01*
G37*
%LPD*%
%LPC*%
G36*
X141949Y302551D02*
X141949Y302551D01*
X149043Y302551D01*
X148579Y301122D01*
X147894Y299779D01*
X147008Y298559D01*
X145941Y297492D01*
X144721Y296606D01*
X143378Y295921D01*
X141949Y295457D01*
X141949Y302551D01*
G37*
%LPD*%
%LPC*%
G36*
X370549Y747051D02*
X370549Y747051D01*
X377643Y747051D01*
X377179Y745622D01*
X376494Y744279D01*
X375608Y743059D01*
X374541Y741992D01*
X373321Y741106D01*
X371978Y740421D01*
X370549Y739957D01*
X370549Y747051D01*
G37*
%LPD*%
%LPC*%
G36*
X364622Y740421D02*
X364622Y740421D01*
X363279Y741106D01*
X362059Y741992D01*
X360992Y743059D01*
X360106Y744279D01*
X359421Y745622D01*
X358957Y747051D01*
X366051Y747051D01*
X366051Y739957D01*
X364622Y740421D01*
G37*
%LPD*%
%LPC*%
G36*
X440822Y295921D02*
X440822Y295921D01*
X439479Y296606D01*
X438259Y297492D01*
X437192Y298559D01*
X436306Y299779D01*
X435621Y301122D01*
X435157Y302551D01*
X442251Y302551D01*
X442251Y295457D01*
X440822Y295921D01*
G37*
%LPD*%
%LPC*%
G36*
X136022Y295921D02*
X136022Y295921D01*
X134679Y296606D01*
X133459Y297492D01*
X132392Y298559D01*
X131506Y299779D01*
X130821Y301122D01*
X130357Y302551D01*
X137451Y302551D01*
X137451Y295457D01*
X136022Y295921D01*
G37*
%LPD*%
%LPC*%
G36*
X1193545Y492505D02*
X1193545Y492505D01*
X1193545Y492507D01*
X1193547Y492507D01*
X1193547Y492505D01*
X1193545Y492505D01*
G37*
%LPD*%
D10*
X38100Y132080D03*
X38100Y121920D03*
D11*
X77978Y127000D03*
X88138Y127000D03*
D12*
X139700Y96012D02*
X139700Y81788D01*
X165100Y81788D02*
X165100Y96012D01*
D13*
X279300Y1117600D03*
D14*
X247300Y1117600D03*
X225300Y1117600D03*
X203300Y1117600D03*
X203300Y1066800D03*
X225300Y1066800D03*
X247300Y1066800D03*
X279300Y1066800D03*
D15*
X1178560Y241300D03*
X1203960Y241300D03*
X1178560Y342900D03*
X1203960Y342900D03*
D16*
X1193546Y447294D03*
X1193546Y492506D03*
D17*
X1168654Y434848D03*
X1168654Y504952D03*
D18*
X63500Y304800D03*
X88900Y304800D03*
X114300Y304800D03*
X139700Y304800D03*
X165100Y304800D03*
X190500Y304800D03*
X215900Y304800D03*
X241300Y304800D03*
X266700Y304800D03*
X292100Y304800D03*
X317500Y304800D03*
X342900Y304800D03*
X368300Y304800D03*
X393700Y304800D03*
X419100Y304800D03*
X444500Y304800D03*
X444500Y508000D03*
X419100Y508000D03*
X393700Y508000D03*
X368300Y508000D03*
X342900Y508000D03*
X317500Y508000D03*
X292100Y508000D03*
X266700Y508000D03*
X241300Y508000D03*
X215900Y508000D03*
X190500Y508000D03*
X165100Y508000D03*
X444500Y749300D03*
X419100Y749300D03*
X393700Y749300D03*
X368300Y749300D03*
X342900Y749300D03*
X317500Y749300D03*
X292100Y749300D03*
X266700Y749300D03*
X241300Y749300D03*
X215900Y749300D03*
X190500Y749300D03*
X165100Y749300D03*
X139700Y749300D03*
X114300Y749300D03*
X88900Y749300D03*
X63500Y749300D03*
X63500Y546100D03*
X88900Y546100D03*
X114300Y546100D03*
X139700Y546100D03*
X165100Y546100D03*
X190500Y546100D03*
X215900Y546100D03*
X241300Y546100D03*
X266700Y546100D03*
X292100Y546100D03*
X317500Y546100D03*
X342900Y546100D03*
D10*
X38100Y1109980D03*
X38100Y1099820D03*
D11*
X77978Y1104900D03*
X88138Y1104900D03*
D10*
X38100Y894080D03*
X38100Y883920D03*
D11*
X77978Y889000D03*
X88138Y889000D03*
D10*
X1181100Y680720D03*
X1181100Y690880D03*
D11*
X1141222Y685800D03*
X1131062Y685800D03*
D12*
X1079500Y716788D02*
X1079500Y731012D01*
X1054100Y731012D02*
X1054100Y716788D01*
D10*
X1181100Y883920D03*
X1181100Y894080D03*
D11*
X1141222Y889000D03*
X1131062Y889000D03*
D12*
X1079500Y907288D02*
X1079500Y921512D01*
X1054100Y921512D02*
X1054100Y907288D01*
D19*
X88900Y527138D02*
X88900Y304800D01*
X88900Y527138D02*
X76780Y539258D01*
X76780Y699080D02*
X78740Y701040D01*
X76780Y699080D02*
X76780Y539258D01*
D20*
X78740Y701040D03*
X749300Y774700D03*
D19*
X749300Y279400D01*
D20*
X749300Y279400D03*
D19*
X228600Y520700D02*
X215900Y508000D01*
X228600Y520700D02*
X228600Y596900D01*
X292100Y596900D02*
X292100Y546100D01*
D20*
X292100Y596900D03*
X228600Y596900D03*
D19*
X215900Y508000D02*
X215900Y323762D01*
X228020Y311642D01*
X228020Y147900D02*
X238760Y137160D01*
X228020Y147900D02*
X228020Y311642D01*
D20*
X238760Y137160D03*
D19*
X165100Y304800D02*
X165100Y489038D01*
X152980Y501158D01*
X152980Y849304D01*
X153488Y849812D01*
D20*
X153488Y849812D03*
X914400Y469900D03*
D19*
X914400Y317500D01*
X927100Y304800D01*
X1191260Y304800D01*
X1203960Y317500D01*
X1203960Y342900D01*
X368300Y304800D02*
X368300Y489038D01*
X381000Y501738D01*
X381000Y673100D01*
X139700Y673100D02*
X139700Y749300D01*
D20*
X139700Y673100D03*
X381000Y673100D03*
D19*
X342900Y489038D02*
X342900Y304800D01*
X342900Y489038D02*
X355600Y501738D01*
X355600Y660400D01*
X165100Y660400D02*
X165100Y749300D01*
D20*
X165100Y660400D03*
X355600Y660400D03*
D19*
X317500Y489038D02*
X317500Y304800D01*
X317500Y489038D02*
X330200Y501738D01*
X330200Y647700D01*
X190500Y647700D02*
X190500Y749300D01*
D20*
X190500Y647700D03*
X330200Y647700D03*
D19*
X63500Y527138D02*
X63500Y304800D01*
X49348Y541290D02*
X49348Y684348D01*
X51888Y686888D01*
X49348Y541290D02*
X63500Y527138D01*
D20*
X51888Y686888D03*
D19*
X304800Y520700D02*
X317500Y508000D01*
X304800Y520700D02*
X304800Y609600D01*
X190500Y609600D02*
X190500Y546100D01*
D20*
X304800Y609600D03*
X190500Y609600D03*
D19*
X203200Y520700D02*
X190500Y508000D01*
X203200Y520700D02*
X203200Y622300D01*
X317500Y622300D02*
X317500Y546100D01*
D20*
X317500Y622300D03*
X203200Y622300D03*
D19*
X177800Y520700D02*
X165100Y508000D01*
X177800Y520700D02*
X177800Y635000D01*
X342900Y635000D02*
X342900Y546100D01*
D20*
X342900Y635000D03*
X177800Y635000D03*
X977900Y381000D03*
D19*
X977900Y617220D01*
X980440Y619760D01*
D20*
X980440Y619760D03*
X1003300Y368300D03*
D19*
X1003300Y787400D01*
X980440Y810260D01*
D20*
X980440Y810260D03*
M02*
