G04 EAGLE Gerber RS-274X export*
G75*
%MOMM*%
%FSLAX34Y34*%
%LPD*%
%INBoard Outline*%
%IPPOS*%
%AMOC8*
5,1,8,0,0,1.08239X$1,22.5*%
G01*
%ADD10C,0.000000*%


D10*
X0Y0D02*
X549910Y0D01*
X673354Y0D02*
X1223010Y0D01*
X1223010Y1220470D01*
X673354Y1220470D01*
X272542Y228092D02*
X272547Y228522D01*
X272563Y228952D01*
X272589Y229381D01*
X272626Y229810D01*
X272674Y230237D01*
X272732Y230664D01*
X272800Y231088D01*
X272879Y231511D01*
X272968Y231932D01*
X273067Y232350D01*
X273177Y232766D01*
X273297Y233180D01*
X273427Y233590D01*
X273566Y233996D01*
X273716Y234400D01*
X273876Y234799D01*
X274046Y235194D01*
X274225Y235585D01*
X274413Y235972D01*
X274611Y236354D01*
X274819Y236731D01*
X275035Y237102D01*
X275261Y237468D01*
X275496Y237829D01*
X275739Y238184D01*
X275991Y238532D01*
X276251Y238875D01*
X276520Y239210D01*
X276797Y239540D01*
X277082Y239862D01*
X277375Y240177D01*
X277675Y240485D01*
X277983Y240785D01*
X278298Y241078D01*
X278620Y241363D01*
X278950Y241640D01*
X279285Y241909D01*
X279628Y242169D01*
X279976Y242421D01*
X280331Y242664D01*
X280692Y242899D01*
X281058Y243125D01*
X281429Y243341D01*
X281806Y243549D01*
X282188Y243747D01*
X282575Y243935D01*
X282966Y244114D01*
X283361Y244284D01*
X283760Y244444D01*
X284164Y244594D01*
X284570Y244733D01*
X284980Y244863D01*
X285394Y244983D01*
X285810Y245093D01*
X286228Y245192D01*
X286649Y245281D01*
X287072Y245360D01*
X287496Y245428D01*
X287923Y245486D01*
X288350Y245534D01*
X288779Y245571D01*
X289208Y245597D01*
X289638Y245613D01*
X290068Y245618D01*
X290498Y245613D01*
X290928Y245597D01*
X291357Y245571D01*
X291786Y245534D01*
X292213Y245486D01*
X292640Y245428D01*
X293064Y245360D01*
X293487Y245281D01*
X293908Y245192D01*
X294326Y245093D01*
X294742Y244983D01*
X295156Y244863D01*
X295566Y244733D01*
X295972Y244594D01*
X296376Y244444D01*
X296775Y244284D01*
X297170Y244114D01*
X297561Y243935D01*
X297948Y243747D01*
X298330Y243549D01*
X298707Y243341D01*
X299078Y243125D01*
X299444Y242899D01*
X299805Y242664D01*
X300160Y242421D01*
X300508Y242169D01*
X300851Y241909D01*
X301186Y241640D01*
X301516Y241363D01*
X301838Y241078D01*
X302153Y240785D01*
X302461Y240485D01*
X302761Y240177D01*
X303054Y239862D01*
X303339Y239540D01*
X303616Y239210D01*
X303885Y238875D01*
X304145Y238532D01*
X304397Y238184D01*
X304640Y237829D01*
X304875Y237468D01*
X305101Y237102D01*
X305317Y236731D01*
X305525Y236354D01*
X305723Y235972D01*
X305911Y235585D01*
X306090Y235194D01*
X306260Y234799D01*
X306420Y234400D01*
X306570Y233996D01*
X306709Y233590D01*
X306839Y233180D01*
X306959Y232766D01*
X307069Y232350D01*
X307168Y231932D01*
X307257Y231511D01*
X307336Y231088D01*
X307404Y230664D01*
X307462Y230237D01*
X307510Y229810D01*
X307547Y229381D01*
X307573Y228952D01*
X307589Y228522D01*
X307594Y228092D01*
X307589Y227662D01*
X307573Y227232D01*
X307547Y226803D01*
X307510Y226374D01*
X307462Y225947D01*
X307404Y225520D01*
X307336Y225096D01*
X307257Y224673D01*
X307168Y224252D01*
X307069Y223834D01*
X306959Y223418D01*
X306839Y223004D01*
X306709Y222594D01*
X306570Y222188D01*
X306420Y221784D01*
X306260Y221385D01*
X306090Y220990D01*
X305911Y220599D01*
X305723Y220212D01*
X305525Y219830D01*
X305317Y219453D01*
X305101Y219082D01*
X304875Y218716D01*
X304640Y218355D01*
X304397Y218000D01*
X304145Y217652D01*
X303885Y217309D01*
X303616Y216974D01*
X303339Y216644D01*
X303054Y216322D01*
X302761Y216007D01*
X302461Y215699D01*
X302153Y215399D01*
X301838Y215106D01*
X301516Y214821D01*
X301186Y214544D01*
X300851Y214275D01*
X300508Y214015D01*
X300160Y213763D01*
X299805Y213520D01*
X299444Y213285D01*
X299078Y213059D01*
X298707Y212843D01*
X298330Y212635D01*
X297948Y212437D01*
X297561Y212249D01*
X297170Y212070D01*
X296775Y211900D01*
X296376Y211740D01*
X295972Y211590D01*
X295566Y211451D01*
X295156Y211321D01*
X294742Y211201D01*
X294326Y211091D01*
X293908Y210992D01*
X293487Y210903D01*
X293064Y210824D01*
X292640Y210756D01*
X292213Y210698D01*
X291786Y210650D01*
X291357Y210613D01*
X290928Y210587D01*
X290498Y210571D01*
X290068Y210566D01*
X289638Y210571D01*
X289208Y210587D01*
X288779Y210613D01*
X288350Y210650D01*
X287923Y210698D01*
X287496Y210756D01*
X287072Y210824D01*
X286649Y210903D01*
X286228Y210992D01*
X285810Y211091D01*
X285394Y211201D01*
X284980Y211321D01*
X284570Y211451D01*
X284164Y211590D01*
X283760Y211740D01*
X283361Y211900D01*
X282966Y212070D01*
X282575Y212249D01*
X282188Y212437D01*
X281806Y212635D01*
X281429Y212843D01*
X281058Y213059D01*
X280692Y213285D01*
X280331Y213520D01*
X279976Y213763D01*
X279628Y214015D01*
X279285Y214275D01*
X278950Y214544D01*
X278620Y214821D01*
X278298Y215106D01*
X277983Y215399D01*
X277675Y215699D01*
X277375Y216007D01*
X277082Y216322D01*
X276797Y216644D01*
X276520Y216974D01*
X276251Y217309D01*
X275991Y217652D01*
X275739Y218000D01*
X275496Y218355D01*
X275261Y218716D01*
X275035Y219082D01*
X274819Y219453D01*
X274611Y219830D01*
X274413Y220212D01*
X274225Y220599D01*
X274046Y220990D01*
X273876Y221385D01*
X273716Y221784D01*
X273566Y222188D01*
X273427Y222594D01*
X273297Y223004D01*
X273177Y223418D01*
X273067Y223834D01*
X272968Y224252D01*
X272879Y224673D01*
X272800Y225096D01*
X272732Y225520D01*
X272674Y225947D01*
X272626Y226374D01*
X272589Y226803D01*
X272563Y227232D01*
X272547Y227662D01*
X272542Y228092D01*
X593852Y228092D02*
X593857Y228522D01*
X593873Y228952D01*
X593899Y229381D01*
X593936Y229810D01*
X593984Y230237D01*
X594042Y230664D01*
X594110Y231088D01*
X594189Y231511D01*
X594278Y231932D01*
X594377Y232350D01*
X594487Y232766D01*
X594607Y233180D01*
X594737Y233590D01*
X594876Y233996D01*
X595026Y234400D01*
X595186Y234799D01*
X595356Y235194D01*
X595535Y235585D01*
X595723Y235972D01*
X595921Y236354D01*
X596129Y236731D01*
X596345Y237102D01*
X596571Y237468D01*
X596806Y237829D01*
X597049Y238184D01*
X597301Y238532D01*
X597561Y238875D01*
X597830Y239210D01*
X598107Y239540D01*
X598392Y239862D01*
X598685Y240177D01*
X598985Y240485D01*
X599293Y240785D01*
X599608Y241078D01*
X599930Y241363D01*
X600260Y241640D01*
X600595Y241909D01*
X600938Y242169D01*
X601286Y242421D01*
X601641Y242664D01*
X602002Y242899D01*
X602368Y243125D01*
X602739Y243341D01*
X603116Y243549D01*
X603498Y243747D01*
X603885Y243935D01*
X604276Y244114D01*
X604671Y244284D01*
X605070Y244444D01*
X605474Y244594D01*
X605880Y244733D01*
X606290Y244863D01*
X606704Y244983D01*
X607120Y245093D01*
X607538Y245192D01*
X607959Y245281D01*
X608382Y245360D01*
X608806Y245428D01*
X609233Y245486D01*
X609660Y245534D01*
X610089Y245571D01*
X610518Y245597D01*
X610948Y245613D01*
X611378Y245618D01*
X611808Y245613D01*
X612238Y245597D01*
X612667Y245571D01*
X613096Y245534D01*
X613523Y245486D01*
X613950Y245428D01*
X614374Y245360D01*
X614797Y245281D01*
X615218Y245192D01*
X615636Y245093D01*
X616052Y244983D01*
X616466Y244863D01*
X616876Y244733D01*
X617282Y244594D01*
X617686Y244444D01*
X618085Y244284D01*
X618480Y244114D01*
X618871Y243935D01*
X619258Y243747D01*
X619640Y243549D01*
X620017Y243341D01*
X620388Y243125D01*
X620754Y242899D01*
X621115Y242664D01*
X621470Y242421D01*
X621818Y242169D01*
X622161Y241909D01*
X622496Y241640D01*
X622826Y241363D01*
X623148Y241078D01*
X623463Y240785D01*
X623771Y240485D01*
X624071Y240177D01*
X624364Y239862D01*
X624649Y239540D01*
X624926Y239210D01*
X625195Y238875D01*
X625455Y238532D01*
X625707Y238184D01*
X625950Y237829D01*
X626185Y237468D01*
X626411Y237102D01*
X626627Y236731D01*
X626835Y236354D01*
X627033Y235972D01*
X627221Y235585D01*
X627400Y235194D01*
X627570Y234799D01*
X627730Y234400D01*
X627880Y233996D01*
X628019Y233590D01*
X628149Y233180D01*
X628269Y232766D01*
X628379Y232350D01*
X628478Y231932D01*
X628567Y231511D01*
X628646Y231088D01*
X628714Y230664D01*
X628772Y230237D01*
X628820Y229810D01*
X628857Y229381D01*
X628883Y228952D01*
X628899Y228522D01*
X628904Y228092D01*
X628899Y227662D01*
X628883Y227232D01*
X628857Y226803D01*
X628820Y226374D01*
X628772Y225947D01*
X628714Y225520D01*
X628646Y225096D01*
X628567Y224673D01*
X628478Y224252D01*
X628379Y223834D01*
X628269Y223418D01*
X628149Y223004D01*
X628019Y222594D01*
X627880Y222188D01*
X627730Y221784D01*
X627570Y221385D01*
X627400Y220990D01*
X627221Y220599D01*
X627033Y220212D01*
X626835Y219830D01*
X626627Y219453D01*
X626411Y219082D01*
X626185Y218716D01*
X625950Y218355D01*
X625707Y218000D01*
X625455Y217652D01*
X625195Y217309D01*
X624926Y216974D01*
X624649Y216644D01*
X624364Y216322D01*
X624071Y216007D01*
X623771Y215699D01*
X623463Y215399D01*
X623148Y215106D01*
X622826Y214821D01*
X622496Y214544D01*
X622161Y214275D01*
X621818Y214015D01*
X621470Y213763D01*
X621115Y213520D01*
X620754Y213285D01*
X620388Y213059D01*
X620017Y212843D01*
X619640Y212635D01*
X619258Y212437D01*
X618871Y212249D01*
X618480Y212070D01*
X618085Y211900D01*
X617686Y211740D01*
X617282Y211590D01*
X616876Y211451D01*
X616466Y211321D01*
X616052Y211201D01*
X615636Y211091D01*
X615218Y210992D01*
X614797Y210903D01*
X614374Y210824D01*
X613950Y210756D01*
X613523Y210698D01*
X613096Y210650D01*
X612667Y210613D01*
X612238Y210587D01*
X611808Y210571D01*
X611378Y210566D01*
X610948Y210571D01*
X610518Y210587D01*
X610089Y210613D01*
X609660Y210650D01*
X609233Y210698D01*
X608806Y210756D01*
X608382Y210824D01*
X607959Y210903D01*
X607538Y210992D01*
X607120Y211091D01*
X606704Y211201D01*
X606290Y211321D01*
X605880Y211451D01*
X605474Y211590D01*
X605070Y211740D01*
X604671Y211900D01*
X604276Y212070D01*
X603885Y212249D01*
X603498Y212437D01*
X603116Y212635D01*
X602739Y212843D01*
X602368Y213059D01*
X602002Y213285D01*
X601641Y213520D01*
X601286Y213763D01*
X600938Y214015D01*
X600595Y214275D01*
X600260Y214544D01*
X599930Y214821D01*
X599608Y215106D01*
X599293Y215399D01*
X598985Y215699D01*
X598685Y216007D01*
X598392Y216322D01*
X598107Y216644D01*
X597830Y216974D01*
X597561Y217309D01*
X597301Y217652D01*
X597049Y218000D01*
X596806Y218355D01*
X596571Y218716D01*
X596345Y219082D01*
X596129Y219453D01*
X595921Y219830D01*
X595723Y220212D01*
X595535Y220599D01*
X595356Y220990D01*
X595186Y221385D01*
X595026Y221784D01*
X594876Y222188D01*
X594737Y222594D01*
X594607Y223004D01*
X594487Y223418D01*
X594377Y223834D01*
X594278Y224252D01*
X594189Y224673D01*
X594110Y225096D01*
X594042Y225520D01*
X593984Y225947D01*
X593936Y226374D01*
X593899Y226803D01*
X593873Y227232D01*
X593857Y227662D01*
X593852Y228092D01*
X915416Y228092D02*
X915421Y228522D01*
X915437Y228952D01*
X915463Y229381D01*
X915500Y229810D01*
X915548Y230237D01*
X915606Y230664D01*
X915674Y231088D01*
X915753Y231511D01*
X915842Y231932D01*
X915941Y232350D01*
X916051Y232766D01*
X916171Y233180D01*
X916301Y233590D01*
X916440Y233996D01*
X916590Y234400D01*
X916750Y234799D01*
X916920Y235194D01*
X917099Y235585D01*
X917287Y235972D01*
X917485Y236354D01*
X917693Y236731D01*
X917909Y237102D01*
X918135Y237468D01*
X918370Y237829D01*
X918613Y238184D01*
X918865Y238532D01*
X919125Y238875D01*
X919394Y239210D01*
X919671Y239540D01*
X919956Y239862D01*
X920249Y240177D01*
X920549Y240485D01*
X920857Y240785D01*
X921172Y241078D01*
X921494Y241363D01*
X921824Y241640D01*
X922159Y241909D01*
X922502Y242169D01*
X922850Y242421D01*
X923205Y242664D01*
X923566Y242899D01*
X923932Y243125D01*
X924303Y243341D01*
X924680Y243549D01*
X925062Y243747D01*
X925449Y243935D01*
X925840Y244114D01*
X926235Y244284D01*
X926634Y244444D01*
X927038Y244594D01*
X927444Y244733D01*
X927854Y244863D01*
X928268Y244983D01*
X928684Y245093D01*
X929102Y245192D01*
X929523Y245281D01*
X929946Y245360D01*
X930370Y245428D01*
X930797Y245486D01*
X931224Y245534D01*
X931653Y245571D01*
X932082Y245597D01*
X932512Y245613D01*
X932942Y245618D01*
X933372Y245613D01*
X933802Y245597D01*
X934231Y245571D01*
X934660Y245534D01*
X935087Y245486D01*
X935514Y245428D01*
X935938Y245360D01*
X936361Y245281D01*
X936782Y245192D01*
X937200Y245093D01*
X937616Y244983D01*
X938030Y244863D01*
X938440Y244733D01*
X938846Y244594D01*
X939250Y244444D01*
X939649Y244284D01*
X940044Y244114D01*
X940435Y243935D01*
X940822Y243747D01*
X941204Y243549D01*
X941581Y243341D01*
X941952Y243125D01*
X942318Y242899D01*
X942679Y242664D01*
X943034Y242421D01*
X943382Y242169D01*
X943725Y241909D01*
X944060Y241640D01*
X944390Y241363D01*
X944712Y241078D01*
X945027Y240785D01*
X945335Y240485D01*
X945635Y240177D01*
X945928Y239862D01*
X946213Y239540D01*
X946490Y239210D01*
X946759Y238875D01*
X947019Y238532D01*
X947271Y238184D01*
X947514Y237829D01*
X947749Y237468D01*
X947975Y237102D01*
X948191Y236731D01*
X948399Y236354D01*
X948597Y235972D01*
X948785Y235585D01*
X948964Y235194D01*
X949134Y234799D01*
X949294Y234400D01*
X949444Y233996D01*
X949583Y233590D01*
X949713Y233180D01*
X949833Y232766D01*
X949943Y232350D01*
X950042Y231932D01*
X950131Y231511D01*
X950210Y231088D01*
X950278Y230664D01*
X950336Y230237D01*
X950384Y229810D01*
X950421Y229381D01*
X950447Y228952D01*
X950463Y228522D01*
X950468Y228092D01*
X950463Y227662D01*
X950447Y227232D01*
X950421Y226803D01*
X950384Y226374D01*
X950336Y225947D01*
X950278Y225520D01*
X950210Y225096D01*
X950131Y224673D01*
X950042Y224252D01*
X949943Y223834D01*
X949833Y223418D01*
X949713Y223004D01*
X949583Y222594D01*
X949444Y222188D01*
X949294Y221784D01*
X949134Y221385D01*
X948964Y220990D01*
X948785Y220599D01*
X948597Y220212D01*
X948399Y219830D01*
X948191Y219453D01*
X947975Y219082D01*
X947749Y218716D01*
X947514Y218355D01*
X947271Y218000D01*
X947019Y217652D01*
X946759Y217309D01*
X946490Y216974D01*
X946213Y216644D01*
X945928Y216322D01*
X945635Y216007D01*
X945335Y215699D01*
X945027Y215399D01*
X944712Y215106D01*
X944390Y214821D01*
X944060Y214544D01*
X943725Y214275D01*
X943382Y214015D01*
X943034Y213763D01*
X942679Y213520D01*
X942318Y213285D01*
X941952Y213059D01*
X941581Y212843D01*
X941204Y212635D01*
X940822Y212437D01*
X940435Y212249D01*
X940044Y212070D01*
X939649Y211900D01*
X939250Y211740D01*
X938846Y211590D01*
X938440Y211451D01*
X938030Y211321D01*
X937616Y211201D01*
X937200Y211091D01*
X936782Y210992D01*
X936361Y210903D01*
X935938Y210824D01*
X935514Y210756D01*
X935087Y210698D01*
X934660Y210650D01*
X934231Y210613D01*
X933802Y210587D01*
X933372Y210571D01*
X932942Y210566D01*
X932512Y210571D01*
X932082Y210587D01*
X931653Y210613D01*
X931224Y210650D01*
X930797Y210698D01*
X930370Y210756D01*
X929946Y210824D01*
X929523Y210903D01*
X929102Y210992D01*
X928684Y211091D01*
X928268Y211201D01*
X927854Y211321D01*
X927444Y211451D01*
X927038Y211590D01*
X926634Y211740D01*
X926235Y211900D01*
X925840Y212070D01*
X925449Y212249D01*
X925062Y212437D01*
X924680Y212635D01*
X924303Y212843D01*
X923932Y213059D01*
X923566Y213285D01*
X923205Y213520D01*
X922850Y213763D01*
X922502Y214015D01*
X922159Y214275D01*
X921824Y214544D01*
X921494Y214821D01*
X921172Y215106D01*
X920857Y215399D01*
X920549Y215699D01*
X920249Y216007D01*
X919956Y216322D01*
X919671Y216644D01*
X919394Y216974D01*
X919125Y217309D01*
X918865Y217652D01*
X918613Y218000D01*
X918370Y218355D01*
X918135Y218716D01*
X917909Y219082D01*
X917693Y219453D01*
X917485Y219830D01*
X917287Y220212D01*
X917099Y220599D01*
X916920Y220990D01*
X916750Y221385D01*
X916590Y221784D01*
X916440Y222188D01*
X916301Y222594D01*
X916171Y223004D01*
X916051Y223418D01*
X915941Y223834D01*
X915842Y224252D01*
X915753Y224673D01*
X915674Y225096D01*
X915606Y225520D01*
X915548Y225947D01*
X915500Y226374D01*
X915463Y226803D01*
X915437Y227232D01*
X915421Y227662D01*
X915416Y228092D01*
X272542Y992124D02*
X272547Y992554D01*
X272563Y992984D01*
X272589Y993413D01*
X272626Y993842D01*
X272674Y994269D01*
X272732Y994696D01*
X272800Y995120D01*
X272879Y995543D01*
X272968Y995964D01*
X273067Y996382D01*
X273177Y996798D01*
X273297Y997212D01*
X273427Y997622D01*
X273566Y998028D01*
X273716Y998432D01*
X273876Y998831D01*
X274046Y999226D01*
X274225Y999617D01*
X274413Y1000004D01*
X274611Y1000386D01*
X274819Y1000763D01*
X275035Y1001134D01*
X275261Y1001500D01*
X275496Y1001861D01*
X275739Y1002216D01*
X275991Y1002564D01*
X276251Y1002907D01*
X276520Y1003242D01*
X276797Y1003572D01*
X277082Y1003894D01*
X277375Y1004209D01*
X277675Y1004517D01*
X277983Y1004817D01*
X278298Y1005110D01*
X278620Y1005395D01*
X278950Y1005672D01*
X279285Y1005941D01*
X279628Y1006201D01*
X279976Y1006453D01*
X280331Y1006696D01*
X280692Y1006931D01*
X281058Y1007157D01*
X281429Y1007373D01*
X281806Y1007581D01*
X282188Y1007779D01*
X282575Y1007967D01*
X282966Y1008146D01*
X283361Y1008316D01*
X283760Y1008476D01*
X284164Y1008626D01*
X284570Y1008765D01*
X284980Y1008895D01*
X285394Y1009015D01*
X285810Y1009125D01*
X286228Y1009224D01*
X286649Y1009313D01*
X287072Y1009392D01*
X287496Y1009460D01*
X287923Y1009518D01*
X288350Y1009566D01*
X288779Y1009603D01*
X289208Y1009629D01*
X289638Y1009645D01*
X290068Y1009650D01*
X290498Y1009645D01*
X290928Y1009629D01*
X291357Y1009603D01*
X291786Y1009566D01*
X292213Y1009518D01*
X292640Y1009460D01*
X293064Y1009392D01*
X293487Y1009313D01*
X293908Y1009224D01*
X294326Y1009125D01*
X294742Y1009015D01*
X295156Y1008895D01*
X295566Y1008765D01*
X295972Y1008626D01*
X296376Y1008476D01*
X296775Y1008316D01*
X297170Y1008146D01*
X297561Y1007967D01*
X297948Y1007779D01*
X298330Y1007581D01*
X298707Y1007373D01*
X299078Y1007157D01*
X299444Y1006931D01*
X299805Y1006696D01*
X300160Y1006453D01*
X300508Y1006201D01*
X300851Y1005941D01*
X301186Y1005672D01*
X301516Y1005395D01*
X301838Y1005110D01*
X302153Y1004817D01*
X302461Y1004517D01*
X302761Y1004209D01*
X303054Y1003894D01*
X303339Y1003572D01*
X303616Y1003242D01*
X303885Y1002907D01*
X304145Y1002564D01*
X304397Y1002216D01*
X304640Y1001861D01*
X304875Y1001500D01*
X305101Y1001134D01*
X305317Y1000763D01*
X305525Y1000386D01*
X305723Y1000004D01*
X305911Y999617D01*
X306090Y999226D01*
X306260Y998831D01*
X306420Y998432D01*
X306570Y998028D01*
X306709Y997622D01*
X306839Y997212D01*
X306959Y996798D01*
X307069Y996382D01*
X307168Y995964D01*
X307257Y995543D01*
X307336Y995120D01*
X307404Y994696D01*
X307462Y994269D01*
X307510Y993842D01*
X307547Y993413D01*
X307573Y992984D01*
X307589Y992554D01*
X307594Y992124D01*
X307589Y991694D01*
X307573Y991264D01*
X307547Y990835D01*
X307510Y990406D01*
X307462Y989979D01*
X307404Y989552D01*
X307336Y989128D01*
X307257Y988705D01*
X307168Y988284D01*
X307069Y987866D01*
X306959Y987450D01*
X306839Y987036D01*
X306709Y986626D01*
X306570Y986220D01*
X306420Y985816D01*
X306260Y985417D01*
X306090Y985022D01*
X305911Y984631D01*
X305723Y984244D01*
X305525Y983862D01*
X305317Y983485D01*
X305101Y983114D01*
X304875Y982748D01*
X304640Y982387D01*
X304397Y982032D01*
X304145Y981684D01*
X303885Y981341D01*
X303616Y981006D01*
X303339Y980676D01*
X303054Y980354D01*
X302761Y980039D01*
X302461Y979731D01*
X302153Y979431D01*
X301838Y979138D01*
X301516Y978853D01*
X301186Y978576D01*
X300851Y978307D01*
X300508Y978047D01*
X300160Y977795D01*
X299805Y977552D01*
X299444Y977317D01*
X299078Y977091D01*
X298707Y976875D01*
X298330Y976667D01*
X297948Y976469D01*
X297561Y976281D01*
X297170Y976102D01*
X296775Y975932D01*
X296376Y975772D01*
X295972Y975622D01*
X295566Y975483D01*
X295156Y975353D01*
X294742Y975233D01*
X294326Y975123D01*
X293908Y975024D01*
X293487Y974935D01*
X293064Y974856D01*
X292640Y974788D01*
X292213Y974730D01*
X291786Y974682D01*
X291357Y974645D01*
X290928Y974619D01*
X290498Y974603D01*
X290068Y974598D01*
X289638Y974603D01*
X289208Y974619D01*
X288779Y974645D01*
X288350Y974682D01*
X287923Y974730D01*
X287496Y974788D01*
X287072Y974856D01*
X286649Y974935D01*
X286228Y975024D01*
X285810Y975123D01*
X285394Y975233D01*
X284980Y975353D01*
X284570Y975483D01*
X284164Y975622D01*
X283760Y975772D01*
X283361Y975932D01*
X282966Y976102D01*
X282575Y976281D01*
X282188Y976469D01*
X281806Y976667D01*
X281429Y976875D01*
X281058Y977091D01*
X280692Y977317D01*
X280331Y977552D01*
X279976Y977795D01*
X279628Y978047D01*
X279285Y978307D01*
X278950Y978576D01*
X278620Y978853D01*
X278298Y979138D01*
X277983Y979431D01*
X277675Y979731D01*
X277375Y980039D01*
X277082Y980354D01*
X276797Y980676D01*
X276520Y981006D01*
X276251Y981341D01*
X275991Y981684D01*
X275739Y982032D01*
X275496Y982387D01*
X275261Y982748D01*
X275035Y983114D01*
X274819Y983485D01*
X274611Y983862D01*
X274413Y984244D01*
X274225Y984631D01*
X274046Y985022D01*
X273876Y985417D01*
X273716Y985816D01*
X273566Y986220D01*
X273427Y986626D01*
X273297Y987036D01*
X273177Y987450D01*
X273067Y987866D01*
X272968Y988284D01*
X272879Y988705D01*
X272800Y989128D01*
X272732Y989552D01*
X272674Y989979D01*
X272626Y990406D01*
X272589Y990835D01*
X272563Y991264D01*
X272547Y991694D01*
X272542Y992124D01*
X593852Y992124D02*
X593857Y992554D01*
X593873Y992984D01*
X593899Y993413D01*
X593936Y993842D01*
X593984Y994269D01*
X594042Y994696D01*
X594110Y995120D01*
X594189Y995543D01*
X594278Y995964D01*
X594377Y996382D01*
X594487Y996798D01*
X594607Y997212D01*
X594737Y997622D01*
X594876Y998028D01*
X595026Y998432D01*
X595186Y998831D01*
X595356Y999226D01*
X595535Y999617D01*
X595723Y1000004D01*
X595921Y1000386D01*
X596129Y1000763D01*
X596345Y1001134D01*
X596571Y1001500D01*
X596806Y1001861D01*
X597049Y1002216D01*
X597301Y1002564D01*
X597561Y1002907D01*
X597830Y1003242D01*
X598107Y1003572D01*
X598392Y1003894D01*
X598685Y1004209D01*
X598985Y1004517D01*
X599293Y1004817D01*
X599608Y1005110D01*
X599930Y1005395D01*
X600260Y1005672D01*
X600595Y1005941D01*
X600938Y1006201D01*
X601286Y1006453D01*
X601641Y1006696D01*
X602002Y1006931D01*
X602368Y1007157D01*
X602739Y1007373D01*
X603116Y1007581D01*
X603498Y1007779D01*
X603885Y1007967D01*
X604276Y1008146D01*
X604671Y1008316D01*
X605070Y1008476D01*
X605474Y1008626D01*
X605880Y1008765D01*
X606290Y1008895D01*
X606704Y1009015D01*
X607120Y1009125D01*
X607538Y1009224D01*
X607959Y1009313D01*
X608382Y1009392D01*
X608806Y1009460D01*
X609233Y1009518D01*
X609660Y1009566D01*
X610089Y1009603D01*
X610518Y1009629D01*
X610948Y1009645D01*
X611378Y1009650D01*
X611808Y1009645D01*
X612238Y1009629D01*
X612667Y1009603D01*
X613096Y1009566D01*
X613523Y1009518D01*
X613950Y1009460D01*
X614374Y1009392D01*
X614797Y1009313D01*
X615218Y1009224D01*
X615636Y1009125D01*
X616052Y1009015D01*
X616466Y1008895D01*
X616876Y1008765D01*
X617282Y1008626D01*
X617686Y1008476D01*
X618085Y1008316D01*
X618480Y1008146D01*
X618871Y1007967D01*
X619258Y1007779D01*
X619640Y1007581D01*
X620017Y1007373D01*
X620388Y1007157D01*
X620754Y1006931D01*
X621115Y1006696D01*
X621470Y1006453D01*
X621818Y1006201D01*
X622161Y1005941D01*
X622496Y1005672D01*
X622826Y1005395D01*
X623148Y1005110D01*
X623463Y1004817D01*
X623771Y1004517D01*
X624071Y1004209D01*
X624364Y1003894D01*
X624649Y1003572D01*
X624926Y1003242D01*
X625195Y1002907D01*
X625455Y1002564D01*
X625707Y1002216D01*
X625950Y1001861D01*
X626185Y1001500D01*
X626411Y1001134D01*
X626627Y1000763D01*
X626835Y1000386D01*
X627033Y1000004D01*
X627221Y999617D01*
X627400Y999226D01*
X627570Y998831D01*
X627730Y998432D01*
X627880Y998028D01*
X628019Y997622D01*
X628149Y997212D01*
X628269Y996798D01*
X628379Y996382D01*
X628478Y995964D01*
X628567Y995543D01*
X628646Y995120D01*
X628714Y994696D01*
X628772Y994269D01*
X628820Y993842D01*
X628857Y993413D01*
X628883Y992984D01*
X628899Y992554D01*
X628904Y992124D01*
X628899Y991694D01*
X628883Y991264D01*
X628857Y990835D01*
X628820Y990406D01*
X628772Y989979D01*
X628714Y989552D01*
X628646Y989128D01*
X628567Y988705D01*
X628478Y988284D01*
X628379Y987866D01*
X628269Y987450D01*
X628149Y987036D01*
X628019Y986626D01*
X627880Y986220D01*
X627730Y985816D01*
X627570Y985417D01*
X627400Y985022D01*
X627221Y984631D01*
X627033Y984244D01*
X626835Y983862D01*
X626627Y983485D01*
X626411Y983114D01*
X626185Y982748D01*
X625950Y982387D01*
X625707Y982032D01*
X625455Y981684D01*
X625195Y981341D01*
X624926Y981006D01*
X624649Y980676D01*
X624364Y980354D01*
X624071Y980039D01*
X623771Y979731D01*
X623463Y979431D01*
X623148Y979138D01*
X622826Y978853D01*
X622496Y978576D01*
X622161Y978307D01*
X621818Y978047D01*
X621470Y977795D01*
X621115Y977552D01*
X620754Y977317D01*
X620388Y977091D01*
X620017Y976875D01*
X619640Y976667D01*
X619258Y976469D01*
X618871Y976281D01*
X618480Y976102D01*
X618085Y975932D01*
X617686Y975772D01*
X617282Y975622D01*
X616876Y975483D01*
X616466Y975353D01*
X616052Y975233D01*
X615636Y975123D01*
X615218Y975024D01*
X614797Y974935D01*
X614374Y974856D01*
X613950Y974788D01*
X613523Y974730D01*
X613096Y974682D01*
X612667Y974645D01*
X612238Y974619D01*
X611808Y974603D01*
X611378Y974598D01*
X610948Y974603D01*
X610518Y974619D01*
X610089Y974645D01*
X609660Y974682D01*
X609233Y974730D01*
X608806Y974788D01*
X608382Y974856D01*
X607959Y974935D01*
X607538Y975024D01*
X607120Y975123D01*
X606704Y975233D01*
X606290Y975353D01*
X605880Y975483D01*
X605474Y975622D01*
X605070Y975772D01*
X604671Y975932D01*
X604276Y976102D01*
X603885Y976281D01*
X603498Y976469D01*
X603116Y976667D01*
X602739Y976875D01*
X602368Y977091D01*
X602002Y977317D01*
X601641Y977552D01*
X601286Y977795D01*
X600938Y978047D01*
X600595Y978307D01*
X600260Y978576D01*
X599930Y978853D01*
X599608Y979138D01*
X599293Y979431D01*
X598985Y979731D01*
X598685Y980039D01*
X598392Y980354D01*
X598107Y980676D01*
X597830Y981006D01*
X597561Y981341D01*
X597301Y981684D01*
X597049Y982032D01*
X596806Y982387D01*
X596571Y982748D01*
X596345Y983114D01*
X596129Y983485D01*
X595921Y983862D01*
X595723Y984244D01*
X595535Y984631D01*
X595356Y985022D01*
X595186Y985417D01*
X595026Y985816D01*
X594876Y986220D01*
X594737Y986626D01*
X594607Y987036D01*
X594487Y987450D01*
X594377Y987866D01*
X594278Y988284D01*
X594189Y988705D01*
X594110Y989128D01*
X594042Y989552D01*
X593984Y989979D01*
X593936Y990406D01*
X593899Y990835D01*
X593873Y991264D01*
X593857Y991694D01*
X593852Y992124D01*
X915416Y992124D02*
X915421Y992554D01*
X915437Y992984D01*
X915463Y993413D01*
X915500Y993842D01*
X915548Y994269D01*
X915606Y994696D01*
X915674Y995120D01*
X915753Y995543D01*
X915842Y995964D01*
X915941Y996382D01*
X916051Y996798D01*
X916171Y997212D01*
X916301Y997622D01*
X916440Y998028D01*
X916590Y998432D01*
X916750Y998831D01*
X916920Y999226D01*
X917099Y999617D01*
X917287Y1000004D01*
X917485Y1000386D01*
X917693Y1000763D01*
X917909Y1001134D01*
X918135Y1001500D01*
X918370Y1001861D01*
X918613Y1002216D01*
X918865Y1002564D01*
X919125Y1002907D01*
X919394Y1003242D01*
X919671Y1003572D01*
X919956Y1003894D01*
X920249Y1004209D01*
X920549Y1004517D01*
X920857Y1004817D01*
X921172Y1005110D01*
X921494Y1005395D01*
X921824Y1005672D01*
X922159Y1005941D01*
X922502Y1006201D01*
X922850Y1006453D01*
X923205Y1006696D01*
X923566Y1006931D01*
X923932Y1007157D01*
X924303Y1007373D01*
X924680Y1007581D01*
X925062Y1007779D01*
X925449Y1007967D01*
X925840Y1008146D01*
X926235Y1008316D01*
X926634Y1008476D01*
X927038Y1008626D01*
X927444Y1008765D01*
X927854Y1008895D01*
X928268Y1009015D01*
X928684Y1009125D01*
X929102Y1009224D01*
X929523Y1009313D01*
X929946Y1009392D01*
X930370Y1009460D01*
X930797Y1009518D01*
X931224Y1009566D01*
X931653Y1009603D01*
X932082Y1009629D01*
X932512Y1009645D01*
X932942Y1009650D01*
X933372Y1009645D01*
X933802Y1009629D01*
X934231Y1009603D01*
X934660Y1009566D01*
X935087Y1009518D01*
X935514Y1009460D01*
X935938Y1009392D01*
X936361Y1009313D01*
X936782Y1009224D01*
X937200Y1009125D01*
X937616Y1009015D01*
X938030Y1008895D01*
X938440Y1008765D01*
X938846Y1008626D01*
X939250Y1008476D01*
X939649Y1008316D01*
X940044Y1008146D01*
X940435Y1007967D01*
X940822Y1007779D01*
X941204Y1007581D01*
X941581Y1007373D01*
X941952Y1007157D01*
X942318Y1006931D01*
X942679Y1006696D01*
X943034Y1006453D01*
X943382Y1006201D01*
X943725Y1005941D01*
X944060Y1005672D01*
X944390Y1005395D01*
X944712Y1005110D01*
X945027Y1004817D01*
X945335Y1004517D01*
X945635Y1004209D01*
X945928Y1003894D01*
X946213Y1003572D01*
X946490Y1003242D01*
X946759Y1002907D01*
X947019Y1002564D01*
X947271Y1002216D01*
X947514Y1001861D01*
X947749Y1001500D01*
X947975Y1001134D01*
X948191Y1000763D01*
X948399Y1000386D01*
X948597Y1000004D01*
X948785Y999617D01*
X948964Y999226D01*
X949134Y998831D01*
X949294Y998432D01*
X949444Y998028D01*
X949583Y997622D01*
X949713Y997212D01*
X949833Y996798D01*
X949943Y996382D01*
X950042Y995964D01*
X950131Y995543D01*
X950210Y995120D01*
X950278Y994696D01*
X950336Y994269D01*
X950384Y993842D01*
X950421Y993413D01*
X950447Y992984D01*
X950463Y992554D01*
X950468Y992124D01*
X950463Y991694D01*
X950447Y991264D01*
X950421Y990835D01*
X950384Y990406D01*
X950336Y989979D01*
X950278Y989552D01*
X950210Y989128D01*
X950131Y988705D01*
X950042Y988284D01*
X949943Y987866D01*
X949833Y987450D01*
X949713Y987036D01*
X949583Y986626D01*
X949444Y986220D01*
X949294Y985816D01*
X949134Y985417D01*
X948964Y985022D01*
X948785Y984631D01*
X948597Y984244D01*
X948399Y983862D01*
X948191Y983485D01*
X947975Y983114D01*
X947749Y982748D01*
X947514Y982387D01*
X947271Y982032D01*
X947019Y981684D01*
X946759Y981341D01*
X946490Y981006D01*
X946213Y980676D01*
X945928Y980354D01*
X945635Y980039D01*
X945335Y979731D01*
X945027Y979431D01*
X944712Y979138D01*
X944390Y978853D01*
X944060Y978576D01*
X943725Y978307D01*
X943382Y978047D01*
X943034Y977795D01*
X942679Y977552D01*
X942318Y977317D01*
X941952Y977091D01*
X941581Y976875D01*
X941204Y976667D01*
X940822Y976469D01*
X940435Y976281D01*
X940044Y976102D01*
X939649Y975932D01*
X939250Y975772D01*
X938846Y975622D01*
X938440Y975483D01*
X938030Y975353D01*
X937616Y975233D01*
X937200Y975123D01*
X936782Y975024D01*
X936361Y974935D01*
X935938Y974856D01*
X935514Y974788D01*
X935087Y974730D01*
X934660Y974682D01*
X934231Y974645D01*
X933802Y974619D01*
X933372Y974603D01*
X932942Y974598D01*
X932512Y974603D01*
X932082Y974619D01*
X931653Y974645D01*
X931224Y974682D01*
X930797Y974730D01*
X930370Y974788D01*
X929946Y974856D01*
X929523Y974935D01*
X929102Y975024D01*
X928684Y975123D01*
X928268Y975233D01*
X927854Y975353D01*
X927444Y975483D01*
X927038Y975622D01*
X926634Y975772D01*
X926235Y975932D01*
X925840Y976102D01*
X925449Y976281D01*
X925062Y976469D01*
X924680Y976667D01*
X924303Y976875D01*
X923932Y977091D01*
X923566Y977317D01*
X923205Y977552D01*
X922850Y977795D01*
X922502Y978047D01*
X922159Y978307D01*
X921824Y978576D01*
X921494Y978853D01*
X921172Y979138D01*
X920857Y979431D01*
X920549Y979731D01*
X920249Y980039D01*
X919956Y980354D01*
X919671Y980676D01*
X919394Y981006D01*
X919125Y981341D01*
X918865Y981684D01*
X918613Y982032D01*
X918370Y982387D01*
X918135Y982748D01*
X917909Y983114D01*
X917693Y983485D01*
X917485Y983862D01*
X917287Y984244D01*
X917099Y984631D01*
X916920Y985022D01*
X916750Y985417D01*
X916590Y985816D01*
X916440Y986220D01*
X916301Y986626D01*
X916171Y987036D01*
X916051Y987450D01*
X915941Y987866D01*
X915842Y988284D01*
X915753Y988705D01*
X915674Y989128D01*
X915606Y989552D01*
X915548Y989979D01*
X915500Y990406D01*
X915463Y990835D01*
X915437Y991264D01*
X915421Y991694D01*
X915416Y992124D01*
X549910Y1220470D02*
X0Y1220470D01*
X0Y0D01*
X549910Y50800D02*
X549928Y52303D01*
X549983Y53805D01*
X550075Y55305D01*
X550203Y56803D01*
X550367Y58297D01*
X550568Y59787D01*
X550805Y61271D01*
X551078Y62749D01*
X551387Y64220D01*
X551731Y65683D01*
X552111Y67138D01*
X552527Y68582D01*
X552978Y70016D01*
X553463Y71439D01*
X553983Y72849D01*
X554537Y74246D01*
X555125Y75630D01*
X555746Y76998D01*
X556400Y78351D01*
X557088Y79688D01*
X557807Y81008D01*
X558559Y82310D01*
X559342Y83593D01*
X560156Y84856D01*
X561001Y86100D01*
X561875Y87322D01*
X562779Y88523D01*
X563712Y89701D01*
X564674Y90857D01*
X565663Y91988D01*
X566680Y93095D01*
X567723Y94178D01*
X568792Y95234D01*
X569887Y96264D01*
X571007Y97267D01*
X572150Y98242D01*
X573317Y99190D01*
X574507Y100108D01*
X575719Y100998D01*
X576952Y101858D01*
X578205Y102687D01*
X579479Y103485D01*
X580771Y104253D01*
X582082Y104988D01*
X583410Y105692D01*
X584755Y106363D01*
X586116Y107001D01*
X587492Y107606D01*
X588883Y108177D01*
X590287Y108714D01*
X591703Y109216D01*
X593132Y109684D01*
X594571Y110117D01*
X596020Y110515D01*
X597479Y110877D01*
X598946Y111204D01*
X600421Y111495D01*
X601902Y111750D01*
X603389Y111969D01*
X604881Y112152D01*
X606377Y112298D01*
X607876Y112408D01*
X609378Y112481D01*
X610880Y112517D01*
X612384Y112517D01*
X613886Y112481D01*
X615388Y112408D01*
X616887Y112298D01*
X618383Y112152D01*
X619875Y111969D01*
X621362Y111750D01*
X622843Y111495D01*
X624318Y111204D01*
X625785Y110877D01*
X627244Y110515D01*
X628693Y110117D01*
X630132Y109684D01*
X631561Y109216D01*
X632977Y108714D01*
X634381Y108177D01*
X635772Y107606D01*
X637148Y107001D01*
X638509Y106363D01*
X639854Y105692D01*
X641182Y104988D01*
X642493Y104253D01*
X643785Y103485D01*
X645059Y102687D01*
X646312Y101858D01*
X647545Y100998D01*
X648757Y100108D01*
X649947Y99190D01*
X651114Y98242D01*
X652257Y97267D01*
X653377Y96264D01*
X654472Y95234D01*
X655541Y94178D01*
X656584Y93095D01*
X657601Y91988D01*
X658590Y90857D01*
X659552Y89701D01*
X660485Y88523D01*
X661389Y87322D01*
X662263Y86100D01*
X663108Y84856D01*
X663922Y83593D01*
X664705Y82310D01*
X665457Y81008D01*
X666176Y79688D01*
X666864Y78351D01*
X667518Y76998D01*
X668139Y75630D01*
X668727Y74246D01*
X669281Y72849D01*
X669801Y71439D01*
X670286Y70016D01*
X670737Y68582D01*
X671153Y67138D01*
X671533Y65683D01*
X671877Y64220D01*
X672186Y62749D01*
X672459Y61271D01*
X672696Y59787D01*
X672897Y58297D01*
X673061Y56803D01*
X673189Y55305D01*
X673281Y53805D01*
X673336Y52303D01*
X673354Y50800D01*
X673354Y1168400D02*
X673336Y1166897D01*
X673281Y1165395D01*
X673189Y1163895D01*
X673061Y1162397D01*
X672897Y1160903D01*
X672696Y1159413D01*
X672459Y1157929D01*
X672186Y1156451D01*
X671877Y1154980D01*
X671533Y1153517D01*
X671153Y1152062D01*
X670737Y1150618D01*
X670286Y1149184D01*
X669801Y1147761D01*
X669281Y1146351D01*
X668727Y1144954D01*
X668139Y1143570D01*
X667518Y1142202D01*
X666864Y1140849D01*
X666176Y1139512D01*
X665457Y1138192D01*
X664705Y1136890D01*
X663922Y1135607D01*
X663108Y1134344D01*
X662263Y1133100D01*
X661389Y1131878D01*
X660485Y1130677D01*
X659552Y1129499D01*
X658590Y1128343D01*
X657601Y1127212D01*
X656584Y1126105D01*
X655541Y1125022D01*
X654472Y1123966D01*
X653377Y1122936D01*
X652257Y1121933D01*
X651114Y1120958D01*
X649947Y1120010D01*
X648757Y1119092D01*
X647545Y1118202D01*
X646312Y1117342D01*
X645059Y1116513D01*
X643785Y1115715D01*
X642493Y1114947D01*
X641182Y1114212D01*
X639854Y1113508D01*
X638509Y1112837D01*
X637148Y1112199D01*
X635772Y1111594D01*
X634381Y1111023D01*
X632977Y1110486D01*
X631561Y1109984D01*
X630132Y1109516D01*
X628693Y1109083D01*
X627244Y1108685D01*
X625785Y1108323D01*
X624318Y1107996D01*
X622843Y1107705D01*
X621362Y1107450D01*
X619875Y1107231D01*
X618383Y1107048D01*
X616887Y1106902D01*
X615388Y1106792D01*
X613886Y1106719D01*
X612384Y1106683D01*
X610880Y1106683D01*
X609378Y1106719D01*
X607876Y1106792D01*
X606377Y1106902D01*
X604881Y1107048D01*
X603389Y1107231D01*
X601902Y1107450D01*
X600421Y1107705D01*
X598946Y1107996D01*
X597479Y1108323D01*
X596020Y1108685D01*
X594571Y1109083D01*
X593132Y1109516D01*
X591703Y1109984D01*
X590287Y1110486D01*
X588883Y1111023D01*
X587492Y1111594D01*
X586116Y1112199D01*
X584755Y1112837D01*
X583410Y1113508D01*
X582082Y1114212D01*
X580771Y1114947D01*
X579479Y1115715D01*
X578205Y1116513D01*
X576952Y1117342D01*
X575719Y1118202D01*
X574507Y1119092D01*
X573317Y1120010D01*
X572150Y1120958D01*
X571007Y1121933D01*
X569887Y1122936D01*
X568792Y1123966D01*
X567723Y1125022D01*
X566680Y1126105D01*
X565663Y1127212D01*
X564674Y1128343D01*
X563712Y1129499D01*
X562779Y1130677D01*
X561875Y1131878D01*
X561001Y1133100D01*
X560156Y1134344D01*
X559342Y1135607D01*
X558559Y1136890D01*
X557807Y1138192D01*
X557088Y1139512D01*
X556400Y1140849D01*
X555746Y1142202D01*
X555125Y1143570D01*
X554537Y1144954D01*
X553983Y1146351D01*
X553463Y1147761D01*
X552978Y1149184D01*
X552527Y1150618D01*
X552111Y1152062D01*
X551731Y1153517D01*
X551387Y1154980D01*
X551078Y1156451D01*
X550805Y1157929D01*
X550568Y1159413D01*
X550367Y1160903D01*
X550203Y1162397D01*
X550075Y1163895D01*
X549983Y1165395D01*
X549928Y1166897D01*
X549910Y1168400D01*
X549910Y50800D02*
X549910Y0D01*
X673354Y0D02*
X673354Y50800D01*
X549910Y1168400D02*
X549910Y1220470D01*
X673354Y1220470D02*
X673354Y1168400D01*
M02*
