M48
;GenerationSoftware,Autodesk,EAGLE,9.6.2*%
;CreationDate,2022-01-24T05:58:50Z*%
FMAT,2
ICI,OFF
METRIC,TZ,000.000
T10C0.381
T9C0.750
T8C0.813
T7C0.900
T6C0.914
T5C0.991
T4C1.016
T3C1.194
T2C1.499
T1C3.505
%
G90
M71
T1
X93294Y99212
X29007Y22809
X61138Y22809
X93294Y22809
X29007Y99212
X61138Y99212
T2
X116865Y50495
X116865Y43485
T3
X3810Y109982
X118110Y89408
X118110Y88392
X3810Y12192
X118110Y69088
X118110Y68072
X3810Y88392
X3810Y89408
X3810Y13208
X3810Y110998
T4
X119355Y49251
X119355Y44729
T5
X8814Y12700
X113106Y88900
X114122Y88900
X7798Y12700
X113106Y68580
X114122Y68580
X8814Y88900
X7798Y88900
X8814Y110490
X7798Y110490
T6
X16510Y8890
X105410Y91440
X107950Y72390
X105410Y72390
X107950Y91440
X13970Y8890
T7
X34290Y30480
X39370Y74930
X34290Y54610
X31750Y54610
X29210Y54610
X26670Y54610
X24130Y54610
X21590Y54610
X19050Y54610
X8890Y74930
X11430Y74930
X13970Y74930
X16510Y74930
X16510Y54610
X13970Y54610
X11430Y54610
X8890Y54610
X6350Y30480
X8890Y30480
X11430Y30480
X13970Y30480
X16510Y30480
X19050Y30480
X21590Y30480
X24130Y30480
X26670Y30480
X29210Y30480
X31750Y30480
X6350Y54610
X36830Y30480
X39370Y30480
X41910Y30480
X44450Y30480
X44450Y50800
X41910Y50800
X39370Y50800
X36830Y50800
X34290Y50800
X31750Y50800
X29210Y50800
X26670Y50800
X24130Y50800
X21590Y50800
X19050Y50800
X16510Y50800
X44450Y74930
X41910Y74930
X6350Y74930
X36830Y74930
X34290Y74930
X31750Y74930
X29210Y74930
X26670Y74930
X24130Y74930
X21590Y74930
X19050Y74930
T8
X120396Y34290
X117856Y34290
X120396Y24130
X117856Y24130
T9
X27930Y111760
X24730Y111760
X22530Y111760
X20330Y111760
X20330Y106680
X22530Y106680
X27930Y106680
X24730Y106680
T10
X100330Y36830
X98044Y61976
X97790Y38100
X17780Y63500
X98044Y81026
X34290Y63500
X20320Y62230
X31750Y62230
X19050Y60960
X30480Y60960
X5189Y68689
X33020Y64770
X19050Y64770
X35560Y66040
X16510Y66040
X38100Y67310
X13970Y67310
X91440Y46990
X15349Y84981
X23876Y13716
X22860Y59690
X29210Y59690
X74930Y27940
X74930Y77470
X7874Y70104
M30