G04 EAGLE Gerber RS-274X export*
G75*
%MOMM*%
%FSLAX34Y34*%
%LPD*%
%INBottom Solder Mask*%
%IPPOS*%
%AMOC8*
5,1,8,0,0,1.08239X$1,22.5*%
G01*
%ADD10C,3.708400*%
%ADD11C,1.611200*%
%ADD12C,1.903200*%
%ADD13C,1.993900*%
%ADD14C,1.701800*%
%ADD15C,1.625600*%
%ADD16R,1.461200X1.461200*%
%ADD17C,1.461200*%
%ADD18P,1.649562X8X22.500000*%
%ADD19C,3.378200*%
%ADD20P,1.869504X8X112.500000*%
%ADD21C,2.451100*%


D10*
X290068Y228092D03*
X611378Y228092D03*
X932942Y228092D03*
X290068Y992124D03*
X611378Y992124D03*
X932942Y992124D03*
D11*
X63500Y368300D03*
X88900Y368300D03*
X114300Y368300D03*
X139700Y368300D03*
X165100Y368300D03*
X190500Y368300D03*
X215900Y368300D03*
X241300Y368300D03*
X266700Y368300D03*
X292100Y368300D03*
X317500Y368300D03*
X342900Y368300D03*
X368300Y368300D03*
X393700Y368300D03*
X419100Y368300D03*
X444500Y368300D03*
X444500Y571500D03*
X419100Y571500D03*
X393700Y571500D03*
X368300Y571500D03*
X342900Y571500D03*
X317500Y571500D03*
X292100Y571500D03*
X266700Y571500D03*
X241300Y571500D03*
X215900Y571500D03*
X190500Y571500D03*
X165100Y571500D03*
D12*
X1170420Y863600D03*
X1100420Y863600D03*
D13*
X38100Y259080D03*
X38100Y248920D03*
D14*
X77978Y254000D03*
X88138Y254000D03*
D12*
X53860Y825500D03*
X123860Y825500D03*
X53860Y685800D03*
X123860Y685800D03*
X53860Y965200D03*
X123860Y965200D03*
D15*
X139700Y197612D02*
X139700Y183388D01*
X165100Y183388D02*
X165100Y197612D01*
D16*
X482600Y901600D03*
D17*
X482600Y869600D03*
X482600Y847600D03*
X482600Y825600D03*
X533400Y825600D03*
X533400Y847600D03*
X533400Y869600D03*
X533400Y901600D03*
D18*
X1178560Y241300D03*
X1203960Y241300D03*
X1178560Y342900D03*
X1203960Y342900D03*
D14*
X1193800Y673100D03*
X1193800Y648208D03*
X1193800Y697992D03*
D19*
X1160780Y721614D03*
X1160780Y624586D03*
D20*
X1193546Y447294D03*
X1193546Y492506D03*
D21*
X1168654Y434848D03*
X1168654Y504952D03*
D15*
X190500Y1046988D02*
X190500Y1061212D01*
X165100Y1061212D02*
X165100Y1046988D01*
X139700Y1046988D02*
X139700Y1061212D01*
M02*
