G04 EAGLE Gerber RS-274X export*
G75*
%MOMM*%
%FSLAX34Y34*%
%LPD*%
%INTop Solder Mask*%
%IPPOS*%
%AMOC8*
5,1,8,0,0,1.08239X$1,22.5*%
G01*
%ADD10C,3.708400*%
%ADD11R,1.703200X1.503200*%
%ADD12R,1.503200X1.703200*%
%ADD13R,1.803200X2.003200*%
%ADD14R,0.803200X0.803200*%
%ADD15C,1.611200*%
%ADD16R,1.866900X0.762000*%
%ADD17R,2.203200X3.003200*%
%ADD18R,3.003200X2.803200*%
%ADD19R,2.403200X3.003200*%
%ADD20C,1.903200*%
%ADD21C,1.905000*%
%ADD22C,1.701800*%
%ADD23C,1.993900*%
%ADD24C,1.701800*%
%ADD25C,1.625600*%
%ADD26R,1.461200X1.461200*%
%ADD27C,1.461200*%
%ADD28P,1.649562X8X22.500000*%
%ADD29R,1.203200X1.603200*%
%ADD30C,3.378200*%
%ADD31R,2.006200X1.803200*%
%ADD32P,1.869504X8X112.500000*%
%ADD33C,2.451100*%


D10*
X290068Y228092D03*
X611378Y228092D03*
X932942Y228092D03*
X290068Y992124D03*
X611378Y992124D03*
X932942Y992124D03*
D11*
X254000Y790600D03*
X254000Y809600D03*
D12*
X949300Y762000D03*
X930300Y762000D03*
X216560Y728980D03*
X235560Y728980D03*
X517500Y1016000D03*
X498500Y1016000D03*
X1119480Y203200D03*
X1100480Y203200D03*
X828700Y876300D03*
X847700Y876300D03*
X828700Y927100D03*
X847700Y927100D03*
X212700Y152400D03*
X193700Y152400D03*
X219100Y482600D03*
X238100Y482600D03*
D11*
X254000Y873100D03*
X254000Y854100D03*
X254000Y650900D03*
X254000Y669900D03*
D13*
X1030000Y889000D03*
X1002000Y889000D03*
X1030000Y812800D03*
X1002000Y812800D03*
D12*
X720700Y711200D03*
X701700Y711200D03*
X650900Y762000D03*
X669900Y762000D03*
D11*
X800100Y758800D03*
X800100Y739800D03*
D12*
X879500Y711200D03*
X898500Y711200D03*
D14*
X482600Y976200D03*
X482600Y954200D03*
X139700Y255700D03*
X139700Y277700D03*
D15*
X63500Y368300D03*
X88900Y368300D03*
X114300Y368300D03*
X139700Y368300D03*
X165100Y368300D03*
X190500Y368300D03*
X215900Y368300D03*
X241300Y368300D03*
X266700Y368300D03*
X292100Y368300D03*
X317500Y368300D03*
X342900Y368300D03*
X368300Y368300D03*
X393700Y368300D03*
X419100Y368300D03*
X444500Y368300D03*
X444500Y571500D03*
X419100Y571500D03*
X393700Y571500D03*
X368300Y571500D03*
X342900Y571500D03*
X317500Y571500D03*
X292100Y571500D03*
X266700Y571500D03*
X241300Y571500D03*
X215900Y571500D03*
X190500Y571500D03*
X165100Y571500D03*
D16*
X771843Y831850D03*
X771843Y819150D03*
X771843Y806450D03*
X771843Y793750D03*
X828358Y793750D03*
X828358Y806450D03*
X828358Y819150D03*
X828358Y831850D03*
D17*
X1209420Y900600D03*
D18*
X1087420Y899600D03*
D19*
X1162420Y826600D03*
X1181420Y900600D03*
D20*
X1170420Y863600D03*
X1100420Y863600D03*
D21*
X38100Y259080D02*
X38100Y248920D01*
D22*
X78020Y254000D02*
X88180Y254000D01*
D23*
X38100Y259080D03*
X38100Y248920D03*
D24*
X77978Y254000D03*
X88138Y254000D03*
D17*
X14860Y788500D03*
D18*
X136860Y789500D03*
D19*
X61860Y862500D03*
X42860Y788500D03*
D20*
X53860Y825500D03*
X123860Y825500D03*
D17*
X14860Y648800D03*
D18*
X136860Y649800D03*
D19*
X61860Y722800D03*
X42860Y648800D03*
D20*
X53860Y685800D03*
X123860Y685800D03*
D17*
X14860Y928200D03*
D18*
X136860Y929200D03*
D19*
X61860Y1002200D03*
X42860Y928200D03*
D20*
X53860Y965200D03*
X123860Y965200D03*
D25*
X139700Y197612D02*
X139700Y183388D01*
X165100Y183388D02*
X165100Y197612D01*
D26*
X482600Y901600D03*
D27*
X482600Y869600D03*
X482600Y847600D03*
X482600Y825600D03*
X533400Y825600D03*
X533400Y847600D03*
X533400Y869600D03*
X533400Y901600D03*
D28*
X1178560Y241300D03*
X1203960Y241300D03*
X1178560Y342900D03*
X1203960Y342900D03*
D29*
X444500Y976200D03*
X454000Y954200D03*
X435000Y954200D03*
X177800Y255700D03*
X168300Y277700D03*
X187300Y277700D03*
D11*
X215900Y790600D03*
X215900Y809600D03*
D12*
X403200Y952500D03*
X384200Y952500D03*
D24*
X1193800Y673100D03*
X1193800Y648208D03*
X1193800Y697992D03*
D30*
X1160780Y721614D03*
X1160780Y624586D03*
D12*
X1120800Y241300D03*
X1139800Y241300D03*
X238100Y279400D03*
X219100Y279400D03*
X1139800Y342900D03*
X1120800Y342900D03*
X193700Y190500D03*
X212700Y190500D03*
D31*
X533400Y747780D03*
X533400Y776220D03*
X482600Y747780D03*
X482600Y776220D03*
D11*
X1117600Y460400D03*
X1117600Y479400D03*
X215900Y873100D03*
X215900Y854100D03*
X215900Y650900D03*
X215900Y669900D03*
X723900Y816000D03*
X723900Y835000D03*
D12*
X720700Y762000D03*
X701700Y762000D03*
D11*
X876300Y803300D03*
X876300Y822300D03*
D12*
X879500Y762000D03*
X898500Y762000D03*
X720700Y736600D03*
X701700Y736600D03*
X879500Y736600D03*
X898500Y736600D03*
D32*
X1193546Y447294D03*
X1193546Y492506D03*
D33*
X1168654Y434848D03*
X1168654Y504952D03*
D25*
X190500Y1046988D02*
X190500Y1061212D01*
X165100Y1061212D02*
X165100Y1046988D01*
X139700Y1046988D02*
X139700Y1061212D01*
M02*
