G04 EAGLE Gerber RS-274X export*
G75*
%MOMM*%
%FSLAX34Y34*%
%LPD*%
%INBottom Copper Layer*%
%IPPOS*%
%AMOC8*
5,1,8,0,0,1.08239X$1,22.5*%
G01*
%ADD10C,1.408000*%
%ADD11C,1.790700*%
%ADD12C,1.498600*%
%ADD13C,1.422400*%
%ADD14R,1.258000X1.258000*%
%ADD15C,1.258000*%
%ADD16P,1.429621X8X22.500000*%
%ADD17C,3.175000*%
%ADD18P,1.649562X8X112.500000*%
%ADD19C,2.247900*%
%ADD20C,0.787400*%
%ADD21C,0.609600*%
%ADD22C,0.812800*%

G36*
X546218Y2556D02*
X546218Y2556D01*
X546337Y2563D01*
X546375Y2576D01*
X546416Y2581D01*
X546526Y2624D01*
X546639Y2661D01*
X546674Y2683D01*
X546711Y2698D01*
X546807Y2767D01*
X546908Y2831D01*
X546936Y2861D01*
X546969Y2884D01*
X547045Y2976D01*
X547126Y3063D01*
X547146Y3098D01*
X547171Y3129D01*
X547222Y3237D01*
X547280Y3341D01*
X547290Y3381D01*
X547307Y3417D01*
X547329Y3534D01*
X547359Y3649D01*
X547363Y3709D01*
X547367Y3729D01*
X547365Y3750D01*
X547369Y3810D01*
X547369Y58041D01*
X550592Y72159D01*
X556875Y85206D01*
X565904Y96528D01*
X577226Y105557D01*
X590273Y111840D01*
X604391Y115063D01*
X618873Y115063D01*
X632991Y111840D01*
X646038Y105557D01*
X657360Y96528D01*
X666389Y85206D01*
X672672Y72159D01*
X675895Y58041D01*
X675895Y3810D01*
X675910Y3692D01*
X675917Y3573D01*
X675930Y3535D01*
X675935Y3494D01*
X675978Y3384D01*
X676015Y3271D01*
X676037Y3236D01*
X676052Y3199D01*
X676121Y3103D01*
X676185Y3002D01*
X676215Y2974D01*
X676238Y2941D01*
X676330Y2865D01*
X676417Y2784D01*
X676452Y2764D01*
X676483Y2739D01*
X676591Y2688D01*
X676695Y2630D01*
X676735Y2620D01*
X676771Y2603D01*
X676888Y2581D01*
X677003Y2551D01*
X677063Y2547D01*
X677083Y2543D01*
X677104Y2545D01*
X677164Y2541D01*
X1219200Y2541D01*
X1219318Y2556D01*
X1219437Y2563D01*
X1219475Y2576D01*
X1219516Y2581D01*
X1219626Y2624D01*
X1219739Y2661D01*
X1219774Y2683D01*
X1219811Y2698D01*
X1219907Y2767D01*
X1220008Y2831D01*
X1220036Y2861D01*
X1220069Y2884D01*
X1220145Y2976D01*
X1220226Y3063D01*
X1220246Y3098D01*
X1220271Y3129D01*
X1220322Y3237D01*
X1220380Y3341D01*
X1220390Y3381D01*
X1220407Y3417D01*
X1220429Y3534D01*
X1220459Y3649D01*
X1220463Y3709D01*
X1220467Y3729D01*
X1220465Y3750D01*
X1220469Y3810D01*
X1220469Y1216660D01*
X1220454Y1216778D01*
X1220447Y1216897D01*
X1220434Y1216935D01*
X1220429Y1216976D01*
X1220386Y1217086D01*
X1220349Y1217199D01*
X1220327Y1217234D01*
X1220312Y1217271D01*
X1220243Y1217367D01*
X1220179Y1217468D01*
X1220149Y1217496D01*
X1220126Y1217529D01*
X1220034Y1217605D01*
X1219947Y1217686D01*
X1219912Y1217706D01*
X1219881Y1217731D01*
X1219773Y1217782D01*
X1219669Y1217840D01*
X1219629Y1217850D01*
X1219593Y1217867D01*
X1219476Y1217889D01*
X1219361Y1217919D01*
X1219301Y1217923D01*
X1219281Y1217927D01*
X1219260Y1217925D01*
X1219200Y1217929D01*
X677164Y1217929D01*
X677046Y1217914D01*
X676927Y1217907D01*
X676889Y1217894D01*
X676848Y1217889D01*
X676738Y1217846D01*
X676625Y1217809D01*
X676590Y1217787D01*
X676553Y1217772D01*
X676457Y1217703D01*
X676356Y1217639D01*
X676328Y1217609D01*
X676295Y1217586D01*
X676219Y1217494D01*
X676138Y1217407D01*
X676118Y1217372D01*
X676093Y1217341D01*
X676042Y1217233D01*
X675984Y1217129D01*
X675974Y1217089D01*
X675957Y1217053D01*
X675935Y1216936D01*
X675905Y1216821D01*
X675901Y1216761D01*
X675897Y1216741D01*
X675899Y1216720D01*
X675895Y1216660D01*
X675895Y1161159D01*
X672672Y1147041D01*
X666389Y1133994D01*
X657360Y1122672D01*
X646038Y1113643D01*
X632991Y1107360D01*
X618873Y1104137D01*
X604391Y1104137D01*
X590273Y1107360D01*
X577226Y1113643D01*
X565904Y1122672D01*
X556875Y1133994D01*
X550592Y1147041D01*
X547369Y1161159D01*
X547369Y1216660D01*
X547354Y1216778D01*
X547347Y1216897D01*
X547334Y1216935D01*
X547329Y1216976D01*
X547286Y1217086D01*
X547249Y1217199D01*
X547227Y1217234D01*
X547212Y1217271D01*
X547143Y1217367D01*
X547079Y1217468D01*
X547049Y1217496D01*
X547026Y1217529D01*
X546934Y1217605D01*
X546847Y1217686D01*
X546812Y1217706D01*
X546781Y1217731D01*
X546673Y1217782D01*
X546569Y1217840D01*
X546529Y1217850D01*
X546493Y1217867D01*
X546376Y1217889D01*
X546261Y1217919D01*
X546201Y1217923D01*
X546181Y1217927D01*
X546160Y1217925D01*
X546100Y1217929D01*
X3810Y1217929D01*
X3692Y1217914D01*
X3573Y1217907D01*
X3535Y1217894D01*
X3494Y1217889D01*
X3384Y1217846D01*
X3271Y1217809D01*
X3236Y1217787D01*
X3199Y1217772D01*
X3103Y1217703D01*
X3002Y1217639D01*
X2974Y1217609D01*
X2941Y1217586D01*
X2865Y1217494D01*
X2784Y1217407D01*
X2764Y1217372D01*
X2739Y1217341D01*
X2688Y1217233D01*
X2630Y1217129D01*
X2620Y1217089D01*
X2603Y1217053D01*
X2581Y1216936D01*
X2551Y1216821D01*
X2547Y1216761D01*
X2543Y1216741D01*
X2545Y1216720D01*
X2541Y1216660D01*
X2541Y3810D01*
X2556Y3692D01*
X2563Y3573D01*
X2576Y3535D01*
X2581Y3494D01*
X2624Y3384D01*
X2661Y3271D01*
X2683Y3236D01*
X2698Y3199D01*
X2767Y3103D01*
X2831Y3002D01*
X2861Y2974D01*
X2884Y2941D01*
X2976Y2865D01*
X3063Y2784D01*
X3098Y2764D01*
X3129Y2739D01*
X3237Y2688D01*
X3341Y2630D01*
X3381Y2620D01*
X3417Y2603D01*
X3534Y2581D01*
X3649Y2551D01*
X3709Y2547D01*
X3729Y2543D01*
X3750Y2545D01*
X3810Y2541D01*
X546100Y2541D01*
X546218Y2556D01*
G37*
%LPC*%
G36*
X214814Y223138D02*
X214814Y223138D01*
X212806Y223970D01*
X211270Y225506D01*
X210438Y227514D01*
X210438Y229686D01*
X211231Y231599D01*
X211233Y231608D01*
X211238Y231617D01*
X211275Y231762D01*
X211315Y231906D01*
X211315Y231915D01*
X211317Y231924D01*
X211327Y232085D01*
X211327Y349458D01*
X211315Y349556D01*
X211312Y349656D01*
X211295Y349714D01*
X211287Y349774D01*
X211251Y349866D01*
X211223Y349961D01*
X211193Y350013D01*
X211170Y350070D01*
X211112Y350150D01*
X211062Y350235D01*
X210996Y350310D01*
X210984Y350327D01*
X210974Y350335D01*
X210956Y350356D01*
X199715Y361596D01*
X199715Y362339D01*
X199698Y362476D01*
X199685Y362615D01*
X199678Y362634D01*
X199675Y362654D01*
X199624Y362783D01*
X199577Y362914D01*
X199566Y362931D01*
X199558Y362950D01*
X199477Y363062D01*
X199399Y363177D01*
X199383Y363191D01*
X199372Y363207D01*
X199264Y363296D01*
X199160Y363388D01*
X199142Y363397D01*
X199127Y363410D01*
X199001Y363469D01*
X198877Y363533D01*
X198857Y363537D01*
X198839Y363546D01*
X198703Y363572D01*
X198567Y363602D01*
X198546Y363602D01*
X198527Y363605D01*
X198388Y363597D01*
X198249Y363593D01*
X198229Y363587D01*
X198209Y363586D01*
X198077Y363543D01*
X197943Y363504D01*
X197926Y363494D01*
X197907Y363488D01*
X197789Y363413D01*
X197669Y363343D01*
X197648Y363324D01*
X197638Y363317D01*
X197624Y363302D01*
X197549Y363236D01*
X195352Y361039D01*
X192204Y359735D01*
X188796Y359735D01*
X185648Y361039D01*
X183239Y363448D01*
X181935Y366596D01*
X181935Y370004D01*
X183239Y373152D01*
X185648Y375561D01*
X188796Y376865D01*
X192204Y376865D01*
X195352Y375561D01*
X197549Y373364D01*
X197658Y373279D01*
X197765Y373190D01*
X197784Y373181D01*
X197800Y373169D01*
X197928Y373113D01*
X198053Y373054D01*
X198073Y373051D01*
X198092Y373043D01*
X198230Y373021D01*
X198366Y372995D01*
X198386Y372996D01*
X198406Y372993D01*
X198545Y373006D01*
X198683Y373014D01*
X198702Y373021D01*
X198722Y373023D01*
X198854Y373070D01*
X198985Y373112D01*
X199003Y373123D01*
X199022Y373130D01*
X199137Y373208D01*
X199254Y373283D01*
X199268Y373297D01*
X199285Y373309D01*
X199377Y373413D01*
X199472Y373514D01*
X199482Y373532D01*
X199495Y373547D01*
X199559Y373671D01*
X199626Y373793D01*
X199631Y373812D01*
X199640Y373830D01*
X199670Y373966D01*
X199705Y374101D01*
X199707Y374129D01*
X199710Y374141D01*
X199709Y374161D01*
X199715Y374261D01*
X199715Y375004D01*
X210956Y386244D01*
X211016Y386322D01*
X211084Y386395D01*
X211110Y386441D01*
X211111Y386443D01*
X211113Y386448D01*
X211150Y386495D01*
X211190Y386586D01*
X211238Y386673D01*
X211253Y386732D01*
X211277Y386787D01*
X211292Y386885D01*
X211317Y386981D01*
X211323Y387081D01*
X211327Y387101D01*
X211325Y387114D01*
X211327Y387142D01*
X211327Y529583D01*
X211326Y529592D01*
X211327Y529601D01*
X211306Y529750D01*
X211287Y529899D01*
X211284Y529907D01*
X211283Y529916D01*
X211231Y530069D01*
X210311Y532288D01*
X210311Y564451D01*
X210299Y564549D01*
X210296Y564648D01*
X210279Y564706D01*
X210271Y564766D01*
X210235Y564858D01*
X210207Y564953D01*
X210177Y565006D01*
X210154Y565062D01*
X210096Y565142D01*
X210046Y565227D01*
X209980Y565303D01*
X209968Y565319D01*
X209958Y565327D01*
X209940Y565348D01*
X208639Y566648D01*
X207335Y569796D01*
X207335Y573204D01*
X208639Y576352D01*
X211048Y578761D01*
X214196Y580065D01*
X217604Y580065D01*
X220752Y578761D01*
X223161Y576352D01*
X224465Y573204D01*
X224465Y569796D01*
X223161Y566648D01*
X221860Y565348D01*
X221800Y565270D01*
X221732Y565198D01*
X221703Y565145D01*
X221666Y565097D01*
X221626Y565006D01*
X221578Y564919D01*
X221563Y564861D01*
X221539Y564805D01*
X221524Y564707D01*
X221499Y564611D01*
X221493Y564511D01*
X221489Y564491D01*
X221491Y564479D01*
X221489Y564451D01*
X221489Y536241D01*
X221501Y536142D01*
X221504Y536043D01*
X221521Y535985D01*
X221529Y535925D01*
X221565Y535833D01*
X221593Y535738D01*
X221623Y535686D01*
X221646Y535629D01*
X221704Y535549D01*
X221754Y535464D01*
X221820Y535389D01*
X221832Y535372D01*
X221842Y535364D01*
X221860Y535343D01*
X230543Y526660D01*
X230621Y526600D01*
X230694Y526532D01*
X230747Y526503D01*
X230794Y526466D01*
X230885Y526426D01*
X230972Y526378D01*
X231031Y526363D01*
X231086Y526339D01*
X231184Y526324D01*
X231280Y526299D01*
X231380Y526293D01*
X231400Y526289D01*
X231413Y526291D01*
X231441Y526289D01*
X809959Y526289D01*
X810058Y526301D01*
X810157Y526304D01*
X810215Y526321D01*
X810275Y526329D01*
X810367Y526365D01*
X810462Y526393D01*
X810514Y526423D01*
X810571Y526446D01*
X810651Y526504D01*
X810736Y526554D01*
X810811Y526620D01*
X810828Y526632D01*
X810836Y526642D01*
X810857Y526660D01*
X822080Y537883D01*
X822140Y537961D01*
X822208Y538034D01*
X822237Y538087D01*
X822274Y538134D01*
X822314Y538225D01*
X822362Y538312D01*
X822377Y538371D01*
X822401Y538426D01*
X822416Y538524D01*
X822441Y538620D01*
X822447Y538720D01*
X822451Y538740D01*
X822449Y538753D01*
X822451Y538781D01*
X822451Y854552D01*
X823302Y856606D01*
X824874Y858178D01*
X826928Y859029D01*
X829152Y859029D01*
X831206Y858178D01*
X832778Y856606D01*
X833629Y854552D01*
X833629Y534828D01*
X832778Y532774D01*
X815966Y515962D01*
X813912Y515111D01*
X227488Y515111D01*
X225434Y515962D01*
X223684Y517713D01*
X223683Y517713D01*
X222639Y518757D01*
X222560Y518818D01*
X222492Y518882D01*
X222459Y518901D01*
X222423Y518931D01*
X222404Y518939D01*
X222388Y518952D01*
X222285Y518996D01*
X222214Y519036D01*
X222182Y519044D01*
X222135Y519066D01*
X222115Y519070D01*
X222096Y519078D01*
X221975Y519097D01*
X221906Y519115D01*
X221866Y519118D01*
X221822Y519126D01*
X221802Y519125D01*
X221782Y519128D01*
X221751Y519125D01*
X221745Y519125D01*
X221742Y519125D01*
X221703Y519121D01*
X221643Y519115D01*
X221505Y519106D01*
X221486Y519100D01*
X221466Y519098D01*
X221433Y519086D01*
X221426Y519086D01*
X221384Y519069D01*
X221334Y519051D01*
X221203Y519008D01*
X221185Y518997D01*
X221166Y518991D01*
X221138Y518972D01*
X221131Y518969D01*
X221085Y518935D01*
X221051Y518913D01*
X220934Y518838D01*
X220920Y518823D01*
X220903Y518812D01*
X220882Y518788D01*
X220873Y518782D01*
X220827Y518725D01*
X220811Y518708D01*
X220716Y518607D01*
X220706Y518589D01*
X220693Y518574D01*
X220679Y518547D01*
X220671Y518537D01*
X220631Y518452D01*
X220630Y518450D01*
X220562Y518328D01*
X220557Y518308D01*
X220548Y518290D01*
X220542Y518264D01*
X220535Y518249D01*
X220515Y518144D01*
X220483Y518020D01*
X220481Y517992D01*
X220478Y517980D01*
X220479Y517959D01*
X220479Y517955D01*
X220475Y517937D01*
X220476Y517918D01*
X220473Y517859D01*
X220473Y382828D01*
X216676Y379031D01*
X216591Y378922D01*
X216503Y378815D01*
X216494Y378796D01*
X216481Y378780D01*
X216426Y378652D01*
X216367Y378527D01*
X216363Y378507D01*
X216355Y378488D01*
X216333Y378350D01*
X216307Y378214D01*
X216308Y378194D01*
X216305Y378174D01*
X216318Y378035D01*
X216327Y377897D01*
X216333Y377878D01*
X216335Y377858D01*
X216382Y377726D01*
X216425Y377595D01*
X216436Y377577D01*
X216443Y377558D01*
X216521Y377443D01*
X216595Y377326D01*
X216610Y377312D01*
X216621Y377295D01*
X216726Y377203D01*
X216827Y377108D01*
X216844Y377098D01*
X216860Y377085D01*
X216984Y377021D01*
X217105Y376954D01*
X217125Y376949D01*
X217143Y376940D01*
X217279Y376910D01*
X217413Y376875D01*
X217441Y376873D01*
X217453Y376870D01*
X217474Y376871D01*
X217574Y376865D01*
X217604Y376865D01*
X220752Y375561D01*
X223161Y373152D01*
X224465Y370004D01*
X224465Y366596D01*
X223161Y363448D01*
X220752Y361039D01*
X217604Y359735D01*
X217574Y359735D01*
X217436Y359718D01*
X217298Y359705D01*
X217278Y359698D01*
X217258Y359695D01*
X217129Y359644D01*
X216998Y359597D01*
X216981Y359586D01*
X216963Y359578D01*
X216850Y359497D01*
X216735Y359419D01*
X216722Y359403D01*
X216705Y359392D01*
X216617Y359284D01*
X216525Y359180D01*
X216515Y359162D01*
X216503Y359147D01*
X216443Y359021D01*
X216380Y358897D01*
X216376Y358877D01*
X216367Y358859D01*
X216341Y358723D01*
X216310Y358587D01*
X216311Y358566D01*
X216307Y358547D01*
X216316Y358408D01*
X216320Y358269D01*
X216326Y358249D01*
X216327Y358229D01*
X216370Y358097D01*
X216408Y357963D01*
X216419Y357946D01*
X216425Y357927D01*
X216500Y357809D01*
X216570Y357689D01*
X216589Y357668D01*
X216595Y357658D01*
X216610Y357644D01*
X216676Y357569D01*
X220473Y353772D01*
X220473Y232085D01*
X220474Y232076D01*
X220473Y232067D01*
X220494Y231918D01*
X220513Y231770D01*
X220516Y231761D01*
X220517Y231752D01*
X220569Y231599D01*
X221362Y229686D01*
X221362Y227514D01*
X220530Y225506D01*
X218994Y223970D01*
X216986Y223138D01*
X214814Y223138D01*
G37*
%LPD*%
%LPC*%
G36*
X87196Y359735D02*
X87196Y359735D01*
X84048Y361039D01*
X81639Y363448D01*
X80335Y366596D01*
X80335Y370004D01*
X81639Y373152D01*
X82940Y374452D01*
X83000Y374530D01*
X83068Y374602D01*
X83097Y374655D01*
X83134Y374703D01*
X83174Y374794D01*
X83222Y374881D01*
X83237Y374939D01*
X83261Y374995D01*
X83276Y375093D01*
X83301Y375189D01*
X83307Y375289D01*
X83311Y375309D01*
X83309Y375321D01*
X83311Y375349D01*
X83311Y585312D01*
X84162Y587366D01*
X98434Y601638D01*
X100488Y602489D01*
X174959Y602489D01*
X175058Y602501D01*
X175157Y602504D01*
X175215Y602521D01*
X175275Y602529D01*
X175367Y602565D01*
X175462Y602593D01*
X175514Y602623D01*
X175571Y602646D01*
X175651Y602704D01*
X175736Y602754D01*
X175811Y602820D01*
X175828Y602832D01*
X175836Y602842D01*
X175857Y602860D01*
X187080Y614083D01*
X187140Y614161D01*
X187208Y614234D01*
X187237Y614287D01*
X187274Y614334D01*
X187314Y614425D01*
X187362Y614512D01*
X187377Y614571D01*
X187401Y614626D01*
X187416Y614724D01*
X187441Y614820D01*
X187447Y614920D01*
X187451Y614940D01*
X187449Y614953D01*
X187451Y614981D01*
X187451Y923132D01*
X188302Y925186D01*
X207654Y944538D01*
X209708Y945389D01*
X521812Y945389D01*
X523866Y944538D01*
X538138Y930266D01*
X538989Y928212D01*
X538989Y907589D01*
X539001Y907491D01*
X539004Y907392D01*
X539021Y907333D01*
X539029Y907273D01*
X539065Y907181D01*
X539093Y907086D01*
X539123Y907034D01*
X539146Y906978D01*
X539204Y906897D01*
X539254Y906812D01*
X539320Y906737D01*
X539332Y906720D01*
X539342Y906712D01*
X539360Y906691D01*
X540025Y906027D01*
X541215Y903154D01*
X541215Y900046D01*
X540025Y897173D01*
X537827Y894975D01*
X534954Y893785D01*
X531846Y893785D01*
X528973Y894975D01*
X526775Y897173D01*
X525585Y900046D01*
X525585Y903154D01*
X526775Y906027D01*
X527440Y906691D01*
X527500Y906770D01*
X527568Y906842D01*
X527597Y906895D01*
X527634Y906943D01*
X527674Y907033D01*
X527722Y907120D01*
X527737Y907179D01*
X527761Y907234D01*
X527776Y907332D01*
X527801Y907428D01*
X527807Y907528D01*
X527811Y907548D01*
X527809Y907561D01*
X527811Y907589D01*
X527811Y924259D01*
X527799Y924358D01*
X527796Y924457D01*
X527779Y924515D01*
X527771Y924575D01*
X527735Y924667D01*
X527707Y924762D01*
X527677Y924814D01*
X527654Y924871D01*
X527596Y924951D01*
X527546Y925036D01*
X527480Y925111D01*
X527468Y925128D01*
X527458Y925136D01*
X527440Y925157D01*
X518757Y933840D01*
X518679Y933900D01*
X518606Y933968D01*
X518553Y933997D01*
X518506Y934034D01*
X518415Y934074D01*
X518328Y934122D01*
X518269Y934137D01*
X518214Y934161D01*
X518116Y934176D01*
X518020Y934201D01*
X517920Y934207D01*
X517900Y934211D01*
X517887Y934209D01*
X517859Y934211D01*
X213661Y934211D01*
X213562Y934199D01*
X213463Y934196D01*
X213405Y934179D01*
X213345Y934171D01*
X213253Y934135D01*
X213158Y934107D01*
X213106Y934077D01*
X213049Y934054D01*
X212969Y933996D01*
X212884Y933946D01*
X212809Y933880D01*
X212792Y933868D01*
X212784Y933858D01*
X212763Y933840D01*
X199000Y920077D01*
X198940Y919999D01*
X198872Y919926D01*
X198843Y919873D01*
X198806Y919826D01*
X198766Y919735D01*
X198718Y919648D01*
X198703Y919589D01*
X198679Y919534D01*
X198664Y919436D01*
X198639Y919340D01*
X198633Y919240D01*
X198629Y919220D01*
X198631Y919207D01*
X198629Y919179D01*
X198629Y611028D01*
X197778Y608974D01*
X180966Y592162D01*
X178912Y591311D01*
X104441Y591311D01*
X104342Y591299D01*
X104243Y591296D01*
X104185Y591279D01*
X104125Y591271D01*
X104033Y591235D01*
X103938Y591207D01*
X103886Y591177D01*
X103829Y591154D01*
X103749Y591096D01*
X103664Y591046D01*
X103589Y590980D01*
X103572Y590968D01*
X103564Y590958D01*
X103543Y590940D01*
X94860Y582257D01*
X94800Y582179D01*
X94732Y582106D01*
X94703Y582053D01*
X94666Y582006D01*
X94626Y581915D01*
X94578Y581828D01*
X94563Y581769D01*
X94539Y581714D01*
X94524Y581616D01*
X94499Y581520D01*
X94493Y581420D01*
X94489Y581400D01*
X94491Y581387D01*
X94489Y581359D01*
X94489Y375349D01*
X94501Y375251D01*
X94504Y375152D01*
X94521Y375094D01*
X94529Y375034D01*
X94565Y374942D01*
X94593Y374847D01*
X94623Y374794D01*
X94646Y374738D01*
X94704Y374658D01*
X94754Y374573D01*
X94820Y374497D01*
X94832Y374481D01*
X94842Y374473D01*
X94860Y374452D01*
X96161Y373152D01*
X97465Y370004D01*
X97465Y366596D01*
X96161Y363448D01*
X93752Y361039D01*
X90604Y359735D01*
X87196Y359735D01*
G37*
%LPD*%
%LPC*%
G36*
X278314Y337438D02*
X278314Y337438D01*
X276306Y338270D01*
X274770Y339806D01*
X273938Y341814D01*
X273938Y343986D01*
X274770Y345994D01*
X276306Y347530D01*
X278314Y348362D01*
X280486Y348362D01*
X282399Y347569D01*
X282408Y347567D01*
X282417Y347562D01*
X282562Y347525D01*
X282706Y347485D01*
X282715Y347485D01*
X282724Y347483D01*
X282885Y347473D01*
X1073658Y347473D01*
X1073776Y347488D01*
X1073895Y347495D01*
X1073933Y347508D01*
X1073974Y347513D01*
X1074084Y347556D01*
X1074197Y347593D01*
X1074232Y347615D01*
X1074269Y347630D01*
X1074365Y347699D01*
X1074466Y347763D01*
X1074494Y347793D01*
X1074527Y347816D01*
X1074603Y347908D01*
X1074684Y347995D01*
X1074704Y348030D01*
X1074729Y348061D01*
X1074780Y348169D01*
X1074838Y348273D01*
X1074848Y348313D01*
X1074865Y348349D01*
X1074887Y348466D01*
X1074917Y348581D01*
X1074921Y348641D01*
X1074925Y348661D01*
X1074923Y348682D01*
X1074927Y348742D01*
X1074927Y476575D01*
X1074926Y476584D01*
X1074927Y476593D01*
X1074906Y476742D01*
X1074887Y476890D01*
X1074884Y476899D01*
X1074883Y476908D01*
X1074831Y477061D01*
X1074038Y478974D01*
X1074038Y481146D01*
X1074870Y483154D01*
X1076406Y484690D01*
X1078414Y485522D01*
X1080586Y485522D01*
X1082594Y484690D01*
X1084130Y483154D01*
X1084962Y481146D01*
X1084962Y478974D01*
X1084169Y477061D01*
X1084167Y477052D01*
X1084162Y477043D01*
X1084125Y476898D01*
X1084085Y476754D01*
X1084085Y476745D01*
X1084083Y476736D01*
X1084073Y476575D01*
X1084073Y346385D01*
X1084074Y346376D01*
X1084073Y346367D01*
X1084094Y346217D01*
X1084113Y346070D01*
X1084116Y346061D01*
X1084117Y346052D01*
X1084169Y345899D01*
X1084962Y343986D01*
X1084962Y341814D01*
X1084130Y339806D01*
X1082594Y338270D01*
X1080586Y337438D01*
X1078414Y337438D01*
X1076501Y338231D01*
X1076492Y338233D01*
X1076483Y338238D01*
X1076338Y338275D01*
X1076194Y338315D01*
X1076185Y338315D01*
X1076176Y338317D01*
X1076015Y338327D01*
X282885Y338327D01*
X282876Y338326D01*
X282867Y338327D01*
X282718Y338306D01*
X282570Y338287D01*
X282561Y338284D01*
X282552Y338283D01*
X282399Y338231D01*
X280486Y337438D01*
X278314Y337438D01*
G37*
%LPD*%
%LPC*%
G36*
X948874Y779398D02*
X948874Y779398D01*
X946866Y780230D01*
X945330Y781766D01*
X944498Y783774D01*
X944498Y785946D01*
X945291Y787859D01*
X945293Y787868D01*
X945298Y787877D01*
X945335Y788022D01*
X945375Y788166D01*
X945375Y788175D01*
X945377Y788184D01*
X945387Y788345D01*
X945387Y868800D01*
X945375Y868898D01*
X945372Y868997D01*
X945355Y869056D01*
X945347Y869116D01*
X945311Y869208D01*
X945283Y869303D01*
X945253Y869355D01*
X945230Y869411D01*
X945172Y869491D01*
X945122Y869577D01*
X945056Y869652D01*
X945044Y869669D01*
X945034Y869677D01*
X945016Y869698D01*
X943358Y871356D01*
X943279Y871416D01*
X943207Y871484D01*
X943154Y871513D01*
X943106Y871550D01*
X943015Y871590D01*
X942929Y871638D01*
X942870Y871653D01*
X942815Y871677D01*
X942717Y871692D01*
X942621Y871717D01*
X942521Y871723D01*
X942500Y871727D01*
X942488Y871725D01*
X942460Y871727D01*
X676585Y871727D01*
X676576Y871726D01*
X676567Y871727D01*
X676418Y871706D01*
X676270Y871687D01*
X676261Y871684D01*
X676252Y871683D01*
X676099Y871631D01*
X674186Y870838D01*
X672014Y870838D01*
X670006Y871670D01*
X668470Y873206D01*
X667638Y875214D01*
X667638Y877386D01*
X668470Y879394D01*
X670006Y880930D01*
X672014Y881762D01*
X674186Y881762D01*
X676099Y880969D01*
X676108Y880967D01*
X676117Y880962D01*
X676262Y880925D01*
X676406Y880885D01*
X676415Y880885D01*
X676424Y880883D01*
X676585Y880873D01*
X946774Y880873D01*
X954533Y873114D01*
X954533Y788345D01*
X954534Y788336D01*
X954533Y788327D01*
X954554Y788178D01*
X954573Y788030D01*
X954576Y788021D01*
X954577Y788012D01*
X954629Y787859D01*
X955422Y785946D01*
X955422Y783774D01*
X954590Y781766D01*
X953054Y780230D01*
X951046Y779398D01*
X948874Y779398D01*
G37*
%LPD*%
%LPC*%
G36*
X417396Y562935D02*
X417396Y562935D01*
X414248Y564239D01*
X411839Y566648D01*
X410535Y569796D01*
X410535Y573204D01*
X411839Y576352D01*
X414156Y578668D01*
X414216Y578746D01*
X414284Y578818D01*
X414313Y578871D01*
X414350Y578919D01*
X414390Y579010D01*
X414438Y579097D01*
X414453Y579155D01*
X414477Y579211D01*
X414492Y579309D01*
X414517Y579405D01*
X414523Y579505D01*
X414527Y579525D01*
X414525Y579537D01*
X414527Y579565D01*
X414527Y910915D01*
X414526Y910924D01*
X414527Y910933D01*
X414506Y911081D01*
X414487Y911230D01*
X414484Y911239D01*
X414483Y911248D01*
X414431Y911401D01*
X413638Y913314D01*
X413638Y915486D01*
X414470Y917494D01*
X416006Y919030D01*
X418014Y919862D01*
X420186Y919862D01*
X422194Y919030D01*
X423730Y917494D01*
X424562Y915486D01*
X424562Y913314D01*
X423769Y911401D01*
X423767Y911392D01*
X423762Y911384D01*
X423725Y911238D01*
X423685Y911094D01*
X423685Y911085D01*
X423683Y911076D01*
X423673Y910915D01*
X423673Y579565D01*
X423685Y579467D01*
X423688Y579368D01*
X423705Y579310D01*
X423713Y579250D01*
X423749Y579158D01*
X423777Y579063D01*
X423807Y579010D01*
X423830Y578954D01*
X423888Y578874D01*
X423938Y578789D01*
X424004Y578713D01*
X424016Y578697D01*
X424026Y578689D01*
X424044Y578668D01*
X426361Y576352D01*
X427665Y573204D01*
X427665Y569796D01*
X426361Y566648D01*
X423952Y564239D01*
X420804Y562935D01*
X417396Y562935D01*
G37*
%LPD*%
%LPC*%
G36*
X1103814Y642238D02*
X1103814Y642238D01*
X1101806Y643070D01*
X1100270Y644606D01*
X1099438Y646614D01*
X1099438Y648786D01*
X1100231Y650699D01*
X1100233Y650708D01*
X1100238Y650717D01*
X1100275Y650862D01*
X1100315Y651006D01*
X1100315Y651015D01*
X1100317Y651024D01*
X1100327Y651185D01*
X1100327Y687694D01*
X1115706Y703073D01*
X1153694Y703073D01*
X1153763Y703081D01*
X1153833Y703080D01*
X1153920Y703101D01*
X1154010Y703113D01*
X1154074Y703138D01*
X1154142Y703155D01*
X1154222Y703197D01*
X1154305Y703230D01*
X1154362Y703271D01*
X1154423Y703303D01*
X1154490Y703364D01*
X1154563Y703416D01*
X1154607Y703470D01*
X1154659Y703517D01*
X1154708Y703592D01*
X1154765Y703661D01*
X1154795Y703725D01*
X1154833Y703783D01*
X1154863Y703868D01*
X1154901Y703949D01*
X1154914Y704018D01*
X1154937Y704084D01*
X1154944Y704173D01*
X1154961Y704261D01*
X1154956Y704331D01*
X1154962Y704401D01*
X1154946Y704489D01*
X1154941Y704579D01*
X1154919Y704645D01*
X1154907Y704714D01*
X1154871Y704796D01*
X1154843Y704881D01*
X1154806Y704940D01*
X1154777Y705004D01*
X1154721Y705074D01*
X1154673Y705150D01*
X1154622Y705198D01*
X1154578Y705252D01*
X1154507Y705307D01*
X1154441Y705368D01*
X1154380Y705402D01*
X1154324Y705444D01*
X1154180Y705515D01*
X1150924Y706863D01*
X1146029Y711758D01*
X1143380Y718153D01*
X1143380Y725075D01*
X1146029Y731470D01*
X1150924Y736365D01*
X1157319Y739014D01*
X1164241Y739014D01*
X1170636Y736365D01*
X1175531Y731470D01*
X1178180Y725075D01*
X1178180Y718153D01*
X1175531Y711758D01*
X1170636Y706863D01*
X1167380Y705515D01*
X1167320Y705480D01*
X1167255Y705454D01*
X1167182Y705402D01*
X1167104Y705357D01*
X1167054Y705309D01*
X1166997Y705268D01*
X1166940Y705198D01*
X1166876Y705136D01*
X1166839Y705076D01*
X1166795Y705023D01*
X1166756Y704941D01*
X1166709Y704865D01*
X1166689Y704798D01*
X1166659Y704735D01*
X1166642Y704647D01*
X1166616Y704561D01*
X1166612Y704491D01*
X1166599Y704422D01*
X1166605Y704333D01*
X1166601Y704243D01*
X1166615Y704175D01*
X1166619Y704105D01*
X1166647Y704020D01*
X1166665Y703932D01*
X1166696Y703869D01*
X1166717Y703803D01*
X1166765Y703727D01*
X1166805Y703646D01*
X1166850Y703593D01*
X1166887Y703534D01*
X1166953Y703472D01*
X1167011Y703404D01*
X1167068Y703364D01*
X1167119Y703316D01*
X1167197Y703273D01*
X1167271Y703221D01*
X1167336Y703196D01*
X1167397Y703162D01*
X1167484Y703140D01*
X1167568Y703108D01*
X1167638Y703100D01*
X1167705Y703083D01*
X1167866Y703073D01*
X1185602Y703073D01*
X1185700Y703085D01*
X1185799Y703088D01*
X1185858Y703105D01*
X1185918Y703113D01*
X1186010Y703149D01*
X1186105Y703177D01*
X1186157Y703207D01*
X1186213Y703230D01*
X1186293Y703288D01*
X1186379Y703338D01*
X1186454Y703404D01*
X1186471Y703416D01*
X1186478Y703426D01*
X1186500Y703444D01*
X1188692Y705637D01*
X1192006Y707010D01*
X1195594Y707010D01*
X1198908Y705637D01*
X1201445Y703100D01*
X1202818Y699786D01*
X1202818Y696198D01*
X1201445Y692884D01*
X1198908Y690347D01*
X1195594Y688974D01*
X1192006Y688974D01*
X1188692Y690347D01*
X1186155Y692884D01*
X1186048Y693144D01*
X1186033Y693169D01*
X1186024Y693197D01*
X1185954Y693307D01*
X1185890Y693420D01*
X1185869Y693441D01*
X1185854Y693466D01*
X1185759Y693555D01*
X1185669Y693648D01*
X1185644Y693664D01*
X1185622Y693684D01*
X1185508Y693747D01*
X1185398Y693815D01*
X1185369Y693823D01*
X1185343Y693838D01*
X1185218Y693870D01*
X1185094Y693908D01*
X1185064Y693910D01*
X1185036Y693917D01*
X1184875Y693927D01*
X1120020Y693927D01*
X1119922Y693915D01*
X1119823Y693912D01*
X1119764Y693895D01*
X1119704Y693887D01*
X1119612Y693851D01*
X1119517Y693823D01*
X1119465Y693793D01*
X1119409Y693770D01*
X1119329Y693712D01*
X1119243Y693662D01*
X1119168Y693596D01*
X1119151Y693584D01*
X1119143Y693574D01*
X1119122Y693556D01*
X1109844Y684278D01*
X1109784Y684199D01*
X1109716Y684127D01*
X1109687Y684074D01*
X1109650Y684026D01*
X1109610Y683935D01*
X1109562Y683849D01*
X1109547Y683790D01*
X1109523Y683735D01*
X1109508Y683637D01*
X1109483Y683541D01*
X1109477Y683441D01*
X1109473Y683420D01*
X1109475Y683408D01*
X1109473Y683380D01*
X1109473Y651185D01*
X1109474Y651176D01*
X1109473Y651167D01*
X1109494Y651018D01*
X1109513Y650870D01*
X1109516Y650861D01*
X1109517Y650852D01*
X1109569Y650699D01*
X1110362Y648786D01*
X1110362Y646614D01*
X1109530Y644606D01*
X1107994Y643070D01*
X1105986Y642238D01*
X1103814Y642238D01*
G37*
%LPD*%
%LPC*%
G36*
X240214Y540638D02*
X240214Y540638D01*
X238206Y541470D01*
X236670Y543006D01*
X235838Y545014D01*
X235838Y547186D01*
X236670Y549194D01*
X238206Y550730D01*
X240214Y551562D01*
X242386Y551562D01*
X244299Y550769D01*
X244308Y550767D01*
X244317Y550762D01*
X244462Y550725D01*
X244606Y550685D01*
X244615Y550685D01*
X244624Y550683D01*
X244785Y550673D01*
X429380Y550673D01*
X429478Y550685D01*
X429577Y550688D01*
X429636Y550705D01*
X429696Y550713D01*
X429788Y550749D01*
X429883Y550777D01*
X429935Y550807D01*
X429991Y550830D01*
X430071Y550888D01*
X430157Y550938D01*
X430232Y551004D01*
X430249Y551016D01*
X430257Y551026D01*
X430278Y551044D01*
X439556Y560322D01*
X439616Y560401D01*
X439684Y560473D01*
X439713Y560526D01*
X439750Y560574D01*
X439790Y560665D01*
X439838Y560751D01*
X439853Y560810D01*
X439877Y560865D01*
X439892Y560963D01*
X439917Y561059D01*
X439923Y561159D01*
X439927Y561180D01*
X439925Y561192D01*
X439927Y561220D01*
X439927Y563435D01*
X439915Y563533D01*
X439912Y563632D01*
X439895Y563690D01*
X439887Y563750D01*
X439851Y563842D01*
X439823Y563937D01*
X439793Y563990D01*
X439770Y564046D01*
X439712Y564126D01*
X439662Y564211D01*
X439596Y564287D01*
X439584Y564303D01*
X439574Y564311D01*
X439556Y564332D01*
X437239Y566648D01*
X435935Y569796D01*
X435935Y573204D01*
X437239Y576352D01*
X439648Y578761D01*
X442796Y580065D01*
X446204Y580065D01*
X449352Y578761D01*
X451761Y576352D01*
X453065Y573204D01*
X453065Y569796D01*
X451761Y566648D01*
X449444Y564332D01*
X449384Y564254D01*
X449316Y564182D01*
X449287Y564129D01*
X449250Y564081D01*
X449210Y563990D01*
X449162Y563903D01*
X449147Y563845D01*
X449123Y563789D01*
X449108Y563691D01*
X449083Y563595D01*
X449077Y563495D01*
X449073Y563475D01*
X449075Y563463D01*
X449073Y563435D01*
X449073Y556906D01*
X433694Y541527D01*
X244785Y541527D01*
X244776Y541526D01*
X244767Y541527D01*
X244618Y541506D01*
X244470Y541487D01*
X244461Y541484D01*
X244452Y541483D01*
X244299Y541431D01*
X242386Y540638D01*
X240214Y540638D01*
G37*
%LPD*%
%LPC*%
G36*
X928950Y972057D02*
X928950Y972057D01*
X921575Y975112D01*
X915930Y980757D01*
X912875Y988132D01*
X912875Y996116D01*
X915930Y1003491D01*
X921575Y1009136D01*
X928950Y1012191D01*
X936934Y1012191D01*
X944309Y1009136D01*
X949954Y1003491D01*
X953009Y996116D01*
X953009Y988132D01*
X949954Y980757D01*
X944309Y975112D01*
X936934Y972057D01*
X928950Y972057D01*
G37*
%LPD*%
%LPC*%
G36*
X928950Y208025D02*
X928950Y208025D01*
X921575Y211080D01*
X915930Y216725D01*
X912875Y224100D01*
X912875Y232084D01*
X915930Y239459D01*
X921575Y245104D01*
X928950Y248159D01*
X936934Y248159D01*
X944309Y245104D01*
X949954Y239459D01*
X953009Y232084D01*
X953009Y224100D01*
X949954Y216725D01*
X944309Y211080D01*
X936934Y208025D01*
X928950Y208025D01*
G37*
%LPD*%
%LPC*%
G36*
X607386Y972057D02*
X607386Y972057D01*
X600011Y975112D01*
X594366Y980757D01*
X591311Y988132D01*
X591311Y996116D01*
X594366Y1003491D01*
X600011Y1009136D01*
X607386Y1012191D01*
X615370Y1012191D01*
X622745Y1009136D01*
X628390Y1003491D01*
X631445Y996116D01*
X631445Y988132D01*
X628390Y980757D01*
X622745Y975112D01*
X615370Y972057D01*
X607386Y972057D01*
G37*
%LPD*%
%LPC*%
G36*
X286076Y972057D02*
X286076Y972057D01*
X278701Y975112D01*
X273056Y980757D01*
X270001Y988132D01*
X270001Y996116D01*
X273056Y1003491D01*
X278701Y1009136D01*
X286076Y1012191D01*
X294060Y1012191D01*
X301435Y1009136D01*
X307080Y1003491D01*
X310135Y996116D01*
X310135Y988132D01*
X307080Y980757D01*
X301435Y975112D01*
X294060Y972057D01*
X286076Y972057D01*
G37*
%LPD*%
%LPC*%
G36*
X286076Y208025D02*
X286076Y208025D01*
X278701Y211080D01*
X273056Y216725D01*
X270001Y224100D01*
X270001Y232084D01*
X273056Y239459D01*
X278701Y245104D01*
X286076Y248159D01*
X294060Y248159D01*
X301435Y245104D01*
X307080Y239459D01*
X310135Y232084D01*
X310135Y224100D01*
X307080Y216725D01*
X301435Y211080D01*
X294060Y208025D01*
X286076Y208025D01*
G37*
%LPD*%
%LPC*%
G36*
X607386Y208025D02*
X607386Y208025D01*
X600011Y211080D01*
X594366Y216725D01*
X591311Y224100D01*
X591311Y232084D01*
X594366Y239459D01*
X600011Y245104D01*
X607386Y248159D01*
X615370Y248159D01*
X622745Y245104D01*
X628390Y239459D01*
X631445Y232084D01*
X631445Y224100D01*
X628390Y216725D01*
X622745Y211080D01*
X615370Y208025D01*
X607386Y208025D01*
G37*
%LPD*%
%LPC*%
G36*
X1157319Y607186D02*
X1157319Y607186D01*
X1150924Y609835D01*
X1146029Y614730D01*
X1143380Y621125D01*
X1143380Y628047D01*
X1146029Y634442D01*
X1150924Y639337D01*
X1157319Y641986D01*
X1164241Y641986D01*
X1170636Y639337D01*
X1175531Y634442D01*
X1178180Y628047D01*
X1178180Y621125D01*
X1175531Y614730D01*
X1170636Y609835D01*
X1164241Y607186D01*
X1157319Y607186D01*
G37*
%LPD*%
%LPC*%
G36*
X36016Y238442D02*
X36016Y238442D01*
X32165Y240037D01*
X29217Y242985D01*
X27622Y246836D01*
X27622Y251004D01*
X28661Y253514D01*
X28688Y253610D01*
X28723Y253702D01*
X28729Y253763D01*
X28745Y253821D01*
X28747Y253920D01*
X28758Y254018D01*
X28749Y254078D01*
X28750Y254139D01*
X28727Y254235D01*
X28714Y254333D01*
X28681Y254428D01*
X28676Y254448D01*
X28671Y254459D01*
X28661Y254486D01*
X27622Y256996D01*
X27622Y261164D01*
X29217Y265015D01*
X32165Y267963D01*
X36016Y269558D01*
X40184Y269558D01*
X44035Y267963D01*
X46983Y265015D01*
X48578Y261164D01*
X48578Y256996D01*
X47539Y254486D01*
X47512Y254390D01*
X47477Y254298D01*
X47471Y254237D01*
X47455Y254179D01*
X47453Y254080D01*
X47442Y253982D01*
X47451Y253922D01*
X47450Y253861D01*
X47473Y253765D01*
X47486Y253667D01*
X47519Y253572D01*
X47524Y253552D01*
X47529Y253541D01*
X47539Y253514D01*
X48578Y251004D01*
X48578Y246836D01*
X46983Y242985D01*
X44035Y240037D01*
X40184Y238442D01*
X36016Y238442D01*
G37*
%LPD*%
%LPC*%
G36*
X1166115Y422084D02*
X1166115Y422084D01*
X1161424Y424027D01*
X1157833Y427618D01*
X1155890Y432309D01*
X1155890Y437387D01*
X1157833Y442078D01*
X1161424Y445669D01*
X1166115Y447612D01*
X1171193Y447612D01*
X1175884Y445669D01*
X1179475Y442078D01*
X1181418Y437387D01*
X1181418Y432309D01*
X1179475Y427618D01*
X1175884Y424027D01*
X1171193Y422084D01*
X1166115Y422084D01*
G37*
%LPD*%
%LPC*%
G36*
X1166115Y492188D02*
X1166115Y492188D01*
X1161424Y494131D01*
X1157833Y497722D01*
X1155890Y502413D01*
X1155890Y507491D01*
X1157833Y512182D01*
X1161424Y515773D01*
X1166115Y517716D01*
X1171193Y517716D01*
X1175884Y515773D01*
X1179475Y512182D01*
X1181418Y507491D01*
X1181418Y502413D01*
X1179475Y497722D01*
X1175884Y494131D01*
X1171193Y492188D01*
X1166115Y492188D01*
G37*
%LPD*%
%LPC*%
G36*
X137982Y174751D02*
X137982Y174751D01*
X134808Y176066D01*
X132378Y178496D01*
X131063Y181670D01*
X131063Y199330D01*
X132378Y202504D01*
X134808Y204934D01*
X137982Y206249D01*
X141418Y206249D01*
X144592Y204934D01*
X147022Y202504D01*
X148337Y199330D01*
X148337Y181670D01*
X147022Y178496D01*
X144592Y176066D01*
X141418Y174751D01*
X137982Y174751D01*
G37*
%LPD*%
%LPC*%
G36*
X137982Y1038351D02*
X137982Y1038351D01*
X134808Y1039666D01*
X132378Y1042096D01*
X131063Y1045270D01*
X131063Y1062930D01*
X132378Y1066104D01*
X134808Y1068534D01*
X137982Y1069849D01*
X141418Y1069849D01*
X144592Y1068534D01*
X147022Y1066104D01*
X148337Y1062930D01*
X148337Y1045270D01*
X147022Y1042096D01*
X144592Y1039666D01*
X141418Y1038351D01*
X137982Y1038351D01*
G37*
%LPD*%
%LPC*%
G36*
X163382Y174751D02*
X163382Y174751D01*
X160208Y176066D01*
X157778Y178496D01*
X156463Y181670D01*
X156463Y199330D01*
X157778Y202504D01*
X160208Y204934D01*
X163382Y206249D01*
X166818Y206249D01*
X169992Y204934D01*
X172422Y202504D01*
X173737Y199330D01*
X173737Y181670D01*
X172422Y178496D01*
X169992Y176066D01*
X166818Y174751D01*
X163382Y174751D01*
G37*
%LPD*%
%LPC*%
G36*
X188782Y1038351D02*
X188782Y1038351D01*
X185608Y1039666D01*
X183178Y1042096D01*
X181863Y1045270D01*
X181863Y1062930D01*
X183178Y1066104D01*
X185608Y1068534D01*
X188782Y1069849D01*
X192218Y1069849D01*
X195392Y1068534D01*
X197822Y1066104D01*
X199137Y1062930D01*
X199137Y1045270D01*
X197822Y1042096D01*
X195392Y1039666D01*
X192218Y1038351D01*
X188782Y1038351D01*
G37*
%LPD*%
%LPC*%
G36*
X76184Y244982D02*
X76184Y244982D01*
X72870Y246355D01*
X70333Y248892D01*
X68960Y252206D01*
X68960Y255794D01*
X70333Y259108D01*
X72870Y261645D01*
X76184Y263018D01*
X79772Y263018D01*
X82572Y261858D01*
X82668Y261832D01*
X82760Y261796D01*
X82821Y261790D01*
X82879Y261774D01*
X82978Y261772D01*
X83076Y261761D01*
X83136Y261770D01*
X83197Y261769D01*
X83293Y261792D01*
X83391Y261806D01*
X83486Y261838D01*
X83506Y261843D01*
X83517Y261849D01*
X83544Y261858D01*
X86344Y263018D01*
X89932Y263018D01*
X93246Y261645D01*
X95783Y259108D01*
X97156Y255794D01*
X97156Y252206D01*
X95783Y248892D01*
X93246Y246355D01*
X89932Y244982D01*
X86344Y244982D01*
X83544Y246142D01*
X83537Y246144D01*
X83532Y246147D01*
X83447Y246169D01*
X83356Y246204D01*
X83295Y246210D01*
X83237Y246226D01*
X83224Y246226D01*
X83224Y246227D01*
X83063Y246237D01*
X83058Y246237D01*
X83040Y246239D01*
X82980Y246230D01*
X82919Y246231D01*
X82823Y246208D01*
X82788Y246203D01*
X82737Y246197D01*
X82734Y246196D01*
X82725Y246194D01*
X82630Y246162D01*
X82610Y246157D01*
X82599Y246151D01*
X82572Y246142D01*
X79772Y244982D01*
X76184Y244982D01*
G37*
%LPD*%
%LPC*%
G36*
X51664Y814459D02*
X51664Y814459D01*
X47606Y816140D01*
X44500Y819246D01*
X42819Y823304D01*
X42819Y827696D01*
X44500Y831754D01*
X47606Y834860D01*
X51664Y836541D01*
X56056Y836541D01*
X60114Y834860D01*
X63220Y831754D01*
X64901Y827696D01*
X64901Y823304D01*
X63220Y819246D01*
X60114Y816140D01*
X56056Y814459D01*
X51664Y814459D01*
G37*
%LPD*%
%LPC*%
G36*
X121664Y814459D02*
X121664Y814459D01*
X117606Y816140D01*
X114500Y819246D01*
X112819Y823304D01*
X112819Y827696D01*
X114500Y831754D01*
X117606Y834860D01*
X121664Y836541D01*
X126056Y836541D01*
X130114Y834860D01*
X133220Y831754D01*
X134901Y827696D01*
X134901Y823304D01*
X133220Y819246D01*
X130114Y816140D01*
X126056Y814459D01*
X121664Y814459D01*
G37*
%LPD*%
%LPC*%
G36*
X1098224Y852559D02*
X1098224Y852559D01*
X1094166Y854240D01*
X1091060Y857346D01*
X1089379Y861404D01*
X1089379Y865796D01*
X1091060Y869854D01*
X1094166Y872960D01*
X1098224Y874641D01*
X1102616Y874641D01*
X1106674Y872960D01*
X1109780Y869854D01*
X1111461Y865796D01*
X1111461Y861404D01*
X1109780Y857346D01*
X1106674Y854240D01*
X1102616Y852559D01*
X1098224Y852559D01*
G37*
%LPD*%
%LPC*%
G36*
X1168224Y852559D02*
X1168224Y852559D01*
X1164166Y854240D01*
X1161060Y857346D01*
X1159379Y861404D01*
X1159379Y865796D01*
X1161060Y869854D01*
X1164166Y872960D01*
X1168224Y874641D01*
X1172616Y874641D01*
X1176674Y872960D01*
X1179780Y869854D01*
X1181461Y865796D01*
X1181461Y861404D01*
X1179780Y857346D01*
X1176674Y854240D01*
X1172616Y852559D01*
X1168224Y852559D01*
G37*
%LPD*%
%LPC*%
G36*
X121664Y954159D02*
X121664Y954159D01*
X117606Y955840D01*
X114500Y958946D01*
X112819Y963004D01*
X112819Y967396D01*
X114500Y971454D01*
X117606Y974560D01*
X121664Y976241D01*
X126056Y976241D01*
X130114Y974560D01*
X133220Y971454D01*
X134901Y967396D01*
X134901Y963004D01*
X133220Y958946D01*
X130114Y955840D01*
X126056Y954159D01*
X121664Y954159D01*
G37*
%LPD*%
%LPC*%
G36*
X121664Y674759D02*
X121664Y674759D01*
X117606Y676440D01*
X114500Y679546D01*
X112819Y683604D01*
X112819Y687996D01*
X114500Y692054D01*
X117606Y695160D01*
X121664Y696841D01*
X126056Y696841D01*
X130114Y695160D01*
X133220Y692054D01*
X134901Y687996D01*
X134901Y683604D01*
X133220Y679546D01*
X130114Y676440D01*
X126056Y674759D01*
X121664Y674759D01*
G37*
%LPD*%
%LPC*%
G36*
X51664Y674759D02*
X51664Y674759D01*
X47606Y676440D01*
X44500Y679546D01*
X42819Y683604D01*
X42819Y687996D01*
X44500Y692054D01*
X47606Y695160D01*
X51664Y696841D01*
X56056Y696841D01*
X60114Y695160D01*
X63220Y692054D01*
X64901Y687996D01*
X64901Y683604D01*
X63220Y679546D01*
X60114Y676440D01*
X56056Y674759D01*
X51664Y674759D01*
G37*
%LPD*%
%LPC*%
G36*
X51664Y954159D02*
X51664Y954159D01*
X47606Y955840D01*
X44500Y958946D01*
X42819Y963004D01*
X42819Y967396D01*
X44500Y971454D01*
X47606Y974560D01*
X51664Y976241D01*
X56056Y976241D01*
X60114Y974560D01*
X63220Y971454D01*
X64901Y967396D01*
X64901Y963004D01*
X63220Y958946D01*
X60114Y955840D01*
X56056Y954159D01*
X51664Y954159D01*
G37*
%LPD*%
%LPC*%
G36*
X1189758Y438149D02*
X1189758Y438149D01*
X1184401Y443506D01*
X1184401Y451082D01*
X1189758Y456439D01*
X1197334Y456439D01*
X1202691Y451082D01*
X1202691Y443506D01*
X1197334Y438149D01*
X1189758Y438149D01*
G37*
%LPD*%
%LPC*%
G36*
X1192006Y664082D02*
X1192006Y664082D01*
X1188692Y665455D01*
X1186155Y667992D01*
X1184782Y671306D01*
X1184782Y674894D01*
X1186155Y678208D01*
X1188692Y680745D01*
X1192006Y682118D01*
X1195594Y682118D01*
X1198908Y680745D01*
X1201445Y678208D01*
X1202818Y674894D01*
X1202818Y671306D01*
X1201445Y667992D01*
X1198908Y665455D01*
X1195594Y664082D01*
X1192006Y664082D01*
G37*
%LPD*%
%LPC*%
G36*
X475678Y893785D02*
X475678Y893785D01*
X474785Y894678D01*
X474785Y908522D01*
X475678Y909415D01*
X489522Y909415D01*
X490415Y908522D01*
X490415Y894678D01*
X489522Y893785D01*
X475678Y893785D01*
G37*
%LPD*%
%LPC*%
G36*
X366596Y562935D02*
X366596Y562935D01*
X363448Y564239D01*
X361039Y566648D01*
X359735Y569796D01*
X359735Y573204D01*
X361039Y576352D01*
X363448Y578761D01*
X366596Y580065D01*
X370004Y580065D01*
X373152Y578761D01*
X375561Y576352D01*
X376865Y573204D01*
X376865Y569796D01*
X375561Y566648D01*
X373152Y564239D01*
X370004Y562935D01*
X366596Y562935D01*
G37*
%LPD*%
%LPC*%
G36*
X163396Y359735D02*
X163396Y359735D01*
X160248Y361039D01*
X157839Y363448D01*
X156535Y366596D01*
X156535Y370004D01*
X157839Y373152D01*
X160248Y375561D01*
X163396Y376865D01*
X166804Y376865D01*
X169952Y375561D01*
X172361Y373152D01*
X173665Y370004D01*
X173665Y366596D01*
X172361Y363448D01*
X169952Y361039D01*
X166804Y359735D01*
X163396Y359735D01*
G37*
%LPD*%
%LPC*%
G36*
X188796Y562935D02*
X188796Y562935D01*
X185648Y564239D01*
X183239Y566648D01*
X181935Y569796D01*
X181935Y573204D01*
X183239Y576352D01*
X185648Y578761D01*
X188796Y580065D01*
X192204Y580065D01*
X195352Y578761D01*
X197761Y576352D01*
X199065Y573204D01*
X199065Y569796D01*
X197761Y566648D01*
X195352Y564239D01*
X192204Y562935D01*
X188796Y562935D01*
G37*
%LPD*%
%LPC*%
G36*
X239596Y562935D02*
X239596Y562935D01*
X236448Y564239D01*
X234039Y566648D01*
X232735Y569796D01*
X232735Y573204D01*
X234039Y576352D01*
X236448Y578761D01*
X239596Y580065D01*
X243004Y580065D01*
X246152Y578761D01*
X248561Y576352D01*
X249865Y573204D01*
X249865Y569796D01*
X248561Y566648D01*
X246152Y564239D01*
X243004Y562935D01*
X239596Y562935D01*
G37*
%LPD*%
%LPC*%
G36*
X264996Y562935D02*
X264996Y562935D01*
X261848Y564239D01*
X259439Y566648D01*
X258135Y569796D01*
X258135Y573204D01*
X259439Y576352D01*
X261848Y578761D01*
X264996Y580065D01*
X268404Y580065D01*
X271552Y578761D01*
X273961Y576352D01*
X275265Y573204D01*
X275265Y569796D01*
X273961Y566648D01*
X271552Y564239D01*
X268404Y562935D01*
X264996Y562935D01*
G37*
%LPD*%
%LPC*%
G36*
X290396Y562935D02*
X290396Y562935D01*
X287248Y564239D01*
X284839Y566648D01*
X283535Y569796D01*
X283535Y573204D01*
X284839Y576352D01*
X287248Y578761D01*
X290396Y580065D01*
X293804Y580065D01*
X296952Y578761D01*
X299361Y576352D01*
X300665Y573204D01*
X300665Y569796D01*
X299361Y566648D01*
X296952Y564239D01*
X293804Y562935D01*
X290396Y562935D01*
G37*
%LPD*%
%LPC*%
G36*
X315796Y562935D02*
X315796Y562935D01*
X312648Y564239D01*
X310239Y566648D01*
X308935Y569796D01*
X308935Y573204D01*
X310239Y576352D01*
X312648Y578761D01*
X315796Y580065D01*
X319204Y580065D01*
X322352Y578761D01*
X324761Y576352D01*
X326065Y573204D01*
X326065Y569796D01*
X324761Y566648D01*
X322352Y564239D01*
X319204Y562935D01*
X315796Y562935D01*
G37*
%LPD*%
%LPC*%
G36*
X341196Y562935D02*
X341196Y562935D01*
X338048Y564239D01*
X335639Y566648D01*
X334335Y569796D01*
X334335Y573204D01*
X335639Y576352D01*
X338048Y578761D01*
X341196Y580065D01*
X344604Y580065D01*
X347752Y578761D01*
X350161Y576352D01*
X351465Y573204D01*
X351465Y569796D01*
X350161Y566648D01*
X347752Y564239D01*
X344604Y562935D01*
X341196Y562935D01*
G37*
%LPD*%
%LPC*%
G36*
X341196Y359735D02*
X341196Y359735D01*
X338048Y361039D01*
X335639Y363448D01*
X334335Y366596D01*
X334335Y370004D01*
X335639Y373152D01*
X338048Y375561D01*
X341196Y376865D01*
X344604Y376865D01*
X347752Y375561D01*
X350161Y373152D01*
X351465Y370004D01*
X351465Y366596D01*
X350161Y363448D01*
X347752Y361039D01*
X344604Y359735D01*
X341196Y359735D01*
G37*
%LPD*%
%LPC*%
G36*
X391996Y562935D02*
X391996Y562935D01*
X388848Y564239D01*
X386439Y566648D01*
X385135Y569796D01*
X385135Y573204D01*
X386439Y576352D01*
X388848Y578761D01*
X391996Y580065D01*
X395404Y580065D01*
X398552Y578761D01*
X400961Y576352D01*
X402265Y573204D01*
X402265Y569796D01*
X400961Y566648D01*
X398552Y564239D01*
X395404Y562935D01*
X391996Y562935D01*
G37*
%LPD*%
%LPC*%
G36*
X163396Y562935D02*
X163396Y562935D01*
X160248Y564239D01*
X157839Y566648D01*
X156535Y569796D01*
X156535Y573204D01*
X157839Y576352D01*
X160248Y578761D01*
X163396Y580065D01*
X166804Y580065D01*
X169952Y578761D01*
X172361Y576352D01*
X173665Y573204D01*
X173665Y569796D01*
X172361Y566648D01*
X169952Y564239D01*
X166804Y562935D01*
X163396Y562935D01*
G37*
%LPD*%
%LPC*%
G36*
X366596Y359735D02*
X366596Y359735D01*
X363448Y361039D01*
X361039Y363448D01*
X359735Y366596D01*
X359735Y370004D01*
X361039Y373152D01*
X363448Y375561D01*
X366596Y376865D01*
X370004Y376865D01*
X373152Y375561D01*
X375561Y373152D01*
X376865Y370004D01*
X376865Y366596D01*
X375561Y363448D01*
X373152Y361039D01*
X370004Y359735D01*
X366596Y359735D01*
G37*
%LPD*%
%LPC*%
G36*
X391996Y359735D02*
X391996Y359735D01*
X388848Y361039D01*
X386439Y363448D01*
X385135Y366596D01*
X385135Y370004D01*
X386439Y373152D01*
X388848Y375561D01*
X391996Y376865D01*
X395404Y376865D01*
X398552Y375561D01*
X400961Y373152D01*
X402265Y370004D01*
X402265Y366596D01*
X400961Y363448D01*
X398552Y361039D01*
X395404Y359735D01*
X391996Y359735D01*
G37*
%LPD*%
%LPC*%
G36*
X417396Y359735D02*
X417396Y359735D01*
X414248Y361039D01*
X411839Y363448D01*
X410535Y366596D01*
X410535Y370004D01*
X411839Y373152D01*
X414248Y375561D01*
X417396Y376865D01*
X420804Y376865D01*
X423952Y375561D01*
X426361Y373152D01*
X427665Y370004D01*
X427665Y366596D01*
X426361Y363448D01*
X423952Y361039D01*
X420804Y359735D01*
X417396Y359735D01*
G37*
%LPD*%
%LPC*%
G36*
X442796Y359735D02*
X442796Y359735D01*
X439648Y361039D01*
X437239Y363448D01*
X435935Y366596D01*
X435935Y370004D01*
X437239Y373152D01*
X439648Y375561D01*
X442796Y376865D01*
X446204Y376865D01*
X449352Y375561D01*
X451761Y373152D01*
X453065Y370004D01*
X453065Y366596D01*
X451761Y363448D01*
X449352Y361039D01*
X446204Y359735D01*
X442796Y359735D01*
G37*
%LPD*%
%LPC*%
G36*
X264996Y359735D02*
X264996Y359735D01*
X261848Y361039D01*
X259439Y363448D01*
X258135Y366596D01*
X258135Y370004D01*
X259439Y373152D01*
X261848Y375561D01*
X264996Y376865D01*
X268404Y376865D01*
X271552Y375561D01*
X273961Y373152D01*
X275265Y370004D01*
X275265Y366596D01*
X273961Y363448D01*
X271552Y361039D01*
X268404Y359735D01*
X264996Y359735D01*
G37*
%LPD*%
%LPC*%
G36*
X290396Y359735D02*
X290396Y359735D01*
X287248Y361039D01*
X284839Y363448D01*
X283535Y366596D01*
X283535Y370004D01*
X284839Y373152D01*
X287248Y375561D01*
X290396Y376865D01*
X293804Y376865D01*
X296952Y375561D01*
X299361Y373152D01*
X300665Y370004D01*
X300665Y366596D01*
X299361Y363448D01*
X296952Y361039D01*
X293804Y359735D01*
X290396Y359735D01*
G37*
%LPD*%
%LPC*%
G36*
X315796Y359735D02*
X315796Y359735D01*
X312648Y361039D01*
X310239Y363448D01*
X308935Y366596D01*
X308935Y370004D01*
X310239Y373152D01*
X312648Y375561D01*
X315796Y376865D01*
X319204Y376865D01*
X322352Y375561D01*
X324761Y373152D01*
X326065Y370004D01*
X326065Y366596D01*
X324761Y363448D01*
X322352Y361039D01*
X319204Y359735D01*
X315796Y359735D01*
G37*
%LPD*%
%LPC*%
G36*
X61796Y359735D02*
X61796Y359735D01*
X58648Y361039D01*
X56239Y363448D01*
X54935Y366596D01*
X54935Y370004D01*
X56239Y373152D01*
X58648Y375561D01*
X61796Y376865D01*
X65204Y376865D01*
X68352Y375561D01*
X70761Y373152D01*
X72065Y370004D01*
X72065Y366596D01*
X70761Y363448D01*
X68352Y361039D01*
X65204Y359735D01*
X61796Y359735D01*
G37*
%LPD*%
%LPC*%
G36*
X112596Y359735D02*
X112596Y359735D01*
X109448Y361039D01*
X107039Y363448D01*
X105735Y366596D01*
X105735Y370004D01*
X107039Y373152D01*
X109448Y375561D01*
X112596Y376865D01*
X116004Y376865D01*
X119152Y375561D01*
X121561Y373152D01*
X122865Y370004D01*
X122865Y366596D01*
X121561Y363448D01*
X119152Y361039D01*
X116004Y359735D01*
X112596Y359735D01*
G37*
%LPD*%
%LPC*%
G36*
X239596Y359735D02*
X239596Y359735D01*
X236448Y361039D01*
X234039Y363448D01*
X232735Y366596D01*
X232735Y370004D01*
X234039Y373152D01*
X236448Y375561D01*
X239596Y376865D01*
X243004Y376865D01*
X246152Y375561D01*
X248561Y373152D01*
X249865Y370004D01*
X249865Y366596D01*
X248561Y363448D01*
X246152Y361039D01*
X243004Y359735D01*
X239596Y359735D01*
G37*
%LPD*%
%LPC*%
G36*
X1175193Y334771D02*
X1175193Y334771D01*
X1170431Y339533D01*
X1170431Y346267D01*
X1175193Y351029D01*
X1181927Y351029D01*
X1186689Y346267D01*
X1186689Y339533D01*
X1181927Y334771D01*
X1175193Y334771D01*
G37*
%LPD*%
%LPC*%
G36*
X1175193Y233171D02*
X1175193Y233171D01*
X1170431Y237933D01*
X1170431Y244667D01*
X1175193Y249429D01*
X1181927Y249429D01*
X1186689Y244667D01*
X1186689Y237933D01*
X1181927Y233171D01*
X1175193Y233171D01*
G37*
%LPD*%
%LPC*%
G36*
X1200593Y334771D02*
X1200593Y334771D01*
X1195831Y339533D01*
X1195831Y346267D01*
X1200593Y351029D01*
X1207327Y351029D01*
X1212089Y346267D01*
X1212089Y339533D01*
X1207327Y334771D01*
X1200593Y334771D01*
G37*
%LPD*%
%LPC*%
G36*
X481046Y817785D02*
X481046Y817785D01*
X478173Y818975D01*
X475975Y821173D01*
X474785Y824046D01*
X474785Y827154D01*
X475975Y830027D01*
X478173Y832225D01*
X481046Y833415D01*
X484154Y833415D01*
X487027Y832225D01*
X489225Y830027D01*
X490415Y827154D01*
X490415Y824046D01*
X489225Y821173D01*
X487027Y818975D01*
X484154Y817785D01*
X481046Y817785D01*
G37*
%LPD*%
%LPC*%
G36*
X481046Y839785D02*
X481046Y839785D01*
X478173Y840975D01*
X475975Y843173D01*
X474785Y846046D01*
X474785Y849154D01*
X475975Y852027D01*
X478173Y854225D01*
X481046Y855415D01*
X484154Y855415D01*
X487027Y854225D01*
X489225Y852027D01*
X490415Y849154D01*
X490415Y846046D01*
X489225Y843173D01*
X487027Y840975D01*
X484154Y839785D01*
X481046Y839785D01*
G37*
%LPD*%
%LPC*%
G36*
X531846Y817785D02*
X531846Y817785D01*
X528973Y818975D01*
X526775Y821173D01*
X525585Y824046D01*
X525585Y827154D01*
X526775Y830027D01*
X528973Y832225D01*
X531846Y833415D01*
X534954Y833415D01*
X537827Y832225D01*
X540025Y830027D01*
X541215Y827154D01*
X541215Y824046D01*
X540025Y821173D01*
X537827Y818975D01*
X534954Y817785D01*
X531846Y817785D01*
G37*
%LPD*%
%LPC*%
G36*
X531846Y839785D02*
X531846Y839785D01*
X528973Y840975D01*
X526775Y843173D01*
X525585Y846046D01*
X525585Y849154D01*
X526775Y852027D01*
X528973Y854225D01*
X531846Y855415D01*
X534954Y855415D01*
X537827Y854225D01*
X540025Y852027D01*
X541215Y849154D01*
X541215Y846046D01*
X540025Y843173D01*
X537827Y840975D01*
X534954Y839785D01*
X531846Y839785D01*
G37*
%LPD*%
%LPC*%
G36*
X481046Y861785D02*
X481046Y861785D01*
X478173Y862975D01*
X475975Y865173D01*
X474785Y868046D01*
X474785Y871154D01*
X475975Y874027D01*
X478173Y876225D01*
X481046Y877415D01*
X484154Y877415D01*
X487027Y876225D01*
X489225Y874027D01*
X490415Y871154D01*
X490415Y868046D01*
X489225Y865173D01*
X487027Y862975D01*
X484154Y861785D01*
X481046Y861785D01*
G37*
%LPD*%
%LPC*%
G36*
X531846Y861785D02*
X531846Y861785D01*
X528973Y862975D01*
X526775Y865173D01*
X525585Y868046D01*
X525585Y871154D01*
X526775Y874027D01*
X528973Y876225D01*
X531846Y877415D01*
X534954Y877415D01*
X537827Y876225D01*
X540025Y874027D01*
X541215Y871154D01*
X541215Y868046D01*
X540025Y865173D01*
X537827Y862975D01*
X534954Y861785D01*
X531846Y861785D01*
G37*
%LPD*%
%LPC*%
G36*
X167385Y1056385D02*
X167385Y1056385D01*
X167385Y1070619D01*
X168805Y1070158D01*
X170159Y1069468D01*
X171388Y1068575D01*
X172463Y1067500D01*
X173356Y1066271D01*
X174046Y1064917D01*
X174515Y1063472D01*
X174753Y1061972D01*
X174753Y1056385D01*
X167385Y1056385D01*
G37*
%LPD*%
%LPC*%
G36*
X167385Y1051815D02*
X167385Y1051815D01*
X174753Y1051815D01*
X174753Y1046228D01*
X174515Y1044728D01*
X174046Y1043283D01*
X173356Y1041929D01*
X172463Y1040700D01*
X171388Y1039625D01*
X170159Y1038732D01*
X168805Y1038042D01*
X167385Y1037581D01*
X167385Y1051815D01*
G37*
%LPD*%
%LPC*%
G36*
X155447Y1056385D02*
X155447Y1056385D01*
X155447Y1061972D01*
X155685Y1063472D01*
X156154Y1064917D01*
X156844Y1066271D01*
X157737Y1067500D01*
X158812Y1068575D01*
X160041Y1069468D01*
X161395Y1070158D01*
X162815Y1070619D01*
X162815Y1056385D01*
X155447Y1056385D01*
G37*
%LPD*%
%LPC*%
G36*
X161395Y1038042D02*
X161395Y1038042D01*
X160041Y1038732D01*
X158812Y1039625D01*
X157737Y1040700D01*
X156844Y1041929D01*
X156154Y1043283D01*
X155685Y1044728D01*
X155447Y1046228D01*
X155447Y1051815D01*
X162815Y1051815D01*
X162815Y1037581D01*
X161395Y1038042D01*
G37*
%LPD*%
%LPC*%
G36*
X1196085Y495045D02*
X1196085Y495045D01*
X1196085Y502667D01*
X1197755Y502667D01*
X1203707Y496715D01*
X1203707Y495045D01*
X1196085Y495045D01*
G37*
%LPD*%
%LPC*%
G36*
X1183385Y495045D02*
X1183385Y495045D01*
X1183385Y496715D01*
X1189337Y502667D01*
X1191007Y502667D01*
X1191007Y495045D01*
X1183385Y495045D01*
G37*
%LPD*%
%LPC*%
G36*
X1196085Y482345D02*
X1196085Y482345D01*
X1196085Y489967D01*
X1203707Y489967D01*
X1203707Y488297D01*
X1197755Y482345D01*
X1196085Y482345D01*
G37*
%LPD*%
%LPC*%
G36*
X1189337Y482345D02*
X1189337Y482345D01*
X1183385Y488297D01*
X1183385Y489967D01*
X1191007Y489967D01*
X1191007Y482345D01*
X1189337Y482345D01*
G37*
%LPD*%
%LPC*%
G36*
X1205991Y243331D02*
X1205991Y243331D01*
X1205991Y250445D01*
X1207748Y250445D01*
X1213105Y245088D01*
X1213105Y243331D01*
X1205991Y243331D01*
G37*
%LPD*%
%LPC*%
G36*
X1205991Y232155D02*
X1205991Y232155D01*
X1205991Y239269D01*
X1213105Y239269D01*
X1213105Y237512D01*
X1207748Y232155D01*
X1205991Y232155D01*
G37*
%LPD*%
%LPC*%
G36*
X1194815Y243331D02*
X1194815Y243331D01*
X1194815Y245088D01*
X1200172Y250445D01*
X1201929Y250445D01*
X1201929Y243331D01*
X1194815Y243331D01*
G37*
%LPD*%
%LPC*%
G36*
X1200172Y232155D02*
X1200172Y232155D01*
X1194815Y237512D01*
X1194815Y239269D01*
X1201929Y239269D01*
X1201929Y232155D01*
X1200172Y232155D01*
G37*
%LPD*%
%LPC*%
G36*
X1196276Y650684D02*
X1196276Y650684D01*
X1196276Y657954D01*
X1197652Y657507D01*
X1199059Y656790D01*
X1200337Y655861D01*
X1201453Y654745D01*
X1202382Y653467D01*
X1203099Y652060D01*
X1203546Y650684D01*
X1196276Y650684D01*
G37*
%LPD*%
%LPC*%
G36*
X1196276Y645732D02*
X1196276Y645732D01*
X1203546Y645732D01*
X1203099Y644356D01*
X1202382Y642949D01*
X1201453Y641671D01*
X1200337Y640555D01*
X1199059Y639626D01*
X1197652Y638909D01*
X1196276Y638462D01*
X1196276Y645732D01*
G37*
%LPD*%
%LPC*%
G36*
X1184054Y650684D02*
X1184054Y650684D01*
X1184501Y652060D01*
X1185218Y653467D01*
X1186147Y654745D01*
X1187263Y655861D01*
X1188541Y656790D01*
X1189948Y657507D01*
X1191324Y657954D01*
X1191324Y650684D01*
X1184054Y650684D01*
G37*
%LPD*%
%LPC*%
G36*
X1189948Y638909D02*
X1189948Y638909D01*
X1188541Y639626D01*
X1187263Y640555D01*
X1186147Y641671D01*
X1185218Y642949D01*
X1184501Y644356D01*
X1184054Y645732D01*
X1191324Y645732D01*
X1191324Y638462D01*
X1189948Y638909D01*
G37*
%LPD*%
%LPC*%
G36*
X141949Y370549D02*
X141949Y370549D01*
X141949Y377643D01*
X143378Y377179D01*
X144721Y376494D01*
X145941Y375608D01*
X147008Y374541D01*
X147894Y373321D01*
X148579Y371978D01*
X149043Y370549D01*
X141949Y370549D01*
G37*
%LPD*%
%LPC*%
G36*
X130357Y370549D02*
X130357Y370549D01*
X130821Y371978D01*
X131506Y373321D01*
X132392Y374541D01*
X133459Y375608D01*
X134679Y376494D01*
X136022Y377179D01*
X137451Y377643D01*
X137451Y370549D01*
X130357Y370549D01*
G37*
%LPD*%
%LPC*%
G36*
X141949Y366051D02*
X141949Y366051D01*
X149043Y366051D01*
X148579Y364622D01*
X147894Y363279D01*
X147008Y362059D01*
X145941Y360992D01*
X144721Y360106D01*
X143378Y359421D01*
X141949Y358957D01*
X141949Y366051D01*
G37*
%LPD*%
%LPC*%
G36*
X136022Y359421D02*
X136022Y359421D01*
X134679Y360106D01*
X133459Y360992D01*
X132392Y362059D01*
X131506Y363279D01*
X130821Y364622D01*
X130357Y366051D01*
X137451Y366051D01*
X137451Y358957D01*
X136022Y359421D01*
G37*
%LPD*%
%LPC*%
G36*
X1193545Y492505D02*
X1193545Y492505D01*
X1193545Y492507D01*
X1193547Y492507D01*
X1193547Y492505D01*
X1193545Y492505D01*
G37*
%LPD*%
D10*
X63500Y368300D03*
X88900Y368300D03*
X114300Y368300D03*
X139700Y368300D03*
X165100Y368300D03*
X190500Y368300D03*
X215900Y368300D03*
X241300Y368300D03*
X266700Y368300D03*
X292100Y368300D03*
X317500Y368300D03*
X342900Y368300D03*
X368300Y368300D03*
X393700Y368300D03*
X419100Y368300D03*
X444500Y368300D03*
X444500Y571500D03*
X419100Y571500D03*
X393700Y571500D03*
X368300Y571500D03*
X342900Y571500D03*
X317500Y571500D03*
X292100Y571500D03*
X266700Y571500D03*
X241300Y571500D03*
X215900Y571500D03*
X190500Y571500D03*
X165100Y571500D03*
D11*
X38100Y259080D03*
X38100Y248920D03*
D12*
X77978Y254000D03*
X88138Y254000D03*
D13*
X139700Y197612D02*
X139700Y183388D01*
X165100Y183388D02*
X165100Y197612D01*
D14*
X482600Y901600D03*
D15*
X482600Y869600D03*
X482600Y847600D03*
X482600Y825600D03*
X533400Y825600D03*
X533400Y847600D03*
X533400Y869600D03*
X533400Y901600D03*
D16*
X1178560Y241300D03*
X1203960Y241300D03*
X1178560Y342900D03*
X1203960Y342900D03*
D12*
X1193800Y673100D03*
X1193800Y648208D03*
X1193800Y697992D03*
D17*
X1160780Y721614D03*
X1160780Y624586D03*
D18*
X1193546Y447294D03*
X1193546Y492506D03*
D19*
X1168654Y434848D03*
X1168654Y504952D03*
D13*
X190500Y1046988D02*
X190500Y1061212D01*
X165100Y1061212D02*
X165100Y1046988D01*
X139700Y1046988D02*
X139700Y1061212D01*
D20*
X1028700Y1155700D03*
X1028700Y1168400D03*
X1028700Y1143000D03*
X1028700Y1130300D03*
X1016000Y1155700D03*
X1041400Y1155700D03*
X279400Y342900D03*
D21*
X1079500Y342900D01*
D20*
X1079500Y342900D03*
X1079500Y480060D03*
D21*
X1079500Y342900D01*
D22*
X88900Y368300D02*
X88900Y584200D01*
X101600Y596900D01*
X177800Y596900D01*
X193040Y612140D01*
X193040Y728980D01*
X193040Y830580D01*
X193040Y922020D01*
X210820Y939800D01*
X520700Y939800D01*
X533400Y927100D01*
X533400Y901600D01*
D20*
X193040Y728980D03*
X193040Y830580D03*
X241300Y546100D03*
D21*
X431800Y546100D01*
X444500Y558800D01*
X444500Y571500D01*
D20*
X215900Y228600D03*
D21*
X204288Y363490D02*
X204288Y373110D01*
X215900Y351878D02*
X215900Y228600D01*
X215900Y384722D02*
X215900Y571500D01*
X204288Y363490D02*
X215900Y351878D01*
X204288Y373110D02*
X215900Y384722D01*
D22*
X215900Y533400D02*
X215900Y571500D01*
X215900Y533400D02*
X228600Y520700D01*
X812800Y520700D01*
X828040Y535940D02*
X828040Y853440D01*
X828040Y535940D02*
X812800Y520700D01*
D20*
X828040Y853440D03*
X673100Y876300D03*
D21*
X944880Y876300D01*
X949960Y871220D01*
X949960Y784860D01*
D20*
X949960Y784860D03*
X1104900Y647700D03*
D21*
X1104900Y685800D01*
X1117600Y698500D01*
X1193292Y698500D01*
X1193800Y697992D01*
X419100Y571500D02*
X419100Y914400D01*
D20*
X419100Y914400D03*
M02*
