M48
;GenerationSoftware,Autodesk,EAGLE,9.6.2*%
;CreationDate,2021-12-05T23:18:40Z*%
FMAT,2
ICI,OFF
METRIC,TZ,000.000
T12C0.381
T11C0.750
T10C0.813
T9C0.900
T8C0.914
T7C0.991
T6C1.016
T5C1.194
T4C1.499
T3C1.700
T2C2.159
T1C3.505
%
G90
M71
T1
X93294Y99212
X61138Y99212
X29007Y99212
X93294Y22809
X61138Y22809
X29007Y22809
T2
X116078Y62459
X116078Y72161
T3
X12386Y96520
X5386Y96520
X12386Y68580
X5386Y68580
X12386Y82550
X5386Y82550
X110042Y86360
X117042Y86360
T4
X116865Y50495
X116865Y43485
T5
X3810Y25908
X3810Y24892
T6
X119355Y44729
X119355Y49251
T7
X7798Y25400
X8814Y25400
X119380Y67310
X119380Y64821
X119380Y69799
T8
X13970Y19050
X16510Y19050
X19050Y105410
X16510Y105410
X13970Y105410
T9
X6350Y36830
X8890Y36830
X11430Y36830
X13970Y36830
X16510Y36830
X19050Y36830
X21590Y36830
X24130Y36830
X26670Y36830
X29210Y36830
X31750Y36830
X34290Y36830
X36830Y36830
X39370Y36830
X41910Y36830
X44450Y36830
X44450Y57150
X41910Y57150
X39370Y57150
X36830Y57150
X34290Y57150
X31750Y57150
X29210Y57150
X26670Y57150
X24130Y57150
X21590Y57150
X19050Y57150
X16510Y57150
T10
X120396Y34290
X117856Y34290
X120396Y24130
X117856Y24130
T11
X53340Y90160
X53340Y86960
X48260Y90160
X48260Y86960
X48260Y84760
X48260Y82560
X53340Y82560
X53340Y84760
T12
X21590Y22860
X82804Y85344
X67310Y87630
X94996Y78486
X110490Y64770
X41910Y91440
X24130Y54610
X19304Y83058
X19304Y72898
X107950Y48006
X107950Y34290
X27940Y34290
X104140Y115570
X101600Y115570
X102870Y113030
X102870Y114300
X102870Y116840
X102870Y115570
M30